<svg xmlns="http://www.w3.org/2000/svg" xmlns:xlink="http://www.w3.org/1999/xlink" width="113" height="113" viewBox="0 0 113 113">
  <defs>
    <filter id="Trazado_982547" x="0" y="0" width="113" height="113" filterUnits="userSpaceOnUse">
      <feOffset dy="3" input="SourceAlpha"/>
      <feGaussianBlur stdDeviation="3" result="blur"/>
      <feFlood flood-opacity="0.161"/>
      <feComposite operator="in" in2="blur"/>
      <feComposite in="SourceGraphic"/>
    </filter>
  </defs>
  <g id="Grupo_1236925" data-name="Grupo 1236925" transform="translate(-743.5 -1342.76)">
    <g id="Grupo_1235706" data-name="Grupo 1235706" transform="translate(0 26.047)">
      <g id="Grupo_1223811" data-name="Grupo 1223811" transform="translate(0 -108)">
        <g id="Grupo_1211532" data-name="Grupo 1211532" transform="translate(418.729 -678)">
          <g id="Grupo_1210969" data-name="Grupo 1210969" transform="translate(333.771 2108.712)">
            <g id="Grupo_1210937" data-name="Grupo 1210937" transform="translate(0 0)">
              <g id="Grupo_1174742" data-name="Grupo 1174742">
                <g id="Grupo_1163948" data-name="Grupo 1163948">
                  <g id="Grupo_1158168" data-name="Grupo 1158168" transform="translate(0)">
                    <g id="Grupo_1152576" data-name="Grupo 1152576">
                      <g id="Grupo_1148633" data-name="Grupo 1148633">
                        <g id="Grupo_1148525" data-name="Grupo 1148525">
                          <g transform="matrix(1, 0, 0, 1, -9, -6)" filter="url(#Trazado_982547)">
                            <g id="Trazado_982547-2" data-name="Trazado 982547" transform="translate(9 6)" fill="#fbe7b2">
                              <path d="M 47.5 93.5 C 41.28937149047852 93.5 35.26533508300781 92.28397369384766 29.59518623352051 89.88570404052734 C 24.11771965026855 87.56893157958984 19.19813346862793 84.25196075439453 14.97309303283691 80.02691650390625 C 10.74804019927979 75.80186462402344 7.431066513061523 70.88229370117188 5.114293098449707 65.40481567382812 C 2.716026782989502 59.73468017578125 1.5 53.71062850952148 1.5 47.5 C 1.5 41.28937149047852 2.716026782989502 35.26533508300781 5.114293098449707 29.59518623352051 C 7.431066513061523 24.11771965026855 10.74804019927979 19.19813346862793 14.97309303283691 14.97309303283691 C 19.19813346862793 10.74804019927979 24.11771965026855 7.431066513061523 29.59518623352051 5.114293098449707 C 35.26533508300781 2.716026782989502 41.28937149047852 1.5 47.5 1.5 C 53.71062850952148 1.5 59.73468017578125 2.716026782989502 65.40481567382812 5.114293098449707 C 70.88229370117188 7.431066513061523 75.80186462402344 10.74804019927979 80.02691650390625 14.97309303283691 C 84.25196075439453 19.19813346862793 87.56893157958984 24.11771965026855 89.88570404052734 29.59518623352051 C 92.28397369384766 35.26533508300781 93.5 41.28937149047852 93.5 47.5 C 93.5 53.71062850952148 92.28397369384766 59.73468017578125 89.88570404052734 65.40481567382812 C 87.56893157958984 70.88229370117188 84.25196075439453 75.80186462402344 80.02691650390625 80.02691650390625 C 75.80186462402344 84.25196075439453 70.88229370117188 87.56893157958984 65.40481567382812 89.88570404052734 C 59.73468017578125 92.28397369384766 53.71062850952148 93.5 47.5 93.5 Z" stroke="none"/>
                              <path d="M 47.5 3 C 41.49121475219727 3 35.66376876831055 4.176155090332031 30.17950439453125 6.495796203613281 C 24.88084411621094 8.736953735351562 20.12152099609375 11.94598388671875 16.03375244140625 16.03375244140625 C 11.94598388671875 20.12152099609375 8.736953735351562 24.88084411621094 6.495796203613281 30.17950439453125 C 4.176155090332031 35.66376876831055 3 41.49121475219727 3 47.5 C 3 53.50878524780273 4.176155090332031 59.33623123168945 6.495796203613281 64.82049560546875 C 8.736953735351562 70.11915588378906 11.94598388671875 74.87847900390625 16.03375244140625 78.96624755859375 C 20.12152099609375 83.05401611328125 24.88084411621094 86.26304626464844 30.17950439453125 88.50419616699219 C 35.66376876831055 90.82384490966797 41.49121475219727 92 47.5 92 C 53.50878524780273 92 59.33623123168945 90.82384490966797 64.82049560546875 88.50419616699219 C 70.11915588378906 86.26304626464844 74.87847900390625 83.05401611328125 78.96624755859375 78.96624755859375 C 83.05401611328125 74.87847900390625 86.26304626464844 70.11915588378906 88.50419616699219 64.82049560546875 C 90.82384490966797 59.33623123168945 92 53.50878524780273 92 47.5 C 92 41.49121475219727 90.82384490966797 35.66376876831055 88.50419616699219 30.17950439453125 C 86.26304626464844 24.88084411621094 83.05401611328125 20.12152099609375 78.96624755859375 16.03375244140625 C 74.87847900390625 11.94598388671875 70.11915588378906 8.736953735351562 64.82049560546875 6.495796203613281 C 59.33623123168945 4.176155090332031 53.50878524780273 3 47.5 3 M 47.5 0 C 73.7335205078125 0 95 21.2664794921875 95 47.5 C 95 73.7335205078125 73.7335205078125 95 47.5 95 C 21.2664794921875 95 0 73.7335205078125 0 47.5 C 0 21.2664794921875 21.2664794921875 0 47.5 0 Z" stroke="none" fill="#f5b104"/>
                            </g>
                          </g>
                        </g>
                      </g>
                    </g>
                  </g>
                </g>
              </g>
            </g>
          </g>
        </g>
      </g>
    </g>
    <g id="sincronizacion-de-datos" transform="translate(730.055 1362.652)">
      <g id="Grupo_1236923" data-name="Grupo 1236923" transform="translate(44.903 0.985)">
        <g id="Grupo_1236916" data-name="Grupo 1236916" transform="translate(10.198)">
          <g id="Grupo_1236912" data-name="Grupo 1236912">
            <path id="Trazado_1237325" data-name="Trazado 1237325" d="M172.615,15.854V37.782a2.968,2.968,0,0,1-2.969,2.969H145.9a2.968,2.968,0,0,1-2.969-2.969V10.469A2.968,2.968,0,0,1,145.9,7.5h18.365a2.8,2.8,0,0,1,.487.042,2.954,2.954,0,0,1,1.612.828l5.385,5.385a2.955,2.955,0,0,1,.828,1.612A2.786,2.786,0,0,1,172.615,15.854Z" transform="translate(-142.927 -7.5)" fill="#ffe07d"/>
          </g>
          <g id="Grupo_1236913" data-name="Grupo 1236913" transform="translate(17.961 0)">
            <path id="Trazado_1237326" data-name="Trazado 1237326" d="M291.428,15.368a2.955,2.955,0,0,0-.828-1.612l-5.385-5.385a2.955,2.955,0,0,0-1.612-.828,2.8,2.8,0,0,0-.487-.042h-3.373v6.383a5.344,5.344,0,0,0,5.344,5.344h1.039a1.484,1.484,0,0,1,1.484,1.484v17.07a2.968,2.968,0,0,1-2.969,2.969H288.5a2.969,2.969,0,0,0,2.969-2.969V15.855A2.8,2.8,0,0,0,291.428,15.368Z" transform="translate(-279.743 -7.501)" fill="#ffd064"/>
          </g>
          <g id="Grupo_1236914" data-name="Grupo 1236914" transform="translate(21.821 0.042)">
            <path id="Trazado_1237327" data-name="Trazado 1237327" d="M316.967,15.643h-6.341a1.484,1.484,0,0,1-1.484-1.484V7.817a2.955,2.955,0,0,1,1.612.828l5.385,5.385A2.954,2.954,0,0,1,316.967,15.643Z" transform="translate(-309.141 -7.817)" fill="#ffc250"/>
          </g>
          <g id="Grupo_1236915" data-name="Grupo 1236915" transform="translate(4.75 4.75)">
            <path id="Trazado_1237328" data-name="Trazado 1237328" d="M179.11,43.683h12.745v4.75H179.11Z" transform="translate(-179.11 -43.683)" fill="#b3e59f"/>
          </g>
        </g>
        <g id="Grupo_1236919" data-name="Grupo 1236919" transform="translate(0 19)">
          <g id="Grupo_1236917" data-name="Grupo 1236917">
            <path id="Trazado_1237329" data-name="Trazado 1237329" d="M108.68,162.417a5.757,5.757,0,0,0-8.153-6.343,15.556,15.556,0,0,0-24.5,5.49,10.887,10.887,0,0,0,.105,21.773h28.308a10.889,10.889,0,0,0,4.237-20.92Z" transform="translate(-65.248 -152.23)" fill="#e6f7fe"/>
          </g>
          <g id="Grupo_1236918" data-name="Grupo 1236918" transform="translate(6.389 3.596)">
            <path id="Trazado_1237330" data-name="Trazado 1237330" d="M118.415,207.133h28.167a11.036,11.036,0,0,0,11.029-10.912,10.891,10.891,0,0,0-6.651-10.008,5.761,5.761,0,0,0-3.715-6.591A27.747,27.747,0,0,1,143.8,190.07a2.414,2.414,0,0,1-2.14,1.214h-.013a3.509,3.509,0,0,0-1.541.357l-1.4.684-.506-1.473a3.514,3.514,0,0,0-3.323-2.372h-4.607a3.514,3.514,0,0,0-3.323,2.372l-.506,1.473-1.4-.684a3.514,3.514,0,0,0-4.027.673l-3.258,3.258a3.514,3.514,0,0,0-.673,4.027l.684,1.4-1.473.506a3.514,3.514,0,0,0-2.372,3.323v1.33A10.838,10.838,0,0,0,118.415,207.133Z" transform="translate(-113.916 -179.621)" fill="#d3effd"/>
          </g>
        </g>
        <g id="Grupo_1236922" data-name="Grupo 1236922" transform="translate(9.903 34.969)">
          <g id="Grupo_1236920" data-name="Grupo 1236920">
            <path id="Trazado_1237331" data-name="Trazado 1237331" d="M166.469,293.411a1.533,1.533,0,0,1,.915-.869l3.577-1.23v-4.607l-3.577-1.23a1.533,1.533,0,0,1-.915-.869l-.005-.013a1.533,1.533,0,0,1,.032-1.262l1.66-3.4-3.258-3.258-3.4,1.66a1.533,1.533,0,0,1-1.262.032l-.013-.005a1.533,1.533,0,0,1-.869-.915l-1.23-3.577h-4.607l-1.23,3.577a1.533,1.533,0,0,1-.869.915l-.013.005a1.533,1.533,0,0,1-1.262-.032l-3.4-1.66-3.258,3.258,1.66,3.4a1.533,1.533,0,0,1,.032,1.262l-.005.013a1.533,1.533,0,0,1-.915.869l-3.577,1.23v4.607l3.577,1.23a1.533,1.533,0,0,1,.915.869l.005.013a1.533,1.533,0,0,1-.032,1.262l-1.66,3.4,3.258,3.258,3.4-1.66a1.533,1.533,0,0,1,1.262-.032l.013.005a1.533,1.533,0,0,1,.869.915l1.23,3.577h4.607l1.23-3.577a1.533,1.533,0,0,1,.869-.915l.013-.005a1.533,1.533,0,0,1,1.262.032l3.4,1.66,3.258-3.258-1.66-3.4a1.533,1.533,0,0,1-.032-1.262Zm-10.647,2.18a6.582,6.582,0,1,1,6.582-6.582A6.582,6.582,0,0,1,155.822,295.592Z" transform="translate(-140.684 -273.871)" fill="#62a4fb"/>
          </g>
          <g id="Grupo_1236921" data-name="Grupo 1236921" transform="translate(2.805 3.48)">
            <path id="Trazado_1237332" data-name="Trazado 1237332" d="M185.031,316.44a1.533,1.533,0,0,1,.915-.869l3.577-1.23v-4.607l-3.577-1.23a1.533,1.533,0,0,1-.915-.869l-.005-.013a1.533,1.533,0,0,1,.032-1.262l1.66-3.4-2.583-2.583a18.048,18.048,0,0,1-3.5,9.593,6.582,6.582,0,0,1-8.9,8.09,14.924,14.924,0,0,1-9.209,2.079l-.474.971,3.258,3.258,3.4-1.66a1.534,1.534,0,0,1,1.262-.032l.013.005a1.533,1.533,0,0,1,.869.915l1.23,3.577h4.607l1.23-3.577a1.533,1.533,0,0,1,.869-.915l.013-.005a1.534,1.534,0,0,1,1.262.032l3.4,1.66,3.258-3.258-1.66-3.4a1.533,1.533,0,0,1-.032-1.262Z" transform="translate(-162.051 -300.379)" fill="#5392f9"/>
          </g>
        </g>
      </g>
      <g id="Grupo_1236924" data-name="Grupo 1236924" transform="translate(41.828 0)">
        <path id="Trazado_1237333" data-name="Trazado 1237333" d="M185.34,36.183H172.595a.985.985,0,0,0-.985.985v4.75a.985.985,0,0,0,.985.985H185.34a.985.985,0,0,0,.985-.985v-4.75A.985.985,0,0,0,185.34,36.183Zm-.985,4.75H173.579V38.152h10.776Z" transform="translate(-154.572 -31.433)"/>
        <path id="Trazado_1237334" data-name="Trazado 1237334" d="M243.975,109.533a.985.985,0,0,0,.985.985h10.688a.985.985,0,0,0,0-1.969H244.96A.985.985,0,0,0,243.975,109.533Z" transform="translate(-217.437 -94.298)"/>
        <path id="Trazado_1237335" data-name="Trazado 1237335" d="M172.595,110.517h4.75a.985.985,0,0,0,0-1.969h-4.75a.985.985,0,1,0,0,1.969Z" transform="translate(-154.572 -94.298)"/>
        <path id="Trazado_1237336" data-name="Trazado 1237336" d="M103.242,29.585q.025-.289.025-.579A6.745,6.745,0,0,0,99.6,23.012V9.339a3.7,3.7,0,0,0-.056-.653,3.909,3.909,0,0,0-1.1-2.142L93.058,1.159a3.908,3.908,0,0,0-2.142-1.1A3.68,3.68,0,0,0,90.263,0H71.9a3.957,3.957,0,0,0-3.953,3.953v8.985a.985.985,0,0,0,1.969,0V3.953A1.986,1.986,0,0,1,71.9,1.969H89.765v5.4a2.472,2.472,0,0,0,2.469,2.469h5.4V22.359a6.758,6.758,0,0,0-1.105-.092,6.679,6.679,0,0,0-2.346.42A16.51,16.51,0,0,0,91.6,20.969h2.268a.985.985,0,1,0,0-1.969h-4.75a.985.985,0,0,0-.909.606A16.54,16.54,0,0,0,83.773,19H73.68a.985.985,0,0,0,0,1.969h2.266a16.544,16.544,0,0,0-6.032,5.545V17.532a.985.985,0,0,0-1.969,0V28.454a11.869,11.869,0,0,0-.295,23.457V53.4a.985.985,0,0,0,.665.931l3.577,1.229a.585.585,0,0,1,.323.781l-1.66,3.4a.985.985,0,0,0,.189,1.128L74,64.122a.984.984,0,0,0,1.128.189l3.4-1.66a.584.584,0,0,1,.78.323l1.229,3.577a.985.985,0,0,0,.931.665h4.607a.985.985,0,0,0,.931-.665l1.229-3.577a.587.587,0,0,1,.781-.323l3.4,1.66a.985.985,0,0,0,1.128-.189L96.8,60.864a.985.985,0,0,0,.189-1.128l-1.66-3.4a.587.587,0,0,1,.323-.781l3.577-1.229A.985.985,0,0,0,99.9,53.4V51.914a11.79,11.79,0,0,0,5.5-2.481.985.985,0,1,0-1.24-1.53A9.83,9.83,0,0,1,99.9,49.912V48.789a.985.985,0,0,0-.665-.931l-3.577-1.23a.585.585,0,0,1-.323-.781l1.66-3.4A.985.985,0,0,0,96.8,41.32l-3.258-3.258a.985.985,0,0,0-1.128-.189l-3.4,1.66a.584.584,0,0,1-.781-.323l-1.229-3.577a.985.985,0,0,0-.931-.665H81.47a.985.985,0,0,0-.931.665l-1.229,3.577a.586.586,0,0,1-.781.323l-3.4-1.66A.985.985,0,0,0,74,38.063L70.744,41.32a.985.985,0,0,0-.189,1.128l1.66,3.4a.586.586,0,0,1-.323.781l-3.577,1.23a.985.985,0,0,0-.665.931v1.121a9.9,9.9,0,0,1,1.873-19.6.985.985,0,0,0,.893-.59,14.571,14.571,0,0,1,22.946-5.143.984.984,0,0,0,1.08.144,4.724,4.724,0,0,1,2.086-.479,4.775,4.775,0,0,1,4.673,5.738.985.985,0,0,0,.581,1.105,9.89,9.89,0,0,1,6.05,9.126,9.781,9.781,0,0,1-1.061,4.462.985.985,0,1,0,1.757.89A11.733,11.733,0,0,0,109.8,40.2a11.854,11.854,0,0,0-6.557-10.619ZM91.735,7.367V2.62l5.247,5.247H92.234A.5.5,0,0,1,91.735,7.367ZM69.62,49.491l2.912-1a2.553,2.553,0,0,0,1.452-3.507l-1.351-2.767L74.9,39.952,77.664,41.3a2.524,2.524,0,0,0,2.072.057l.011,0a2.521,2.521,0,0,0,1.423-1.5l1-2.912h3.2l1,2.912a2.52,2.52,0,0,0,1.423,1.5l.013.005a2.521,2.521,0,0,0,2.071-.057l2.767-1.351,2.264,2.264-1.351,2.767A2.518,2.518,0,0,0,93.5,47.05l.007.016a2.521,2.521,0,0,0,1.5,1.424l2.912,1v3.2l-2.912,1A2.564,2.564,0,0,0,93.563,57.2l1.351,2.767L92.65,62.233l-2.767-1.351a2.553,2.553,0,0,0-3.507,1.452l-1,2.912h-3.2l-1-2.912a2.553,2.553,0,0,0-3.507-1.453L74.9,62.233l-2.264-2.264L73.984,57.2a2.518,2.518,0,0,0,.059-2.067l-.007-.016a2.521,2.521,0,0,0-1.5-1.424l-2.912-1v-3.2Z" transform="translate(-55.657 0)"/>
        <path id="Trazado_1237337" data-name="Trazado 1237337" d="M286.76,315.058l-.007,0h0Z" transform="translate(-254.598 -273.695)"/>
        <path id="Trazado_1237338" data-name="Trazado 1237338" d="M205.926,346.682a7.566,7.566,0,1,0-1.673-14.947.985.985,0,1,0,.437,1.92,5.6,5.6,0,0,1,6.745,4.476H200.415a5.533,5.533,0,0,1,1.04-2.384.985.985,0,1,0-1.571-1.187,7.5,7.5,0,0,0-1.525,4.556A7.575,7.575,0,0,0,205.926,346.682Zm0-1.969a5.606,5.606,0,0,1-5.509-4.612h11.019A5.606,5.606,0,0,1,205.926,344.713Z" transform="translate(-177.81 -288.023)"/>
        <path id="Trazado_1237339" data-name="Trazado 1237339" d="M44.481,82.508a.985.985,0,0,0,.985.985h4.929a.985.985,0,1,0,0-1.969H46.45V71.849l.971.971a.984.984,0,1,0,1.392-1.392l-2.652-2.652a.984.984,0,0,0-1.392,0l-2.652,2.652a.984.984,0,1,0,1.392,1.392l.971-.971v10.66Z" transform="translate(-41.828 -59.496)"/>
        <path id="Trazado_1237340" data-name="Trazado 1237340" d="M406.684,79.159a.985.985,0,0,0-1.392,0l-.971.971V69.471a.985.985,0,0,0-.985-.985h-4.929a.985.985,0,0,0,0,1.969h3.945v9.675l-.971-.971a.985.985,0,0,0-1.392,1.392L402.64,83.2a.985.985,0,0,0,1.392,0l2.652-2.652A.985.985,0,0,0,406.684,79.159Z" transform="translate(-350.74 -59.495)"/>
      </g>
    </g>
  </g>
</svg>
