<svg xmlns="http://www.w3.org/2000/svg" xmlns:xlink="http://www.w3.org/1999/xlink" width="113" height="113" viewBox="0 0 113 113">
  <defs>
    <filter id="Trazado_982547" x="0" y="0" width="113" height="113" filterUnits="userSpaceOnUse">
      <feOffset dy="3" input="SourceAlpha"/>
      <feGaussianBlur stdDeviation="3" result="blur"/>
      <feFlood flood-opacity="0.161"/>
      <feComposite operator="in" in2="blur"/>
      <feComposite in="SourceGraphic"/>
    </filter>
  </defs>
  <g id="Grupo_1237046" data-name="Grupo 1237046" transform="translate(-585 -3970.009)">
    <g id="Grupo_1228500" data-name="Grupo 1228500" transform="translate(0 2589)">
      <g id="Grupo_1228119" data-name="Grupo 1228119" transform="translate(0 -4252.189)">
        <g id="Grupo_1227503" data-name="Grupo 1227503" transform="translate(0 2048.198)">
          <g id="Grupo_1225351" data-name="Grupo 1225351" transform="translate(-1 -393.91)">
            <g id="Grupo_1208122" data-name="Grupo 1208122" transform="translate(0 -1922.377)">
              <g id="Grupo_1202433" data-name="Grupo 1202433" transform="translate(-0.56 1255.773)">
                <g id="Grupo_1202054" data-name="Grupo 1202054" transform="translate(0 3240.511)">
                  <g id="Grupo_1177897" data-name="Grupo 1177897" transform="translate(595.561 1411.003)">
                    <g id="Grupo_1172010" data-name="Grupo 1172010" transform="translate(0)">
                      <g id="Grupo_1171046" data-name="Grupo 1171046">
                        <g id="Grupo_1148525" data-name="Grupo 1148525">
                          <g transform="matrix(1, 0, 0, 1, -9, -6)" filter="url(#Trazado_982547)">
                            <g id="Trazado_982547-2" data-name="Trazado 982547" transform="translate(9 6)" fill="#fbe7b2">
                              <path d="M 47.5 93.5 C 41.28937149047852 93.5 35.26533508300781 92.28397369384766 29.59518623352051 89.88570404052734 C 24.11771965026855 87.56893157958984 19.19813346862793 84.25196075439453 14.97309303283691 80.02691650390625 C 10.74804019927979 75.80186462402344 7.431066513061523 70.88229370117188 5.114293098449707 65.40481567382812 C 2.716026782989502 59.73468017578125 1.5 53.71062850952148 1.5 47.5 C 1.5 41.28937149047852 2.716026782989502 35.26533508300781 5.114293098449707 29.59518623352051 C 7.431066513061523 24.11771965026855 10.74804019927979 19.19813346862793 14.97309303283691 14.97309303283691 C 19.19813346862793 10.74804019927979 24.11771965026855 7.431066513061523 29.59518623352051 5.114293098449707 C 35.26533508300781 2.716026782989502 41.28937149047852 1.5 47.5 1.5 C 53.71062850952148 1.5 59.73468017578125 2.716026782989502 65.40481567382812 5.114293098449707 C 70.88229370117188 7.431066513061523 75.80186462402344 10.74804019927979 80.02691650390625 14.97309303283691 C 84.25196075439453 19.19813346862793 87.56893157958984 24.11771965026855 89.88570404052734 29.59518623352051 C 92.28397369384766 35.26533508300781 93.5 41.28937149047852 93.5 47.5 C 93.5 53.71062850952148 92.28397369384766 59.73468017578125 89.88570404052734 65.40481567382812 C 87.56893157958984 70.88229370117188 84.25196075439453 75.80186462402344 80.02691650390625 80.02691650390625 C 75.80186462402344 84.25196075439453 70.88229370117188 87.56893157958984 65.40481567382812 89.88570404052734 C 59.73468017578125 92.28397369384766 53.71062850952148 93.5 47.5 93.5 Z" stroke="none"/>
                              <path d="M 47.5 3 C 41.49121475219727 3 35.66376876831055 4.176155090332031 30.17950439453125 6.495796203613281 C 24.88084411621094 8.736953735351562 20.12152099609375 11.94598388671875 16.03375244140625 16.03375244140625 C 11.94598388671875 20.12152099609375 8.736953735351562 24.88084411621094 6.495796203613281 30.17950439453125 C 4.176155090332031 35.66376876831055 3 41.49121475219727 3 47.5 C 3 53.50878524780273 4.176155090332031 59.33623123168945 6.495796203613281 64.82049560546875 C 8.736953735351562 70.11915588378906 11.94598388671875 74.87847900390625 16.03375244140625 78.96624755859375 C 20.12152099609375 83.05401611328125 24.88084411621094 86.26304626464844 30.17950439453125 88.50419616699219 C 35.66376876831055 90.82384490966797 41.49121475219727 92 47.5 92 C 53.50878524780273 92 59.33623123168945 90.82384490966797 64.82049560546875 88.50419616699219 C 70.11915588378906 86.26304626464844 74.87847900390625 83.05401611328125 78.96624755859375 78.96624755859375 C 83.05401611328125 74.87847900390625 86.26304626464844 70.11915588378906 88.50419616699219 64.82049560546875 C 90.82384490966797 59.33623123168945 92 53.50878524780273 92 47.5 C 92 41.49121475219727 90.82384490966797 35.66376876831055 88.50419616699219 30.17950439453125 C 86.26304626464844 24.88084411621094 83.05401611328125 20.12152099609375 78.96624755859375 16.03375244140625 C 74.87847900390625 11.94598388671875 70.11915588378906 8.736953735351562 64.82049560546875 6.495796203613281 C 59.33623123168945 4.176155090332031 53.50878524780273 3 47.5 3 M 47.5 0 C 73.7335205078125 0 95 21.2664794921875 95 47.5 C 95 73.7335205078125 73.7335205078125 95 47.5 95 C 21.2664794921875 95 0 73.7335205078125 0 47.5 C 0 21.2664794921875 21.2664794921875 0 47.5 0 Z" stroke="none" fill="#f5b104"/>
                            </g>
                          </g>
                        </g>
                      </g>
                    </g>
                  </g>
                </g>
              </g>
            </g>
          </g>
        </g>
      </g>
    </g>
    <g id="sincronizacion-de-datos_1_" data-name="sincronizacion-de-datos (1)" transform="translate(609.528 3975.626)">
      <g id="Grupo_1237045" data-name="Grupo 1237045" transform="translate(2.005 22.302)">
        <g id="Grupo_1237043" data-name="Grupo 1237043" transform="translate(0 0)">
          <path id="Trazado_1238038" data-name="Trazado 1238038" d="M109.616,129.888V115.6l-39.932.6v12.626Z" transform="translate(-62.077 -104.778)" fill="#596c76" fill-rule="evenodd"/>
          <path id="Trazado_1238039" data-name="Trazado 1238039" d="M11.847,51.109H61.328a2.841,2.841,0,0,1,2.832,2.832v9.19a2.841,2.841,0,0,1-2.832,2.832H11.847a2.841,2.841,0,0,1-2.832-2.832v-9.19a2.841,2.841,0,0,1,2.832-2.832Zm0-21.8H61.328a2.841,2.841,0,0,1,2.832,2.832v9.19a2.841,2.841,0,0,1-2.832,2.832H11.847a2.841,2.841,0,0,1-2.832-2.832v-9.19a2.841,2.841,0,0,1,2.832-2.832Z" transform="translate(-9.015 -29.31)" fill="#8d9ca8" fill-rule="evenodd"/>
          <path id="Trazado_1238040" data-name="Trazado 1238040" d="M52.579,96.964A1.678,1.678,0,1,1,50.9,98.641a1.678,1.678,0,0,1,1.678-1.678Zm0-21.8A1.678,1.678,0,1,1,50.9,76.843a1.678,1.678,0,0,1,1.678-1.678Z" transform="translate(-45.649 -69.416)" fill="#fc685b" fill-rule="evenodd"/>
          <path id="Trazado_1238041" data-name="Trazado 1238041" d="M102.964,96.964a1.678,1.678,0,1,1-1.678,1.678,1.678,1.678,0,0,1,1.678-1.678Zm0-21.8a1.678,1.678,0,1,1-1.678,1.678A1.678,1.678,0,0,1,102.964,75.165Z" transform="translate(-89.717 -69.416)" fill="#ffda2d" fill-rule="evenodd"/>
          <path id="Trazado_1238042" data-name="Trazado 1238042" d="M153.35,96.964a1.678,1.678,0,1,1-1.678,1.678,1.678,1.678,0,0,1,1.678-1.678Zm0-21.8a1.678,1.678,0,1,1-1.678,1.678A1.678,1.678,0,0,1,153.35,75.165Z" transform="translate(-133.785 -69.416)" fill="#72d561" fill-rule="evenodd"/>
        </g>
        <g id="Grupo_1237044" data-name="Grupo 1237044" transform="translate(34.489 29.4)">
          <path id="Trazado_1238043" data-name="Trazado 1238043" d="M293.455,263.79h3.753v1.883a9.495,9.495,0,0,1,3.416,1.416l1.332-1.332,2.654,2.654-1.332,1.332a9.493,9.493,0,0,1,1.416,3.416h1.883v3.753h-1.883a9.5,9.5,0,0,1-1.416,3.416l1.332,1.332-2.654,2.654-1.332-1.332a9.5,9.5,0,0,1-3.416,1.416v1.883h-3.753V284.4a9.5,9.5,0,0,1-3.416-1.416l-1.332,1.332-2.654-2.654,1.332-1.332a9.5,9.5,0,0,1-1.416-3.416h-1.883v-3.753h1.883a9.493,9.493,0,0,1,1.416-3.416l-1.332-1.332,2.654-2.654,1.332,1.332a9.493,9.493,0,0,1,3.416-1.416Z" transform="translate(-284.086 -263.79)" fill="#ffda2d" fill-rule="evenodd"/>
          <circle id="Elipse_12796" data-name="Elipse 12796" cx="5.828" cy="5.828" r="5.828" transform="translate(5.417 5.417)" fill="#eff4f7"/>
        </g>
      </g>
      <path id="Trazado_1238044" data-name="Trazado 1238044" d="M50.717,60.994a1,1,0,0,1,.006,1.418L47.8,65.359a1,1,0,0,1-1.413.012l-1.627-1.587a1,1,0,1,1,1.4-1.437l.915.893L49.3,61a1,1,0,0,1,1.418-.006Zm-2.979,6.776a4.825,4.825,0,1,0-4.826-4.825A4.83,4.83,0,0,0,47.739,67.771Zm0-11.657a6.832,6.832,0,1,0,6.83,6.832A6.839,6.839,0,0,0,47.739,56.114Zm8.378,8.513a1,1,0,0,1,.984-.807h.88V62.072H57.1a1,1,0,0,1-.984-.807,8.451,8.451,0,0,0-1.266-3.056,1,1,0,0,1,.125-1.266l.623-.623-1.236-1.235-.622.623a1,1,0,0,1-1.266.125,8.467,8.467,0,0,0-3.056-1.266,1,1,0,0,1-.808-.984V52.7H46.865v.88a1,1,0,0,1-.808.984A8.446,8.446,0,0,0,43,55.833a1,1,0,0,1-1.266-.125l-.621-.623L39.877,56.32l.623.623a1,1,0,0,1,.126,1.266,8.455,8.455,0,0,0-1.266,3.056,1,1,0,0,1-.984.807h-.88v1.747h.88a1,1,0,0,1,.984.806,8.446,8.446,0,0,0,1.266,3.056,1,1,0,0,1-.126,1.266l-.623.623,1.236,1.235.621-.623A1,1,0,0,1,43,70.058a8.456,8.456,0,0,0,3.056,1.266,1,1,0,0,1,.808.984v.88h1.746v-.88a1,1,0,0,1,.808-.984,8.451,8.451,0,0,0,3.056-1.266,1,1,0,0,1,1.266.125l.622.623L55.6,69.57l-.623-.623a1,1,0,0,1-.125-1.266A8.457,8.457,0,0,0,56.116,64.626Zm2.868,1.2a1,1,0,0,0,1-1V61.069a1,1,0,0,0-1-1H57.891a10.445,10.445,0,0,0-.938-2.263l.774-.773a1,1,0,0,0,0-1.418l-2.654-2.654a1,1,0,0,0-1.419,0l-.773.774a10.438,10.438,0,0,0-2.263-.938V51.7a1,1,0,0,0-1-1H45.861a1,1,0,0,0-1,1v1.094a10.415,10.415,0,0,0-2.263.938l-.773-.774a1,1,0,0,0-1.418,0l-2.654,2.654a1,1,0,0,0,0,1.418l.773.773a10.479,10.479,0,0,0-.938,2.263H36.492a1,1,0,0,0-1,1v3.753a1,1,0,0,0,1,1h1.093a10.471,10.471,0,0,0,.938,2.262l-.773.773a1,1,0,0,0,0,1.419L40.4,72.934a1,1,0,0,0,1.418,0l.773-.773a10.446,10.446,0,0,0,2.263.938v1.093a1,1,0,0,0,1,1h3.753a1,1,0,0,0,1-1V73.1a10.446,10.446,0,0,0,2.263-.938l.773.773a1,1,0,0,0,1.418,0l2.654-2.654a1,1,0,0,0,0-1.419l-.774-.773a10.451,10.451,0,0,0,.938-2.262Zm3.99,8.759a1,1,0,0,1-.919,1.08l-3.306.265c-.028,0-.054,0-.08,0a1,1,0,0,1-1-1.083l.266-3.307a1,1,0,0,1,2,.16l-.029.355A15.212,15.212,0,0,0,61.37,56.215a1,1,0,1,1,1.8-.89,17.215,17.215,0,0,1-2.019,18.4l.746-.06a1,1,0,0,1,1.079.919Zm-4.517-25.8a1,1,0,1,1,2-.161l.265,3.307a1,1,0,0,1-1,1.084c-.027,0-.053,0-.08,0l-3.306-.265a1,1,0,1,1,.16-2l.354.028a15.21,15.21,0,0,0-15.842-1.465,1,1,0,0,1-.89-1.8,17.217,17.217,0,0,1,18.4,2.019ZM34.105,69.676a1,1,0,0,1-1.8.89,17.217,17.217,0,0,1,2.019-18.4l-.746.06a1,1,0,1,1-.16-2l3.307-.265a1,1,0,0,1,1.08,1.08l-.265,3.307a1,1,0,0,1-1,.923c-.027,0-.054,0-.081,0a1,1,0,0,1-.919-1.08l.028-.354a15.213,15.213,0,0,0-1.465,15.842Zm21.707,7.356a1,1,0,0,1-.454,1.344,17.217,17.217,0,0,1-18.4-2.019l.06.746a1,1,0,0,1-.92,1.08c-.027,0-.054,0-.081,0a1,1,0,0,1-1-.923l-.265-3.307a1,1,0,0,1,1.08-1.08l3.307.265a1,1,0,1,1-.161,2l-.354-.028a15.211,15.211,0,0,0,15.842,1.465,1,1,0,0,1,1.344.454ZM22.243,51.526a.675.675,0,1,1-.675-.675A.676.676,0,0,1,22.243,51.526Zm-3.356,0a2.681,2.681,0,1,0,2.681-2.681A2.684,2.684,0,0,0,18.887,51.526Zm-2.962,0a.675.675,0,1,1-.675-.675A.675.675,0,0,1,15.924,51.526Zm-3.355,0a2.681,2.681,0,1,0,2.681-2.681A2.684,2.684,0,0,0,12.569,51.526Zm-2.962,0a.675.675,0,1,1-.675-.675A.675.675,0,0,1,9.607,51.526Zm-3.355,0a2.681,2.681,0,1,0,2.681-2.681,2.684,2.684,0,0,0-2.681,2.681ZM21.567,30.4a.675.675,0,1,1,.675-.675A.675.675,0,0,1,21.567,30.4Zm0-3.355a2.681,2.681,0,1,0,2.681,2.681,2.684,2.684,0,0,0-2.681-2.681ZM15.25,30.4a.675.675,0,1,1,.675-.675A.676.676,0,0,1,15.25,30.4Zm0-3.355a2.681,2.681,0,1,0,2.681,2.681,2.684,2.684,0,0,0-2.681-2.681ZM10.613,38.158H48.538V43.1H10.613ZM3.006,34.322a1.831,1.831,0,0,0,1.829,1.829H54.316a1.831,1.831,0,0,0,1.829-1.829V25.133A1.831,1.831,0,0,0,54.316,23.3H4.835a1.831,1.831,0,0,0-1.829,1.829ZM29.455,57.95a1,1,0,0,1,0,2.006H4.835A3.84,3.84,0,0,1,1,56.12V46.931A3.839,3.839,0,0,1,4.835,43.1H8.607V38.158H4.835A3.84,3.84,0,0,1,1,34.322V25.133A3.839,3.839,0,0,1,4.835,21.3H54.316a3.84,3.84,0,0,1,3.836,3.836v9.189a3.84,3.84,0,0,1-3.836,3.836H50.544V43.1h3.772a3.848,3.848,0,0,1,3.763,3.091,1,1,0,1,1-1.967.39,1.837,1.837,0,0,0-1.8-1.475H4.835a1.831,1.831,0,0,0-1.829,1.829V56.12A1.831,1.831,0,0,0,4.835,57.95h24.62ZM50.7,29.727a1,1,0,0,1-1,1H33.755a1,1,0,0,1,0-2.006H49.693A1,1,0,0,1,50.7,29.727ZM8.932,30.4a.675.675,0,1,1,.675-.675A.676.676,0,0,1,8.932,30.4Zm0-3.355a2.681,2.681,0,1,1-2.681,2.681,2.684,2.684,0,0,1,2.681-2.681Z" fill-rule="evenodd"/>
    </g>
  </g>
</svg>
