<svg xmlns="http://www.w3.org/2000/svg" xmlns:xlink="http://www.w3.org/1999/xlink" width="113" height="113" viewBox="0 0 113 113">
  <defs>
    <filter id="Trazado_982547" x="0" y="0" width="113" height="113" filterUnits="userSpaceOnUse">
      <feOffset dy="3" input="SourceAlpha"/>
      <feGaussianBlur stdDeviation="3" result="blur"/>
      <feFlood flood-opacity="0.161"/>
      <feComposite operator="in" in2="blur"/>
      <feComposite in="SourceGraphic"/>
    </filter>
  </defs>
  <g id="Grupo_1237048" data-name="Grupo 1237048" transform="translate(-900.425 -3970.278)">
    <g id="Grupo_1228506" data-name="Grupo 1228506" transform="translate(0 2589)">
      <g id="Grupo_1228120" data-name="Grupo 1228120" transform="translate(0 -4252.189)">
        <g id="Grupo_1227504" data-name="Grupo 1227504" transform="translate(0 2048.198)">
          <g id="Grupo_1225352" data-name="Grupo 1225352" transform="translate(-0.575 -393.641)">
            <g id="Grupo_1208123" data-name="Grupo 1208123" transform="translate(0 -1922.377)">
              <g id="Grupo_1202434" data-name="Grupo 1202434" transform="translate(-0.56 1255.773)">
                <g id="Grupo_1202053" data-name="Grupo 1202053" transform="translate(0 3240.511)">
                  <g id="Grupo_1177898" data-name="Grupo 1177898" transform="translate(910.561 1411.003)">
                    <g id="Grupo_1172010" data-name="Grupo 1172010" transform="translate(0)">
                      <g id="Grupo_1171046" data-name="Grupo 1171046">
                        <g id="Grupo_1148525" data-name="Grupo 1148525">
                          <g transform="matrix(1, 0, 0, 1, -9, -6)" filter="url(#Trazado_982547)">
                            <g id="Trazado_982547-2" data-name="Trazado 982547" transform="translate(9 6)" fill="#fbe7b2">
                              <path d="M 47.5 93.5 C 41.28937149047852 93.5 35.26533508300781 92.28397369384766 29.59518623352051 89.88570404052734 C 24.11771965026855 87.56893157958984 19.19813346862793 84.25196075439453 14.97309303283691 80.02691650390625 C 10.74804019927979 75.80186462402344 7.431066513061523 70.88229370117188 5.114293098449707 65.40481567382812 C 2.716026782989502 59.73468017578125 1.5 53.71062850952148 1.5 47.5 C 1.5 41.28937149047852 2.716026782989502 35.26533508300781 5.114293098449707 29.59518623352051 C 7.431066513061523 24.11771965026855 10.74804019927979 19.19813346862793 14.97309303283691 14.97309303283691 C 19.19813346862793 10.74804019927979 24.11771965026855 7.431066513061523 29.59518623352051 5.114293098449707 C 35.26533508300781 2.716026782989502 41.28937149047852 1.5 47.5 1.5 C 53.71062850952148 1.5 59.73468017578125 2.716026782989502 65.40481567382812 5.114293098449707 C 70.88229370117188 7.431066513061523 75.80186462402344 10.74804019927979 80.02691650390625 14.97309303283691 C 84.25196075439453 19.19813346862793 87.56893157958984 24.11771965026855 89.88570404052734 29.59518623352051 C 92.28397369384766 35.26533508300781 93.5 41.28937149047852 93.5 47.5 C 93.5 53.71062850952148 92.28397369384766 59.73468017578125 89.88570404052734 65.40481567382812 C 87.56893157958984 70.88229370117188 84.25196075439453 75.80186462402344 80.02691650390625 80.02691650390625 C 75.80186462402344 84.25196075439453 70.88229370117188 87.56893157958984 65.40481567382812 89.88570404052734 C 59.73468017578125 92.28397369384766 53.71062850952148 93.5 47.5 93.5 Z" stroke="none"/>
                              <path d="M 47.5 3 C 41.49121475219727 3 35.66376876831055 4.176155090332031 30.17950439453125 6.495796203613281 C 24.88084411621094 8.736953735351562 20.12152099609375 11.94598388671875 16.03375244140625 16.03375244140625 C 11.94598388671875 20.12152099609375 8.736953735351562 24.88084411621094 6.495796203613281 30.17950439453125 C 4.176155090332031 35.66376876831055 3 41.49121475219727 3 47.5 C 3 53.50878524780273 4.176155090332031 59.33623123168945 6.495796203613281 64.82049560546875 C 8.736953735351562 70.11915588378906 11.94598388671875 74.87847900390625 16.03375244140625 78.96624755859375 C 20.12152099609375 83.05401611328125 24.88084411621094 86.26304626464844 30.17950439453125 88.50419616699219 C 35.66376876831055 90.82384490966797 41.49121475219727 92 47.5 92 C 53.50878524780273 92 59.33623123168945 90.82384490966797 64.82049560546875 88.50419616699219 C 70.11915588378906 86.26304626464844 74.87847900390625 83.05401611328125 78.96624755859375 78.96624755859375 C 83.05401611328125 74.87847900390625 86.26304626464844 70.11915588378906 88.50419616699219 64.82049560546875 C 90.82384490966797 59.33623123168945 92 53.50878524780273 92 47.5 C 92 41.49121475219727 90.82384490966797 35.66376876831055 88.50419616699219 30.17950439453125 C 86.26304626464844 24.88084411621094 83.05401611328125 20.12152099609375 78.96624755859375 16.03375244140625 C 74.87847900390625 11.94598388671875 70.11915588378906 8.736953735351562 64.82049560546875 6.495796203613281 C 59.33623123168945 4.176155090332031 53.50878524780273 3 47.5 3 M 47.5 0 C 73.7335205078125 0 95 21.2664794921875 95 47.5 C 95 73.7335205078125 73.7335205078125 95 47.5 95 C 21.2664794921875 95 0 73.7335205078125 0 47.5 C 0 21.2664794921875 21.2664794921875 0 47.5 0 Z" stroke="none" fill="#f5b104"/>
                            </g>
                          </g>
                        </g>
                      </g>
                    </g>
                  </g>
                </g>
              </g>
            </g>
          </g>
        </g>
      </g>
    </g>
    <g id="ha-fallado" transform="translate(900.377 3989.778)">
      <g id="Grupo_1237047" data-name="Grupo 1237047" transform="translate(27.329 1.328)">
        <path id="Trazado_1238045" data-name="Trazado 1238045" d="M65.22,10A29.227,29.227,0,0,1,90.944,53.085a13.283,13.283,0,0,0-21.6,15.06A29.219,29.219,0,1,1,65.22,10Z" transform="translate(-36.001 -10)" fill="#b2f6ff"/>
        <path id="Trazado_1238046" data-name="Trazado 1238046" d="M91.234,40a25.241,25.241,0,0,1,22.554,36.56,13.285,13.285,0,0,0-19.9,11.518,13.353,13.353,0,0,0,.187,2.23A25.234,25.234,0,1,1,91.234,40Z" transform="translate(-62.016 -36.016)" fill="#00d7ce"/>
        <path id="Trazado_1238047" data-name="Trazado 1238047" d="M289.282,328.563A13.281,13.281,0,1,0,276,315.282,13.307,13.307,0,0,0,289.282,328.563Z" transform="translate(-244.126 -263.22)" fill="#fd4848"/>
      </g>
      <path id="Trazado_1238048" data-name="Trazado 1238048" d="M382.424,49.377l.016.013a1.328,1.328,0,1,0,1.641-2.089l-.016-.013a1.328,1.328,0,1,0-1.641,2.089Z" transform="translate(-308.645 -40.762)"/>
      <path id="Trazado_1238049" data-name="Trazado 1238049" d="M73.506,299.331a1.329,1.329,0,0,0,1.218-1.856l-.009-.021a1.321,1.321,0,0,0-1.743-.676,1.333,1.333,0,0,0,.534,2.553Z" transform="translate(-40.043 -257.264)"/>
      <path id="Trazado_1238050" data-name="Trazado 1238050" d="M87.094,30.547a30.58,30.58,0,0,0-7.251-19.759,1.328,1.328,0,1,0-2.026,1.718,27.91,27.91,0,0,1,4.067,29.71q-.522-.44-1.084-.83a26.542,26.542,0,0,0-5.787-29.914,1.365,1.365,0,0,0-.089-.1,1.339,1.339,0,0,0-.2-.169,26.511,26.511,0,0,0-36.359,0,1.327,1.327,0,0,0-.285.272,26.527,26.527,0,0,0-7.192,25.95,1.328,1.328,0,0,0,2.566-.688,23.893,23.893,0,0,1-.775-4.859h9.938a46.531,46.531,0,0,0,1.706,11.6,26.56,26.56,0,0,0-5.144,3.492,23.648,23.648,0,0,1-1.853-2.209,1.328,1.328,0,0,0-2.136,1.58,26.33,26.33,0,0,0,2.946,3.344c.012.013.022.027.034.039a1.3,1.3,0,0,0,.12.11,26.685,26.685,0,0,0,18.256,7.274c.592,0,1.191-.023,1.791-.063q.172.665.4,1.3c-.733.058-1.467.088-2.2.088A27.891,27.891,0,1,1,70.493,6.393a1.328,1.328,0,0,0,1.328-2.3,30.547,30.547,0,1,0-15.274,57,30.831,30.831,0,0,0,3.412-.192,14.6,14.6,0,1,0,23.9-16.666A30.621,30.621,0,0,0,87.094,30.547ZM72.485,38.781a14.632,14.632,0,0,0-2.7.252,49.079,49.079,0,0,0,.695-7.158h9.941a23.567,23.567,0,0,1-1.936,8.194A14.525,14.525,0,0,0,72.485,38.781ZM57.876,20.553a26.485,26.485,0,0,0,8.434-1.818,44.337,44.337,0,0,1,1.508,10.484H57.876Zm0-2.661V6.815c3.07.8,5.8,4.336,7.629,9.381A23.829,23.829,0,0,1,57.876,17.892Zm8.782-5.782a20.689,20.689,0,0,0-2.833-4.335,23.892,23.892,0,0,1,8.141,4.518,23.918,23.918,0,0,1-4.036,2.761A29.879,29.879,0,0,0,66.657,12.11ZM45.166,15.053a23.9,23.9,0,0,1-4.036-2.76,23.9,23.9,0,0,1,8.141-4.518,20.692,20.692,0,0,0-2.833,4.335A29.918,29.918,0,0,0,45.166,15.053ZM55.22,6.815V17.892a23.828,23.828,0,0,1-7.629-1.7C49.415,11.151,52.15,7.617,55.22,6.815Zm0,13.738v8.666H45.278a44.337,44.337,0,0,1,1.508-10.484A26.486,26.486,0,0,0,55.22,20.553ZM47.591,44.9a23.826,23.826,0,0,1,7.629-1.7V54.279C52.15,53.477,49.415,49.942,47.591,44.9Zm10.285,8.493c0,.295.01.588.027.878l-.027.007V43.2a23.858,23.858,0,0,1,3.69.5A14.55,14.55,0,0,0,57.876,53.391Zm6.055-11.835a26.51,26.51,0,0,0-6.055-1.014V31.875h9.943a45.651,45.651,0,0,1-.9,8.01A14.612,14.612,0,0,0,63.931,41.556ZM80.416,29.219h-9.94a46.531,46.531,0,0,0-1.706-11.6,26.562,26.562,0,0,0,5.137-3.486A23.823,23.823,0,0,1,80.416,29.219ZM39.188,14.128a26.56,26.56,0,0,0,5.137,3.486,46.532,46.532,0,0,0-1.706,11.6h-9.94A23.823,23.823,0,0,1,39.188,14.128Zm6.09,17.747H55.22v8.666a26.486,26.486,0,0,0-8.434,1.818A44.338,44.338,0,0,1,45.278,31.875Zm1.161,17.109A20.723,20.723,0,0,0,49.256,53.3a24.1,24.1,0,0,1-8.131-4.5,23.9,23.9,0,0,1,4.04-2.764A29.926,29.926,0,0,0,46.438,48.984Zm26.047,16.36A11.953,11.953,0,1,1,84.438,53.391,11.967,11.967,0,0,1,72.485,65.344Z" transform="translate(0 0)"/>
      <path id="Trazado_1238051" data-name="Trazado 1238051" d="M342.564,357.39a1.328,1.328,0,0,0-1.878,0l-3.709,3.709-3.709-3.709a1.328,1.328,0,0,0-1.878,1.878l3.709,3.709-3.709,3.709a1.328,1.328,0,1,0,1.878,1.878l3.709-3.709,3.709,3.709a1.328,1.328,0,1,0,1.878-1.878l-3.709-3.709,3.709-3.709A1.328,1.328,0,0,0,342.564,357.39Z" transform="translate(-264.491 -309.587)"/>
    </g>
  </g>
</svg>
