<svg xmlns="http://www.w3.org/2000/svg" xmlns:xlink="http://www.w3.org/1999/xlink" width="113" height="113" viewBox="0 0 113 113">
  <defs>
    <filter id="Trazado_982547" x="0" y="0" width="113" height="113" filterUnits="userSpaceOnUse">
      <feOffset dy="3" input="SourceAlpha"/>
      <feGaussianBlur stdDeviation="3" result="blur"/>
      <feFlood flood-opacity="0.161"/>
      <feComposite operator="in" in2="blur"/>
      <feComposite in="SourceGraphic"/>
    </filter>
  </defs>
  <g id="Grupo_1237062" data-name="Grupo 1237062" transform="translate(-1216 -3969.991)">
    <g id="Grupo_1228504" data-name="Grupo 1228504" transform="translate(0 2589)">
      <g id="Grupo_1228121" data-name="Grupo 1228121" transform="translate(0 -4252.189)">
        <g id="Grupo_1227505" data-name="Grupo 1227505" transform="translate(0.575 2048.198)">
          <g id="Grupo_1225353" data-name="Grupo 1225353" transform="translate(-0.575 -393.641)">
            <g id="Grupo_1208124" data-name="Grupo 1208124" transform="translate(0 -1922.377)">
              <g id="Grupo_1202435" data-name="Grupo 1202435" transform="translate(-0.56 1255.486)">
                <g id="Grupo_1202052" data-name="Grupo 1202052" transform="translate(1225.561 4651.514)">
                  <g id="Grupo_1172010" data-name="Grupo 1172010" transform="translate(0)">
                    <g id="Grupo_1171046" data-name="Grupo 1171046">
                      <g id="Grupo_1148525" data-name="Grupo 1148525">
                        <g transform="matrix(1, 0, 0, 1, -9, -6)" filter="url(#Trazado_982547)">
                          <g id="Trazado_982547-2" data-name="Trazado 982547" transform="translate(9 6)" fill="#fbe7b2">
                            <path d="M 47.5 93.5 C 41.28937149047852 93.5 35.26533508300781 92.28397369384766 29.59518623352051 89.88570404052734 C 24.11771965026855 87.56893157958984 19.19813346862793 84.25196075439453 14.97309303283691 80.02691650390625 C 10.74804019927979 75.80186462402344 7.431066513061523 70.88229370117188 5.114293098449707 65.40481567382812 C 2.716026782989502 59.73468017578125 1.5 53.71062850952148 1.5 47.5 C 1.5 41.28937149047852 2.716026782989502 35.26533508300781 5.114293098449707 29.59518623352051 C 7.431066513061523 24.11771965026855 10.74804019927979 19.19813346862793 14.97309303283691 14.97309303283691 C 19.19813346862793 10.74804019927979 24.11771965026855 7.431066513061523 29.59518623352051 5.114293098449707 C 35.26533508300781 2.716026782989502 41.28937149047852 1.5 47.5 1.5 C 53.71062850952148 1.5 59.73468017578125 2.716026782989502 65.40481567382812 5.114293098449707 C 70.88229370117188 7.431066513061523 75.80186462402344 10.74804019927979 80.02691650390625 14.97309303283691 C 84.25196075439453 19.19813346862793 87.56893157958984 24.11771965026855 89.88570404052734 29.59518623352051 C 92.28397369384766 35.26533508300781 93.5 41.28937149047852 93.5 47.5 C 93.5 53.71062850952148 92.28397369384766 59.73468017578125 89.88570404052734 65.40481567382812 C 87.56893157958984 70.88229370117188 84.25196075439453 75.80186462402344 80.02691650390625 80.02691650390625 C 75.80186462402344 84.25196075439453 70.88229370117188 87.56893157958984 65.40481567382812 89.88570404052734 C 59.73468017578125 92.28397369384766 53.71062850952148 93.5 47.5 93.5 Z" stroke="none"/>
                            <path d="M 47.5 3 C 41.49121475219727 3 35.66376876831055 4.176155090332031 30.17950439453125 6.495796203613281 C 24.88084411621094 8.736953735351562 20.12152099609375 11.94598388671875 16.03375244140625 16.03375244140625 C 11.94598388671875 20.12152099609375 8.736953735351562 24.88084411621094 6.495796203613281 30.17950439453125 C 4.176155090332031 35.66376876831055 3 41.49121475219727 3 47.5 C 3 53.50878524780273 4.176155090332031 59.33623123168945 6.495796203613281 64.82049560546875 C 8.736953735351562 70.11915588378906 11.94598388671875 74.87847900390625 16.03375244140625 78.96624755859375 C 20.12152099609375 83.05401611328125 24.88084411621094 86.26304626464844 30.17950439453125 88.50419616699219 C 35.66376876831055 90.82384490966797 41.49121475219727 92 47.5 92 C 53.50878524780273 92 59.33623123168945 90.82384490966797 64.82049560546875 88.50419616699219 C 70.11915588378906 86.26304626464844 74.87847900390625 83.05401611328125 78.96624755859375 78.96624755859375 C 83.05401611328125 74.87847900390625 86.26304626464844 70.11915588378906 88.50419616699219 64.82049560546875 C 90.82384490966797 59.33623123168945 92 53.50878524780273 92 47.5 C 92 41.49121475219727 90.82384490966797 35.66376876831055 88.50419616699219 30.17950439453125 C 86.26304626464844 24.88084411621094 83.05401611328125 20.12152099609375 78.96624755859375 16.03375244140625 C 74.87847900390625 11.94598388671875 70.11915588378906 8.736953735351562 64.82049560546875 6.495796203613281 C 59.33623123168945 4.176155090332031 53.50878524780273 3 47.5 3 M 47.5 0 C 73.7335205078125 0 95 21.2664794921875 95 47.5 C 95 73.7335205078125 73.7335205078125 95 47.5 95 C 21.2664794921875 95 0 73.7335205078125 0 47.5 C 0 21.2664794921875 21.2664794921875 0 47.5 0 Z" stroke="none" fill="#f5b104"/>
                          </g>
                        </g>
                      </g>
                    </g>
                  </g>
                </g>
              </g>
            </g>
          </g>
        </g>
      </g>
    </g>
    <g id="limite-de-tiempo" transform="translate(1239.719 3972.347)">
      <g id="Grupo_1237060" data-name="Grupo 1237060" transform="translate(0.949 27.436)">
        <g id="Grupo_1237049" data-name="Grupo 1237049" transform="translate(10.207 0)">
          <path id="Trazado_1238052" data-name="Trazado 1238052" d="M151.587,68.43a21.679,21.679,0,0,0-15.625,6.624l2.3,3.985A17.368,17.368,0,0,1,167.2,97.776a11.754,11.754,0,0,1,4.92-.441A21.756,21.756,0,0,0,151.587,68.43Z" transform="translate(-129.934 -68.43)" fill="#fe646f"/>
          <path id="Trazado_1238053" data-name="Trazado 1238053" d="M117.771,269.7A17.372,17.372,0,0,1,92.67,256.2h-4.4a21.76,21.76,0,0,0,29.141,18.433,11.733,11.733,0,0,1,.363-4.928Z" transform="translate(-88.268 -232.463)" fill="#fe646f"/>
        </g>
        <g id="Grupo_1237052" data-name="Grupo 1237052" transform="translate(39.108 28.691)">
          <g id="Grupo_1237050" data-name="Grupo 1237050">
            <path id="Trazado_1238054" data-name="Trazado 1238054" d="M328.784,295.426a11.846,11.846,0,0,0-3.58.551,17.354,17.354,0,0,1-7.777,7.9,11.855,11.855,0,1,0,11.358-8.452Z" transform="translate(-316.93 -295.426)" fill="#05e39c"/>
          </g>
          <g id="Grupo_1237051" data-name="Grupo 1237051" transform="translate(9.204)">
            <path id="Trazado_1238055" data-name="Trazado 1238055" d="M392.4,295.426a11.887,11.887,0,0,0-2.65.3,11.857,11.857,0,0,1,0,23.112,11.855,11.855,0,1,0,2.65-23.41Z" transform="translate(-389.75 -295.426)" fill="#0ed290"/>
          </g>
        </g>
        <g id="Grupo_1237055" data-name="Grupo 1237055" transform="translate(14.608 4.379)">
          <g id="Grupo_1237053" data-name="Grupo 1237053" transform="translate(0)">
            <path id="Trazado_1238056" data-name="Trazado 1238056" d="M140.345,103.077a17.328,17.328,0,0,0-13.324,6.23l5.319,9.213a2.607,2.607,0,0,1-2.258,3.91h-6.988a17.366,17.366,0,1,0,17.252-19.353Z" transform="translate(-123.093 -103.077)" fill="#fff"/>
          </g>
          <g id="Grupo_1237054" data-name="Grupo 1237054" transform="translate(14.599 0)">
            <path id="Trazado_1238057" data-name="Trazado 1238057" d="M241.249,103.077a17.5,17.5,0,0,0-2.653.2,17.368,17.368,0,0,1,0,34.328,17.367,17.367,0,1,0,2.653-34.53Z" transform="translate(-238.596 -103.077)" fill="#f3f0f3"/>
          </g>
        </g>
        <g id="Grupo_1237056" data-name="Grupo 1237056" transform="translate(29.746 19.631)">
          <circle id="Elipse_12797" data-name="Elipse 12797" cx="2.114" cy="2.114" r="2.114" fill="#fe646f"/>
        </g>
        <g id="Grupo_1237059" data-name="Grupo 1237059" transform="translate(0 2.058)">
          <g id="Grupo_1237057" data-name="Grupo 1237057" transform="translate(0 0)">
            <path id="Trazado_1238058" data-name="Trazado 1238058" d="M17.315,86.076,7.885,102.41a2.733,2.733,0,0,0,2.367,4.1H29.113a2.733,2.733,0,0,0,2.367-4.1L22.05,86.076a2.733,2.733,0,0,0-4.734,0Z" transform="translate(-7.514 -84.709)" fill="#ffd15b"/>
          </g>
          <g id="Grupo_1237058" data-name="Grupo 1237058" transform="translate(9.545)">
            <path id="Trazado_1238059" data-name="Trazado 1238059" d="M97.456,102.41,88.026,86.076a2.733,2.733,0,0,0-4.734,0l-.255.443,9.175,15.892a2.733,2.733,0,0,1-2.367,4.1h5.245A2.733,2.733,0,0,0,97.456,102.41Z" transform="translate(-83.036 -84.709)" fill="#ffc344"/>
          </g>
        </g>
      </g>
      <g id="Grupo_1237061" data-name="Grupo 1237061" transform="translate(-0.001 21.505)">
        <path id="Trazado_1238060" data-name="Trazado 1238060" d="M345.541,44.762c.436.213.871.442,1.293.68a.948.948,0,0,0,.93-1.652c-.453-.255-.921-.5-1.389-.73a.948.948,0,1,0-.834,1.7Z" transform="translate(-301.403 -40.251)"/>
        <path id="Trazado_1238061" data-name="Trazado 1238061" d="M381,66.747c.386.3.768.606,1.135.922a.948.948,0,0,0,1.237-1.437c-.394-.339-.8-.672-1.218-.99a.948.948,0,1,0-1.154,1.5Z" transform="translate(-332.519 -59.544)"/>
        <path id="Trazado_1238062" data-name="Trazado 1238062" d="M306.438,30.232c.469.123.941.261,1.4.41a.948.948,0,1,0,.584-1.8c-.5-.161-1-.309-1.507-.441a.948.948,0,0,0-.48,1.834Z" transform="translate(-267.087 -27.499)"/>
        <path id="Trazado_1238063" data-name="Trazado 1238063" d="M436.416,130.537a.948.948,0,0,0,1.7-.849c-.234-.467-.484-.932-.743-1.385a.948.948,0,1,0-1.644.944C435.965,129.669,436.2,130.1,436.416,130.537Z" transform="translate(-380.54 -114.389)"/>
        <path id="Trazado_1238064" data-name="Trazado 1238064" d="M462.894,248.929a.946.946,0,0,0-1.016.875c-.036.484-.087.974-.15,1.455a.948.948,0,1,0,1.88.248c.068-.516.122-1.042.161-1.562A.948.948,0,0,0,462.894,248.929Z" transform="translate(-403.361 -220.181)"/>
        <path id="Trazado_1238065" data-name="Trazado 1238065" d="M412.389,96.409a.948.948,0,0,0,1.494-1.167c-.321-.411-.658-.818-1-1.21a.948.948,0,0,0-1.426,1.249C411.777,95.646,412.09,96.026,412.389,96.409Z" transform="translate(-359.246 -84.582)"/>
        <path id="Trazado_1238066" data-name="Trazado 1238066" d="M462.8,207.021a.948.948,0,0,0-.826,1.056c.059.481.1.971.137,1.456a.948.948,0,0,0,.945.886l.063,0a.948.948,0,0,0,.884-1.008c-.034-.521-.083-1.046-.147-1.563A.947.947,0,0,0,462.8,207.021Z" transform="translate(-403.579 -183.566)"/>
        <path id="Trazado_1238067" data-name="Trazado 1238067" d="M452.8,167.347c.154.461.3.933.423,1.4a.948.948,0,1,0,1.83-.5c-.136-.5-.289-1.011-.454-1.506a.948.948,0,1,0-1.8.6Z" transform="translate(-395.53 -147.823)"/>
        <path id="Trazado_1238068" data-name="Trazado 1238068" d="M59.218,57.475q.126-.4.239-.8a.948.948,0,0,0-1.825-.513c-.03.107-.064.215-.1.322a12.7,12.7,0,0,0-2.918-1.015,22.723,22.723,0,0,0-3.924-20.256A.948.948,0,1,0,49.2,36.38a20.828,20.828,0,0,1,3.518,18.825c-.267-.017-.536-.026-.807-.026a12.79,12.79,0,0,0-1.846.134A18.311,18.311,0,0,0,19.747,36.348l-1.283-2.222a20.789,20.789,0,0,1,27.8-.8A.948.948,0,1,0,47.5,31.883a22.687,22.687,0,0,0-30,.557l-1.186-2.054a3.758,3.758,0,0,0-.451-.624A25.658,25.658,0,0,1,32.809,23.4a.948.948,0,1,0,0-1.9,27.55,27.55,0,0,0-18.618,7.2,3.727,3.727,0,0,0-1.074-.158,3.644,3.644,0,0,0-3.188,1.841L6.336,36.61a.948.948,0,1,0,1.642.948l3.593-6.223a1.785,1.785,0,0,1,3.092,0l9.431,16.334a1.785,1.785,0,0,1-1.546,2.678H3.686A1.785,1.785,0,0,1,2.14,47.669l3.626-6.28a.948.948,0,1,0-1.642-.948L.5,46.721a3.681,3.681,0,0,0,3.188,5.522H5.3A27.676,27.676,0,0,0,32.809,76.856a.948.948,0,1,0,0-1.9,25.781,25.781,0,0,1-25.6-22.718h3.113A22.705,22.705,0,0,0,39.441,70.887a12.72,12.72,0,0,0,1.948,4.386.948.948,0,1,0,1.557-1.081,10.839,10.839,0,0,1-1.941-6.211,10.953,10.953,0,0,1,.309-2.585,18.439,18.439,0,0,0,7.844-7.969,10.907,10.907,0,1,1-3.31,19.621.948.948,0,0,0-1.055,1.575A12.8,12.8,0,0,0,59.218,57.475ZM39.149,68.991A20.8,20.8,0,0,1,12.238,52.243h2.514A18.315,18.315,0,0,0,39.216,66.337a12.914,12.914,0,0,0-.106,1.644q0,.508.04,1.011ZM32.809,65.6A16.424,16.424,0,0,1,16.678,52.243h5.87a3.681,3.681,0,0,0,3.188-5.522l-5-8.661A16.417,16.417,0,1,1,32.809,65.6Z" transform="translate(0.001 -21.505)"/>
        <path id="Trazado_1238069" data-name="Trazado 1238069" d="M365.035,358.938h.016a.948.948,0,0,0,.7-.328l6.941-8.032a.948.948,0,1,0-1.435-1.24l-6.247,7.229-3.959-4.289a.948.948,0,1,0-1.393,1.286l4.679,5.069A.948.948,0,0,0,365.035,358.938Z" transform="translate(-313.981 -307.615)"/>
        <path id="Trazado_1238070" data-name="Trazado 1238070" d="M253.032,125.109a.948.948,0,0,0,.948-.948v-.755a.948.948,0,0,0-1.9,0v.755A.948.948,0,0,0,253.032,125.109Z" transform="translate(-220.222 -109.698)"/>
        <path id="Trazado_1238071" data-name="Trazado 1238071" d="M253.032,337.506a.948.948,0,0,0-.948.948v.755a.948.948,0,0,0,1.9,0v-.755A.948.948,0,0,0,253.032,337.506Z" transform="translate(-220.222 -297.565)"/>
        <path id="Trazado_1238072" data-name="Trazado 1238072" d="M356.622,233.917a.948.948,0,0,0,.948.948h.755a.948.948,0,1,0,0-1.9h-.755A.948.948,0,0,0,356.622,233.917Z" transform="translate(-311.547 -206.241)"/>
        <path id="Trazado_1238073" data-name="Trazado 1238073" d="M198.6,137.737a.948.948,0,1,0-1.642.948l.378.654a.948.948,0,1,0,1.642-.948Z" transform="translate(-171.95 -122.631)"/>
        <path id="Trazado_1238074" data-name="Trazado 1238074" d="M306.121,323.974a.948.948,0,1,0-1.642.948l.377.654a.948.948,0,0,0,1.642-.948Z" transform="translate(-265.884 -285.329)"/>
        <path id="Trazado_1238075" data-name="Trazado 1238075" d="M157.506,285.363l-.654.378a.948.948,0,1,0,.948,1.642l.654-.378a.948.948,0,1,0-.948-1.642Z" transform="translate(-136.613 -251.902)"/>
        <path id="Trazado_1238076" data-name="Trazado 1238076" d="M342.742,179.512a.948.948,0,0,0,1.3.347l.654-.378a.948.948,0,1,0-.948-1.642l-.654.378a.948.948,0,0,0-.347,1.3Z" transform="translate(-299.31 -157.969)"/>
        <path id="Trazado_1238077" data-name="Trazado 1238077" d="M344.691,285.74l-.654-.378a.948.948,0,0,0-.948,1.642l.654.378a.948.948,0,1,0,.948-1.642Z" transform="translate(-299.31 -251.901)"/>
        <path id="Trazado_1238078" data-name="Trazado 1238078" d="M198.627,323.627a.948.948,0,0,0-1.3.347l-.378.654a.948.948,0,1,0,1.642.948l.378-.654A.948.948,0,0,0,198.627,323.627Z" transform="translate(-171.949 -285.329)"/>
        <path id="Trazado_1238079" data-name="Trazado 1238079" d="M304.826,139.686a.947.947,0,0,0,1.295-.347l.377-.654a.948.948,0,0,0-1.642-.948l-.377.654A.948.948,0,0,0,304.826,139.686Z" transform="translate(-265.884 -122.632)"/>
        <path id="Trazado_1238080" data-name="Trazado 1238080" d="M97.233,130.437a.948.948,0,0,0,.948-.948v-7.161a.948.948,0,0,0-1.9,0v7.161A.948.948,0,0,0,97.233,130.437Z" transform="translate(-84.115 -108.756)"/>
        <path id="Trazado_1238081" data-name="Trazado 1238081" d="M96.285,209.439a.948.948,0,1,0,1.9,0v-.873a.948.948,0,0,0-1.9,0Z" transform="translate(-84.115 -184.094)"/>
        <path id="Trazado_1238082" data-name="Trazado 1238082" d="M246.423,164.084h-5.092a3.075,3.075,0,0,0-1.963-1.963v-7.055a.948.948,0,0,0-1.9,0v7.055a3.062,3.062,0,1,0,3.859,3.859h5.092a.948.948,0,0,0,0-1.9Zm-8,2.114a1.166,1.166,0,1,1,1.166-1.166A1.167,1.167,0,0,1,238.42,166.2Z" transform="translate(-205.61 -137.356)"/>
      </g>
    </g>
  </g>
</svg>
