<svg xmlns="http://www.w3.org/2000/svg" width="99.136" height="99.153" viewBox="0 0 99.136 99.153">
  <g id="programador_2_" data-name="programador (2)" transform="translate(-0.042)">
    <path id="Trazado_1238083" data-name="Trazado 1238083" d="M130.145,223.868v11.244l12.383.389a.047.047,0,0,0,0,0l.014-.009V223.817A14.839,14.839,0,0,1,130.145,223.868Z" transform="translate(-104.907 -180.473)" fill="#eab883"/>
    <path id="Trazado_1238084" data-name="Trazado 1238084" d="M135.956,225.411a14.332,14.332,0,0,1-5.811-1.329v11.244l7.109.223-.9-2.488C135.712,231.285,136.052,230.311,135.956,225.411Z" transform="translate(-104.907 -180.687)" fill="#dda36f"/>
    <path id="Trazado_1238085" data-name="Trazado 1238085" d="M145.485,268.824a8.863,8.863,0,0,1-10.4-.061l-.08-.059v12.4h10.646V268.7Z" transform="translate(-108.828 -216.667)" fill="#efefef"/>
    <path id="Trazado_1238086" data-name="Trazado 1238086" d="M143.767,278.694l-2.977-8.228a9.233,9.233,0,0,1-5.783-1.761v12.4h5.848C141.872,280.364,143.767,278.694,143.767,278.694Z" transform="translate(-108.828 -216.668)" fill="#ddd"/>
    <path id="Trazado_1238087" data-name="Trazado 1238087" d="M67.353,303.922l-5.108-31.75a6.977,6.977,0,0,0-5.328-5.416h0l-5.705-1.579-.7-.411L39.076,275.022l0-.007a1.707,1.707,0,0,1-3.195,0l0,.007L24.449,264.767l-.7.411-5.705,1.579h0a6.978,6.978,0,0,0-5.328,5.416l-5.108,31.75a6.16,6.16,0,0,0,6.041,7.271H61.313A6.161,6.161,0,0,0,67.353,303.922Z" transform="translate(-6.032 -213.493)" fill="#70b5e8"/>
    <g id="Grupo_1237063" data-name="Grupo 1237063" transform="translate(1.491 47.25)">
      <path id="Trazado_1238088" data-name="Trazado 1238088" d="M13.409,309.793l5.108-34.461a6.7,6.7,0,0,1,1.623-3.284l-2.093.579h0a6.978,6.978,0,0,0-5.328,5.416l-5.108,31.75a6.16,6.16,0,0,0,6.041,7.271h5.8A6.16,6.16,0,0,1,13.409,309.793Z" transform="translate(-7.524 -266.613)" fill="#52a5d8"/>
      <path id="Trazado_1238089" data-name="Trazado 1238089" d="M103.461,258.264,91.326,248.42l7.518-4.435v2.355Z" transform="translate(-75.097 -243.985)" fill="#52a5d8"/>
      <path id="Trazado_1238090" data-name="Trazado 1238090" d="M170.455,258.264l12.135-9.844-7.544-4.435v2.355Z" transform="translate(-138.902 -243.985)" fill="#52a5d8"/>
    </g>
    <path id="Trazado_1238091" data-name="Trazado 1238091" d="M110.553,420.282v7.07h15v-7.07a4.185,4.185,0,0,1,3.171-4.053c-2.685-1.36-3.68-4.27-4.043-6.01a1.745,1.745,0,0,0-1.706-1.4H113.02a1.746,1.746,0,0,0-1.706,1.4c-.361,1.732-1.348,4.622-4.005,5.989A4.186,4.186,0,0,1,110.553,420.282Z" transform="translate(-86.493 -329.651)" fill="#a4d9f4"/>
    <path id="Trazado_1238092" data-name="Trazado 1238092" d="M115.563,427.352v-6.9a4.465,4.465,0,0,0-.846-2.62,3.651,3.651,0,0,1,.034-4.181,11.42,11.42,0,0,0,1.63-4.019,1.9,1.9,0,0,1,.382-.8h-3.743a1.746,1.746,0,0,0-1.706,1.4c-.361,1.732-1.348,4.622-4.005,5.989a4.186,4.186,0,0,1,3.244,4.072v7.07Z" transform="translate(-86.494 -329.651)" fill="#84c7ef"/>
    <g id="Grupo_1237064" data-name="Grupo 1237064" transform="translate(22.995 89.603)">
      <path id="Trazado_1238093" data-name="Trazado 1238093" d="M170.7,462.688h-.381a8.121,8.121,0,0,0-8.1,8.1H170.7v-8.1Z" transform="translate(-153.766 -462.688)" fill="#eab883"/>
      <path id="Trazado_1238094" data-name="Trazado 1238094" d="M118.563,462.688v8.1h8.455a8.121,8.121,0,0,0-8.1-8.1Z" transform="translate(-118.563 -462.688)" fill="#eab883"/>
    </g>
    <g id="Grupo_1237065" data-name="Grupo 1237065" transform="translate(22.995 93.652)">
      <path id="Trazado_1238095" data-name="Trazado 1238095" d="M162.222,487.643H170.7v-4.049h-7.384A8.026,8.026,0,0,0,162.222,487.643Z" transform="translate(-153.767 -483.594)" fill="#dda36f"/>
      <path id="Trazado_1238096" data-name="Trazado 1238096" d="M118.563,483.594v4.049h8.455a8.029,8.029,0,0,0-1.095-4.049Z" transform="translate(-118.563 -483.594)" fill="#dda36f"/>
    </g>
    <path id="Trazado_1238097" data-name="Trazado 1238097" d="M96.327,12.757a2.263,2.263,0,0,1-1.287-.787C90,5.691,76.6,6.211,69.638,13.178c-6.419,6.419-2.868,16.662-2.868,16.662h35.5C105.368,16.817,98.708,13.278,96.327,12.757Z" transform="translate(-53.015 -6.117)" fill="#93482b"/>
    <path id="Trazado_1238098" data-name="Trazado 1238098" d="M78.443,13.179A19.7,19.7,0,0,1,88.3,8.062c-6.061-1.411-13.879.332-18.664,5.117-6.419,6.419-2.868,16.662-2.868,16.662h8.806S72.024,19.6,78.443,13.179Z" transform="translate(-53.015 -6.118)" fill="#843d26"/>
    <g id="Grupo_1237066" data-name="Grupo 1237066" transform="translate(12.045 21.973)">
      <path id="Trazado_1238099" data-name="Trazado 1238099" d="M63.752,114.312l-.005-.006a3.507,3.507,0,0,0,0,6.044l.005-.006a5.186,5.186,0,0,0,2.889.85v-7.733h0A5.186,5.186,0,0,0,63.752,114.312Z" transform="translate(-62.018 -113.462)" fill="#eab883"/>
      <path id="Trazado_1238100" data-name="Trazado 1238100" d="M241.963,114.314l.005-.006a3.789,3.789,0,0,1,1.674,2.432l0,.016c.01.057.019.115.026.173,0,.016,0,.032.005.048.005.05.01.1.014.149s0,.088,0,.132c0,.022,0,.044,0,.067,0,0,0,0,0,0s0,0,0,0c0,.022,0,.045,0,.067,0,.044,0,.088,0,.132s-.008.1-.014.149c0,.016,0,.032-.005.048-.007.058-.016.116-.026.173l0,.016a3.787,3.787,0,0,1-1.674,2.432l-.005-.006a5.187,5.187,0,0,1-2.889.85v-7.733A5.237,5.237,0,0,1,241.963,114.314Z" transform="translate(-204.786 -113.464)" fill="#eab883"/>
    </g>
    <g id="Grupo_1237067" data-name="Grupo 1237067" transform="translate(12.043 24.1)">
      <path id="Trazado_1238101" data-name="Trazado 1238101" d="M63.742,125.728a4.1,4.1,0,0,1-1.233-1.282,3.475,3.475,0,0,0,1.233,4.762l.005-.006a5.186,5.186,0,0,0,2.889.85v-3.479a5.184,5.184,0,0,1-2.889-.85Z" transform="translate(-62.013 -124.446)" fill="#dda36f"/>
      <path id="Trazado_1238102" data-name="Trazado 1238102" d="M243.694,126.113c0-.044,0-.089,0-.132s-.008-.1-.014-.149c0-.016,0-.032-.005-.048-.007-.058-.016-.116-.026-.173l0-.016a3.418,3.418,0,0,0-.442-1.149,4.1,4.1,0,0,1-1.233,1.282l-.005-.006a5.187,5.187,0,0,1-2.889.85v3.479a5.186,5.186,0,0,0,2.889-.85l.005.006a3.787,3.787,0,0,0,1.674-2.432l0-.016c.01-.057.019-.115.026-.173,0-.016,0-.032.005-.048.005-.05.01-.1.014-.149s0-.088,0-.132c0-.022,0-.044,0-.067,0,0,0,0,0,0s0,0,0,0C243.7,126.158,243.695,126.135,243.694,126.113Z" transform="translate(-204.785 -124.445)" fill="#dda36f"/>
    </g>
    <path id="Trazado_1238103" data-name="Trazado 1238103" d="M115.392,106.711v-4.98a6.392,6.392,0,0,1-5.9-2.3,1.318,1.318,0,0,0-1.812-.269c-3.511,2.545-13.4,6.482-22,2.571v2.845h-.017c-.032,3.111,0,7.885.417,9.649a14.774,14.774,0,0,0,3.18,6.236c9.018,10.485,26.127,3.976,26.127-9.671,0-1.681,0-3.013,0-4.078h0Z" transform="translate(-69.035 -79.758)" fill="#f7cf9c"/>
    <path id="Trazado_1238104" data-name="Trazado 1238104" d="M91.842,125.956c-.417-1.764-.449-6.537-.417-9.649h.017V115a18.439,18.439,0,0,1-5.758-1.538v2.845h-.017c-.032,3.111,0,7.885.417,9.649a14.743,14.743,0,0,0,17.179,11.14A14.926,14.926,0,0,1,91.842,125.956Z" transform="translate(-69.035 -91.49)" fill="#eab883"/>
    <path id="Trazado_1238105" data-name="Trazado 1238105" d="M280.519,229.269c-52.349,0-48.862-.1-49.579.288a2.386,2.386,0,0,0-1.249,2.1v38.138a2.387,2.387,0,0,0,2.387,2.387h48.442a2.387,2.387,0,0,0,2.387-2.387V231.656A2.705,2.705,0,0,0,280.519,229.269Z" transform="translate(-185.175 -184.86)" fill="#efefef"/>
    <path id="Trazado_1238106" data-name="Trazado 1238106" d="M237.993,269.8V231.665a2.386,2.386,0,0,1,2.387-2.387c-8.41.1-8.507-.219-9.44.288a2.386,2.386,0,0,0-1.249,2.1V269.8a2.387,2.387,0,0,0,2.387,2.387h8.3A2.387,2.387,0,0,1,237.993,269.8Z" transform="translate(-185.175 -184.869)" fill="#ddd"/>
    <path id="Trazado_1238107" data-name="Trazado 1238107" d="M332.923,79.936H301.9a2.331,2.331,0,0,0-2.324,2.324V97.943a2.331,2.331,0,0,0,2.324,2.324h27.305a2.552,2.552,0,0,1,1.717.663l2.263,2.057a1.231,1.231,0,0,0,2.06-.911V82.26A2.331,2.331,0,0,0,332.923,79.936Z" transform="translate(-241.528 -64.456)" fill="#ffb70d"/>
    <path id="Trazado_1238108" data-name="Trazado 1238108" d="M306.034,97.943V82.26a2.331,2.331,0,0,1,2.324-2.324H301.9a2.331,2.331,0,0,0-2.324,2.324V97.943a2.331,2.331,0,0,0,2.324,2.324h6.455A2.33,2.33,0,0,1,306.034,97.943Z" transform="translate(-241.529 -64.456)" fill="#f4a403"/>
    <circle id="Elipse_12798" data-name="Elipse 12798" cx="3.15" cy="3.15" r="3.15" transform="translate(67.937 52.201)" fill="#ccc"/>
    <path id="Trazado_1238109" data-name="Trazado 1238109" d="M353.769,269.56a3.149,3.149,0,1,0,2.725,4.72A3.146,3.146,0,0,1,353.769,269.56Z" transform="translate(-282.68 -217.358)" fill="#bcbbb8"/>
    <path id="Trazado_1238110" data-name="Trazado 1238110" d="M350.735,367.956V338.427a.005.005,0,0,0,0-.005H339.836a.005.005,0,0,0,0,.005v29.529Z" transform="translate(-273.986 -272.884)" fill="#ddd"/>
    <path id="Trazado_1238111" data-name="Trazado 1238111" d="M345.283,338.427a.005.005,0,0,1,0-.005h-5.452a.005.005,0,0,0,0,.005v29.529h5.452Z" transform="translate(-273.986 -272.884)" fill="#ccc"/>
    <path id="Trazado_1238112" data-name="Trazado 1238112" d="M334.585,479.986h0a2.628,2.628,0,0,0-2.628-2.628H316.668a2.628,2.628,0,0,0-2.628,2.628h0a2.628,2.628,0,0,0,2.628,2.628h15.288A2.629,2.629,0,0,0,334.585,479.986Z" transform="translate(-253.189 -384.914)" fill="#efefef"/>
    <path id="Trazado_1238113" data-name="Trazado 1238113" d="M321.856,479.986h0a2.628,2.628,0,0,1,2.628-2.628h-7.815a2.628,2.628,0,0,0-2.628,2.628h0a2.628,2.628,0,0,0,2.628,2.628h7.815A2.628,2.628,0,0,1,321.856,479.986Z" transform="translate(-253.19 -384.914)" fill="#ddd"/>
    <path id="Trazado_1238114" data-name="Trazado 1238114" d="M343.117,266.65a4.6,4.6,0,1,0,4.6-4.6A4.608,4.608,0,0,0,343.117,266.65Zm6.3,0a1.7,1.7,0,1,1-1.7-1.7A1.7,1.7,0,0,1,349.417,266.65Z" transform="translate(-276.635 -211.3)"/>
    <path id="Trazado_1238115" data-name="Trazado 1238115" d="M254.953,410.5a1.452,1.452,0,1,0,0,2.9h4.47a1.452,1.452,0,1,0,0-2.9Z" transform="translate(-204.374 -331.006)"/>
    <path id="Trazado_1238116" data-name="Trazado 1238116" d="M304.432,410.929a1.466,1.466,0,0,0-1.311-.4,1.451,1.451,0,0,0-.271.083,1.488,1.488,0,0,0-.252.134,1.414,1.414,0,0,0-.4.4,1.5,1.5,0,0,0-.217.523,1.446,1.446,0,0,0,.87,1.625,1.449,1.449,0,0,0,1.9-1.9A1.94,1.94,0,0,0,304.432,410.929Z" transform="translate(-243.444 -331.007)"/>
    <path id="Trazado_1238117" data-name="Trazado 1238117" d="M338.957,105.195a1.452,1.452,0,0,0-2.054,0l-3.584,3.584a1.452,1.452,0,0,0,0,2.054l3.584,3.584a1.452,1.452,0,1,0,2.054-2.054l-2.557-2.557,2.557-2.557A1.452,1.452,0,0,0,338.957,105.195Z" transform="translate(-268.392 -84.48)"/>
    <path id="Trazado_1238118" data-name="Trazado 1238118" d="M414.687,114.842c1.039,0,1.124-.712,4.611-4.009a1.452,1.452,0,0,0,0-2.054l-3.584-3.584a1.452,1.452,0,0,0-2.054,2.054l2.557,2.557-2.557,2.557A1.454,1.454,0,0,0,414.687,114.842Z" transform="translate(-333.173 -84.48)"/>
    <path id="Trazado_1238119" data-name="Trazado 1238119" d="M375.229,97.329l-4.025,11.06a1.452,1.452,0,1,0,2.729.993l4.025-11.06a1.452,1.452,0,1,0-2.729-.993Z" transform="translate(-299.212 -77.709)"/>
    <path id="Trazado_1238120" data-name="Trazado 1238120" d="M95.34,42.957c-50.482.163-48.672-.405-50.273.464A3.838,3.838,0,0,0,43.06,46.8V48.85l-3.974-2.417V45.41a16,16,0,0,0,8.692-14.382v-.022a6.438,6.438,0,0,0,2.106-.852,1.44,1.44,0,0,0,.149-.088,5.115,5.115,0,0,0,2.367-4.1,4.888,4.888,0,0,0-1.566-3.708c1.152-5.42.764-9.719-1.161-12.785a9.547,9.547,0,0,0-6.079-4.254.816.816,0,0,1-.465-.278C39.035-.156,29.95-1.5,21.993,1.809A1.452,1.452,0,1,0,23.11,4.491C29.8,1.7,37.6,2.7,40.862,6.762a3.73,3.73,0,0,0,2.109,1.3,6.66,6.66,0,0,1,4.241,2.961c1.414,2.252,1.733,5.527.957,9.748a6.164,6.164,0,0,0-2.212-.209,4.9,4.9,0,0,1-4.39-1.787,2.768,2.768,0,0,0-3.8-.546c-3.23,2.341-12.413,5.994-20.35,2.507a1.436,1.436,0,0,0-.774-.212.947.947,0,0,0-.122,0,6.847,6.847,0,0,0-1.862.281c-1.094-4.743-.338-9.555,3.187-12.933h0a1.452,1.452,0,1,0-2.011-2.1c-4.548,4.361-5.466,10.632-3.788,16.552-3,3-1.283,7.776,3.175,8.689A23.3,23.3,0,0,0,15.6,34.8,16.121,16.121,0,0,0,19.1,41.649a16.616,16.616,0,0,0,4.686,3.8v.971l-6.638,3.916c-.02.005-6.011,1.664-5.628,1.559a8.3,8.3,0,0,0-6.257,6.5c0,.018-.007.036-.01.054L.142,90.2a7.728,7.728,0,0,0,7.629,8.954H55.278A7.56,7.56,0,0,0,60.126,97.4a4.078,4.078,0,0,0,3.35,1.756H78.763a4.08,4.08,0,0,0,0-8.161H78.2V88.773h5.825a1.452,1.452,0,0,0,0-2.9H78.2V66.8a1.453,1.453,0,0,0-.716-2.715H64.934a1.453,1.453,0,0,0-.545,2.8v18.99c-19.308,0-17.793.085-18.152-.274-.4-.4-.273,1.943-.273-38.8a.934.934,0,0,1,.934-.934c51.608.04,48.5-.1,48.886.112a.935.935,0,0,1,.49.822V84.935a.934.934,0,0,1-.49.822c-.361.2-.249.075-4.984.112a1.452,1.452,0,1,0,0,2.9c4.321-.119,5.671.459,7.254-1.124a3.813,3.813,0,0,0,1.125-2.715V46.8A3.838,3.838,0,0,0,95.34,42.957ZM38.923,88.173a9.554,9.554,0,0,0-7.476,4.474A9.555,9.555,0,0,0,24,88.175a4.207,4.207,0,0,0-1.057-1.335,10.8,10.8,0,0,0,3.3-6.216H36.66a10.794,10.794,0,0,0,3.308,6.226A4.2,4.2,0,0,0,38.923,88.173ZM31.2,60.988l-2.35-6.068a10.24,10.24,0,0,0,5.274.006L31.736,61a.26.26,0,0,1-.266.181C31.275,61.179,31.249,61.109,31.2,60.988Zm4.98-14.381v3.1L35.632,51.1a7.393,7.393,0,0,1-8.258.006l-.686-1.771V46.662A16.239,16.239,0,0,0,36.18,46.607Zm6.51,5.417-6.266,4.99c2.731-6.945,2.7-6.675,2.66-7.182Zm5.088-24.045V23.7C50.031,24.6,50.1,27.052,47.778,27.979ZM15.165,23.7c-.02,1.134-.037,2.673-.022,4.27C12.844,27.031,12.917,24.6,15.165,23.7ZM21.3,39.756c-3.991-4.648-3.122-8.924-3.229-15.669,7.237,2.326,16.239.144,21.286-3.429a7.586,7.586,0,0,0,5.518,2.813c0,.707-.009,3.353,0,7.56C44.872,43.375,29.407,49.181,21.3,39.756Zm2.495,10.03c.051.406.2.54,2.732,7.174l-6.27-5.087Zm-12.26,2.106q-.061.021-.12.048A1.035,1.035,0,0,1,11.535,51.892ZM3.01,90.66l5.1-31.721c.9-4.43,5.054-4.238,9.27-5.655L22.333,57.3v9.328a1.452,1.452,0,0,0,2.9,0V59.655l3.449,2.8a3.192,3.192,0,0,0,5.564.007L37.7,59.71v6.917a1.452,1.452,0,0,0,2.9,0V57.4l2.452-1.953c.014,31.473-.03,29.458.032,29.964a5.5,5.5,0,0,1-2.721-2.732,10.317,10.317,0,0,1-.993-3.578,1.452,1.452,0,0,0-1.45-1.378H24.968a1.456,1.456,0,0,0-1.45,1.374,10.318,10.318,0,0,1-.993,3.583c-2.146,4.264-6.042,2.946-7.57,3.192l2.776-18.764a1.452,1.452,0,0,0-2.873-.425L12.018,85.869h-1.5a1.452,1.452,0,1,0,0,2.9h9.743a1.278,1.278,0,0,1,1.277,1.273v6.2H7.771A4.823,4.823,0,0,1,3.01,90.66Zm21.435,5.588v-5.1a6.664,6.664,0,0,1,5.39,5.1Zm14.028-5.107v5.107H33.059A6.664,6.664,0,0,1,38.473,91.142Zm41.466,3.931a1.177,1.177,0,0,1-1.176,1.176H63.475a1.176,1.176,0,1,1,0-2.352H78.763A1.177,1.177,0,0,1,79.939,95.072Zm-12.645-4.08v-24h8v24Zm-2.9,0a9.437,9.437,0,0,0-1.56.056c-.043-.611-.1-.785-.333-2.275h1.893Zm-4.835-2.219.332,2.066a4.669,4.669,0,0,1-4.609,5.41h-13.9v-6.2a1.278,1.278,0,0,1,1.277-1.273Z" transform="translate(0 0)"/>
    <path id="Trazado_1238121" data-name="Trazado 1238121" d="M295.835,95.672H323.14c.721,0,.866.508,3,2.343a2.684,2.684,0,0,0,4.489-1.986V87.637a1.452,1.452,0,1,0-2.9,0V95.53c-1.4-1.081-2.329-2.762-4.587-2.762H295.835a.883.883,0,0,1-.871-.871V76.213a.883.883,0,0,1,.871-.871h31.021a.883.883,0,0,1,.871.871V80.86a1.452,1.452,0,1,0,2.9,0V76.213a3.78,3.78,0,0,0-3.776-3.776H295.835a3.78,3.78,0,0,0-3.776,3.776V91.9A3.78,3.78,0,0,0,295.835,95.672Z" transform="translate(-235.465 -58.409)"/>
  </g>
</svg>
