<svg xmlns="http://www.w3.org/2000/svg" xmlns:xlink="http://www.w3.org/1999/xlink" width="102.884" height="102.884" viewBox="0 0 102.884 102.884">
  <defs>
    <filter id="Trazado_904820" x="0" y="0" width="102.884" height="102.884" filterUnits="userSpaceOnUse">
      <feOffset dy="3" input="SourceAlpha"/>
      <feGaussianBlur stdDeviation="3" result="blur"/>
      <feFlood flood-opacity="0.161"/>
      <feComposite operator="in" in2="blur"/>
      <feComposite in="SourceGraphic"/>
    </filter>
  </defs>
  <g id="Grupo_1237458" data-name="Grupo 1237458" transform="translate(-215 -2441.83)">
    <g id="Grupo_1236231" data-name="Grupo 1236231" transform="translate(44 -3680.398)">
      <g id="Grupo_1226551" data-name="Grupo 1226551" transform="translate(180 6128.228)">
        <g id="Grupo_1225716" data-name="Grupo 1225716" transform="translate(0 0)">
          <g id="Grupo_1211534" data-name="Grupo 1211534">
            <g id="Grupo_1173585" data-name="Grupo 1173585">
              <g id="Grupo_1173428" data-name="Grupo 1173428">
                <g id="Grupo_1171958" data-name="Grupo 1171958">
                  <g id="Grupo_1167341" data-name="Grupo 1167341">
                    <g id="Grupo_1166792" data-name="Grupo 1166792">
                      <g transform="matrix(1, 0, 0, 1, -9, -6)" filter="url(#Trazado_904820)">
                        <g id="Trazado_904820-2" data-name="Trazado 904820" transform="translate(9 6)" fill="#efecfa">
                          <path d="M 42.4418830871582 83.38380432128906 C 36.91410827636719 83.38380432128906 31.55247116088867 82.30150604248047 26.50591850280762 80.16700744628906 C 21.63076591491699 78.10498046875 17.25211906433105 75.1527099609375 13.49160099029541 71.39218902587891 C 9.731082916259766 67.63167572021484 6.778812408447266 63.25302886962891 4.716800689697266 58.37787628173828 C 2.582283020019531 53.33132171630859 1.500000715255737 47.96968460083008 1.500000715255737 42.44190979003906 C 1.500000715255737 36.91413497924805 2.582283020019531 31.55249786376953 4.716800689697266 26.50594520568848 C 6.778812408447266 21.63079261779785 9.731082916259766 17.25214576721191 13.49160099029541 13.49162769317627 C 17.25211906433105 9.731109619140625 21.63076591491699 6.778839111328125 26.50591850280762 4.71681547164917 C 31.55247116088867 2.582309722900391 36.91410827636719 1.500015616416931 42.4418830871582 1.500015616416931 C 47.96965789794922 1.500015616416931 53.33129501342773 2.582309722900391 58.37786102294922 4.71681547164917 C 63.25300216674805 6.778839111328125 67.63164520263672 9.731109619140625 71.39216613769531 13.49162769317627 C 75.15267944335938 17.25214576721191 78.10494995117188 21.63079261779785 80.16696166992188 26.50594520568848 C 82.30148315429688 31.55249786376953 83.38376617431641 36.91413497924805 83.38376617431641 42.44190979003906 C 83.38376617431641 47.96968460083008 82.30148315429688 53.33132171630859 80.16696166992188 58.37787628173828 C 78.10494995117188 63.25302886962891 75.15267944335938 67.63167572021484 71.39216613769531 71.39218902587891 C 67.63164520263672 75.1527099609375 63.25300216674805 78.10498046875 58.37786102294922 80.16700744628906 C 53.33129501342773 82.30150604248047 47.96965789794922 83.38380432128906 42.4418830871582 83.38380432128906 Z" stroke="none"/>
                          <path d="M 42.4418830871582 3.000015258789062 C 37.11593627929688 3.000015258789062 31.95090866088867 4.042442321777344 27.09024429321289 6.098320007324219 C 22.39389801025391 8.084724426269531 18.17550659179688 10.92904663085938 14.55226898193359 14.55228424072266 C 10.92901611328125 18.17552185058594 8.084693908691406 22.3939094543457 6.098312377929688 27.09027099609375 C 4.042427062988281 31.95093536376953 3 37.11596298217773 3 42.44190979003906 C 3 47.76785659790039 4.042427062988281 52.93288421630859 6.098312377929688 57.79354858398438 C 8.084693908691406 62.48991012573242 10.92901611328125 66.70829772949219 14.55226898193359 70.33153533935547 C 18.17550659179688 73.95477294921875 22.39389801025391 76.79909515380859 27.09024429321289 78.78549957275391 C 31.95090866088867 80.84137725830078 37.11593627929688 81.88380432128906 42.4418830871582 81.88380432128906 C 47.76782989501953 81.88380432128906 52.93285369873047 80.84137725830078 57.79352569580078 78.78549957275391 C 62.4898681640625 76.79909515380859 66.708251953125 73.95477294921875 70.33149719238281 70.33153533935547 C 73.95475006103516 66.70829772949219 76.799072265625 62.48991012573242 78.78545379638672 57.79354858398438 C 80.84133911132812 52.93288421630859 81.88376617431641 47.76785659790039 81.88376617431641 42.44190979003906 C 81.88376617431641 37.11596298217773 80.84133911132812 31.95093536376953 78.78545379638672 27.09027099609375 C 76.799072265625 22.3939094543457 73.95475006103516 18.17552185058594 70.33149719238281 14.55228424072266 C 66.708251953125 10.92904663085938 62.4898681640625 8.084724426269531 57.79352569580078 6.098320007324219 C 52.93285369873047 4.042442321777344 47.76782989501953 3.000015258789062 42.4418830871582 3.000015258789062 M 42.4418830871582 1.52587890625e-05 C 65.88188171386719 1.52587890625e-05 84.88376617431641 19.00190734863281 84.88376617431641 42.44190979003906 C 84.88376617431641 65.88191223144531 65.88188171386719 84.88380432128906 42.4418830871582 84.88380432128906 C 19.00188446044922 84.88380432128906 0 65.88191223144531 0 42.44190979003906 C 0 19.00190734863281 19.00188446044922 1.52587890625e-05 42.4418830871582 1.52587890625e-05 Z" stroke="none" fill="#c3b7ef"/>
                        </g>
                      </g>
                    </g>
                  </g>
                </g>
              </g>
            </g>
          </g>
        </g>
      </g>
    </g>
    <g id="programacion_2_" data-name="programacion (2)" transform="translate(236.608 2460.439)">
      <g id="Grupo_1237456" data-name="Grupo 1237456" transform="translate(1.93 1.93)">
        <g id="Grupo_1237447" data-name="Grupo 1237447" transform="translate(0 20.462)">
          <path id="Trazado_1238544" data-name="Trazado 1238544" d="M2,53.763V24H31.168c.121.26.251.521.391.772l-1.135,2.2,3.953,3.944,2.2-1.125a13.513,13.513,0,0,0,2.809,1.153l.753,2.362h2.79V48.183a5.588,5.588,0,0,0-5.264,7.441H3.86A1.866,1.866,0,0,1,2,53.763Z" transform="translate(-2 -24)" fill="#e6e9ed"/>
        </g>
        <g id="Grupo_1237448" data-name="Grupo 1237448" transform="translate(0 9.301)">
          <path id="Trazado_1238545" data-name="Trazado 1238545" d="M31.168,23.161H2v-9.3A1.866,1.866,0,0,1,3.86,12H31.168a12.73,12.73,0,0,0-.763,2.037l-2.362.753v5.581l2.362.753A12.73,12.73,0,0,0,31.168,23.161Z" transform="translate(-2 -12)" fill="#5cd6b3"/>
        </g>
        <g id="Grupo_1237449" data-name="Grupo 1237449" transform="translate(3.72 13.021)">
          <path id="Trazado_1238546" data-name="Trazado 1238546" d="M16.231,19.72H6.93A.93.93,0,0,1,6,18.79V16.93A.93.93,0,0,1,6.93,16h9.3a.93.93,0,0,1,.93.93v1.86A.93.93,0,0,1,16.231,19.72Z" transform="translate(-6 -16)" fill="#e6e9ed"/>
        </g>
        <g id="Grupo_1237450" data-name="Grupo 1237450" transform="translate(35.344 44.645)">
          <path id="Trazado_1238547" data-name="Trazado 1238547" d="M45.581,50A5.588,5.588,0,1,1,40,55.581,5.585,5.585,0,0,1,45.581,50Z" transform="translate(-40 -50)" fill="#ff826e"/>
        </g>
        <g id="Grupo_1237451" data-name="Grupo 1237451" transform="translate(39.064 48.365)">
          <circle id="Elipse_12800" data-name="Elipse 12800" cx="2" cy="2" r="2" transform="translate(0.005 -0.296)" fill="#fc6e51"/>
        </g>
        <g id="Grupo_1237452" data-name="Grupo 1237452" transform="translate(50.226 44.645)">
          <ellipse id="Elipse_12801" data-name="Elipse 12801" cx="2" cy="1.5" rx="2" ry="1.5" transform="translate(-0.156 0.425)" fill="#ff826e"/>
        </g>
        <g id="Grupo_1237453" data-name="Grupo 1237453" transform="translate(27.903 44.645)">
          <ellipse id="Elipse_12802" data-name="Elipse 12802" cx="2" cy="1.5" rx="2" ry="1.5" transform="translate(0.167 0.425)" fill="#ff826e"/>
        </g>
        <g id="Grupo_1237454" data-name="Grupo 1237454" transform="translate(26.043)">
          <path id="Trazado_1238548" data-name="Trazado 1238548" d="M59.763,14.091v5.581l-2.362.753a13.514,13.514,0,0,1-1.153,2.809l1.135,2.2-3.953,3.944-2.2-1.125A13.513,13.513,0,0,1,48.425,29.4l-.753,2.362H42.091L41.338,29.4a13.513,13.513,0,0,1-2.809-1.153l-2.2,1.125-3.953-3.944,1.135-2.2c-.14-.251-.27-.512-.391-.772a12.73,12.73,0,0,1-.763-2.037L30,19.672V14.091l2.362-.753a12.731,12.731,0,0,1,.763-2.037c.121-.26.251-.521.391-.772l-1.135-2.2,3.953-3.953,2.2,1.135a13.513,13.513,0,0,1,2.809-1.153L42.091,2h5.581l.753,2.362a13.514,13.514,0,0,1,2.809,1.153l2.2-1.135,3.953,3.953-1.135,2.2A13.514,13.514,0,0,1,57.4,13.338Z" transform="translate(-30 -2)" fill="#fcd770"/>
        </g>
        <g id="Grupo_1237455" data-name="Grupo 1237455" transform="translate(31.624 5.581)">
          <circle id="Elipse_12803" data-name="Elipse 12803" cx="9" cy="9" r="9" transform="translate(0.446 0.489)" fill="#ffeaa7"/>
        </g>
      </g>
      <g id="Grupo_1237457" data-name="Grupo 1237457" transform="translate(1 1)">
        <path id="Trazado_1238549" data-name="Trazado 1238549" d="M45.231,7A10.231,10.231,0,1,0,55.462,17.231,10.243,10.243,0,0,0,45.231,7Zm0,18.6A8.371,8.371,0,1,1,53.6,17.231,8.381,8.381,0,0,1,45.231,25.6Z" transform="translate(-3.376 -1.419)"/>
        <path id="Trazado_1238550" data-name="Trazado 1238550" d="M56.124,12.528a13.891,13.891,0,0,0-.855-2.073l1.22-2.371L51.584,3.178,49.213,4.4a13.891,13.891,0,0,0-2.073-.855L46.323,1H39.385l-.815,2.543A13.891,13.891,0,0,0,36.5,4.4l-2.371-1.22L29.221,8.083l1.14,2.218H3.79A2.794,2.794,0,0,0,1,13.091V52.156a2.794,2.794,0,0,0,2.79,2.79H36.981a6.506,6.506,0,1,0,6.8-9.227v-13.1h2.538l.815-2.543a13.891,13.891,0,0,0,2.073-.855l2.371,1.22,4.905-4.905-1.22-2.37a13.909,13.909,0,0,0,.855-2.073l2.545-.818V13.342ZM3.79,12.161h25.93c-.044.123-.094.242-.134.366l-2.544.816v6.938l2.543.815c.04.125.091.244.134.366H2.86V13.091a.932.932,0,0,1,.93-.93ZM47.505,52.156a4.651,4.651,0,1,1-4.651-4.651A4.656,4.656,0,0,1,47.505,52.156Zm-5.581-6.436a6.447,6.447,0,0,0-5.506,7.366H3.79a.932.932,0,0,1-.93-.93V23.323h27.5L29.221,25.54l4.905,4.905,2.371-1.22a13.891,13.891,0,0,0,2.073.855l.816,2.544h2.538Zm14.882-26.8-2.191.7-.136.481a11.974,11.974,0,0,1-1.072,2.6l-.245.436,1.051,2.042-2.987,2.987-2.042-1.05-.435.244a12.012,12.012,0,0,1-2.6,1.072l-.481.136-.7,2.19H40.743l-.7-2.191-.481-.136a12.059,12.059,0,0,1-2.6-1.072l-.435-.244-2.042,1.05L31.5,25.184l1.051-2.042-.245-.436a11.993,11.993,0,0,1-1.072-2.6l-.136-.481-2.191-.7V14.7l2.191-.7.136-.481a12.058,12.058,0,0,1,1.072-2.6l.244-.435L31.5,8.44l2.987-2.987L36.524,6.5l.435-.244a12.012,12.012,0,0,1,2.6-1.072l.481-.136.7-2.191h4.224l.7,2.191.481.136a12.059,12.059,0,0,1,2.6,1.072l.435.244,2.042-1.05L54.213,8.44l-1.05,2.042.244.435a12.012,12.012,0,0,1,1.072,2.6l.136.481,2.191.7Z" transform="translate(-1 -1)"/>
        <path id="Trazado_1238551" data-name="Trazado 1238551" d="M48.2,14.516l2.372,3.162L48.2,20.841l1.488,1.116L52.9,17.678,49.688,13.4Z" transform="translate(-4.299 -1.867)"/>
        <path id="Trazado_1238552" data-name="Trazado 1238552" d="M41.959,13.4,38.75,17.678l3.209,4.278,1.488-1.116-2.372-3.162,2.372-3.162Z" transform="translate(-3.639 -1.867)"/>
        <path id="Trazado_1238553" data-name="Trazado 1238553" d="M0,0H13.154V1.86H0Z" transform="translate(40.018 22.194) rotate(-81.837)"/>
        <path id="Trazado_1238554" data-name="Trazado 1238554" d="M6.86,20.581h9.3a1.862,1.862,0,0,0,1.86-1.86V16.86A1.862,1.862,0,0,0,16.161,15H6.86A1.862,1.862,0,0,0,5,16.86v1.86A1.862,1.862,0,0,0,6.86,20.581Zm3.72-1.86V16.86h1.86v1.86Zm5.582,0H14.3V16.86h1.86Zm-9.3-1.86H8.72v1.86H6.86Z" transform="translate(-1.28 -1.979)"/>
        <path id="Trazado_1238555" data-name="Trazado 1238555" d="M43,55.79A2.79,2.79,0,1,0,45.79,53,2.794,2.794,0,0,0,43,55.79Zm3.72,0a.93.93,0,1,1-.93-.93A.932.932,0,0,1,46.72,55.79Z" transform="translate(-3.936 -4.635)"/>
        <path id="Trazado_1238556" data-name="Trazado 1238556" d="M58.581,48.123V44.776l-3.72-3.72V34H53v7.826l3.72,3.72v2.576a2.79,2.79,0,1,0,1.86,0Zm-.93,3.549a.93.93,0,1,1,.93-.93A.932.932,0,0,1,57.651,51.672Z" transform="translate(-4.635 -3.307)"/>
        <path id="Trazado_1238557" data-name="Trazado 1238557" d="M36.581,41.056l-3.72,3.72v3.347a2.79,2.79,0,1,0,1.86,0V45.546l3.72-3.72V34h-1.86ZM33.79,51.672a.93.93,0,1,1,.93-.93A.932.932,0,0,1,33.79,51.672Z" transform="translate(-3.097 -3.307)"/>
        <path id="Trazado_1238558" data-name="Trazado 1238558" d="M6.86,33.511a2.794,2.794,0,0,0,2.79,2.79h.93v-1.86h-.93a.932.932,0,0,1-.93-.93,2.772,2.772,0,0,0-.725-1.86,2.772,2.772,0,0,0,.725-1.86.932.932,0,0,1,.93-.93h.93V27h-.93a2.794,2.794,0,0,0-2.79,2.79.932.932,0,0,1-.93.93H5v1.86h.93A.932.932,0,0,1,6.86,33.511Z" transform="translate(-1.28 -2.817)"/>
        <path id="Trazado_1238559" data-name="Trazado 1238559" d="M13,27H24.161v1.86H13Z" transform="translate(-1.839 -2.817)"/>
        <path id="Trazado_1238560" data-name="Trazado 1238560" d="M13,31H24.161v1.86H13Z" transform="translate(-1.839 -3.097)"/>
        <path id="Trazado_1238561" data-name="Trazado 1238561" d="M23,35h1.86v1.86H23Z" transform="translate(-2.538 -3.376)"/>
        <path id="Trazado_1238562" data-name="Trazado 1238562" d="M13,35h7.441v1.86H13Z" transform="translate(-1.839 -3.376)"/>
        <path id="Trazado_1238563" data-name="Trazado 1238563" d="M26.72,45.79A2.794,2.794,0,0,0,23.93,43H23v1.86h.93a.932.932,0,0,1,.93.93,2.772,2.772,0,0,0,.725,1.86,2.768,2.768,0,0,0-.725,1.86.932.932,0,0,1-.93.93H23V52.3h.93a2.794,2.794,0,0,0,2.79-2.79.932.932,0,0,1,.93-.93h.93V46.72h-.93A.932.932,0,0,1,26.72,45.79Z" transform="translate(-2.538 -3.936)"/>
        <path id="Trazado_1238564" data-name="Trazado 1238564" d="M9,51H20.161v1.86H9Z" transform="translate(-1.559 -4.495)"/>
        <path id="Trazado_1238565" data-name="Trazado 1238565" d="M13,47h7.441v1.86H13Z" transform="translate(-1.839 -4.215)"/>
        <path id="Trazado_1238566" data-name="Trazado 1238566" d="M9,47h1.86v1.86H9Z" transform="translate(-1.559 -4.215)"/>
        <path id="Trazado_1238567" data-name="Trazado 1238567" d="M9,43H20.161v1.86H9Z" transform="translate(-1.559 -3.936)"/>
        <path id="Trazado_1238568" data-name="Trazado 1238568" d="M5,39H23.6v1.86H5Z" transform="translate(-1.28 -3.656)"/>
      </g>
    </g>
  </g>
</svg>
