<svg xmlns="http://www.w3.org/2000/svg" width="88.83" height="78.279" viewBox="0 0 88.83 78.279">
  <g id="Grupo_1237473" data-name="Grupo 1237473" transform="translate(-180 -4050)">
    <rect id="Rectángulo_423168" data-name="Rectángulo 423168" width="85" height="77" rx="11" transform="translate(180 4050)" fill="#6c4dd8"/>
    <g id="inspire-idea_14781822" transform="translate(188.656 4048.004)">
      <g id="Grupo_1237463" data-name="Grupo 1237463" transform="translate(7.75 7.5)">
        <path id="Trazado_1238569" data-name="Trazado 1238569" d="M118.589,350.465v-5.231a3.181,3.181,0,0,0,2.585-3.125v-8.995H137.6v8.995a3.181,3.181,0,0,0,2.585,3.125l.447,4.506Z" transform="translate(-102.644 -286.273)" fill="#ca6e59"/>
        <path id="Trazado_1238570" data-name="Trazado 1238570" d="M69.929,21.658c0,10.35-5.57,22.646-19.75,18.579L38.347,34.855a4.672,4.672,0,0,1-.308-6.909l1.194-.329.826-.821a4.937,4.937,0,0,1,.989-8.469.436.436,0,0,0,.255-.507,4.686,4.686,0,0,1-.131-1.1,4.561,4.561,0,0,1,4.511-4.609,4.516,4.516,0,0,1,.878.088,2.142,2.142,0,0,1,.341-.345,1.822,1.822,0,0,0,.757-1.59,5.084,5.084,0,0,1,7.123-.5.429.429,0,0,0,.644-.1,4.463,4.463,0,0,1,7.639,0,.429.429,0,0,0,.645.1,5.067,5.067,0,0,1,1.014-.673C69.929,10.663,69.929,17.924,69.929,21.658Z" transform="translate(-32.501 -7.5)" fill="#73788c"/>
        <path id="Trazado_1238571" data-name="Trazado 1238571" d="M162.292,37.426A4.637,4.637,0,0,1,160.6,41.02l-13.532,7.354h-12.1L130.64,46.4a21.256,21.256,0,0,0,14.544-31.153,5.035,5.035,0,0,1,2.29-.548,5.1,5.1,0,0,1,3.819,1.725l.237,1.161.86.774a4.512,4.512,0,0,1,.876-.088,4.562,4.562,0,0,1,4.513,4.609,4.712,4.712,0,0,1-.237,1.475,4.932,4.932,0,0,1,1.351,8.6A4.594,4.594,0,0,1,162.292,37.426Z" transform="translate(-112.962 -13.664)" fill="#5e6577"/>
        <path id="Trazado_1238572" data-name="Trazado 1238572" d="M78.924,203.33a7.876,7.876,0,0,0,6-7.649h0a3.132,3.132,0,0,0-3.132-3.132H78.923l-31.549,0H44.507a3.132,3.132,0,0,0-3.132,3.132h0a7.876,7.876,0,0,0,6,7.649Z" transform="translate(-36.538 -165.929)" fill="#ca6e59"/>
        <path id="Trazado_1238573" data-name="Trazado 1238573" d="M106.873,131.037a3.116,3.116,0,0,1,4.069,1.34,12.513,12.513,0,0,0,1.044,1.586l.68.9c.288.84.929,4.764,1.818,4.764V151.58a9.968,9.968,0,0,1-3.4,7.5l-6.19,5.417a6.644,6.644,0,0,1-4.375,1.643H96.844a6.644,6.644,0,0,1-4.375-1.643l-6.19-5.417a9.967,9.967,0,0,1-3.4-7.5V139.632a2.116,2.116,0,0,0,1.966-1.446l1.363-5.318a3.115,3.115,0,0,1,4.292-1.8l.2.1,1.6.614a17.754,17.754,0,0,0,12.7,0l1.6-.614Z" transform="translate(-72.068 -113.011)" fill="#d78878"/>
        <path id="Trazado_1238574" data-name="Trazado 1238574" d="M171.678,301.461c-3.413,0-3.565-3.15-3.507-4.293a.431.431,0,0,1,.431-.408h6.143a.43.43,0,0,1,.431.418C175.2,298.33,174.978,301.461,171.678,301.461Z" transform="translate(-145.086 -255.149)" fill="#eaf6ff"/>
        <path id="Trazado_1238575" data-name="Trazado 1238575" d="M17.211,442.717,8.182,442.7a.431.431,0,0,1-.432-.432v-8.017a.432.432,0,0,1,.232-.384,13.95,13.95,0,0,1,3.762-1.295l1.04-.209,9.176,3.4Z" transform="translate(-7.75 -371.242)" fill="#9be69d"/>
        <path id="Trazado_1238576" data-name="Trazado 1238576" d="M303.629,436.6l-3.483,5.684-12.024.009-4.35-7.618c.047-.049,8.795-2.8,8.795-2.8l.594.114a13.956,13.956,0,0,1,3.932,1.384Z" transform="translate(-244.065 -370.831)" fill="#9be69d"/>
        <path id="Trazado_1238577" data-name="Trazado 1238577" d="M128.933,418.39l1.314,6.6L125.5,430.74l-14.421.017-5.47-6.03,2.04-6.3A14.771,14.771,0,0,0,128.933,418.39Z" transform="translate(-91.53 -359.282)" fill="#eaf6ff"/>
        <path id="Trazado_1238578" data-name="Trazado 1238578" d="M53.586,413.406l-3.928-14.124a1.581,1.581,0,0,0-1.983-1.089l-8.732,2.661a.684.684,0,0,0-.428.933l1.842,4.171a.432.432,0,0,0,.3.246l4.488,1.03a.432.432,0,0,1,.257.668l-2.435,3.49a.432.432,0,0,0-.052.393l.587,1.621Z" transform="translate(-34.038 -341.931)" fill="#bbf49b"/>
        <path id="Trazado_1238579" data-name="Trazado 1238579" d="M243.879,413.193l3.933-14.141a1.58,1.58,0,0,1,1.983-1.088l8.732,2.66a.686.686,0,0,1,.428.933l-1.842,4.171a.431.431,0,0,1-.3.246L252.326,407a.432.432,0,0,0-.258.668l2.436,3.491a.431.431,0,0,1,.052.393l-.589,1.642Z" transform="translate(-209.911 -341.735)" fill="#bbf49b"/>
        <g id="Grupo_1237460" data-name="Grupo 1237460" transform="translate(53.252 39.023)">
          <path id="Trazado_1238580" data-name="Trazado 1238580" d="M395.026,387.922v5.532a16.851,16.851,0,0,1-.379,3.354,11.779,11.779,0,0,1-1.363,2.452c-.872,1.467-.49,2.978-.484,4.684l-1.106.707h-10.9v-2.368a5.949,5.949,0,0,0-1.565-4.021,4.924,4.924,0,0,1-1.293-3.323v-2.384a2.918,2.918,0,0,1,1.246-2.391Z" transform="translate(-377.933 -372.22)" fill="#d78878"/>
          <g id="Grupo_1237459" data-name="Grupo 1237459" transform="translate(13.305 9.289)">
            <path id="Trazado_1238581" data-name="Trazado 1238581" d="M474.213,344.278v5.485a1.15,1.15,0,0,1-.462,1.03c-.345.345-1.558-.183-2.085-.178l-.938-1-.3-3.566,1-.769a1.929,1.929,0,0,1,1.879-1.926C473.933,343.585,474.213,343.911,474.213,344.278Z" transform="translate(-470.425 -343.349)" fill="#d78878"/>
            <path id="Trazado_1238582" data-name="Trazado 1238582" d="M482.669,345.268V349.6a1.931,1.931,0,0,1-3.491,1.134l-.124-.131a1.93,1.93,0,0,0,1.913-1.931v-4.33a1.918,1.918,0,0,0-.28-1h.052A1.929,1.929,0,0,1,482.669,345.268Z" transform="translate(-477.813 -343.34)" fill="#ca6e59"/>
          </g>
          <path id="Trazado_1238583" data-name="Trazado 1238583" d="M477.96,386.87v5.77a9.408,9.408,0,0,1-1.323,4.812,9.412,9.412,0,0,0-1.322,4.848l0,1.017a.432.432,0,0,1-.432.433H473.56l-.006-1.45a9.427,9.427,0,0,1,1.323-4.848,9.408,9.408,0,0,0,1.323-4.812v-5.521Z" transform="translate(-459.798 -371.319)" fill="#ca6e59"/>
          <path id="Trazado_1238584" data-name="Trazado 1238584" d="M392.367,281.883v15.582c0,1.119-1.831,2.034-2.95,2.034l.951-2.542-1.315-1.251V281.883a2.036,2.036,0,0,1,1.2-1.853A1.881,1.881,0,0,1,392.367,281.883Z" transform="translate(-387.452 -279.849)" fill="#d78878"/>
          <path id="Trazado_1238585" data-name="Trazado 1238585" d="M418.758,332.7v5.113c0,.824-1.339,1.538-2.046,1.856a2.039,2.039,0,0,1-1.2-1.856l-.5-.11V332.88l.5-.176a2.039,2.039,0,0,1,1.2-1.854C418.418,331.068,418.758,331.881,418.758,332.7Z" transform="translate(-409.677 -323.358)" fill="#d78878"/>
          <path id="Trazado_1238586" data-name="Trazado 1238586" d="M448.4,332.7v5.422c0,.823-1.488,1.536-2.2,1.854a2.037,2.037,0,0,1-1.2-1.854l-.485-.309v-4.893l.485-.22a2.039,2.039,0,0,1,1.2-1.854C448.132,331.112,448.4,331.881,448.4,332.7Z" transform="translate(-434.936 -323.358)" fill="#d78878"/>
          <path id="Trazado_1238587" data-name="Trazado 1238587" d="M400.425,280.8v14.753a.92.92,0,0,1-1.833,0V280.8a2.039,2.039,0,0,0-1.2-1.853,2,2,0,0,1,.834-.181h.163A2.039,2.039,0,0,1,400.425,280.8Z" transform="translate(-394.595 -278.77)" fill="#ca6e59"/>
          <path id="Trazado_1238588" data-name="Trazado 1238588" d="M429.862,331.634v5.113a2.041,2.041,0,0,1-2.034,2.036h-.164a1.987,1.987,0,0,1-.83-.18,2.039,2.039,0,0,0,1.2-1.856v-5.113a2.039,2.039,0,0,0-1.2-1.854,1.987,1.987,0,0,1,.83-.18h.164A2.04,2.04,0,0,1,429.862,331.634Z" transform="translate(-419.799 -322.288)" fill="#ca6e59"/>
          <path id="Trazado_1238589" data-name="Trazado 1238589" d="M459.282,331.634v5.422a2.041,2.041,0,0,1-2.036,2.034h-.163a1.982,1.982,0,0,1-.83-.18,2.037,2.037,0,0,0,1.2-1.854v-5.422a2.039,2.039,0,0,0-1.2-1.854,1.982,1.982,0,0,1,.83-.18h.163A2.042,2.042,0,0,1,459.282,331.634Z" transform="translate(-444.987 -322.288)" fill="#ca6e59"/>
          <path id="Trazado_1238590" data-name="Trazado 1238590" d="M403.334,367.75a4.369,4.369,0,0,1-.093.9c-.378,1.809-3.07,2.034-4.978,2.232a6.086,6.086,0,0,0-3.606-.491c-1.141.353-1.857,2.185-1.874,2.172l-3.734-1.954v-1.839l3.606-2.593a4.039,4.039,0,0,1,2.308-.751l5.986-.057A2.387,2.387,0,0,1,403.334,367.75Z" transform="translate(-387.451 -352.909)" fill="#ca6e59"/>
          <path id="Trazado_1238591" data-name="Trazado 1238591" d="M392.079,382.851l1.7-2.292a.432.432,0,0,1,.294-.171l3.681-.446a2.921,2.921,0,0,0,2.014-2.8.983.983,0,0,0-.989-.961h-5.416a3.655,3.655,0,0,0-2.1.66l-4.674,3.271Z" transform="translate(-385.349 -362.166)" fill="#d78878"/>
        </g>
        <g id="Grupo_1237462" data-name="Grupo 1237462" transform="translate(39.526 2.033)">
          <path id="Trazado_1238592" data-name="Trazado 1238592" d="M311.371,33.161a16.758,16.758,0,0,1-16.639,17.016c-3.035,0-9.7-2.228-10.567-4.647l.164-.662a.427.427,0,0,0-.037-.3,15.708,15.708,0,0,1,24.323-19.016C310.632,28.708,311.371,31.331,311.371,33.161Z" transform="translate(-282.516 -21.635)" fill="#eaf6ff"/>
          <path id="Trazado_1238593" data-name="Trazado 1238593" d="M314.75,63.974a15.732,15.732,0,0,1-23.578,10.045.429.429,0,0,0-.3-.056L284.39,75.2a.432.432,0,0,1-.5-.528l1.44-5.826a16.94,16.94,0,0,0,24.449-19.979A15.67,15.67,0,0,1,314.75,63.974Z" transform="translate(-283.681 -44.948)" fill="#d8ecfe"/>
          <g id="Grupo_1237461" data-name="Grupo 1237461" transform="translate(7.602 3.913)">
            <path id="Trazado_1238594" data-name="Trazado 1238594" d="M349.716,57.529c0,4.209-4.421,8.28-8.716,8.28-.652,0-1.356.443-2.494-1.238a9.154,9.154,0,0,0-1.126-1.98,7.8,7.8,0,0,1,4.4-12.91C347.682,49.682,349.716,53.785,349.716,57.529Z" transform="translate(-335.361 -49.56)" fill="#ffe177"/>
            <path id="Trazado_1238595" data-name="Trazado 1238595" d="M368.254,56.634a7.769,7.769,0,0,1-1.984,5.195,9.413,9.413,0,0,0-1.888,5.613v.487l-7.849.025v-.43a13.178,13.178,0,0,0-.965-4.289,7.894,7.894,0,0,0,1.889.227c4.3,0,8.016-2.8,8.016-7.006a7.666,7.666,0,0,0-6.392-7.5,7.8,7.8,0,0,1,9.174,7.675Z" transform="translate(-352.661 -48.837)" fill="#ffd15b"/>
            <path id="Trazado_1238596" data-name="Trazado 1238596" d="M368.243,179.51l1.22,2.383c0,1.293-.775,2.383-3.56,2.383h-.611a2.341,2.341,0,0,1-2.341-2.341V179.51h5.292Z" transform="translate(-358.982 -160.712)" fill="#5e6577"/>
            <path id="Trazado_1238597" data-name="Trazado 1238597" d="M388.177,179.511v2.425a2.341,2.341,0,0,1-2.341,2.341h-2.362a2.34,2.34,0,0,0,2.34-2.341v-2.425Z" transform="translate(-376.553 -160.713)" fill="#4d5263"/>
            <path id="Trazado_1238598" data-name="Trazado 1238598" d="M357.129,161c0,.518.314,1.105,0,1.446a9.428,9.428,0,0,1-3.129.743h-5.758a1.811,1.811,0,0,1-1.738-1.876,1.955,1.955,0,0,1,.508-1.328,1.675,1.675,0,0,1,1.23-.549H354C354.96,159.439,357.129,159.967,357.129,161Z" transform="translate(-344.901 -143.528)" fill="#73788c"/>
            <path id="Trazado_1238599" data-name="Trazado 1238599" d="M403.5,161.316a1.952,1.952,0,0,1-.508,1.327,1.675,1.675,0,0,1-1.23.549h-3.153a1.673,1.673,0,0,0,1.23-.549,1.952,1.952,0,0,0,.508-1.327,1.812,1.812,0,0,0-1.738-1.877h3.153A1.811,1.811,0,0,1,403.5,161.316Z" transform="translate(-389.512 -143.528)" fill="#5e6577"/>
          </g>
        </g>
      </g>
      <g id="Grupo_1237472" data-name="Grupo 1237472" transform="translate(7.75 7.5)">
        <g id="Grupo_1237464" data-name="Grupo 1237464" transform="translate(4.837 26.624)">
          <path id="Trazado_1238600" data-name="Trazado 1238600" d="M47.3,203.34a7.876,7.876,0,0,1-5.927-7.631h0a3.132,3.132,0,0,1,3.132-3.132h2.868" transform="translate(-41.376 -192.577)" fill="none" stroke="#000" stroke-linecap="round" stroke-linejoin="round" stroke-miterlimit="10" stroke-width="2"/>
          <path id="Trazado_1238601" data-name="Trazado 1238601" d="M308.539,232.041a7.889,7.889,0,0,1-5.482,5.076" transform="translate(-265.413 -226.364)" fill="none" stroke="#000" stroke-linecap="round" stroke-linejoin="round" stroke-miterlimit="10" stroke-width="2"/>
        </g>
        <path id="Trazado_1238602" data-name="Trazado 1238602" d="M209.872,132.776a17.751,17.751,0,0,0,3.859-1l1.6-.614.266-.125a3.115,3.115,0,0,1,4.273,1.81" transform="translate(-180.796 -113.011)" fill="none" stroke="#000" stroke-linecap="round" stroke-linejoin="round" stroke-miterlimit="10" stroke-width="2"/>
        <path id="Trazado_1238603" data-name="Trazado 1238603" d="M114.483,145.563v6.143a9.968,9.968,0,0,1-3.4,7.5l-6.19,5.417a6.644,6.644,0,0,1-4.375,1.643H96.844a6.644,6.644,0,0,1-4.375-1.643l-6.19-5.417a9.967,9.967,0,0,1-3.4-7.5V139.758a2.116,2.116,0,0,0,1.966-1.446l1.363-5.318a3.115,3.115,0,0,1,4.292-1.8l.2.1,1.6.614a17.742,17.742,0,0,0,3.835,1" transform="translate(-72.068 -113.137)" fill="none" stroke="#000" stroke-linecap="round" stroke-linejoin="round" stroke-miterlimit="10" stroke-width="2"/>
        <g id="Grupo_1237466" data-name="Grupo 1237466" transform="translate(17.481 25.257)">
          <g id="Grupo_1237465" data-name="Grupo 1237465">
            <path id="Trazado_1238604" data-name="Trazado 1238604" d="M185.113,262.089a3.335,3.335,0,0,1-3.024,0" transform="translate(-174.49 -250.722)" fill="none" stroke="#000" stroke-linecap="round" stroke-linejoin="round" stroke-miterlimit="10" stroke-width="2"/>
            <path id="Trazado_1238605" data-name="Trazado 1238605" d="M134.8,183.782a5.753,5.753,0,0,0-5.531,0" transform="translate(-129.266 -183.073)" fill="none" stroke="#000" stroke-linecap="round" stroke-linejoin="round" stroke-miterlimit="10" stroke-width="2"/>
            <path id="Trazado_1238606" data-name="Trazado 1238606" d="M223.017,183.782a5.753,5.753,0,0,0-5.531,0" transform="translate(-204.795 -183.073)" fill="none" stroke="#000" stroke-linecap="round" stroke-linejoin="round" stroke-miterlimit="10" stroke-width="2"/>
            <line id="Línea_3911" data-name="Línea 3911" y1="2.45" transform="translate(15.456 4.154)" fill="none" stroke="#000" stroke-linecap="round" stroke-linejoin="round" stroke-miterlimit="10" stroke-width="2"/>
            <line id="Línea_3912" data-name="Línea 3912" y1="2.45" transform="translate(2.766 4.154)" fill="none" stroke="#000" stroke-linecap="round" stroke-linejoin="round" stroke-miterlimit="10" stroke-width="2"/>
          </g>
          <path id="Trazado_1238607" data-name="Trazado 1238607" d="M171.678,301.461c-4.169,0-3.472-4.7-3.472-4.7h6.944S175.722,301.461,171.678,301.461Z" transform="translate(-162.567 -280.406)" fill="none" stroke="#000" stroke-linecap="round" stroke-linejoin="round" stroke-miterlimit="10" stroke-width="2"/>
        </g>
        <path id="Trazado_1238608" data-name="Trazado 1238608" d="M76.24,13.722A4.448,4.448,0,0,0,71.933,12.2a5.178,5.178,0,0,0-4.916-3.66,5.1,5.1,0,0,0-3.693,1.59,4.473,4.473,0,0,0-8.148,0,5.1,5.1,0,0,0-3.693-1.59,5.178,5.178,0,0,0-4.916,3.66,4.445,4.445,0,0,0-.878-.088,4.561,4.561,0,0,0-4.512,4.608,4.69,4.69,0,0,0,.237,1.474,4.933,4.933,0,0,0-1.351,8.6,4.648,4.648,0,0,0-1.712,8.06" transform="translate(-32.505 -7.5)" fill="none" stroke="#000" stroke-linecap="round" stroke-linejoin="round" stroke-miterlimit="10" stroke-width="2"/>
        <path id="Trazado_1238609" data-name="Trazado 1238609" d="M62.363,142.466a4.516,4.516,0,0,1-2.036-.825" transform="translate(-52.764 -122.344)" fill="none" stroke="#000" stroke-linecap="round" stroke-linejoin="round" stroke-miterlimit="10" stroke-width="2"/>
        <path id="Trazado_1238610" data-name="Trazado 1238610" d="M105.6,40.2a4.281,4.281,0,0,1,2.714,1.8" transform="translate(-91.524 -35.495)" fill="none" stroke="#000" stroke-linecap="round" stroke-linejoin="round" stroke-miterlimit="10" stroke-width="2"/>
        <path id="Trazado_1238611" data-name="Trazado 1238611" d="M268.726,40.183a4.288,4.288,0,0,0-2.18,1.661" transform="translate(-229.317 -35.481)" fill="none" stroke="#000" stroke-linecap="round" stroke-linejoin="round" stroke-miterlimit="10" stroke-width="2"/>
        <path id="Trazado_1238612" data-name="Trazado 1238612" d="M311.452,38.449q-.072.456-.172.912a16.194,16.194,0,0,1-24.419,10.251l-7.518,1.433,1.856-7.515A16.153,16.153,0,0,1,292.758,20" transform="translate(-240.232 -18.204)" fill="none" stroke="#000" stroke-linecap="round" stroke-linejoin="round" stroke-miterlimit="10" stroke-width="2"/>
        <path id="Trazado_1238613" data-name="Trazado 1238613" d="M407.545,19.544q.58.083,1.163.209a16.171,16.171,0,0,1,12.549,13.27" transform="translate(-350.033 -17.811)" fill="none" stroke="#000" stroke-linecap="round" stroke-linejoin="round" stroke-miterlimit="10" stroke-width="2"/>
        <g id="Grupo_1237467" data-name="Grupo 1237467" transform="translate(47.127 5.95)">
          <path id="Trazado_1238614" data-name="Trazado 1238614" d="M338.744,64.5a9.2,9.2,0,0,0-1.372-2.64,7.788,7.788,0,1,1,11.578-.039,9.606,9.606,0,0,0-1.4,2.648" transform="translate(-335.355 -48.863)" fill="none" stroke="#000" stroke-linecap="round" stroke-linejoin="round" stroke-miterlimit="10" stroke-width="2"/>
          <line id="Línea_3913" data-name="Línea 3913" y1="5.726" transform="translate(7.788 9.885)" fill="none" stroke="#000" stroke-linecap="round" stroke-linejoin="round" stroke-miterlimit="10" stroke-width="2"/>
          <path id="Trazado_1238615" data-name="Trazado 1238615" d="M370.564,186.134v.886a2.877,2.877,0,0,1-2.877,2.877H365.8a2.877,2.877,0,0,1-2.877-2.877v-.886" transform="translate(-358.953 -166.387)" fill="none" stroke="#000" stroke-linecap="round" stroke-linejoin="round" stroke-miterlimit="10" stroke-width="2"/>
          <path id="Trazado_1238616" data-name="Trazado 1238616" d="M358.587,161.649h-7.751a1.969,1.969,0,0,1-1.969-1.969v-.116a1.969,1.969,0,0,1,1.969-1.969h7.751a1.969,1.969,0,0,1,1.969,1.969v.116A1.969,1.969,0,0,1,358.587,161.649Z" transform="translate(-346.923 -141.953)" fill="none" stroke="#000" stroke-linecap="round" stroke-linejoin="round" stroke-miterlimit="10" stroke-width="2"/>
          <line id="Línea_3914" data-name="Línea 3914" x2="4.986" transform="translate(5.399 9.872)" fill="none" stroke="#000" stroke-linecap="round" stroke-linejoin="round" stroke-miterlimit="10" stroke-width="2"/>
        </g>
        <path id="Trazado_1238617" data-name="Trazado 1238617" d="M346.53,432.2l.362.069a13.93,13.93,0,0,1,3.931,1.384" transform="translate(-297.795 -371.101)" fill="none" stroke="#000" stroke-linecap="round" stroke-linejoin="round" stroke-miterlimit="10" stroke-width="2"/>
        <path id="Trazado_1238618" data-name="Trazado 1238618" d="M250.768,358.351v5.364a3.181,3.181,0,0,0,2.585,3.125" transform="translate(-215.809 -307.88)" fill="none" stroke="#000" stroke-linecap="round" stroke-linejoin="round" stroke-miterlimit="10" stroke-width="2"/>
        <path id="Trazado_1238619" data-name="Trazado 1238619" d="M118.589,417.362h0a14.774,14.774,0,0,0,21.6,0h0" transform="translate(-102.644 -358.402)" fill="none" stroke="#000" stroke-linecap="round" stroke-linejoin="round" stroke-miterlimit="10" stroke-width="2"/>
        <path id="Trazado_1238620" data-name="Trazado 1238620" d="M12.31,369.092l-.566.113a13.931,13.931,0,0,0-3.994,1.418m18.53-12.272v5.364a3.181,3.181,0,0,1-2.585,3.125l-.165.031" transform="translate(-7.75 -307.88)" fill="none" stroke="#000" stroke-linecap="round" stroke-linejoin="round" stroke-miterlimit="10" stroke-width="2"/>
        <g id="Grupo_1237468" data-name="Grupo 1237468" transform="translate(4.021 56.193)">
          <path id="Trazado_1238621" data-name="Trazado 1238621" d="M49.163,407.4l-2.257-8.117a1.581,1.581,0,0,0-1.983-1.089l-8.732,2.661a.684.684,0,0,0-.428.933l1.93,4.369,5.322,1.221-2.929,4.2.664,1.852" transform="translate(-35.703 -398.124)" fill="none" stroke="#000" stroke-linecap="round" stroke-linejoin="round" stroke-miterlimit="10" stroke-width="2"/>
          <line id="Línea_3915" data-name="Línea 3915" x1="0.328" y1="1.178" transform="translate(14.809 14.125)" fill="none" stroke="#000" stroke-linecap="round" stroke-linejoin="round" stroke-miterlimit="10" stroke-width="2"/>
          <path id="Trazado_1238622" data-name="Trazado 1238622" d="M244.868,413.427l3.935-14.145a1.58,1.58,0,0,1,1.983-1.088l8.732,2.66a.686.686,0,0,1,.428.933l-1.93,4.369-5.323,1.221,2.929,4.2-.664,1.851" transform="translate(-214.779 -398.125)" fill="none" stroke="#000" stroke-linecap="round" stroke-linejoin="round" stroke-miterlimit="10" stroke-width="2"/>
        </g>
        <g id="Grupo_1237471" data-name="Grupo 1237471" transform="translate(53.262 39.065)">
          <g id="Grupo_1237469" data-name="Grupo 1237469" transform="translate(14.301 9.289)">
            <path id="Trazado_1238623" data-name="Trazado 1238623" d="M481.273,345.554a1.928,1.928,0,0,0-1.928-1.928h0a1.93,1.93,0,0,0-1.93,1.93v4.33a1.93,1.93,0,0,0,1.93,1.93h0a1.93,1.93,0,0,0,1.93-1.93Z" transform="translate(-477.412 -343.626)" fill="none" stroke="#000" stroke-linecap="round" stroke-linejoin="round" stroke-miterlimit="10" stroke-width="2"/>
            <path id="Trazado_1238624" data-name="Trazado 1238624" d="M490.831,400.563" transform="translate(-488.901 -392.372)" fill="none" stroke="#000" stroke-linecap="round" stroke-linejoin="round" stroke-miterlimit="10" stroke-width="2"/>
          </g>
          <g id="Grupo_1237470" data-name="Grupo 1237470" transform="translate(15.516 15.604)">
            <path id="Trazado_1238625" data-name="Trazado 1238625" d="M488.5,387.53V393.3a9.371,9.371,0,0,1-1.323,4.759h0a9.417,9.417,0,0,0-1.323,4.848l.005,1.45" transform="translate(-485.857 -387.53)" fill="none" stroke="#000" stroke-linecap="round" stroke-linejoin="round" stroke-miterlimit="10" stroke-width="2"/>
          </g>
          <path id="Trazado_1238626" data-name="Trazado 1238626" d="M433.859,414.75a7.892,7.892,0,0,1,1.685,7.216l-.06.23" transform="translate(-425.823 -395.23)" fill="none" stroke="#000" stroke-linecap="round" stroke-linejoin="round" stroke-miterlimit="10" stroke-width="2"/>
          <path id="Trazado_1238627" data-name="Trazado 1238627" d="M389.115,296.663V281.091a2.04,2.04,0,0,1,2.034-2.034h.163a2.04,2.04,0,0,1,2.034,2.034v12.653" transform="translate(-387.516 -279.057)" fill="none" stroke="#000" stroke-linecap="round" stroke-linejoin="round" stroke-miterlimit="10" stroke-width="2"/>
          <path id="Trazado_1238628" data-name="Trazado 1238628" d="M418.532,331.927a2.04,2.04,0,0,1,2.034-2.034h.163a2.04,2.04,0,0,1,2.034,2.034v4.631" transform="translate(-412.701 -322.58)" fill="none" stroke="#000" stroke-linecap="round" stroke-linejoin="round" stroke-miterlimit="10" stroke-width="2"/>
          <path id="Trazado_1238629" data-name="Trazado 1238629" d="M447.947,336.508v-4.581a2.04,2.04,0,0,1,2.034-2.034h.163a2.04,2.04,0,0,1,2.034,2.034v1.942" transform="translate(-437.885 -322.58)" fill="none" stroke="#000" stroke-linecap="round" stroke-linejoin="round" stroke-miterlimit="10" stroke-width="2"/>
          <path id="Trazado_1238630" data-name="Trazado 1238630" d="M384.729,383.14l1.814-2.441,3.634-.469a2.921,2.921,0,0,0,2.014-2.775.989.989,0,0,0-.989-.988h-5.185a3.656,3.656,0,0,0-2.1.66l-4.674,3.271A2.92,2.92,0,0,0,378,382.791v2.383a4.919,4.919,0,0,0,1.294,3.323,5.951,5.951,0,0,1,1.565,4.022v2.367" transform="translate(-377.999 -362.455)" fill="none" stroke="#000" stroke-linecap="round" stroke-linejoin="round" stroke-miterlimit="10" stroke-width="2"/>
        </g>
      </g>
    </g>
  </g>
</svg>
