<svg xmlns="http://www.w3.org/2000/svg" xmlns:xlink="http://www.w3.org/1999/xlink" width="108" height="108" viewBox="0 0 108 108">
  <defs>
    <filter id="Trazado_904820" x="0" y="0" width="108" height="108" filterUnits="userSpaceOnUse">
      <feOffset dy="3" input="SourceAlpha"/>
      <feGaussianBlur stdDeviation="3" result="blur"/>
      <feFlood flood-opacity="0.161"/>
      <feComposite operator="in" in2="blur"/>
      <feComposite in="SourceGraphic"/>
    </filter>
  </defs>
  <g id="Grupo_1236928" data-name="Grupo 1236928" transform="translate(-198.999 -327)">
    <g id="Grupo_1235708" data-name="Grupo 1235708" transform="translate(0 -3221)">
      <g id="Grupo_1226544" data-name="Grupo 1226544" transform="translate(0 2544)">
        <g id="Grupo_1211534" data-name="Grupo 1211534" transform="translate(207.999 1010)">
          <g id="Grupo_1173585" data-name="Grupo 1173585" transform="translate(0 0)">
            <g id="Grupo_1173428" data-name="Grupo 1173428">
              <g id="Grupo_1171958" data-name="Grupo 1171958">
                <g id="Grupo_1167341" data-name="Grupo 1167341">
                  <g id="Grupo_1166792" data-name="Grupo 1166792">
                    <g transform="matrix(1, 0, 0, 1, -9, -6)" filter="url(#Trazado_904820)">
                      <g id="Trazado_904820-2" data-name="Trazado 904820" transform="translate(9 6)" fill="#fdf6e4">
                        <path d="M 44.99999618530273 88.50003814697266 C 39.12687301635742 88.50003814697266 33.43022155761719 87.35011291503906 28.06829643249512 85.08219909667969 C 22.88852119445801 82.89134979248047 18.23629570007324 79.75462341308594 14.24084663391113 75.75917053222656 C 10.24540901184082 71.76372528076172 7.108683586120605 67.11149597167969 4.917821407318115 61.93172454833984 C 2.649921178817749 56.56979751586914 1.499996185302734 50.87314605712891 1.499996185302734 45.00002288818359 C 1.499996185302734 39.12689971923828 2.649921178817749 33.43024826049805 4.917821407318115 28.06832313537598 C 7.108683586120605 22.88854789733887 10.24540901184082 18.2363224029541 14.24084663391113 14.24087333679199 C 18.23629570007324 10.24543571472168 22.88852119445801 7.108710289001465 28.06829643249512 4.917848110198975 C 33.43022155761719 2.649947881698608 39.12687301635742 1.500022888183594 44.99999618530273 1.500022888183594 C 50.87311935424805 1.500022888183594 56.56977081298828 2.649947881698608 61.93169784545898 4.917848110198975 C 67.11147308349609 7.108710289001465 71.76369476318359 10.24543571472168 75.75914764404297 14.24087333679199 C 79.75458526611328 18.2363224029541 82.89131164550781 22.88854789733887 85.08216857910156 28.06832313537598 C 87.35007476806641 33.43024826049805 88.5 39.12689971923828 88.5 45.00002288818359 C 88.5 50.87314605712891 87.35007476806641 56.56979751586914 85.08216857910156 61.93172454833984 C 82.89131164550781 67.11149597167969 79.75458526611328 71.76372528076172 75.75914764404297 75.75917053222656 C 71.76369476318359 79.75462341308594 67.11147308349609 82.89134979248047 61.93169784545898 85.08219909667969 C 56.56977081298828 87.35011291503906 50.87311935424805 88.50003814697266 44.99999618530273 88.50003814697266 Z" stroke="none"/>
                        <path d="M 44.99999618530273 3.000007629394531 C 39.32870864868164 3.000007629394531 33.82865142822266 4.110069274902344 28.65262603759766 6.299354553222656 C 23.65165710449219 8.414581298828125 19.15968322753906 11.44335174560547 15.301513671875 15.30153656005859 C 11.44333648681641 19.15970611572266 8.414566040039062 23.65166473388672 6.299339294433594 28.65265274047852 C 4.110054016113281 33.82867813110352 2.999992370605469 39.3287353515625 2.999992370605469 45.00002288818359 C 2.999992370605469 50.67131042480469 4.110054016113281 56.17135238647461 6.299339294433594 61.34739685058594 C 8.414566040039062 66.34836578369141 11.44333648681641 70.84032440185547 15.301513671875 74.69850921630859 C 19.15968322753906 78.55667877197266 23.65165710449219 81.58544921875 28.65262603759766 83.70068359375 C 33.82865142822266 85.88996887207031 39.32870864868164 87.00002288818359 44.99999618530273 87.00002288818359 C 50.67128372192383 87.00002288818359 56.17134094238281 85.88996887207031 61.34736633300781 83.70068359375 C 66.34834289550781 81.58544921875 70.84030914306641 78.55667877197266 74.69847869873047 74.69850921630859 C 78.55665588378906 70.84032440185547 81.58542633056641 66.34836578369141 83.70065307617188 61.34739685058594 C 85.88993835449219 56.17135238647461 87 50.67131042480469 87 45.00002288818359 C 87 39.3287353515625 85.88993835449219 33.82867813110352 83.70065307617188 28.65265274047852 C 81.58542633056641 23.65166473388672 78.55665588378906 19.15970611572266 74.69847869873047 15.30153656005859 C 70.84030914306641 11.44335174560547 66.34834289550781 8.414581298828125 61.34736633300781 6.299354553222656 C 56.17134094238281 4.110069274902344 50.67128372192383 3.000007629394531 44.99999618530273 3.000007629394531 M 44.99999618530273 7.62939453125e-06 C 69.85281372070312 7.62939453125e-06 90 20.14720916748047 90 45.00002288818359 C 90 69.85282135009766 69.85281372070312 90.00002288818359 44.99999618530273 90.00002288818359 C 20.14717864990234 90.00002288818359 -7.62939453125e-06 69.85282135009766 -7.62939453125e-06 45.00002288818359 C -7.62939453125e-06 20.14720916748047 20.14717864990234 7.62939453125e-06 44.99999618530273 7.62939453125e-06 Z" stroke="none" fill="#856002"/>
                      </g>
                    </g>
                  </g>
                </g>
              </g>
            </g>
          </g>
        </g>
      </g>
    </g>
    <g id="prototipo_1_" data-name="prototipo (1)" transform="translate(221.883 300.326)">
      <path id="Trazado_1237341" data-name="Trazado 1237341" d="M28.649,99.4H9.445A1.945,1.945,0,0,1,7.5,97.45V62.445A1.945,1.945,0,0,1,9.445,60.5h19.2a1.945,1.945,0,0,1,1.945,1.945V97.45A1.945,1.945,0,0,1,28.649,99.4Z" transform="translate(-6.588 -6.588)" fill="#eaf6ff"/>
      <path id="Trazado_1237342" data-name="Trazado 1237342" d="M155.146,60.5H151.5a1.945,1.945,0,0,1,1.945,1.945V97.45A1.945,1.945,0,0,1,151.5,99.4h3.646a1.945,1.945,0,0,0,1.945-1.945V62.445A1.945,1.945,0,0,0,155.146,60.5Z" transform="translate(-133.086 -6.588)" fill="#d8ecfe"/>
      <path id="Trazado_1237343" data-name="Trazado 1237343" d="M60.837,263.032H49.29a.79.79,0,0,1-.79-.79v-9.359a.79.79,0,0,1,.79-.79H60.837a.79.79,0,0,1,.79.79v9.359A.79.79,0,0,1,60.837,263.032Z" transform="translate(-42.605 -174.894)" fill="#fdb441"/>
      <path id="Trazado_1237344" data-name="Trazado 1237344" d="M123.645,252.093H120a.79.79,0,0,1,.79.79v9.359a.79.79,0,0,1-.79.79h3.646a.79.79,0,0,0,.79-.79v-9.359A.79.79,0,0,0,123.645,252.093Z" transform="translate(-105.413 -174.894)" fill="#fe9738"/>
      <path id="Trazado_1237345" data-name="Trazado 1237345" d="M59.561,150.42H50.566a2.066,2.066,0,1,1,0-4.133h8.995a2.066,2.066,0,0,1,0,4.133Z" transform="translate(-42.605 -81.948)" fill="#fe7ab6"/>
      <path id="Trazado_1237346" data-name="Trazado 1237346" d="M113.146,146.287H109.5a2.066,2.066,0,1,1,0,4.133h3.646a2.066,2.066,0,1,0,0-4.133Z" transform="translate(-96.191 -81.948)" fill="#fe5ca7"/>
      <path id="Trazado_1237347" data-name="Trazado 1237347" d="M335.649,99.4h-19.2A1.945,1.945,0,0,1,314.5,97.45V62.445a1.945,1.945,0,0,1,1.945-1.945h19.2a1.945,1.945,0,0,1,1.945,1.945V97.45A1.945,1.945,0,0,1,335.649,99.4Z" transform="translate(-276.273 -6.588)" fill="#eaf6ff"/>
      <path id="Trazado_1237348" data-name="Trazado 1237348" d="M462.146,60.5H458.5a1.945,1.945,0,0,1,1.945,1.945V97.45A1.945,1.945,0,0,1,458.5,99.4h3.646a1.945,1.945,0,0,0,1.945-1.945V62.445A1.945,1.945,0,0,0,462.146,60.5Z" transform="translate(-402.771 -6.588)" fill="#d8ecfe"/>
      <path id="Trazado_1237349" data-name="Trazado 1237349" d="M367.837,263.032H356.29a.79.79,0,0,1-.79-.79v-9.359a.79.79,0,0,1,.79-.79h11.547a.79.79,0,0,1,.79.79v9.359A.79.79,0,0,1,367.837,263.032Z" transform="translate(-312.29 -174.894)" fill="#fdb441"/>
      <path id="Trazado_1237350" data-name="Trazado 1237350" d="M430.645,252.093H427a.79.79,0,0,1,.79.79v9.359a.79.79,0,0,1-.79.79h3.646a.79.79,0,0,0,.79-.79v-9.359A.79.79,0,0,0,430.645,252.093Z" transform="translate(-375.098 -174.894)" fill="#fe9738"/>
      <path id="Trazado_1237351" data-name="Trazado 1237351" d="M367.837,124.791H356.29a.79.79,0,0,1-.79-.79v-9.359a.79.79,0,0,1,.79-.79h11.547a.79.79,0,0,1,.79.79V124A.79.79,0,0,1,367.837,124.791Z" transform="translate(-312.29 -53.456)" fill="#6c7fd8"/>
      <path id="Trazado_1237352" data-name="Trazado 1237352" d="M430.645,113.852H427a.79.79,0,0,1,.79.79V124a.79.79,0,0,1-.79.79h3.646a.79.79,0,0,0,.79-.79v-9.359A.79.79,0,0,0,430.645,113.852Z" transform="translate(-375.098 -53.456)" fill="#4f66d0"/>
      <g id="Grupo_1236927" data-name="Grupo 1236927" transform="translate(0 53)">
        <path id="Trazado_1237353" data-name="Trazado 1237353" d="M41,246.295v9.359a1.7,1.7,0,0,0,1.7,1.7H54.249a1.7,1.7,0,0,0,1.7-1.7v-9.359a1.7,1.7,0,0,0-1.7-1.7H42.7a1.7,1.7,0,0,0-1.7,1.7Zm1.823.121h11.3v9.116h-11.3Z" transform="translate(-36.017 -221.305)"/>
        <path id="Trazado_1237354" data-name="Trazado 1237354" d="M77.309,278.082h3.282a.912.912,0,0,0,0-1.823H77.309A.912.912,0,0,0,77.309,278.082Z" transform="translate(-67.118 -249.122)"/>
        <path id="Trazado_1237355" data-name="Trazado 1237355" d="M82.494,302.926H77.31a.912.912,0,0,0,0,1.823h5.184A.912.912,0,0,0,82.494,302.926Z" transform="translate(-67.118 -272.548)"/>
        <path id="Trazado_1237356" data-name="Trazado 1237356" d="M60.367,86.368h4.268a.912.912,0,0,0,0-1.823H60.367A.912.912,0,0,0,60.367,86.368Z" transform="translate(-52.234 -80.711)"/>
        <path id="Trazado_1237357" data-name="Trazado 1237357" d="M60.367,113.489h8.652a.912.912,0,0,0,0-1.823H60.367A.912.912,0,0,0,60.367,113.489Z" transform="translate(-52.234 -104.535)"/>
        <path id="Trazado_1237358" data-name="Trazado 1237358" d="M69.019,206.194a.912.912,0,0,0,0-1.823H60.367a.912.912,0,0,0,0,1.823Z" transform="translate(-52.234 -185.972)"/>
        <path id="Trazado_1237359" data-name="Trazado 1237359" d="M331.006,61.954a.912.912,0,0,0,.912-.912V55.856A2.86,2.86,0,0,0,329.061,53h-19.2A2.86,2.86,0,0,0,307,55.856V90.862a2.86,2.86,0,0,0,2.856,2.856h19.2a2.86,2.86,0,0,0,2.856-2.856V65.074a.912.912,0,0,0-1.823,0V90.862a1.034,1.034,0,0,1-1.033,1.033h-19.2a1.034,1.034,0,0,1-1.033-1.033V55.856a1.034,1.034,0,0,1,1.033-1.033h19.2a1.034,1.034,0,0,1,1.033,1.033v5.186A.912.912,0,0,0,331.006,61.954Z" transform="translate(-269.685 -53)"/>
        <path id="Trazado_1237360" data-name="Trazado 1237360" d="M361.249,244.593H349.7a1.7,1.7,0,0,0-1.7,1.7v9.359a1.7,1.7,0,0,0,1.7,1.7h11.547a1.7,1.7,0,0,0,1.7-1.7v-9.359A1.7,1.7,0,0,0,361.249,244.593Zm-.121,10.939h-11.3v-9.116h11.3Z" transform="translate(-305.701 -221.305)"/>
        <path id="Trazado_1237361" data-name="Trazado 1237361" d="M362.95,108.054a1.7,1.7,0,0,0-1.7-1.7H349.7a1.7,1.7,0,0,0-1.7,1.7v9.359a1.7,1.7,0,0,0,1.7,1.7h11.547a1.7,1.7,0,0,0,1.7-1.7Zm-1.823,9.237h-11.3v-9.116h11.3Z" transform="translate(-305.701 -99.867)"/>
        <path id="Trazado_1237362" data-name="Trazado 1237362" d="M384.309,278.082h3.282a.912.912,0,0,0,0-1.823h-3.282A.912.912,0,0,0,384.309,278.082Z" transform="translate(-336.803 -249.122)"/>
        <path id="Trazado_1237363" data-name="Trazado 1237363" d="M384.309,304.749h5.184a.912.912,0,0,0,0-1.823h-5.184A.912.912,0,0,0,384.309,304.749Z" transform="translate(-336.803 -272.548)"/>
        <path id="Trazado_1237364" data-name="Trazado 1237364" d="M50.6,95.08a.912.912,0,0,0-1.29.038l-2.06,2.188a.912.912,0,0,0,1.327,1.25l.591-.628v1.787a.811.811,0,0,1-.81.81H13.877a.811.811,0,0,1-.81-.81v-6h8.995a2.86,2.86,0,0,0,2.856-2.856V67.317h8.662l-.735.778a.912.912,0,1,0,1.325,1.252l2.188-2.315a.912.912,0,0,0-.038-1.29l-2.188-2.06a.912.912,0,0,0-1.25,1.327l.515.485h-8.48V55.856A2.86,2.86,0,0,0,22.061,53H2.856A2.86,2.86,0,0,0,0,55.856V82.09a.912.912,0,0,0,1.823,0V55.856a1.034,1.034,0,0,1,1.033-1.033h19.2a1.034,1.034,0,0,1,1.033,1.033v9.637h-3.3a2.983,2.983,0,0,0-2.835-2.066H7.961a2.978,2.978,0,0,0,0,5.956h8.995a2.983,2.983,0,0,0,2.835-2.066h3.3V90.862A1.034,1.034,0,0,1,22.061,91.9H2.856a1.034,1.034,0,0,1-1.033-1.033V86.041a.912.912,0,0,0-1.823,0v4.821a2.86,2.86,0,0,0,2.856,2.856h8.387v6a2.637,2.637,0,0,0,2.634,2.634H48.356a2.637,2.637,0,0,0,2.634-2.634V97.958l.671.634a.912.912,0,1,0,1.252-1.325ZM16.956,67.56H7.961a1.155,1.155,0,0,1,0-2.309h8.995A1.155,1.155,0,0,1,16.956,67.56Z" transform="translate(0 -53)"/>
      </g>
    </g>
  </g>
</svg>
