<svg xmlns="http://www.w3.org/2000/svg" xmlns:xlink="http://www.w3.org/1999/xlink" width="400" height="353" viewBox="0 0 400 353">
  <defs>
    <clipPath id="clip-path">
      <rect id="Rectángulo_423102" data-name="Rectángulo 423102" width="400" height="353" transform="translate(1020 2485)" fill="#fff" stroke="#707070" stroke-width="1"/>
    </clipPath>
  </defs>
  <g id="Enmascarar_grupo_1208521" data-name="Enmascarar grupo 1208521" transform="translate(-1020 -2485)" clip-path="url(#clip-path)">
    <g id="Grupo_1236989" data-name="Grupo 1236989" transform="translate(978.571 2485.179)">
      <g id="Grupo_1236929" data-name="Grupo 1236929" transform="translate(355.746 129.561)">
        <path id="Trazado_1237365" data-name="Trazado 1237365" d="M542.338,330.512V344.8H538.5l-6.625,35.16-25.822-.55-5.309-25.781-.812-3.954-1.006-4.876H493.44V330.512Z" transform="translate(-493.44 -228.332)" fill="#f0a34c"/>
        <path id="Trazado_1237366" data-name="Trazado 1237366" d="M501.424,351.294H527.5l-25.273,4.121Z" transform="translate(-495.936 -234.829)" fill="#000b16" opacity="0.2"/>
        <path id="Trazado_1237367" data-name="Trazado 1237367" d="M521.23,282.116s-29.668-75.27,13.186-95.6,28.57,32.416,16.483,32.965-12.637,3.846-8.791,15.383.549,11.538-6.593,18.131S531.669,276.622,521.23,282.116Z" transform="translate(-499.001 -181.859)" fill="#cee0f8"/>
        <path id="Trazado_1237368" data-name="Trazado 1237368" d="M528.177,303.59s23.076-51.1,43.4-45.6,2.747,19.23-6.593,23.076-3.846,2.747-8.791,10.988S528.177,303.59,528.177,303.59Z" transform="translate(-504.3 -205.53)" fill="#e1e3dc"/>
        <path id="Trazado_1237369" data-name="Trazado 1237369" d="M524.781,288.344,524.3,285.5a182.294,182.294,0,0,1-1.343-41.138c1.141-12.472,3.828-23.006,7.987-31.312,5.219-10.425,12.78-17.349,22.474-20.579l.257.771c-21.5,7.167-28.129,31.787-29.906,51.179a182.176,182.176,0,0,0,.911,37.991c1.267-9.174,5.7-36.177,14.208-38.3l.2.788c-9.5,2.376-13.936,40.2-13.98,40.584Z" transform="translate(-502.476 -185.177)" fill="#fff"/>
        <path id="Trazado_1237370" data-name="Trazado 1237370" d="M525.957,309.157l-.654-.483c1.182-1.6,29.111-39.169,43.4-41.092l.109.806C554.861,270.264,526.244,308.768,525.957,309.157Z" transform="translate(-503.401 -208.658)" fill="#fff"/>
      </g>
      <g id="Grupo_1236942" data-name="Grupo 1236942" transform="translate(98.279 14.575)">
        <g id="Grupo_1236940" data-name="Grupo 1236940">
          <g id="Grupo_1236939" data-name="Grupo 1236939">
            <path id="Trazado_1237371" data-name="Trazado 1237371" d="M420.346,235.974a124.317,124.317,0,0,1-25.1,38.7,123,123,0,0,1-50.182,31.844A123.55,123.55,0,1,1,290.031,66.8,123.587,123.587,0,0,1,420.346,235.974Z" transform="translate(-138.728 -30.577)" fill="#555683"/>
            <g id="Grupo_1236938" data-name="Grupo 1236938">
              <path id="Trazado_1237372" data-name="Trazado 1237372" d="M416.9,173.626A123.661,123.661,0,0,1,279.5,312.193q-5.438-.662-10.752-1.784-4.727-1.005-9.33-2.373-1.029-.3-2.046-.626a122.279,122.279,0,0,1-15.084-5.858A123.551,123.551,0,0,1,202.915,106.5c.279-.309.564-.618.849-.927q2.329-2.519,4.8-4.908,2.612-2.524,5.373-4.9A123.391,123.391,0,0,1,359.326,84.423q4.17,2.579,8.125,5.484,4.551,3.339,8.777,7.076A123.06,123.06,0,0,1,416.9,173.626Z" transform="translate(-135.12 -30.643)" fill="#a38bc1"/>
              <circle id="Elipse_12778" data-name="Elipse 12778" cx="112.378" cy="112.378" r="112.378" transform="translate(0 158.925) rotate(-45)" fill="#fff"/>
              <g id="Grupo_1236930" data-name="Grupo 1236930" transform="translate(51.782 140.996)">
                <path id="Trazado_1237373" data-name="Trazado 1237373" d="M201.623,261.576a3.724,3.724,0,1,1-4.172-3.213A3.723,3.723,0,0,1,201.623,261.576Z" transform="translate(-194.206 -231.777)" fill="#454545"/>
                <path id="Trazado_1237374" data-name="Trazado 1237374" d="M499.276,222.943a3.724,3.724,0,1,1-4.172-3.213A3.724,3.724,0,0,1,499.276,222.943Z" transform="translate(-287.261 -219.699)" fill="#454545"/>
              </g>
              <g id="Grupo_1236931" data-name="Grupo 1236931" transform="translate(91.134 72.548)">
                <path id="Trazado_1237375" data-name="Trazado 1237375" d="M257.452,358.684a3.723,3.723,0,1,1-5.222.678A3.723,3.723,0,0,1,257.452,358.684Z" transform="translate(-251.456 -194.46)" fill="#454545"/>
                <path id="Trazado_1237376" data-name="Trazado 1237376" d="M440.607,120.894a3.723,3.723,0,1,1-5.222.678A3.723,3.723,0,0,1,440.607,120.894Z" transform="translate(-308.716 -120.12)" fill="#454545"/>
              </g>
              <g id="Grupo_1236932" data-name="Grupo 1236932" transform="translate(72.356 91.325)">
                <path id="Trazado_1237377" data-name="Trazado 1237377" d="M462.7,332.044a3.724,3.724,0,1,1,.678,5.222A3.724,3.724,0,0,1,462.7,332.044Z" transform="translate(-298.478 -204.697)" fill="#454545"/>
                <path id="Trazado_1237378" data-name="Trazado 1237378" d="M224.912,148.889a3.723,3.723,0,1,1,.678,5.222A3.723,3.723,0,0,1,224.912,148.889Z" transform="translate(-224.138 -147.437)" fill="#454545"/>
              </g>
              <g id="Grupo_1236933" data-name="Grupo 1236933" transform="translate(64.991 102.27)">
                <path id="Trazado_1237379" data-name="Trazado 1237379" d="M473.151,168.961a3.723,3.723,0,1,1,5.093,1.339A3.723,3.723,0,0,1,473.151,168.961Z" transform="translate(-294.462 -163.36)" fill="#454545"/>
                <path id="Trazado_1237380" data-name="Trazado 1237380" d="M213.931,320.272a3.723,3.723,0,1,1,5.093,1.34A3.723,3.723,0,0,1,213.931,320.272Z" transform="translate(-213.423 -210.664)" fill="#454545"/>
              </g>
              <g id="Grupo_1236934" data-name="Grupo 1236934" transform="translate(126.55 54.856)">
                <path id="Trazado_1237381" data-name="Trazado 1237381" d="M385.814,101.695a3.724,3.724,0,1,1,4.583-2.6A3.724,3.724,0,0,1,385.814,101.695Z" transform="translate(-328.023 -94.381)" fill="#454545"/>
                <path id="Trazado_1237382" data-name="Trazado 1237382" d="M305.712,390.959a3.724,3.724,0,1,1,4.583-2.594A3.723,3.723,0,0,1,305.712,390.959Z" transform="translate(-302.981 -184.814)" fill="#454545"/>
              </g>
              <g id="Grupo_1236935" data-name="Grupo 1236935" transform="translate(101.208 65.696)">
                <path id="Trazado_1237383" data-name="Trazado 1237383" d="M271.745,117.073a3.724,3.724,0,1,1,1.289-5.106A3.724,3.724,0,0,1,271.745,117.073Z" transform="translate(-266.113 -110.151)" fill="#454545"/>
                <path id="Trazado_1237384" data-name="Trazado 1237384" d="M425.585,374.8a3.724,3.724,0,1,1,1.289-5.106A3.724,3.724,0,0,1,425.585,374.8Z" transform="translate(-314.208 -190.724)" fill="#454545"/>
              </g>
              <g id="Grupo_1236936" data-name="Grupo 1236936" transform="translate(53.533 131.215)">
                <path id="Trazado_1237385" data-name="Trazado 1237385" d="M204.108,210.026a3.724,3.724,0,1,1-2.8-4.462A3.724,3.724,0,0,1,204.108,210.026Z" transform="translate(-196.755 -205.47)" fill="#454545"/>
                <path id="Trazado_1237386" data-name="Trazado 1237386" d="M496.664,277.115a3.724,3.724,0,1,1-2.8-4.462A3.724,3.724,0,0,1,496.664,277.115Z" transform="translate(-288.216 -226.444)" fill="#454545"/>
              </g>
              <g id="Grupo_1236937" data-name="Grupo 1236937" transform="translate(141.304 55.83)">
                <path id="Trazado_1237387" data-name="Trazado 1237387" d="M366.322,393.482a3.724,3.724,0,1,1-3.213,4.172A3.723,3.723,0,0,1,366.322,393.482Z" transform="translate(-336.522 -188.852)" fill="#454545"/>
                <path id="Trazado_1237388" data-name="Trazado 1237388" d="M327.689,95.829A3.724,3.724,0,1,1,324.476,100,3.723,3.723,0,0,1,327.689,95.829Z" transform="translate(-324.444 -95.797)" fill="#454545"/>
              </g>
              <path id="Trazado_1237389" data-name="Trazado 1237389" d="M354.848,245.66a11.829,11.829,0,1,1,1.5-7.454A11.806,11.806,0,0,1,354.848,245.66Z" transform="translate(-185.749 -81.267)" fill="#f0a34c"/>
            </g>
          </g>
          <path id="Trazado_1237390" data-name="Trazado 1237390" d="M208.106,211.458c-6.155-47.4,19.484-100.231,59.1-121.758.361-3.083-.531,2.354-.033-.709A112.386,112.386,0,0,0,308.79,308.878,112.423,112.423,0,0,1,208.106,211.458Z" transform="translate(-139.828 -37.754)" fill="#222236" opacity="0.2"/>
        </g>
        <path id="Trazado_1237391" data-name="Trazado 1237391" d="M421.222,304.24,379.493,289.8l-24-30.783a11.806,11.806,0,0,0,6.452-5.276l32.792,16Z" transform="translate(-192.848 -89.344)" fill="#555683"/>
        <path id="Trazado_1237392" data-name="Trazado 1237392" d="M350.227,133.651l-4.284,53.266a11.889,11.889,0,0,0-4.421-.258,11.7,11.7,0,0,0-4.051,1.3l-9.712-50.027L337.92,95.668Z" transform="translate(-184.177 -39.927)" fill="#555683"/>
        <g id="Grupo_1236941" data-name="Grupo 1236941" transform="translate(186.585 80.501)">
          <path id="Trazado_1237393" data-name="Trazado 1237393" d="M428.384,228.339l-1.54-.363c6.56-27.88-3.716-48.405-13.491-60.715A86.436,86.436,0,0,0,390.32,147l.761-1.388a88.232,88.232,0,0,1,23.51,20.664C424.585,178.861,435.089,199.843,428.384,228.339Z" transform="translate(-390.32 -136.043)" fill="#ff6a36"/>
          <path id="Trazado_1237394" data-name="Trazado 1237394" d="M449.271,224.031l-1.516-.452c8.2-27.462-1.516-50.613-11.109-65.2a111.024,111.024,0,0,0-23.112-25.422l.947-1.268a112.66,112.66,0,0,1,23.459,25.778C447.733,172.343,457.649,195.966,449.271,224.031Z" transform="translate(-397.577 -131.69)" fill="#ff6a36"/>
        </g>
        <path id="Trazado_1237395" data-name="Trazado 1237395" d="M326.118,326.053a82.024,82.024,0,0,1-34.769-7.382c-12.171-5.626-23.039-14.451-32.3-26.228a128.409,128.409,0,0,1-21.521-42.179l1.534-.392A126.729,126.729,0,0,0,260.323,291.5c14.3,18.164,40.162,38.391,82.164,31.608l.252,1.562A104.2,104.2,0,0,1,326.118,326.053Z" transform="translate(-155.967 -88.136)" fill="#ff6a36"/>
      </g>
      <path id="Trazado_1237396" data-name="Trazado 1237396" d="M517.7,298.622c-2.516,10.964-12.431,22.469-18.576,28.751l-1.01-4.918a112.7,112.7,0,0,0,14.593-23.833Z" transform="translate(-139.157 -88.801)" fill="#000b16" opacity="0.2"/>
      <ellipse id="Elipse_12779" data-name="Elipse 12779" cx="50.252" cy="5.743" rx="50.252" ry="5.743" transform="translate(97.289 294.784)" fill="#030305" opacity="0.1"/>
      <g id="Grupo_1236967" data-name="Grupo 1236967" transform="translate(327.581 14.733)">
        <g id="Grupo_1236951" data-name="Grupo 1236951">
          <g id="Grupo_1236943" data-name="Grupo 1236943">
            <path id="Trazado_1237397" data-name="Trazado 1237397" d="M512.528,32.14l-8.3,61.192a4.587,4.587,0,0,1-5.156,3.928l-19.955-2.708L461.473,92.16l-4.458-.6-.584-.08a4.583,4.583,0,0,1-3.924-5.157l8.006-59.047.29-2.145A4.582,4.582,0,0,1,465.96,21.2l42.644,5.78A4.585,4.585,0,0,1,512.528,32.14Z" transform="translate(-452.465 -16.792)" fill="#555683"/>
            <rect id="Rectángulo_423105" data-name="Rectángulo 423105" width="46.765" height="63.534" transform="matrix(0.991, 0.134, -0.134, 0.991, 11.138, 7.807)" fill="#fff"/>
            <path id="Trazado_1237398" data-name="Trazado 1237398" d="M506.065,20.609l.531-3.919-13.911-1.885-.531,3.919-1.691-.229-.664,4.9,17.242,2.337.664-4.9Zm-6.892.2a1.977,1.977,0,1,1,2.225-1.694A1.978,1.978,0,0,1,499.173,20.806Z" transform="translate(-464.137 -14.805)" fill="#a38bc1"/>
          </g>
          <rect id="Rectángulo_423106" data-name="Rectángulo 423106" width="20.365" height="6.327" transform="translate(23.763 11.12) rotate(7.654)" fill="#ffc47b"/>
          <g id="Grupo_1236944" data-name="Grupo 1236944" transform="translate(26.685 13.01)">
            <path id="Trazado_1237399" data-name="Trazado 1237399" d="M493.986,34.087l-.052.384-1.092-.147-.4,3-.458-.061.4-3-1.1-.147.052-.384Z" transform="translate(-491.287 -33.732)" fill="#ff6a36"/>
            <path id="Trazado_1237400" data-name="Trazado 1237400" d="M498.288,36.475a1.96,1.96,0,0,1-.214.681,1.6,1.6,0,0,1-.413.5,1.533,1.533,0,0,1-.575.284,1.916,1.916,0,0,1-1.36-.183,1.535,1.535,0,0,1-.478-.425,1.606,1.606,0,0,1-.266-.592,2.1,2.1,0,0,1,.187-1.393,1.625,1.625,0,0,1,.413-.5,1.54,1.54,0,0,1,.574-.287,1.772,1.772,0,0,1,.7-.036,1.794,1.794,0,0,1,.663.219,1.538,1.538,0,0,1,.479.428,1.619,1.619,0,0,1,.266.593A1.952,1.952,0,0,1,498.288,36.475Zm-.469-.063a1.729,1.729,0,0,0-.01-.571,1.189,1.189,0,0,0-.184-.451,1.056,1.056,0,0,0-.342-.313,1.387,1.387,0,0,0-.988-.133,1.063,1.063,0,0,0-.414.212,1.19,1.19,0,0,0-.3.386,1.9,1.9,0,0,0-.151,1.116,1.186,1.186,0,0,0,.186.45,1.051,1.051,0,0,0,.344.313,1.4,1.4,0,0,0,.988.133,1.033,1.033,0,0,0,.412-.211,1.205,1.205,0,0,0,.3-.385A1.7,1.7,0,0,0,497.819,36.412Z" transform="translate(-492.428 -33.973)" fill="#ff6a36"/>
            <path id="Trazado_1237401" data-name="Trazado 1237401" d="M504.873,37.3a1.922,1.922,0,0,1-.213.675,1.54,1.54,0,0,1-.411.487,1.52,1.52,0,0,1-.572.272,1.851,1.851,0,0,1-.7.03l-1.264-.17.454-3.38,1.264.17a1.846,1.846,0,0,1,.663.213,1.519,1.519,0,0,1,.48.415,1.556,1.556,0,0,1,.268.58A1.927,1.927,0,0,1,504.873,37.3Zm-.469-.063a1.689,1.689,0,0,0-.01-.568,1.179,1.179,0,0,0-.185-.447,1.039,1.039,0,0,0-.342-.31,1.318,1.318,0,0,0-.481-.156l-.8-.108-.355,2.639.8.108a1.322,1.322,0,0,0,.505-.023,1.045,1.045,0,0,0,.412-.208,1.173,1.173,0,0,0,.3-.381A1.7,1.7,0,0,0,504.4,37.234Z" transform="translate(-494.548 -34.195)" fill="#ff6a36"/>
            <path id="Trazado_1237402" data-name="Trazado 1237402" d="M510.256,38.084a1.96,1.96,0,0,1-.214.68,1.6,1.6,0,0,1-.413.5,1.533,1.533,0,0,1-.575.284,1.918,1.918,0,0,1-1.36-.183,1.535,1.535,0,0,1-.478-.425,1.605,1.605,0,0,1-.266-.592,2.1,2.1,0,0,1,.187-1.393,1.635,1.635,0,0,1,.413-.5,1.55,1.55,0,0,1,.574-.287,1.772,1.772,0,0,1,.7-.036,1.794,1.794,0,0,1,.663.219,1.539,1.539,0,0,1,.479.428,1.618,1.618,0,0,1,.266.593A1.967,1.967,0,0,1,510.256,38.084Zm-.469-.063a1.728,1.728,0,0,0-.01-.571,1.189,1.189,0,0,0-.184-.451,1.056,1.056,0,0,0-.342-.313,1.392,1.392,0,0,0-.988-.133,1.062,1.062,0,0,0-.414.212,1.189,1.189,0,0,0-.3.386,1.891,1.891,0,0,0-.15,1.117,1.178,1.178,0,0,0,.186.45,1.056,1.056,0,0,0,.343.313,1.407,1.407,0,0,0,.988.133,1.033,1.033,0,0,0,.412-.211,1.193,1.193,0,0,0,.3-.385A1.7,1.7,0,0,0,509.786,38.021Z" transform="translate(-496.169 -34.476)" fill="#ff6a36"/>
          </g>
          <path id="Trazado_1237403" data-name="Trazado 1237403" d="M485.8,38.577l.991.54,19.465,2.617.8-5.944-.456-.6-.816,6.071Z" transform="translate(-462.888 -21.179)" fill="#ffac00"/>
          <rect id="Rectángulo_423107" data-name="Rectángulo 423107" width="39.94" height="1.582" transform="translate(12.847 19.116) rotate(7.654)" fill="#454545"/>
          <rect id="Rectángulo_423108" data-name="Rectángulo 423108" width="5.141" height="5.009" transform="translate(8.633 50.459) rotate(7.654)" fill="#ffc47b"/>
          <rect id="Rectángulo_423109" data-name="Rectángulo 423109" width="5.141" height="5.009" transform="translate(7.624 58.965) rotate(7.654)" fill="#ffc47b"/>
          <g id="Grupo_1236945" data-name="Grupo 1236945" transform="translate(18.202 42.895)">
            <rect id="Rectángulo_423110" data-name="Rectángulo 423110" width="30.976" height="1.186" transform="translate(0.493 0) rotate(7.654)" fill="#454545"/>
            <rect id="Rectángulo_423111" data-name="Rectángulo 423111" width="30.976" height="1.186" transform="translate(0.158 2.486) rotate(7.654)" fill="#454545"/>
          </g>
          <g id="Grupo_1236946" data-name="Grupo 1236946" transform="translate(16.973 52.04)">
            <rect id="Rectángulo_423112" data-name="Rectángulo 423112" width="30.976" height="1.186" transform="translate(0.492) rotate(7.654)" fill="#454545"/>
            <rect id="Rectángulo_423113" data-name="Rectángulo 423113" width="30.976" height="1.186" transform="translate(0.158 2.486) rotate(7.654)" fill="#454545"/>
          </g>
          <g id="Grupo_1236947" data-name="Grupo 1236947" transform="translate(15.797 60.793)">
            <rect id="Rectángulo_423114" data-name="Rectángulo 423114" width="30.976" height="1.186" transform="translate(0.493 0) rotate(7.654)" fill="#454545"/>
            <rect id="Rectángulo_423115" data-name="Rectángulo 423115" width="30.976" height="1.186" transform="translate(0.158 2.485) rotate(7.654)" fill="#454545"/>
          </g>
          <g id="Grupo_1236948" data-name="Grupo 1236948" transform="translate(9.328 41.328)">
            <rect id="Rectángulo_423116" data-name="Rectángulo 423116" width="5.141" height="5.009" transform="translate(0.667) rotate(7.654)" fill="#ffc47b"/>
          </g>
          <g id="Grupo_1236949" data-name="Grupo 1236949" transform="translate(10.467 32.84)">
            <rect id="Rectángulo_423117" data-name="Rectángulo 423117" width="5.141" height="5.009" transform="translate(0.667 0) rotate(7.654)" fill="#ffc47b"/>
          </g>
          <g id="Grupo_1236950" data-name="Grupo 1236950" transform="translate(11.663 23.953)">
            <rect id="Rectángulo_423118" data-name="Rectángulo 423118" width="5.141" height="5.009" transform="translate(0.667 0) rotate(7.654)" fill="#ffc47b"/>
          </g>
          <rect id="Rectángulo_423119" data-name="Rectángulo 423119" width="27.417" height="1.978" transform="translate(24.191 26.739) rotate(7.654)" fill="#454545"/>
          <rect id="Rectángulo_423120" data-name="Rectángulo 423120" width="27.417" height="1.977" transform="translate(23.19 34.186) rotate(7.654)" fill="#454545"/>
        </g>
        <g id="Grupo_1236954" data-name="Grupo 1236954" transform="translate(12.025 24.5)">
          <g id="Grupo_1236952" data-name="Grupo 1236952" transform="translate(0.231)">
            <path id="Trazado_1237404" data-name="Trazado 1237404" d="M470.763,50.818l3.457,4.445Z" transform="translate(-470.441 -50.563)" fill="#ff6a36"/>
            <rect id="Rectángulo_423121" data-name="Rectángulo 423121" width="0.796" height="5.63" transform="matrix(0.789, -0.614, 0.614, 0.789, 0, 0.489)" fill="#454545"/>
          </g>
          <g id="Grupo_1236953" data-name="Grupo 1236953" transform="translate(0 0.467)">
            <path id="Trazado_1237405" data-name="Trazado 1237405" d="M470.337,54.7l4.032-3.132Z" transform="translate(-470.077 -51.266)" fill="#ff6a36"/>
            <rect id="Rectángulo_423122" data-name="Rectángulo 423122" width="5.105" height="0.796" transform="translate(0 3.131) rotate(-37.838)" fill="#454545"/>
          </g>
        </g>
        <g id="Grupo_1236957" data-name="Grupo 1236957" transform="translate(11.348 33.286)">
          <g id="Grupo_1236955" data-name="Grupo 1236955" transform="translate(0.228)">
            <path id="Trazado_1237406" data-name="Trazado 1237406" d="M469.778,63.607l3.457,4.445Z" transform="translate(-469.454 -63.348)" fill="#ff6a36"/>
            <rect id="Rectángulo_423123" data-name="Rectángulo 423123" width="0.796" height="5.63" transform="matrix(0.789, -0.614, 0.614, 0.789, 0, 0.489)" fill="#454545"/>
          </g>
          <g id="Grupo_1236956" data-name="Grupo 1236956" transform="translate(0 0.473)">
            <path id="Trazado_1237407" data-name="Trazado 1237407" d="M469.353,67.492l4.032-3.132Z" transform="translate(-469.093 -64.056)" fill="#ff6a36"/>
            <rect id="Rectángulo_423124" data-name="Rectángulo 423124" width="5.105" height="0.796" transform="translate(0 3.131) rotate(-37.838)" fill="#454545"/>
          </g>
        </g>
        <g id="Grupo_1236960" data-name="Grupo 1236960" transform="translate(10.158 41.497)">
          <g id="Grupo_1236958" data-name="Grupo 1236958" transform="translate(0.229)">
            <path id="Trazado_1237408" data-name="Trazado 1237408" d="M468.048,75.553,471.5,80Z" transform="translate(-467.724 -75.294)" fill="#ff6a36"/>
            <rect id="Rectángulo_423125" data-name="Rectángulo 423125" width="0.796" height="5.63" transform="matrix(0.789, -0.614, 0.614, 0.789, 0, 0.489)" fill="#454545"/>
          </g>
          <g id="Grupo_1236959" data-name="Grupo 1236959" transform="translate(0 0.471)">
            <path id="Trazado_1237409" data-name="Trazado 1237409" d="M467.623,79.439l4.032-3.132Z" transform="translate(-467.362 -76.001)" fill="#ff6a36"/>
            <rect id="Rectángulo_423126" data-name="Rectángulo 423126" width="5.105" height="0.796" transform="translate(0 3.131) rotate(-37.838)" fill="#454545"/>
          </g>
        </g>
        <g id="Grupo_1236963" data-name="Grupo 1236963" transform="translate(8.655 50.692)">
          <g id="Grupo_1236961" data-name="Grupo 1236961" transform="translate(0.199)">
            <path id="Trazado_1237410" data-name="Trazado 1237410" d="M465.818,88.931l3.457,4.445Z" transform="translate(-465.494 -88.671)" fill="#ff6a36"/>
            <rect id="Rectángulo_423127" data-name="Rectángulo 423127" width="0.796" height="5.63" transform="matrix(0.789, -0.614, 0.614, 0.789, 0, 0.489)" fill="#454545"/>
          </g>
          <g id="Grupo_1236962" data-name="Grupo 1236962" transform="translate(0 0.476)">
            <path id="Trazado_1237411" data-name="Trazado 1237411" d="M465.392,92.816l4.032-3.132Z" transform="translate(-465.162 -89.382)" fill="#ff6a36"/>
            <rect id="Rectángulo_423128" data-name="Rectángulo 423128" width="5.105" height="0.796" transform="translate(0 3.131) rotate(-37.835)" fill="#454545"/>
          </g>
        </g>
        <g id="Grupo_1236966" data-name="Grupo 1236966" transform="translate(7.552 59.539)">
          <g id="Grupo_1236964" data-name="Grupo 1236964" transform="translate(0.23)">
            <path id="Trazado_1237412" data-name="Trazado 1237412" d="M464.258,101.8l3.457,4.445Z" transform="translate(-463.935 -101.542)" fill="#ff6a36"/>
            <rect id="Rectángulo_423129" data-name="Rectángulo 423129" width="0.796" height="5.63" transform="matrix(0.789, -0.614, 0.614, 0.789, 0, 0.489)" fill="#454545"/>
          </g>
          <g id="Grupo_1236965" data-name="Grupo 1236965" transform="translate(0 0.471)">
            <path id="Trazado_1237413" data-name="Trazado 1237413" d="M463.833,105.687l4.032-3.132Z" transform="translate(-463.572 -102.248)" fill="#ff6a36"/>
            <rect id="Rectángulo_423130" data-name="Rectángulo 423130" width="5.105" height="0.796" transform="translate(0 3.131) rotate(-37.838)" fill="#454545"/>
          </g>
        </g>
      </g>
      <g id="Grupo_1236968" data-name="Grupo 1236968" transform="translate(110.002 313.09)">
        <path id="Trazado_1237414" data-name="Trazado 1237414" d="M180.674,464.536l-35.209,4.169-.883.1a4.976,4.976,0,0,1-5.414-3.739l-.051-.2-3.191-12.757,38.632-3.247Z" transform="translate(-135.927 -448.86)" fill="#ffc8c7"/>
        <path id="Trazado_1237415" data-name="Trazado 1237415" d="M140.1,455.058h0a.849.849,0,0,1,.775-.916l32.728-2.728a.848.848,0,0,1,.916.775h0a.849.849,0,0,1-.775.916l-32.728,2.728A.848.848,0,0,1,140.1,455.058Z" transform="translate(-137.231 -449.657)" fill="#fff"/>
        <rect id="Rectángulo_423131" data-name="Rectángulo 423131" width="31.491" height="0.424" transform="translate(5.589 8.204) rotate(-5.227)" fill="#fff"/>
        <rect id="Rectángulo_423132" data-name="Rectángulo 423132" width="31.491" height="0.424" transform="translate(6.354 10.681) rotate(-5.227)" fill="#fff"/>
        <rect id="Rectángulo_423133" data-name="Rectángulo 423133" width="31.491" height="0.424" transform="translate(7.499 13.147) rotate(-5.239)" fill="#fff"/>
        <path id="Trazado_1237416" data-name="Trazado 1237416" d="M140.677,472.155l-.057.192-.051-.2Z" transform="translate(-137.378 -456.139)" fill="#fff"/>
        <path id="Trazado_1237417" data-name="Trazado 1237417" d="M146.939,475.97l-.883.1a4.976,4.976,0,0,1-5.414-3.739l1.973-.212a3.75,3.75,0,0,1,4.018,2.738Z" transform="translate(-137.401 -456.125)" fill="#fff"/>
      </g>
      <g id="Grupo_1236970" data-name="Grupo 1236970" transform="translate(64.744 301.19)">
        <path id="Trazado_1237418" data-name="Trazado 1237418" d="M70.085,434.99l21.034-3.442,8.2,15.035-21.584,5.235Z" transform="translate(-70.085 -431.548)" fill="#ffc8c7"/>
        <path id="Trazado_1237419" data-name="Trazado 1237419" d="M73.423,436.468l1.435,2.964,17.592-3.347-1.529-2.868Z" transform="translate(-71.129 -432.07)" fill="#fff"/>
        <rect id="Rectángulo_423134" data-name="Rectángulo 423134" width="17.683" height="0.566" transform="translate(4.734 9.557) rotate(-11.841)" fill="#fff"/>
        <g id="Grupo_1236969" data-name="Grupo 1236969" transform="translate(5.781 7.932)">
          <rect id="Rectángulo_423135" data-name="Rectángulo 423135" width="17.683" height="0.565" transform="translate(0 3.627) rotate(-11.836)" fill="#00c9c6"/>
        </g>
        <rect id="Rectángulo_423136" data-name="Rectángulo 423136" width="17.683" height="0.566" transform="translate(5.757 11.569) rotate(-11.836)" fill="#fff"/>
        <rect id="Rectángulo_423137" data-name="Rectángulo 423137" width="17.683" height="0.566" transform="translate(6.838 14.051) rotate(-11.841)" fill="#fff"/>
        <rect id="Rectángulo_423138" data-name="Rectángulo 423138" width="17.683" height="0.566" transform="translate(8.368 16.727) rotate(-11.841)" fill="#fff"/>
      </g>
      <g id="Grupo_1236971" data-name="Grupo 1236971" transform="translate(166.077 319.708)">
        <path id="Trazado_1237420" data-name="Trazado 1237420" d="M229.362,458.488l-11.856,14.151,42.069,4.207,7.649-13.768Z" transform="translate(-217.506 -458.488)" fill="#ff9337"/>
        <path id="Trazado_1237421" data-name="Trazado 1237421" d="M234.059,463.661l1.434-2.391,33.177,4.111-1.435,2.3Z" transform="translate(-222.681 -459.358)" fill="#feff9b"/>
        <path id="Trazado_1237422" data-name="Trazado 1237422" d="M226.548,473.24l4.684-6.406,11.951,1.435-3.728,6.6Z" transform="translate(-220.333 -461.097)" fill="#feff9b"/>
        <path id="Trazado_1237423" data-name="Trazado 1237423" d="M252.4,469.2l19.313,2.39-.956,1.339-19.313-2.2Z" transform="translate(-228.117 -461.837)" fill="#feff9b"/>
      </g>
      <g id="Grupo_1236972" data-name="Grupo 1236972" transform="translate(230.828 309.59)">
        <path id="Trazado_1237424" data-name="Trazado 1237424" d="M317.444,443.768l-5.737,7.649,28.683,3.06,5.355-8.413Z" transform="translate(-311.707 -443.768)" fill="#ffc8c7"/>
        <path id="Trazado_1237425" data-name="Trazado 1237425" d="M319.427,447.126l1.147-1.793,25.242,1.936-1.362,2.079Z" transform="translate(-314.12 -444.257)" fill="#fff"/>
        <path id="Trazado_1237426" data-name="Trazado 1237426" d="M317.967,450.144l.526-.812,24.763,2.438-.669,1.1Z" transform="translate(-313.664 -445.507)" fill="#fff"/>
        <path id="Trazado_1237427" data-name="Trazado 1237427" d="M316.367,452.787l.526-.812,24.763,2.438-.669,1.1Z" transform="translate(-313.164 -446.334)" fill="#fff"/>
      </g>
      <g id="Grupo_1236973" data-name="Grupo 1236973" transform="translate(274.14 311.885)">
        <path id="Trazado_1237428" data-name="Trazado 1237428" d="M374.718,452.843l7.554,8.414,29.831-4.59-8.414-9.561Z" transform="translate(-374.718 -447.107)" fill="#ffc8c7"/>
        <path id="Trazado_1237429" data-name="Trazado 1237429" d="M379.308,454.18l25.385-5.091,1.435,1.721-25.6,5.091Z" transform="translate(-376.153 -447.727)" fill="#fff"/>
        <path id="Trazado_1237430" data-name="Trazado 1237430" d="M382.368,458.268l25.337-4.972.382.43L382.7,458.842Z" transform="translate(-377.11 -449.042)" fill="#fff"/>
        <path id="Trazado_1237431" data-name="Trazado 1237431" d="M383.968,459.8l25.336-4.972.383.43L384.3,460.372Z" transform="translate(-377.61 -449.52)" fill="#fff"/>
        <path id="Trazado_1237432" data-name="Trazado 1237432" d="M385.289,461.537l25.337-4.972.382.43-25.385,5.115Z" transform="translate(-378.023 -450.064)" fill="#fff"/>
      </g>
      <g id="Grupo_1236974" data-name="Grupo 1236974" transform="translate(339.274 289.56)">
        <path id="Trazado_1237433" data-name="Trazado 1237433" d="M469.477,421.129l8.032,7.649,26.006-6.12-8.414-8.031Z" transform="translate(-469.477 -414.628)" fill="#ffc8c7"/>
        <path id="Trazado_1237434" data-name="Trazado 1237434" d="M476.78,425.293l22.564-5.832,1.052,1.1-22.373,6.023Z" transform="translate(-471.76 -416.139)" fill="#fff"/>
        <path id="Trazado_1237435" data-name="Trazado 1237435" d="M476.78,425.293l22.564-5.832,1.052,1.1-22.373,6.023Z" transform="translate(-471.76 -416.139)" fill="#fff"/>
        <path id="Trazado_1237436" data-name="Trazado 1237436" d="M473.442,422.163l22.564-5.832,1.052,1.1-22.373,6.023Z" transform="translate(-470.717 -415.16)" fill="#fff"/>
        <path id="Trazado_1237437" data-name="Trazado 1237437" d="M480.223,428.527l22.564-5.832,1.052,1.1-22.373,6.023Z" transform="translate(-472.837 -417.15)" fill="#fff"/>
      </g>
      <g id="Grupo_1236978" data-name="Grupo 1236978" transform="translate(95.111 16.423)">
        <path id="Trazado_1237438" data-name="Trazado 1237438" d="M196.219,62.882a36.339,36.339,0,1,1-36.333-36.331A36.334,36.334,0,0,1,196.219,62.882Z" transform="translate(-117.169 -20.167)" fill="#fd5973"/>
        <circle id="Elipse_12780" data-name="Elipse 12780" cx="30.206" cy="30.206" r="30.206" transform="translate(0 42.717) rotate(-45)" fill="#fff"/>
        <circle id="Elipse_12781" data-name="Elipse 12781" cx="23.869" cy="23.869" r="23.869" transform="translate(8.962 42.717) rotate(-45)" fill="#fd5973"/>
        <circle id="Elipse_12782" data-name="Elipse 12782" cx="17.733" cy="17.733" r="17.733" transform="translate(17.638 42.717) rotate(-45)" fill="#fff"/>
        <circle id="Elipse_12783" data-name="Elipse 12783" cx="12.539" cy="12.539" r="12.539" transform="translate(28.321 32.375) rotate(-9.299)" fill="#fd5973"/>
        <circle id="Elipse_12784" data-name="Elipse 12784" cx="6.126" cy="6.126" r="6.126" transform="translate(34.048 42.835) rotate(-45.77)" fill="#fff"/>
        <g id="Grupo_1236977" data-name="Grupo 1236977" transform="translate(41.332 38.407)">
          <rect id="Rectángulo_423139" data-name="Rectángulo 423139" width="60.834" height="1.25" transform="translate(1.386 3.684)" fill="#65668f"/>
          <g id="Grupo_1236975" data-name="Grupo 1236975" transform="translate(51.725)">
            <rect id="Rectángulo_423140" data-name="Rectángulo 423140" width="6.593" height="1.25" transform="matrix(0.817, -0.577, 0.577, 0.817, 0, 3.803)" fill="#65668f"/>
            <rect id="Rectángulo_423141" data-name="Rectángulo 423141" width="6.593" height="1.25" transform="matrix(0.817, -0.577, 0.577, 0.817, 4.755, 3.811)" fill="#65668f"/>
          </g>
          <g id="Grupo_1236976" data-name="Grupo 1236976" transform="translate(51.407 3.794)">
            <rect id="Rectángulo_423142" data-name="Rectángulo 423142" width="1.25" height="6.593" transform="matrix(0.577, -0.817, 0.817, 0.577, 4.755, 1.023)" fill="#65668f"/>
            <rect id="Rectángulo_423143" data-name="Rectángulo 423143" width="1.25" height="6.593" transform="matrix(0.577, -0.817, 0.817, 0.577, 0, 1.021)" fill="#65668f"/>
          </g>
          <path id="Trazado_1237439" data-name="Trazado 1237439" d="M180.191,80.539l-5.8-2.371,5.076-3.072.647,1.069-2.952,1.786,3.5,1.431Z" transform="translate(-174.395 -73.75)" fill="#65668f"/>
        </g>
      </g>
      <g id="Grupo_1236984" data-name="Grupo 1236984" transform="translate(69.395 106.591)">
        <rect id="Rectángulo_423144" data-name="Rectángulo 423144" width="2.987" height="98.246" transform="translate(79.751 97.88)" fill="#454545"/>
        <g id="Grupo_1236980" data-name="Grupo 1236980" transform="translate(89.716 67.128)">
          <g id="Grupo_1236979" data-name="Grupo 1236979">
            <path id="Trazado_1237440" data-name="Trazado 1237440" d="M255.869,246.106,252.55,257l-1.348,4.423-3.083,10.125-7.745-.334,7.86-25.113Z" transform="translate(-217.69 -246.101)" fill="#19bdae"/>
            <rect id="Rectángulo_423145" data-name="Rectángulo 423145" width="30.646" height="2.655" transform="translate(0.004 24.783)" fill="#19bdae"/>
            <rect id="Rectángulo_423146" data-name="Rectángulo 423146" width="30.316" height="0.111" transform="translate(0 27.385) rotate(-0.39)" fill="#fff"/>
            <rect id="Rectángulo_423147" data-name="Rectángulo 423147" width="7.966" height="0.111" transform="translate(22.685 24.73)" fill="#fff"/>
            <path id="Trazado_1237441" data-name="Trazado 1237441" d="M255.9,261.86l-1.347,4.422c-.031,0-.063,0-.094,0-1.863,0-3.374-1.041-3.374-2.324s1.512-2.323,3.375-2.323A4.688,4.688,0,0,1,255.9,261.86Z" transform="translate(-221.038 -250.957)" fill="#fff"/>
            <rect id="Rectángulo_423148" data-name="Rectángulo 423148" width="25.98" height="0.111" transform="translate(23.336 24.782) rotate(-72.542)" fill="#fff"/>
          </g>
          <path id="Trazado_1237442" data-name="Trazado 1237442" d="M225.163,284.517h-.885v-1.881h.885Zm-.775-.111h.664v-1.659h-.664Z" transform="translate(-212.658 -257.522)" fill="#fff"/>
          <path id="Trazado_1237443" data-name="Trazado 1237443" d="M223.231,284.517h-.885v-1.881h.885Zm-.774-.111h.664v-1.659h-.664Z" transform="translate(-212.054 -257.522)" fill="#fff"/>
          <path id="Trazado_1237444" data-name="Trazado 1237444" d="M221.3,284.516h-.885v-1.881h.885Zm-.775-.111h.664v-1.659h-.664Z" transform="translate(-211.45 -257.522)" fill="#fff"/>
          <path id="Trazado_1237445" data-name="Trazado 1237445" d="M217.1,283.751a.553.553,0,1,1-.553-.553A.553.553,0,0,1,217.1,283.751Z" transform="translate(-210.066 -257.698)" fill="#454545"/>
        </g>
        <path id="Trazado_1237446" data-name="Trazado 1237446" d="M95.5,309.907c.307-24.782-18.65-76.233-18.65-76.233h3.471c.968,2.646,18.909,52.008,18.61,76.122l25.691.005c.005.073.008.111.008.111Z" transform="translate(-76.852 -175.087)" fill="#454545"/>
        <path id="Trazado_1237447" data-name="Trazado 1237447" d="M209.783,274.094c-.206-.412-2.269-.413-2.269-.413l-3.716.113a.1.1,0,0,0,0-.011s-2.563-.147-4.919-.266a19.385,19.385,0,0,1,2.959-.456c1.341-.309,1.341-1.237-.206-1.341a52.686,52.686,0,0,0-5.878.411l-4.029,1.7h0c-1.076.189-1.953.364-1.953.364h-3.3l-.826,6.291a5.484,5.484,0,0,1,2.372,0,75.717,75.717,0,0,0,9.282.724c.113.033,5.3-.266,5.982-.308,1.65-.1,3.3-.1,2.888-1.03-.109-.245-1.637-.277-2.91-.259A33.085,33.085,0,0,0,207,279c.65-.206.809-.412.592-.825s-2.345-.207-2.345-.207l-2.716.021.012-.035a42.453,42.453,0,0,0,4.974-.87c.65-.226,1.238-.516,1.135-1.031-.1-.491-3.029-.207-3.029-.207l-2.437.118c.014-.045.027-.089.04-.133a56.587,56.587,0,0,0,6.045-.911C209.886,274.713,209.989,274.506,209.783,274.094Z" transform="translate(-110.865 -186.977)" fill="#f2a196"/>
        <path id="Trazado_1237448" data-name="Trazado 1237448" d="M100.511,309.8c.3-24.114-17.642-73.477-18.61-76.122l26.733.005A298.188,298.188,0,0,1,126.2,309.8Z" transform="translate(-78.43 -175.088)" fill="#454545"/>
        <path id="Trazado_1237449" data-name="Trazado 1237449" d="M154.828,343.946l-34.476-.008-15.2,0a1.6,1.6,0,0,0-1.6,1.6v1.991a1.6,1.6,0,0,0,1.6,1.6l16.279,0,33.4.007a1.6,1.6,0,0,0,1.6-1.6V345.55A1.6,1.6,0,0,0,154.828,343.946Z" transform="translate(-85.198 -209.558)" fill="#454545"/>
        <g id="Grupo_1236981" data-name="Grupo 1236981" transform="translate(71.557 166.586)">
          <path id="Trazado_1237450" data-name="Trazado 1237450" d="M187.233,399.09s4.205-4.314,5.644-8.3l8.518,4.427s-1.882,5.089-1.551,8.187S190.772,405.95,187.233,399.09Z" transform="translate(-182.917 -390.793)" fill="#f2a196"/>
          <path id="Trazado_1237451" data-name="Trazado 1237451" d="M210.448,420.812a1.362,1.362,0,0,1-1.1,1.9,21.168,21.168,0,0,1-8.368-.573c-2.164-.722-10.244-4.638-10.62-7.083-.221-1.438-1.881-1-1.881-1s-7.3-2.878-7.522-5.423l1.587-2.426.294-.45s1.992-3.319,2.656-3.54c0,0,2.655,3.319,9.956,5.977,1.252.456,1.881-1.77,1.881-1.77a1,1,0,0,1,1.549-.221c.885.775,4.313,7.193,5.419,9.184.379.684,5.2,3.763,5.752,4.648a6.309,6.309,0,0,1,.388.75Z" transform="translate(-180.954 -394.365)" fill="#454545"/>
          <path id="Trazado_1237452" data-name="Trazado 1237452" d="M208.658,414.467a.332.332,0,1,0-.332.332A.332.332,0,0,0,208.658,414.467Z" transform="translate(-189.408 -398.09)" fill="#19bdae"/>
          <path id="Trazado_1237453" data-name="Trazado 1237453" d="M209.945,416.72a.332.332,0,1,0-.332.332A.332.332,0,0,0,209.945,416.72Z" transform="translate(-189.81 -398.795)" fill="#19bdae"/>
          <path id="Trazado_1237454" data-name="Trazado 1237454" d="M211.393,418.813a.332.332,0,1,0-.332.332A.332.332,0,0,0,211.393,418.813Z" transform="translate(-190.263 -399.449)" fill="#19bdae"/>
          <path id="Trazado_1237455" data-name="Trazado 1237455" d="M213,421.228a.332.332,0,1,0-.332.332A.332.332,0,0,0,213,421.228Z" transform="translate(-190.766 -400.204)" fill="#19bdae"/>
          <path id="Trazado_1237456" data-name="Trazado 1237456" d="M210.448,422.627a1.362,1.362,0,0,1-1.1,1.9,21.168,21.168,0,0,1-8.368-.573c-2.164-.722-10.244-4.638-10.62-7.083-.221-1.438-1.881-1-1.881-1s-7.3-2.878-7.522-5.423l1.587-2.426a80.7,80.7,0,0,0,9.807,7.628c1.327.775,5.35,8.144,18.089,6.95Z" transform="translate(-180.954 -396.18)" fill="#19bdae"/>
          <path id="Trazado_1237457" data-name="Trazado 1237457" d="M208.281,413.6h0a.164.164,0,0,1-.036-.222,3.436,3.436,0,0,0,.557-1.846.165.165,0,0,1,.153-.163h0a.165.165,0,0,1,.179.166,3.725,3.725,0,0,1-.614,2.027A.168.168,0,0,1,208.281,413.6Z" transform="translate(-189.477 -397.225)" fill="#fff"/>
          <path id="Trazado_1237458" data-name="Trazado 1237458" d="M209.729,415.852h0a.164.164,0,0,1-.036-.222,3.436,3.436,0,0,0,.557-1.846.165.165,0,0,1,.153-.163h0a.165.165,0,0,1,.179.166,3.731,3.731,0,0,1-.614,2.027A.169.169,0,0,1,209.729,415.852Z" transform="translate(-189.93 -397.93)" fill="#fff"/>
          <path id="Trazado_1237459" data-name="Trazado 1237459" d="M211.177,418.105h0a.164.164,0,0,1-.036-.222,3.437,3.437,0,0,0,.557-1.846.165.165,0,0,1,.153-.163h0a.165.165,0,0,1,.179.166,3.725,3.725,0,0,1-.614,2.027A.168.168,0,0,1,211.177,418.105Z" transform="translate(-190.382 -398.634)" fill="#fff"/>
          <path id="Trazado_1237460" data-name="Trazado 1237460" d="M212.626,420.359h0a.164.164,0,0,1-.036-.222,3.436,3.436,0,0,0,.557-1.846.166.166,0,0,1,.153-.164h0a.165.165,0,0,1,.179.166,3.725,3.725,0,0,1-.614,2.027A.167.167,0,0,1,212.626,420.359Z" transform="translate(-190.835 -399.338)" fill="#fff"/>
          <path id="Trazado_1237461" data-name="Trazado 1237461" d="M200.946,421.082l-.128-.1a8.073,8.073,0,0,1-2.1-2.347c-.856-1.391-1.824-1.413-1.834-1.413v-.111c.042,0,1.037.017,1.927,1.465a7.981,7.981,0,0,0,2.072,2.318l.128.1Z" transform="translate(-185.935 -399.02)" fill="#fff"/>
          <path id="Trazado_1237462" data-name="Trazado 1237462" d="M198.038,421.717A6.651,6.651,0,0,1,196.527,420c-.177-.263-.362-.535-.6-.841a9.04,9.04,0,0,0-2.854-1.864l.043-.1a8.956,8.956,0,0,1,2.9,1.9c.241.309.425.583.6.848a6.56,6.56,0,0,0,1.489,1.688Z" transform="translate(-184.743 -399.048)" fill="#454545"/>
        </g>
        <g id="Grupo_1236982" data-name="Grupo 1236982" transform="translate(98.026 177.6)">
          <path id="Trazado_1237463" data-name="Trazado 1237463" d="M221.271,419.981a31.715,31.715,0,0,0,.776-6.527,33.31,33.31,0,0,0-.441-5.643l9.957-.994s1.326,7.3,4.2,9.295S225.253,423.522,221.271,419.981Z" transform="translate(-220.027 -406.817)" fill="#f2a196"/>
          <path id="Trazado_1237464" data-name="Trazado 1237464" d="M252.512,429.647c-.885.774-5.864,1.879-9.626,2.1s-12.723-1.219-13.166-1.109-1.66.553-1.66.553L220.6,430.9a1.181,1.181,0,0,1-1.133-1.241,4.862,4.862,0,0,1,.19-1.35,1.344,1.344,0,0,0,.065-.489,22.587,22.587,0,0,1,.025-3.138,1.73,1.73,0,0,1,.29-.693l.617-.881s5.2,1,7.855.333,2.324-2.1,2.767-2.544,3.319-2.323,4.094-2.1,6.195,3.541,13.165,6.309c2.9,1.15,4.979,1.107,5.2,1.771a.866.866,0,0,1,.042.214A3.579,3.579,0,0,1,252.512,429.647Z" transform="translate(-219.462 -410.557)" fill="#454545"/>
          <path id="Trazado_1237465" data-name="Trazado 1237465" d="M252.512,433.429c-.885.774-5.864,1.879-9.626,2.1s-12.723-1.219-13.166-1.109-1.66.553-1.66.553l-7.463-.288a1.181,1.181,0,0,1-1.133-1.241,4.862,4.862,0,0,1,.19-1.35,1.344,1.344,0,0,0,.065-.489l12.326.934s15.834,2.464,21.727-1.661A3.575,3.575,0,0,1,252.512,433.429Z" transform="translate(-219.462 -414.339)" fill="#19bdae"/>
          <path id="Trazado_1237466" data-name="Trazado 1237466" d="M243.856,424.026a.387.387,0,1,1-.388-.387A.387.387,0,0,1,243.856,424.026Z" transform="translate(-226.846 -412.076)" fill="#19bdae"/>
          <path id="Trazado_1237467" data-name="Trazado 1237467" d="M246.27,425.153a.387.387,0,1,1-.386-.387A.387.387,0,0,1,246.27,425.153Z" transform="translate(-227.601 -412.428)" fill="#19bdae"/>
          <path id="Trazado_1237468" data-name="Trazado 1237468" d="M248.845,426.281a.387.387,0,1,1-.388-.387A.387.387,0,0,1,248.845,426.281Z" transform="translate(-228.405 -412.781)" fill="#19bdae"/>
          <path id="Trazado_1237469" data-name="Trazado 1237469" d="M251.742,426.925a.387.387,0,1,1-.386-.388A.387.387,0,0,1,251.742,426.925Z" transform="translate(-229.311 -412.982)" fill="#19bdae"/>
          <path id="Trazado_1237470" data-name="Trazado 1237470" d="M243.53,422.954h0a.166.166,0,0,1-.052-.231,7.815,7.815,0,0,1,2.252-2.314.165.165,0,0,1,.234.061h0a.166.166,0,0,1-.057.219,7.613,7.613,0,0,0-2.15,2.212A.166.166,0,0,1,243.53,422.954Z" transform="translate(-226.962 -411.058)" fill="#fff"/>
          <path id="Trazado_1237471" data-name="Trazado 1237471" d="M245.944,424.242h0a.166.166,0,0,1-.052-.231,7.815,7.815,0,0,1,2.252-2.314.165.165,0,0,1,.234.061h0a.166.166,0,0,1-.057.219,7.614,7.614,0,0,0-2.15,2.212A.166.166,0,0,1,245.944,424.242Z" transform="translate(-227.716 -411.461)" fill="#fff"/>
          <path id="Trazado_1237472" data-name="Trazado 1237472" d="M248.6,425.247h0a.166.166,0,0,1-.052-.231,5.873,5.873,0,0,1,2.09-2.06.165.165,0,0,1,.23.089l.055.144-.059-.155,0,.012a.165.165,0,0,1-.076.206,5.619,5.619,0,0,0-1.965,1.944A.167.167,0,0,1,248.6,425.247Z" transform="translate(-228.547 -411.857)" fill="#fff"/>
          <path id="Trazado_1237473" data-name="Trazado 1237473" d="M251.336,426.191h0a.165.165,0,0,1-.052-.23,4.109,4.109,0,0,1,1.88-1.764.166.166,0,0,1,.219.137l.016.14-.019-.165,0,.024a.166.166,0,0,1-.106.177,3.822,3.822,0,0,0-1.715,1.633A.166.166,0,0,1,251.336,426.191Z" transform="translate(-229.402 -412.247)" fill="#fff"/>
          <path id="Trazado_1237474" data-name="Trazado 1237474" d="M237.038,432.635a19.14,19.14,0,0,0-4.741-.442l0-.111a19.269,19.269,0,0,1,4.774.445Z" transform="translate(-223.473 -414.713)" fill="#fff"/>
          <path id="Trazado_1237475" data-name="Trazado 1237475" d="M236.742,434.166a23.354,23.354,0,0,0-4.849-.441v-.111a22.828,22.828,0,0,1,4.887.447Z" transform="translate(-223.348 -415.195)" fill="#454545"/>
          <path id="Trazado_1237476" data-name="Trazado 1237476" d="M231.745,435.782l-.049-.1a9.113,9.113,0,0,1,2.017-.78c.442,0,2.892.426,3,.444l-.019.109c-.025,0-2.545-.442-2.978-.442A9.426,9.426,0,0,0,231.745,435.782Z" transform="translate(-223.286 -415.597)" fill="#454545"/>
        </g>
        <path id="Trazado_1237477" data-name="Trazado 1237477" d="M169.82,168.617s.758,2.661-1.226,3.82-1.319-3.93-1.319-3.93Z" transform="translate(-105.087 -154.714)" fill="#454545"/>
        <path id="Trazado_1237478" data-name="Trazado 1237478" d="M201.691,330.427c-.63,3.222-9.4,21.231-15.036,32.613l-.144.292c-2.648,5.341-4.571,9.152-4.571,9.152s-11.175,0-12.722-6.973c0,0,5.881-18.994,8.781-29.421.3-1.08.569-2.066.8-2.932a30.468,30.468,0,0,0,.776-3.436c.333-3.43-47.574-2.112-51.334-11.406s-3.206-14.052-3.206-14.052l24.506.724s42.484,5.873,47.462,9.636S202.626,325.653,201.691,330.427Z" transform="translate(-91.905 -197.156)" fill="#19bdae"/>
        <path id="Trazado_1237479" data-name="Trazado 1237479" d="M158.066,175.3a21.11,21.11,0,0,0-1.041-3.318c-.01-.71-.032-1.285-.065-1.661-.221-2.545-.994-8.187-4.645-11.95s-13.829-3.654-18.919-.225-3.211,14.714-3.211,14.714,1.88,5.422,1.658,9.073a11.044,11.044,0,0,1-2.546,6.2c-1.218,4.647,13.163,13.279,15.708,12.173a1.692,1.692,0,0,0,.656-2.976,11.6,11.6,0,0,1,4.546-9.525c4.093.111,4.868-1.216,4.868-1.216,1.025-1.2,1.558-5.168,1.795-8.938a3.475,3.475,0,0,0,1.416-.134C158.508,177.293,158.287,176.629,158.066,175.3Z" transform="translate(-93.225 -150.667)" fill="#f2a196"/>
        <path id="Trazado_1237480" data-name="Trazado 1237480" d="M201.277,377.521c-5.865,2.543-13.719,1.214-13.719,1.214s-1.905-7.732-3.8-16.054c-1.554-6.807-3.1-14.009-3.6-17.693-.507-3.755-.943-7.347-1.268-10.135-.61-2.036-2.311-1.718-2.491-2.257-.194-.582-1.747.025-1.9-.411a.331.331,0,0,1,.008-.2l.016-.049c.142-.378-.385-.757-1.032-1.067l-.009,0c-15.021.766-43.015,1.561-50.516-2.591-5.034-2.786-6.852-8.475-7.388-13.6a37.321,37.321,0,0,1-.188-4.463c.019-1.254.092-2.379.178-3.3a6.756,6.756,0,0,1,1.95-4.161l1.139-1.138,27.548,1,2.433,2.877,43.042,11.043a2.368,2.368,0,0,1,.546.141c4.757,1.882,6.747,6.529,6.744,20.912S201.886,377.257,201.277,377.521Z" transform="translate(-88.896 -196.325)" fill="#19bdae"/>
        <path id="Trazado_1237481" data-name="Trazado 1237481" d="M215.325,253.753a1.268,1.268,0,0,0-.56-.236l-4.182-.827a3,3,0,0,0-.928-.038c-1.474.17-5.993.689-6.9.79-1.087.12-7.606,2.292-7.606,2.292s.482,3.864,1.206,4.346c.366.244,3.048-.345,5.751-1.19a4.587,4.587,0,0,0,1.734.467c1.207,0,2.535-.12,3.139-.12s4.829.484,5.674-.12.725-.966.362-1.087-4.225-.6-4.225-.6-.445-.223-1.388-.723a2.093,2.093,0,0,0,.543-.485,2.438,2.438,0,0,1,.509-.529,6.99,6.99,0,0,1,2.388-.075,22.825,22.825,0,0,0,3.434.856c.511.321,1.132.7,1.395.834.33.165.547.048.575-.159.425.309.923.592,1.116.4a.609.609,0,0,0,.053-.639c.6.421.977.433,1.275.036S216.2,254.4,215.325,253.753Z" transform="translate(-113.835 -181.014)" fill="#f2a196"/>
        <path id="Trazado_1237482" data-name="Trazado 1237482" d="M192.355,379.106a32.656,32.656,0,0,1-4.832-.342l-.036-.006-.009-.035c-.063-.256-6.314-25.655-7.406-33.752-.427-3.165-.854-6.575-1.268-10.136a2.543,2.543,0,0,0-1.85-1.833c-.318-.114-.568-.2-.639-.413-.091-.272-.575-.243-1-.217-.4.023-.74.044-.87-.131a.359.359,0,0,1-.008-.353c.135-.362-.466-.74-1-1-15.682.8-43.085,1.522-50.531-2.6-3.483-1.928-5.806-5.437-6.9-10.429a36.989,36.989,0,0,1-.522-10.989,6.828,6.828,0,0,1,1.966-4.194l1.156-1.155h.024l27.573,1,.016.019,2.422,2.864L191.66,316.45a2.41,2.41,0,0,1,.553.142,8.626,8.626,0,0,1,5.189,5.8c1.087,3.179,1.592,8,1.59,15.162,0,8.3.971,20.211,1.681,28.905.663,8.118.871,10.969.6,11.087A23.1,23.1,0,0,1,192.355,379.106Zm-4.778-.445c.583.092,8.071,1.2,13.653-1.216.21-.239-.2-5.214-.667-10.976-.71-8.7-1.683-20.607-1.681-28.914,0-13.611-1.69-18.875-6.709-20.86a2.334,2.334,0,0,0-.533-.137l-43.066-11.049-2.429-2.872-27.5-1-1.122,1.122a6.719,6.719,0,0,0-1.934,4.126c-.456,4.929-.651,16.873,7.37,21.312,7.424,4.108,34.817,3.383,50.485,2.585h.014l.012.006c.843.4,1.2.784,1.07,1.14a.265.265,0,0,0-.006.248c.094.128.44.107.774.087.467-.028,1-.06,1.114.292.052.157.281.239.571.344a2.674,2.674,0,0,1,1.921,1.915c.416,3.57.843,6.98,1.27,10.144C181.254,352.908,187.309,377.569,187.577,378.661Z" transform="translate(-88.87 -196.3)" fill="#454545"/>
        <path id="Trazado_1237483" data-name="Trazado 1237483" d="M210.867,376.655c-.053.14-.133.1-.243-.159a.145.145,0,0,1-.009-.022c-1.514-3.548-5.782-23.159-6.223-25.367-.342-1.715-1.483-1.635-2.289-1.874.3-1.08.569-2.066.8-2.932.293,0,.54.061.61.27.18.54,1.881.221,2.491,2.257.324,2.788.761,6.38,1.268,10.135.486,3.6,1.976,10.554,3.493,17.219Q210.812,376.419,210.867,376.655Z" transform="translate(-116.009 -210.297)" fill="#454545"/>
        <path id="Trazado_1237484" data-name="Trazado 1237484" d="M205.052,345.884s3.8-3.644,4.135-2.648-3.32,3.761-3.209,5.2S205.052,345.884,205.052,345.884Z" transform="translate(-116.931 -209.286)" fill="#454545"/>
        <path id="Trazado_1237485" data-name="Trazado 1237485" d="M203.817,341.391a7.9,7.9,0,0,0-2.877,2.544l-.024.032a.331.331,0,0,1,.008-.2l.016-.049c.142-.378-.385-.757-1.032-1.067l.036-.04s2.877-1.659,3.541-2.212a4.132,4.132,0,0,1,2.323-1.106C206.584,339.29,204.592,340.948,203.817,341.391Z" transform="translate(-115.323 -208.106)" fill="#454545"/>
        <path id="Trazado_1237486" data-name="Trazado 1237486" d="M202.219,379c-1.311-8.752-4.167-43.139-4.2-43.485,0-.043.047-3.653-5.057-6.151-3.141-1.538-17.329-2.442-28.73-3.169-7.505-.478-13.987-.892-15.735-1.373a10.331,10.331,0,0,1-6.23-5.01l.1-.047a10.218,10.218,0,0,0,6.16,4.95c1.738.478,8.214.891,15.713,1.369,11.41.727,25.611,1.633,28.772,3.18,5.172,2.532,5.12,6.211,5.119,6.248.028.34,2.884,34.723,4.194,43.471Z" transform="translate(-97.304 -202.002)" fill="#fff"/>
        <path id="Trazado_1237487" data-name="Trazado 1237487" d="M205.486,367.94l-5.535,17.037Z" transform="translate(-115.336 -217.063)" fill="#fff"/>
        <path id="Trazado_1237488" data-name="Trazado 1237488" d="M145.939,308.567c-4.23,1.516-21.215,7.444-30.371,8.276a37.32,37.32,0,0,1-.188-4.463c1.819.484,4.833.2,7.238.217C126.194,312.629,139.826,310.216,145.939,308.567Z" transform="translate(-88.895 -198.501)" fill="#454545"/>
        <path id="Trazado_1237489" data-name="Trazado 1237489" d="M151.636,239.307s-.585,10.284-1.561,19.651q-.1.937-.2,1.859c-.751,6.71-1.7,12.535-2.782,13.118a15.077,15.077,0,0,1-2.69.906c-6.113,1.65-19.745,4.062-23.321,4.03-2.838-.025-6.521.379-8.092-.56-.823-.491-1.066-1.352-.306-2.835a14.809,14.809,0,0,0,.959-2.554c.344-1.18.654-2.552.93-4.024a99.645,99.645,0,0,0,1.546-15.55c0-5.2-4.31-23.567-4.973-27.55s-1.989-13.83,2.769-17.7a120.848,120.848,0,0,1,10.4-7.411s.443.48,1.168,1.25h0c2.615,2.774,8.884,9.311,11.22,10.7,4.646,2.767,3.1-1.549,3.1-1.549l.518.364,2.469,1.738C149.758,224.813,151.636,239.307,151.636,239.307Z" transform="translate(-87.359 -164.775)" fill="#ee5976"/>
        <path id="Trazado_1237490" data-name="Trazado 1237490" d="M166.552,253.91l-1.661,7.634-2.434.331s-3.935.147-9.235.133c-10.548-.029-26.5-.7-27.606-4.456-.4-.056-3.453-8.709-6.212-17.994-2.636-8.869-5-18.314-4.512-21.4a9.456,9.456,0,0,1,6.419-7.743c7.855-.33,10.731,7.083,10.731,7.083l5.084,29.089,13.717,3.332,13.5,3.322Z" transform="translate(-88.724 -167.814)" fill="#ee5976"/>
        <path id="Trazado_1237491" data-name="Trazado 1237491" d="M167.753,258.08l20.469-1.766,1.216,4.979L167.2,268.7S165.983,258.743,167.753,258.08Z" transform="translate(-104.969 -182.165)" fill="#ee5976"/>
        <path id="Trazado_1237492" data-name="Trazado 1237492" d="M164.911,255.628l-13.5-3.323-13.682-3.323-5.081-29.064a11.273,11.273,0,0,0-.914-1.72l-.1.054a11.15,11.15,0,0,1,.9,1.7l5.084,29.09.006.036,13.752,3.34,13.5,3.321,2.162.649-1.642,7.546-2.391.326c-.351.014-35.159,1.254-36.786-4.283l-.005-.033-.035,0c-.368-.175-3.121-7.752-6.023-17.459-1.492-4.99-2.656-9.331-3.455-12.848-.033.027-.067.054-.1.081.965,4.215,2.288,8.89,3.284,12.243,2.657,8.947,5.542,17.163,6.161,18a.287.287,0,0,0,.076.077c.733,2.351,7.154,3.795,19.086,4.292,3.222.134,6.432.178,9.221.178,4.917,0,8.528-.131,8.587-.133l2.472-.337,1.681-7.721Z" transform="translate(-89.28 -170.249)" fill="#454545"/>
        <path id="Trazado_1237493" data-name="Trazado 1237493" d="M153.49,275.235q-.1.937-.2,1.859c-5.737-.23-23.677-1.108-25.9-3.15-2.655-2.435-6.006-21.191-6.006-21.191l.071.043c2.758,9.285,5.816,17.938,6.212,17.994C128.707,274.34,143.018,275.134,153.49,275.235Z" transform="translate(-90.773 -181.052)" fill="#454545"/>
        <path id="Trazado_1237494" data-name="Trazado 1237494" d="M145.423,263.144l-3.873,3.318,5.531-2.994Z" transform="translate(-97.078 -184.3)" fill="#454545"/>
        <rect id="Rectángulo_423149" data-name="Rectángulo 423149" width="6.9" height="0.111" transform="translate(63.979 82.515) rotate(-87.971)" fill="#454545"/>
        <path id="Trazado_1237495" data-name="Trazado 1237495" d="M126.911,304.567c-3.3,1.1-9.723-.158-11.821-.62.344-1.18.654-2.552.93-4.024C119.409,304.132,130.677,303.312,126.911,304.567Z" transform="translate(-88.806 -195.799)" fill="#454545"/>
        <path id="Trazado_1237496" data-name="Trazado 1237496" d="M114.582,310.537l0,0,0,0,.008.011c.006.008.017.018.025.027a.633.633,0,0,0,.062.056,1.358,1.358,0,0,0,.149.1c.056.03.109.063.168.09l.177.08a5.5,5.5,0,0,0,.76.232,11.463,11.463,0,0,0,1.6.248,27.428,27.428,0,0,0,3.261.085c.272-.01.544-.016.817-.03l.817-.052c.272-.015.544-.036.817-.061l.817-.068c.544-.047,1.087-.1,1.632-.157l1.63-.175c2.172-.245,4.341-.522,6.509-.815s4.332-.6,6.494-.931q-3.238.532-6.483,1.014c-2.164.32-4.33.626-6.5.9l-1.629.2c-.544.059-1.087.123-1.632.177l-.817.078c-.272.027-.545.052-.818.071l-.819.063c-.274.018-.548.027-.822.041a27.746,27.746,0,0,1-3.295-.044,11.654,11.654,0,0,1-1.643-.234,5.744,5.744,0,0,1-.809-.237l-.2-.086c-.066-.029-.13-.067-.195-.1a1.8,1.8,0,0,1-.189-.128.881.881,0,0,1-.091-.08.618.618,0,0,1-.045-.048l-.023-.03-.012-.016-.016-.027Z" transform="translate(-88.556 -198.692)" fill="#fff"/>
        <path id="Trazado_1237497" data-name="Trazado 1237497" d="M117.624,298.536a10.484,10.484,0,0,0,1.021.847c.358.265.731.511,1.114.742a14.375,14.375,0,0,0,2.415,1.161c.42.156.849.287,1.282.4s.874.2,1.318.271a13.189,13.189,0,0,0,2.691.126,13.25,13.25,0,0,1-2.7-.045q-.672-.085-1.336-.233c-.441-.1-.878-.222-1.307-.367a14.576,14.576,0,0,1-2.485-1.1c-.4-.222-.784-.461-1.158-.72a10.76,10.76,0,0,1-1.084-.845Z" transform="translate(-89.527 -195.365)" fill="#fff"/>
        <path id="Trazado_1237498" data-name="Trazado 1237498" d="M149.727,155.439l-.11-.716a11.146,11.146,0,0,0-2.844-5.249l.157-.157a11.889,11.889,0,0,1,2.8,4.817,14.216,14.216,0,0,1,2.572-5.693l.17.141a14.489,14.489,0,0,0-2.633,6.141Z" transform="translate(-98.711 -148.441)" fill="#454545"/>
        <path id="Trazado_1237499" data-name="Trazado 1237499" d="M160.187,160.026a4.68,4.68,0,0,1-1.691,3.3,5.9,5.9,0,0,1-.641.472,7.938,7.938,0,0,1-2.869,1.09s-3.1,1.437-3.762,2.433-3.762,1.327-5.2,3.982a7.042,7.042,0,0,0-.709,2.149,9.9,9.9,0,0,0,.365,4.751,8.709,8.709,0,0,0,1.836,3.444c1.549,1.439,3.873-.331,3.873-.331s1-2.323,2.213-2.876,2.987-.774,3.319-.442a6.345,6.345,0,0,1,.442,1.461,3.572,3.572,0,0,1-.111,1.859,6.707,6.707,0,0,1,.021.968,3.257,3.257,0,0,1-.575,1.908s0,5.089-2.657,5.753-2.987-.775-2.987-.775-1.751-.019-2.313-.9a4.58,4.58,0,0,1-.674-1.65s-2.987-.443-3.983-2.545-1.991-2.435-1.99-5.975c0-.358.166-3.153.166-3.153s.112-4.757-1.99-5.643a2.193,2.193,0,0,0-3.209,2.1c.111,1.217-.5,6.251-2.27,6.472s-.886,3.429-2.435,4.2-4.536.22-3.651-1.439a13.133,13.133,0,0,0,.223-9.072c-1.217-2.987-.22-6.749-.22-6.749s-1.659-1.66.223-6.085,5.422-3.318,5.422-3.318c4.648-5.531,9.294-.33,9.294-.33a5.776,5.776,0,0,1,5.808-.607C156.095,151.285,160.519,155.822,160.187,160.026Z" transform="translate(-92.853 -149.829)" fill="#454545"/>
        <path id="Trazado_1237500" data-name="Trazado 1237500" d="M169.334,185.219l-.008-.111,1.613-.107c.186-1.754-1.313-5.422-1.328-5.459l.1-.042c.063.154,1.551,3.8,1.33,5.56l-.006.045Z" transform="translate(-105.762 -158.151)" fill="#454545"/>
        <path id="Trazado_1237501" data-name="Trazado 1237501" d="M162.249,188.05a2.215,2.215,0,1,1-2.212-2.324A2.27,2.27,0,0,1,162.249,188.05Z" transform="translate(-102.166 -160.097)" fill="#ee5976"/>
        <path id="Trazado_1237502" data-name="Trazado 1237502" d="M169.426,193.413a6.707,6.707,0,0,1,.021.968c-1-.357-2.609-1.05-2.455-1.743.221-1,2.545-1.084,2.545-1.084A3.567,3.567,0,0,1,169.426,193.413Z" transform="translate(-105.029 -161.919)" fill="#f2a196"/>
        <path id="Trazado_1237503" data-name="Trazado 1237503" d="M144.089,183.545c-1.314-.717-2.486-3.894-1.929-5.23a2.063,2.063,0,0,1,1.993-1.284l-.018.221a1.81,1.81,0,0,0-1.77,1.149c-.514,1.233.615,4.286,1.83,4.95Z" transform="translate(-97.225 -157.378)" fill="#454545"/>
        <path id="Trazado_1237504" data-name="Trazado 1237504" d="M161.116,167.963a5.892,5.892,0,0,1-.641.472,23.388,23.388,0,0,1-2.312.838,24.044,24.044,0,0,1-3.151.74,18.67,18.67,0,0,1-6.445,0l-.4-.078c-.133-.027-.263-.062-.394-.093l-.782-.188c-.129-.034-.261-.06-.392-.084l-.394-.076-.4-.059-.2-.03-.2-.021a12.455,12.455,0,0,0-3.2.05,11.9,11.9,0,0,0-3.078.885,11.4,11.4,0,0,0-1.424.744,8.835,8.835,0,0,0-1.3.952,8.776,8.776,0,0,1,1.285-.969,11.217,11.217,0,0,1,1.417-.765,11.955,11.955,0,0,1,3.084-.929,12.555,12.555,0,0,1,3.223-.091l.2.018.2.027.4.056.4.072c.133.023.265.047.4.08l.786.178c.131.029.26.062.39.087l.394.072a18.485,18.485,0,0,0,6.374-.078,23.8,23.8,0,0,0,3.107-.772,27.022,27.022,0,0,0,3.347-1.3Z" transform="translate(-95.474 -154.462)" fill="#fff"/>
        <path id="Trazado_1237505" data-name="Trazado 1237505" d="M140.619,172.9a.166.166,0,0,0-.043-.074l-.034-.026a.163.163,0,0,0-.084-.023h-.085a.129.129,0,0,0-.064.014.124.124,0,0,0-.054.034.131.131,0,0,0-.034.054.128.128,0,0,0-.014.064l.006.044a.173.173,0,0,0,.043.074l.034.026a.163.163,0,0,0,.084.023h.085a.128.128,0,0,0,.064-.014.124.124,0,0,0,.054-.034.131.131,0,0,0,.034-.054.128.128,0,0,0,.014-.064Z" transform="translate(-96.659 -156.05)" fill="#fff"/>
        <path id="Trazado_1237506" data-name="Trazado 1237506" d="M145.678,174.016a.166.166,0,0,0,0,.332A.166.166,0,0,0,145.678,174.016Z" transform="translate(-98.319 -156.436)" fill="#fff"/>
        <path id="Trazado_1237507" data-name="Trazado 1237507" d="M148.756,171.8a.173.173,0,0,0-.043-.074l-.034-.026a.163.163,0,0,0-.084-.023h-.085a.128.128,0,0,0-.064.014.149.149,0,0,0-.088.088.128.128,0,0,0-.014.064l.006.044a.173.173,0,0,0,.043.074l.034.026a.163.163,0,0,0,.084.023h.085a.129.129,0,0,0,.064-.014.124.124,0,0,0,.054-.034.131.131,0,0,0,.034-.054.128.128,0,0,0,.014-.064Z" transform="translate(-99.203 -155.704)" fill="#fff"/>
        <path id="Trazado_1237508" data-name="Trazado 1237508" d="M150.974,177.1a.173.173,0,0,0-.043-.074L150.9,177a.163.163,0,0,0-.084-.023h-.085a.128.128,0,0,0-.064.014.124.124,0,0,0-.054.034.131.131,0,0,0-.034.054.128.128,0,0,0-.014.064l.006.044a.162.162,0,0,0,.043.074l.034.026a.163.163,0,0,0,.084.023h.085a.128.128,0,0,0,.064-.014.124.124,0,0,0,.054-.034.131.131,0,0,0,.034-.054.128.128,0,0,0,.014-.064Z" transform="translate(-99.896 -157.362)" fill="#fff"/>
        <path id="Trazado_1237509" data-name="Trazado 1237509" d="M153.841,173.379a.149.149,0,0,0-.088-.088.129.129,0,0,0-.064-.014l-.044.006a.166.166,0,0,0-.122.16v.17a.128.128,0,0,0,.014.064.149.149,0,0,0,.088.088.128.128,0,0,0,.064.014l.044-.006a.16.16,0,0,0,.073-.043.173.173,0,0,0,.049-.118v-.17A.121.121,0,0,0,153.841,173.379Z" transform="translate(-100.822 -156.205)" fill="#fff"/>
        <path id="Trazado_1237510" data-name="Trazado 1237510" d="M155.541,175.251a.166.166,0,0,0,0,.332A.166.166,0,0,0,155.541,175.251Z" transform="translate(-101.402 -156.823)" fill="#fff"/>
        <path id="Trazado_1237511" data-name="Trazado 1237511" d="M158.87,173.032a.166.166,0,0,0,0,.332A.166.166,0,0,0,158.87,173.032Z" transform="translate(-102.443 -156.129)" fill="#fff"/>
        <path id="Trazado_1237512" data-name="Trazado 1237512" d="M157.266,156.751a10.311,10.311,0,0,1,4.094-2.122,6.7,6.7,0,0,1,1.158-.172c.2-.014.391-.01.588-.008s.392.025.586.056a5.145,5.145,0,0,1,1.139.3,7.58,7.58,0,0,1,1.052.518,6.639,6.639,0,0,1,1.8,1.5,4.541,4.541,0,0,1,.966,2.125,6.916,6.916,0,0,1-.038,2.326A14.021,14.021,0,0,1,168,163.5a15.53,15.53,0,0,0,.5-2.251,6.828,6.828,0,0,0-.021-2.278,4.862,4.862,0,0,0-.35-1.076,4.456,4.456,0,0,0-.6-.953,6.454,6.454,0,0,0-1.753-1.432,7.335,7.335,0,0,0-1.017-.513,4.953,4.953,0,0,0-1.092-.294,6.358,6.358,0,0,0-2.264.09,9.49,9.49,0,0,0-2.16.762A11.918,11.918,0,0,0,157.266,156.751Z" transform="translate(-101.992 -150.319)" fill="#fff"/>
        <path id="Trazado_1237513" data-name="Trazado 1237513" d="M130.119,166.139c-.524-3.09-.126-5.43,1.186-6.956a5.5,5.5,0,0,1,3.908-1.791l0,.111a5.382,5.382,0,0,0-3.822,1.753c-1.288,1.5-1.679,3.809-1.16,6.864Z" transform="translate(-93.435 -151.24)" fill="#fff"/>
        <path id="Trazado_1237514" data-name="Trazado 1237514" d="M141.844,162.384l-.111-.009a3.694,3.694,0,0,1,1.407-2.521,4.01,4.01,0,0,1,3.533-.181l-.034.105a3.911,3.911,0,0,0-3.438.167A3.573,3.573,0,0,0,141.844,162.384Z" transform="translate(-97.136 -151.855)" fill="#fff"/>
        <path id="Trazado_1237515" data-name="Trazado 1237515" d="M159.224,164.448a4.508,4.508,0,0,0-2.93-2.286,5.017,5.017,0,0,0-3.517.861l-.066-.089a5.14,5.14,0,0,1,3.6-.881,4.611,4.611,0,0,1,3,2.336Z" transform="translate(-100.568 -152.676)" fill="#fff"/>
        <path id="Trazado_1237516" data-name="Trazado 1237516" d="M131.629,189.88a1.625,1.625,0,0,1-.975-.306l.065-.09c.751.536,1.6.219,2.493-.117.527-.2.554-.929.583-1.7a5.588,5.588,0,0,1,.159-1.359,2.04,2.04,0,0,1,1.073-1.166,5.116,5.116,0,0,0,1.481-1.285c1.081-1.4.768-5.891.764-5.937l.111-.008c.014.186.32,4.574-.787,6.012a5.294,5.294,0,0,1-1.509,1.312,1.957,1.957,0,0,0-1.026,1.1,5.488,5.488,0,0,0-.154,1.331c-.03.812-.058,1.579-.654,1.8A4.868,4.868,0,0,1,131.629,189.88Z" transform="translate(-93.672 -157.654)" fill="#fff"/>
        <path id="Trazado_1237517" data-name="Trazado 1237517" d="M145.752,215.975c-4.74.77-13.367-13.36-13.432-13.468,2.615,2.774,8.884,9.311,11.22,10.7,4.646,2.767,3.1-1.549,3.1-1.549l.518.364C147.9,213.808,148.017,215.607,145.752,215.975Z" transform="translate(-94.193 -165.344)" fill="#454545"/>
        <rect id="Rectángulo_423150" data-name="Rectángulo 423150" width="97.582" height="3.43" transform="translate(64.162 94.456)" fill="#454545"/>
        <path id="Trazado_1237518" data-name="Trazado 1237518" d="M133.163,348.609l.016,16.485,12.063,0,0-16.11Z" transform="translate(-94.456 -211.019)" fill="#454545"/>
        <path id="Trazado_1237519" data-name="Trazado 1237519" d="M121.991,309.985l-21.817,0,0-.223c.158-14.716-4.915-34.6-9.2-48.7-4.645-15.277-9.388-27.224-9.436-27.343l.411-.164c.047.119,4.8,12.08,9.447,27.375,2.732,8.984,4.895,17.344,6.43,24.849a118.039,118.039,0,0,1,2.791,23.76l21.37,0v.442Z" transform="translate(-78.318 -175.05)" fill="#fff"/>
        <rect id="Rectángulo_423151" data-name="Rectángulo 423151" width="11.678" height="0.443" transform="translate(38.706 139.639)" fill="#fff"/>
        <rect id="Rectángulo_423152" data-name="Rectángulo 423152" width="4.204" height="33.523" transform="translate(42.682 154.187)" fill="#454545"/>
        <path id="Trazado_1237520" data-name="Trazado 1237520" d="M110.129,427.685l21.908-8.736,23.01,10.183S129.378,434.217,110.129,427.685Z" transform="translate(-87.255 -233.01)" fill="#454545"/>
        <rect id="Rectángulo_423153" data-name="Rectángulo 423153" width="3.098" height="98.578" transform="translate(67.802 97.546)" fill="#454545"/>
        <rect id="Rectángulo_423154" data-name="Rectángulo 423154" width="3.098" height="98.578" transform="translate(151.997 97.563)" fill="#454545"/>
        <rect id="Rectángulo_423155" data-name="Rectángulo 423155" width="2.987" height="98.246" transform="translate(143.81 97.893)" fill="#454545"/>
        <g id="Grupo_1236983" data-name="Grupo 1236983" transform="translate(65.009 97.765)">
          <path id="Trazado_1237521" data-name="Trazado 1237521" d="M171.781,290.833l2.008,2.324,89.948.019,2.166-2.323Z" transform="translate(-171.539 -290.722)" fill="#fff"/>
          <path id="Trazado_1237522" data-name="Trazado 1237522" d="M263.675,293.237l-90.047-.019-2.2-2.545,94.618.02ZM173.729,293l89.85.019,1.96-2.1-93.625-.02Z" transform="translate(-171.429 -290.672)" fill="#454545"/>
        </g>
        <path id="Trazado_1237523" data-name="Trazado 1237523" d="M114.474,431.337c1.593.3,3.2.534,4.8.744s3.216.386,4.83.524c3.226.283,6.461.483,9.7.522.4.007.809.028,1.214.025h3.036c.2,0,.4-.01.607-.014l2.428-.064.607-.016.606-.033,1.213-.062c3.237-.142,6.46-.482,9.68-.846l-2.409.324-1.206.159-.3.04c-.1.012-.2.021-.3.031l-.6.06-2.421.23c-.2.019-.4.041-.606.056l-.607.039-1.214.077c-3.236.221-6.483.256-9.725.212-.81-.023-1.622-.038-2.432-.068l-2.43-.122c-1.618-.1-3.237-.213-4.849-.384s-3.223-.361-4.829-.586C117.659,431.942,116.058,431.685,114.474,431.337Z" transform="translate(-88.614 -236.883)" fill="#fff"/>
        <path id="Trazado_1237524" data-name="Trazado 1237524" d="M139.033,372.673l4.148,1.492v-1.491Z" transform="translate(-96.292 -218.542)" fill="#fff"/>
        <rect id="Rectángulo_423156" data-name="Rectángulo 423156" width="10.403" height="0.111" transform="translate(22.308 134.43) rotate(-22.297)" fill="#fff"/>
      </g>
      <g id="Grupo_1236985" data-name="Grupo 1236985" transform="translate(209.005 93.913)">
        <path id="Trazado_1237525" data-name="Trazado 1237525" d="M300.6,136.123a3.808,3.808,0,1,1,5.34.7A3.807,3.807,0,0,1,300.6,136.123Z" transform="translate(-286.165 -129.997)" fill="#ee5976"/>
        <path id="Trazado_1237526" data-name="Trazado 1237526" d="M298.959,132.2a3.993,3.993,0,1,1-.736,5.6A4,4,0,0,1,298.959,132.2Zm4.637,6.041a3.622,3.622,0,1,0-5.078-.668A3.626,3.626,0,0,0,303.6,138.239Z" transform="translate(-285.411 -130.427)" fill="#020264"/>
        <path id="Trazado_1237527" data-name="Trazado 1237527" d="M293.108,143.812a1.393,1.393,0,1,1,1.954.257A1.394,1.394,0,0,1,293.108,143.812Z" transform="translate(-283.979 -133.615)" fill="#ee5976"/>
        <path id="Trazado_1237528" data-name="Trazado 1237528" d="M286.677,148.747a1.393,1.393,0,1,1,1.954.257A1.394,1.394,0,0,1,286.677,148.747Z" transform="translate(-281.969 -135.158)" fill="#ee5976"/>
        <path id="Trazado_1237529" data-name="Trazado 1237529" d="M280.246,153.683a1.393,1.393,0,1,1,1.953.257A1.394,1.394,0,0,1,280.246,153.683Z" transform="translate(-279.958 -136.701)" fill="#ee5976"/>
      </g>
      <g id="Grupo_1236986" data-name="Grupo 1236986" transform="translate(220.44 17.501)">
        <path id="Trazado_1237530" data-name="Trazado 1237530" d="M321.6,19.485l-8.087,8.087-8.087-8.087-4.942,4.942,8.087,8.087L300.483,40.6l4.942,4.942,8.087-8.087,8.087,8.087,4.941-4.942-8.086-8.087,8.086-8.087Z" transform="translate(-297.81 -19.036)" fill="#19bdae"/>
        <path id="Trazado_1237531" data-name="Trazado 1237531" d="M318.16,45.788,310.073,37.7l-8.087,8.087L296.595,40.4l8.087-8.087-8.087-8.087,5.391-5.391,8.087,8.087,8.087-8.087,5.391,5.391-8.087,8.087,8.087,8.087ZM297.493,40.4l4.493,4.493,8.087-8.087,8.087,8.087,4.493-4.493-8.087-8.087,8.087-8.087-4.493-4.493-8.087,8.087-8.087-8.087-4.493,4.493,8.087,8.087Z" transform="translate(-296.595 -18.832)" fill="#020264"/>
      </g>
      <g id="Grupo_1236987" data-name="Grupo 1236987" transform="translate(53 120.131)">
        <rect id="Rectángulo_423157" data-name="Rectángulo 423157" width="23.826" height="6.672" transform="translate(3.177 1.909)" fill="#ee5976"/>
        <path id="Trazado_1237532" data-name="Trazado 1237532" d="M77.461,175.45l-24.461,0v-7.307l24.462,0Zm-23.826-.639,23.191,0v-6.036l-23.191,0Z" transform="translate(-53 -168.139)" fill="#020264"/>
        <rect id="Rectángulo_423158" data-name="Rectángulo 423158" width="18.743" height="5.401" transform="translate(21.284 12.712)" fill="#ee5976"/>
      </g>
      <g id="Grupo_1236988" data-name="Grupo 1236988" transform="translate(402.828 87.398)">
        <rect id="Rectángulo_423159" data-name="Rectángulo 423159" width="13.855" height="11.91" transform="matrix(0.707, 0.707, -0.707, 0.707, 8.423, 6.868)" fill="#19bdae"/>
        <path id="Trazado_1237533" data-name="Trazado 1237533" d="M574.746,139.769l-10.311-10.314,8.939-8.936,10.311,10.314Zm-9.28-10.314,9.28,9.283,7.907-7.9-9.279-9.283Z" transform="translate(-562.718 -120.519)" fill="#020264"/>
      </g>
    </g>
  </g>
</svg>
