<svg xmlns="http://www.w3.org/2000/svg" xmlns:xlink="http://www.w3.org/1999/xlink" width="108" height="108" viewBox="0 0 108 108">
  <defs>
    <filter id="Trazado_904820" x="0" y="0" width="108" height="108" filterUnits="userSpaceOnUse">
      <feOffset dy="3" input="SourceAlpha"/>
      <feGaussianBlur stdDeviation="3" result="blur"/>
      <feFlood flood-opacity="0.161"/>
      <feComposite operator="in" in2="blur"/>
      <feComposite in="SourceGraphic"/>
    </filter>
  </defs>
  <g id="Grupo_1236991" data-name="Grupo 1236991" transform="translate(-618.999 -3089)">
    <g id="Grupo_1236228" data-name="Grupo 1236228" transform="translate(627.999 3095)">
      <g id="Grupo_1226544" data-name="Grupo 1226544" transform="translate(0 0)">
        <g id="Grupo_1211534" data-name="Grupo 1211534" transform="translate(0)">
          <g id="Grupo_1173585" data-name="Grupo 1173585">
            <g id="Grupo_1173428" data-name="Grupo 1173428">
              <g id="Grupo_1171958" data-name="Grupo 1171958">
                <g id="Grupo_1167341" data-name="Grupo 1167341">
                  <g id="Grupo_1166792" data-name="Grupo 1166792">
                    <g transform="matrix(1, 0, 0, 1, -9, -6)" filter="url(#Trazado_904820)">
                      <g id="Trazado_904820-2" data-name="Trazado 904820" transform="translate(9 6)" fill="#ebfefd">
                        <path d="M 44.99999618530273 88.50001525878906 C 39.12687301635742 88.50001525878906 33.43022155761719 87.35009002685547 28.06829643249512 85.08217620849609 C 22.88852119445801 82.89132690429688 18.23629570007324 79.75460052490234 14.24084663391113 75.7591552734375 C 10.24540901184082 71.76370239257812 7.108683586120605 67.11148071289062 4.917821407318115 61.93171691894531 C 2.649921178817749 56.56977844238281 1.499996185302734 50.87313842773438 1.499996185302734 45.00001525878906 C 1.499996185302734 39.12689208984375 2.649921178817749 33.43024063110352 4.917821407318115 28.06831550598145 C 7.108683586120605 22.88854026794434 10.24540901184082 18.23631477355957 14.24084663391113 14.24086570739746 C 18.23629570007324 10.24542808532715 22.88852119445801 7.108702659606934 28.06829643249512 4.917840480804443 C 33.43022155761719 2.649940252304077 39.12687301635742 1.500015258789062 44.99999618530273 1.500015258789062 C 50.87311935424805 1.500015258789062 56.56977081298828 2.649940252304077 61.93169784545898 4.917840480804443 C 67.11147308349609 7.108702659606934 71.76369476318359 10.24542808532715 75.75914764404297 14.24086570739746 C 79.75458526611328 18.23631477355957 82.89131164550781 22.88854026794434 85.08216857910156 28.06831550598145 C 87.35007476806641 33.43024063110352 88.5 39.12689208984375 88.5 45.00001525878906 C 88.5 50.87313842773438 87.35007476806641 56.56977844238281 85.08216857910156 61.93171691894531 C 82.89131164550781 67.11148071289062 79.75458526611328 71.76370239257812 75.75914764404297 75.7591552734375 C 71.76369476318359 79.75460052490234 67.11147308349609 82.89132690429688 61.93169784545898 85.08217620849609 C 56.56977081298828 87.35009002685547 50.87311935424805 88.50001525878906 44.99999618530273 88.50001525878906 Z" stroke="none"/>
                        <path d="M 44.99999618530273 3.000015258789062 C 39.32870864868164 3.000015258789062 33.82865142822266 4.110069274902344 28.65262603759766 6.299354553222656 C 23.65165710449219 8.414588928222656 19.15968322753906 11.443359375 15.301513671875 15.30152893066406 C 11.44333648681641 19.15969848632812 8.414566040039062 23.65167236328125 6.299339294433594 28.65264511108398 C 4.110054016113281 33.82867050170898 2.999992370605469 39.32872772216797 2.999992370605469 45.00001525878906 C 2.999992370605469 50.67130279541016 4.110054016113281 56.17134475708008 6.299339294433594 61.34738922119141 C 8.414566040039062 66.34835815429688 11.44333648681641 70.84031677246094 15.301513671875 74.69850158691406 C 19.15968322753906 78.55667114257812 23.65165710449219 81.58544158935547 28.65262603759766 83.70067596435547 C 33.82865142822266 85.88996124267578 39.32870864868164 87.00001525878906 44.99999618530273 87.00001525878906 C 50.67128372192383 87.00001525878906 56.17134094238281 85.88996124267578 61.34736633300781 83.70067596435547 C 66.34834289550781 81.58544158935547 70.84030914306641 78.55667114257812 74.69847869873047 74.69850158691406 C 78.55665588378906 70.84031677246094 81.58542633056641 66.34835815429688 83.70065307617188 61.34738922119141 C 85.88993835449219 56.17134475708008 87 50.67130279541016 87 45.00001525878906 C 87 39.32872772216797 85.88993835449219 33.82867050170898 83.70065307617188 28.65264511108398 C 81.58542633056641 23.65167236328125 78.55665588378906 19.15969848632812 74.69847869873047 15.30152893066406 C 70.84030914306641 11.443359375 66.34834289550781 8.414588928222656 61.34736633300781 6.299354553222656 C 56.17134094238281 4.110069274902344 50.67128372192383 3.000015258789062 44.99999618530273 3.000015258789062 M 44.99999618530273 1.52587890625e-05 C 69.85281372070312 1.52587890625e-05 90 20.14720153808594 90 45.00001525878906 C 90 69.85281372070312 69.85281372070312 90.00001525878906 44.99999618530273 90.00001525878906 C 20.14717864990234 90.00001525878906 -7.62939453125e-06 69.85281372070312 -7.62939453125e-06 45.00001525878906 C -7.62939453125e-06 20.14720153808594 20.14717864990234 1.52587890625e-05 44.99999618530273 1.52587890625e-05 Z" stroke="none" fill="#268985"/>
                      </g>
                    </g>
                  </g>
                </g>
              </g>
            </g>
          </g>
        </g>
      </g>
    </g>
    <g id="tiempo-de-trabajo_2_" data-name="tiempo-de-trabajo (2)" transform="translate(641.101 3109.705)">
      <g id="Grupo_1236990" data-name="Grupo 1236990" transform="translate(1.435 0.936)">
        <path id="Trazado_1237534" data-name="Trazado 1237534" d="M15,55.206l-3.378,3.378a1.8,1.8,0,0,0,0,2.539L13,62.5a14.59,14.59,0,0,0-1.17,2.913H9.85a1.8,1.8,0,0,0-1.8,1.8v4.775a1.8,1.8,0,0,0,1.8,1.8H11.9A14.9,14.9,0,0,0,13.088,76.6l-1.464,1.464a1.8,1.8,0,0,0,0,2.543L15,83.981a1.8,1.8,0,0,0,2.54,0l1.464-1.463A14.614,14.614,0,0,0,21.831,83.7V85.76a1.8,1.8,0,0,0,1.8,1.8H28.4a1.8,1.8,0,0,0,1.8-1.8v-1.98a14.807,14.807,0,0,0,2.913-1.174l1.373,1.376a1.8,1.8,0,0,0,2.543,0L40.4,80.607a1.8,1.8,0,0,0,0-2.543l-1.3-1.3a14.876,14.876,0,0,0,1.275-2.987h1.8a1.8,1.8,0,0,0,1.8-1.8V67.208a1.8,1.8,0,0,0-1.8-1.8H40.453a14.861,14.861,0,0,0-1.261-3.077L40.4,61.124a1.8,1.8,0,0,0,0-2.54l-3.374-3.378a1.8,1.8,0,0,0-2.543,0l-1.209,1.212A14.853,14.853,0,0,0,30.2,55.158V53.432a1.8,1.8,0,0,0-1.8-1.8H23.627a1.8,1.8,0,0,0-1.8,1.8v1.8a14.627,14.627,0,0,0-2.986,1.275l-1.3-1.3a1.8,1.8,0,0,0-2.54,0Zm11.01,9.857a4.532,4.532,0,1,0,4.534,4.531A4.532,4.532,0,0,0,26.013,65.064Zm0,0" transform="translate(-8.055 -46.177)" fill="#b3b3b3" fill-rule="evenodd"/>
        <path id="Trazado_1237535" data-name="Trazado 1237535" d="M89.266,141.859a9.016,9.016,0,1,0-9.016-9.016A9.013,9.013,0,0,0,89.266,141.859Zm0-13.546a4.532,4.532,0,1,0,4.534,4.531A4.532,4.532,0,0,0,89.266,128.313Zm0,0" transform="translate(-71.308 -109.426)" fill="#999" fill-rule="evenodd"/>
        <path id="Trazado_1237536" data-name="Trazado 1237536" d="M15.041,90.076A16.592,16.592,0,0,1,21.6,76.848a14.8,14.8,0,0,0-2.756,1.205l-1.3-1.3a1.8,1.8,0,0,0-2.54,0l-3.378,3.378a1.8,1.8,0,0,0,0,2.539L13,84.044a14.591,14.591,0,0,0-1.17,2.913H9.85a1.8,1.8,0,0,0-1.8,1.8v4.775a1.8,1.8,0,0,0,1.8,1.8H11.9a14.9,14.9,0,0,0,1.184,2.823l-1.464,1.464a1.8,1.8,0,0,0,0,2.543L15,105.526a1.8,1.8,0,0,0,2.54,0l1.464-1.463a14.614,14.614,0,0,0,2.826,1.184V107.3a1.8,1.8,0,0,0,1.8,1.8H28.4a1.8,1.8,0,0,0,1.8-1.8v-.678a16.612,16.612,0,0,1-15.156-16.55Zm0,0" transform="translate(-8.055 -67.721)" fill="#999" fill-rule="evenodd"/>
        <path id="Trazado_1237537" data-name="Trazado 1237537" d="M148,220.928l-.22,4.887a1.842,1.842,0,0,0,1.753,1.925l1.991.091a15.317,15.317,0,0,0,1.125,3.014l-1.5,1.366a1.846,1.846,0,0,0-.116,2.6l3.3,3.612a1.85,1.85,0,0,0,2.6.119l1.554-1.418a15.117,15.117,0,0,0,2.847,1.317l-.094,2.12a1.846,1.846,0,0,0,1.754,1.921l4.89.224a1.847,1.847,0,0,0,1.921-1.757l.1-2.121a14.984,14.984,0,0,0,2.955-1.055l1.422,1.558a1.845,1.845,0,0,0,2.6.119l3.616-3.3a1.846,1.846,0,0,0,.115-2.6l-1.366-1.5a15.056,15.056,0,0,0,1.393-2.9l1.991.09a1.841,1.841,0,0,0,1.921-1.753l.224-4.89a1.847,1.847,0,0,0-1.757-1.921l-1.883-.084a15.157,15.157,0,0,0-1.1-3.144l1.362-1.243a1.85,1.85,0,0,0,.119-2.6l-3.3-3.612a1.842,1.842,0,0,0-2.6-.119l-1.306,1.191a14.94,14.94,0,0,0-3.081-1.456l.08-1.753a1.847,1.847,0,0,0-1.757-1.921l-4.887-.224a1.849,1.849,0,0,0-1.925,1.757l-.077,1.75a15.212,15.212,0,0,0-3.2,1.174l-1.191-1.306a1.846,1.846,0,0,0-2.6-.119l-3.615,3.3a1.845,1.845,0,0,0-.119,2.6l1.243,1.366a15.1,15.1,0,0,0-1.376,3.028l-1.886-.088A1.847,1.847,0,0,0,148,220.928Zm15.146-.15a4.645,4.645,0,1,0,6.56.3A4.644,4.644,0,0,0,163.143,220.779Zm0,0" transform="translate(-130.469 -181.165)" fill="#e8e8e8" fill-rule="evenodd"/>
        <path id="Trazado_1237538" data-name="Trazado 1237538" d="M238,296.526a9.24,9.24,0,1,0-13.054-.594,9.239,9.239,0,0,0,13.054.594Zm-9.361-10.252a4.644,4.644,0,1,0,6.56.3,4.644,4.644,0,0,0-6.56-.3Zm0,0" transform="translate(-195.967 -246.66)" fill="#999" fill-rule="evenodd"/>
        <path id="Trazado_1237539" data-name="Trazado 1237539" d="M157.233,306.928a16.993,16.993,0,0,1-4.174-14.541,15.073,15.073,0,0,0-1.254,2.815l-1.886-.088A1.846,1.846,0,0,0,148,296.872l-.22,4.887a1.842,1.842,0,0,0,1.753,1.925l1.991.091a15.208,15.208,0,0,0,1.125,3.011l-1.5,1.369a1.846,1.846,0,0,0-.116,2.6l3.3,3.612a1.851,1.851,0,0,0,2.6.119l1.554-1.421a15.131,15.131,0,0,0,2.847,1.32l-.094,2.121a1.847,1.847,0,0,0,1.754,1.921l4.89.224a1.847,1.847,0,0,0,1.921-1.757l.1-2.12a15.017,15.017,0,0,0,2.955-1.055l1.421,1.558a1.845,1.845,0,0,0,2.6.119l3.616-3.3a1.846,1.846,0,0,0,.115-2.6l-.468-.51a17.028,17.028,0,0,1-22.908-2.054Zm0,0" transform="translate(-130.47 -257.108)" fill="#ccc" fill-rule="evenodd"/>
        <path id="Trazado_1237540" data-name="Trazado 1237540" d="M267.509,38.245A15.343,15.343,0,1,0,252.164,22.9,15.343,15.343,0,0,0,267.509,38.245Zm0,0" transform="translate(-221.928 -7.559)" fill="#55b8e6" fill-rule="evenodd"/>
        <path id="Trazado_1237541" data-name="Trazado 1237541" d="M299.311,65.526a10.851,10.851,0,1,0-10.849-10.849A10.851,10.851,0,0,0,299.311,65.526Zm0,0" transform="translate(-253.73 -39.332)" fill="#e8e8e8" fill-rule="evenodd"/>
        <path id="Trazado_1237542" data-name="Trazado 1237542" d="M292.059,54.677a10.83,10.83,0,0,1,9.051-10.7,10.851,10.851,0,1,0,0,21.4,10.662,10.662,0,0,1-1.8-.461A10.854,10.854,0,0,1,292.059,54.677Zm0,0" transform="translate(-253.73 -39.332)" fill="#ccc" fill-rule="evenodd"/>
        <path id="Trazado_1237543" data-name="Trazado 1237543" d="M254.823,22.7A15.349,15.349,0,0,1,266.57,7.782a15.344,15.344,0,1,0,4.44,30.26,1,1,0,0,1,.1-.025c-.039,0-.077,0-.112.007q-.414.021-.828.021a15.372,15.372,0,0,1-4.192-.58c-.454-.129-.9-.276-1.338-.447a14.088,14.088,0,0,1-1.393-.622c-.185-.091-.37-.189-.552-.29a15.433,15.433,0,0,1-4.419-3.71c-.147-.178-.29-.363-.426-.549a15.273,15.273,0,0,1-3.025-9.148Zm0,0" transform="translate(-221.929 -7.754)" fill="#507fcf" fill-rule="evenodd"/>
      </g>
      <path id="Trazado_1237544" data-name="Trazado 1237544" d="M115.474,152.592a5.469,5.469,0,1,0,4.369,5.356A5.474,5.474,0,0,0,115.474,152.592Zm-1.1,8.953a3.6,3.6,0,1,1,3.6-3.6A3.6,3.6,0,0,1,114.373,161.545Zm0,0" transform="translate(-94.98 -133.594)"/>
      <path id="Trazado_1237545" data-name="Trazado 1237545" d="M63.3,16.281a16.153,16.153,0,0,0-1.683-7.216.936.936,0,0,0-1.678.829A14.412,14.412,0,0,1,48.893,30.564a14.677,14.677,0,0,1-1.877.122A14.407,14.407,0,1,1,57.548,6.448.936.936,0,1,0,58.916,5.17a16.281,16.281,0,0,0-26.988,5l-.86-.861a2.742,2.742,0,0,0-3.868,0l-.723.726a15.758,15.758,0,0,0-1.963-.8V8.191A2.735,2.735,0,0,0,21.782,5.46H17.007a2.735,2.735,0,0,0-2.732,2.731V9.313a15.6,15.6,0,0,0-1.879.8L11.584,9.3a2.735,2.735,0,0,0-3.863,0L4.343,12.681a2.736,2.736,0,0,0,0,3.863l.9.9a15.651,15.651,0,0,0-.722,1.794H3.23A2.735,2.735,0,0,0,.5,21.968v4.774A2.735,2.735,0,0,0,3.23,29.474H4.606a15.813,15.813,0,0,0,.716,1.708l-.979.979a2.741,2.741,0,0,0,0,3.867L7.721,39.4a2.734,2.734,0,0,0,3.863,0l.979-.979a15.61,15.61,0,0,0,1.713.717v1.378a2.734,2.734,0,0,0,2.731,2.731h.9l-.1,2.295a2.783,2.783,0,0,0,2.649,2.9l1.315.06a16.314,16.314,0,0,0,.7,1.884l-.989.9a2.782,2.782,0,0,0-.175,3.923l3.3,3.613a2.785,2.785,0,0,0,3.924.177l1.052-.962a16.138,16.138,0,0,0,1.752.811l-.064,1.437a2.779,2.779,0,0,0,2.646,2.9l4.891.224c.042,0,.085,0,.127,0a2.783,2.783,0,0,0,2.772-2.651l.066-1.436a15.893,15.893,0,0,0,1.819-.65l.963,1.055a2.781,2.781,0,0,0,3.922.179l3.614-3.3a2.782,2.782,0,0,0,.176-3.925l-.9-.985a16.152,16.152,0,0,0,.871-1.816l1.312.06a2.778,2.778,0,0,0,2.9-2.646l.224-4.891a2.779,2.779,0,0,0-2.647-2.9l-1.192-.053a16.139,16.139,0,0,0-.7-2.005L53,36.668a2.785,2.785,0,0,0,.178-3.924l-.95-1.04A16.306,16.306,0,0,0,63.3,16.281Zm-46.29,25.1a.871.871,0,0,1-.859-.859V38.461a.936.936,0,0,0-.667-.9,13.678,13.678,0,0,1-2.645-1.108.936.936,0,0,0-1.112.159L10.26,38.079a.86.86,0,0,1-1.216,0L5.667,34.7a.869.869,0,0,1,0-1.219L7.13,32.022a.936.936,0,0,0,.159-1.111A13.991,13.991,0,0,1,6.18,28.266a.936.936,0,0,0-.9-.664H3.231a.861.861,0,0,1-.859-.86V21.968a.861.861,0,0,1,.859-.86H5.211a.935.935,0,0,0,.9-.683,13.7,13.7,0,0,1,1.1-2.726.936.936,0,0,0-.165-1.1L5.667,15.22a.864.864,0,0,1,0-1.215l3.378-3.378a.861.861,0,0,1,1.216,0l1.3,1.3a.937.937,0,0,0,1.122.153,13.726,13.726,0,0,1,2.8-1.194.937.937,0,0,0,.668-.9v-1.8a.86.86,0,0,1,.859-.859h4.775a.871.871,0,0,1,.86.859V9.917a.936.936,0,0,0,.68.9A13.84,13.84,0,0,1,26.2,12a.935.935,0,0,0,1.114-.159l1.208-1.211a.867.867,0,0,1,1.218,0l1.522,1.525a16.262,16.262,0,0,0,2.275,13.256,2.8,2.8,0,0,0-.769,1.79l-.046,1.064a16.26,16.26,0,0,0-2.073.758l-.725-.795a2.744,2.744,0,0,0-1.089-.731,9.939,9.939,0,1,0-7.27,6.572,2.758,2.758,0,0,0,.642,1.2l.787.865a16.13,16.13,0,0,0-.88,1.932l-1.193-.056a2.783,2.783,0,0,0-2.9,2.649l-.033.72Zm5.385-10.032a2.755,2.755,0,0,0-.559.713,8.076,8.076,0,1,1,4.99-4.527,2.775,2.775,0,0,0-.817.514Zm27.795.905,1.6,1.755a.91.91,0,0,1-.058,1.281L50.37,36.53a.937.937,0,0,0-.213,1.1,14.206,14.206,0,0,1,1.029,2.949.935.935,0,0,0,.87.725l1.886.084a.915.915,0,0,1,.86.943l-.224,4.891a.9.9,0,0,1-.3.626.886.886,0,0,1-.648.234l-1.991-.09a.937.937,0,0,0-.925.623,14.177,14.177,0,0,1-1.307,2.722.936.936,0,0,0,.1,1.124l1.365,1.495a.9.9,0,0,1,.236.655.891.891,0,0,1-.291.625l-3.614,3.3a.91.91,0,0,1-1.277-.058l-1.422-1.558a.935.935,0,0,0-1.1-.213,14.1,14.1,0,0,1-2.77.989.935.935,0,0,0-.715.867l-.1,2.121a.91.91,0,0,1-.943.864L34,61.321a.916.916,0,0,1-.861-.944l.094-2.121a.935.935,0,0,0-.629-.926,14.216,14.216,0,0,1-2.671-1.239.937.937,0,0,0-1.113.112l-1.553,1.421a.91.91,0,0,1-1.281-.058l-3.3-3.613a.91.91,0,0,1,.056-1.278l1.5-1.366A.935.935,0,0,0,24.45,50.2a14.451,14.451,0,0,1-1.056-2.831.937.937,0,0,0-.864-.7l-1.992-.09a.912.912,0,0,1-.864-.947l.224-4.888a.911.911,0,0,1,.943-.864l1.886.087a.937.937,0,0,0,.933-.644,14.214,14.214,0,0,1,1.291-2.841.936.936,0,0,0-.112-1.108L23.6,34.006a.91.91,0,0,1,.058-1.277l3.615-3.3a.91.91,0,0,1,1.276.058l1.191,1.306A.935.935,0,0,0,30.847,31a14.337,14.337,0,0,1,3.007-1.1.936.936,0,0,0,.712-.868l.076-1.747a.9.9,0,0,1,.085-.336,16.249,16.249,0,0,0,12.288,5.612,16.417,16.417,0,0,0,2.08-.132c.366-.047.73-.1,1.092-.175Zm0,0" transform="translate(0 0)"/>
      <path id="Trazado_1237546" data-name="Trazado 1237546" d="M254.167,311.236l-.076.06-.03.027c-.06.051-.12.1-.18.156q-.206.189-.391.394l-.015.017c-.056.063-.111.126-.164.191s-.1.121-.142.183l-.026.033c-.037.05-.072.1-.107.154-.016.023-.033.046-.049.07-.093.14-.178.284-.257.43l-.021.037c-.021.041-.041.082-.061.123s-.041.079-.06.12q-.11.235-.2.48l-.008.022c-.018.05-.033.1-.049.15s-.024.072-.035.109c-.037.124-.069.251-.1.378s-.059.281-.079.423c-.006.041-.01.081-.014.121-.017.143-.031.286-.038.431a5.584,5.584,0,0,0,9.339,4.376c.071-.065.14-.131.207-.2a5.58,5.58,0,0,0-7.446-8.287Zm6.213,1.861a3.708,3.708,0,1,1-5.477,5,3.679,3.679,0,0,1-.964-2.3q-.009-.184,0-.369a3.68,3.68,0,0,1,1.205-2.569h0a3.68,3.68,0,0,1,2.5-.97c.057,0,.114,0,.172,0a3.681,3.681,0,0,1,2.569,1.2Zm0,0" transform="translate(-220.403 -271.619)"/>
      <path id="Trazado_1237547" data-name="Trazado 1237547" d="M232.058,275.617a.936.936,0,0,0-1.276,1.37c.189.176.367.354.537.537a8.3,8.3,0,1,1-3.767-2.361.936.936,0,1,0,.533-1.795,10.172,10.172,0,1,0,3.963,17.269,10.175,10.175,0,0,0,.648-14.382c-.208-.223-.416-.431-.637-.637Zm0,0" transform="translate(-187.946 -239.144)"/>
      <path id="Trazado_1237548" data-name="Trazado 1237548" d="M292.688,36.266a11.787,11.787,0,1,0,11.785,11.789,11.8,11.8,0,0,0-11.785-11.789Zm.936,21.656v-.4a.936.936,0,0,0-1.872,0v.4a9.929,9.929,0,0,1-8.932-8.932h.4a.936.936,0,1,0,0-1.872h-.4a9.931,9.931,0,0,1,8.932-8.935v.4a.936.936,0,0,0,1.872,0v-.4a9.931,9.931,0,0,1,8.932,8.935h-.4a.936.936,0,1,0,0,1.872h.4A9.929,9.929,0,0,1,293.624,57.922Zm0,0" transform="translate(-245.672 -31.774)"/>
      <path id="Trazado_1237549" data-name="Trazado 1237549" d="M347.468,86.434a.936.936,0,0,0-.936.936v5.278h-2.169a.936.936,0,1,0,0,1.872h3.105a.936.936,0,0,0,.936-.936V87.37A.937.937,0,0,0,347.468,86.434Zm0,0" transform="translate(-300.452 -75.728)"/>
    </g>
  </g>
</svg>
