<svg xmlns="http://www.w3.org/2000/svg" xmlns:xlink="http://www.w3.org/1999/xlink" width="400" height="394" viewBox="0 0 400 394">
  <defs>
    <clipPath id="clip-path">
      <rect id="Rectángulo_423103" data-name="Rectángulo 423103" width="400" height="394" transform="translate(1020 3294)" fill="#fff" stroke="#707070" stroke-width="1"/>
    </clipPath>
  </defs>
  <g id="Enmascarar_grupo_1208522" data-name="Enmascarar grupo 1208522" transform="translate(-1020 -3294)" clip-path="url(#clip-path)">
    <g id="Grupo_1236992" data-name="Grupo 1236992" transform="translate(0 -4)">
      <path id="Trazado_1237551" data-name="Trazado 1237551" d="M736.65,332.978l.665-.443c1.717.683,3.876,3.433,5.261,4.762l3.655-1.735a18.5,18.5,0,0,1,.849-5.5c.166-.129.3-.332.5-.388a11.234,11.234,0,0,1,2.363,0c2.824-.018,5.778-.185,8.583.074l1.237,6.276a26.877,26.877,0,0,1,4.283,1.532c1.052-.941,2.935-3.526,4.3-3.47,1.44.055,7.568,6.424,8.879,7.771a9.83,9.83,0,0,1-1.5,2.547c-.5.609-1.4,1.44-1.532,2.215l.591,1.311c.425,1.255.7,3.193,1.384,4.264,1.274.055,4.486-.2,5.427.517.609,1.717.332,3.913.3,5.741a15.408,15.408,0,0,1-.332,4.615c-.794.738-1.643.609-2.676.572l-2.7-.24a30.19,30.19,0,0,1-2.437,5.039L775.3,370.8h-.461l.258.277a1.73,1.73,0,0,1,.48.831c.406.351.48.369.609.868l-.277.277a2.473,2.473,0,0,1-.941-1.274l-.351.055-.074.148a22.376,22.376,0,0,1-2.455-3.286,62.245,62.245,0,0,0,3.433-6.608l4.873.2.055-8.583-5.63-.055c-.425-2.455-.775-4.947-2.566-6.774l1.606-2.178,1.994-2.455-3.212-3.083-4.264-3.784-4.19,3.895a20.089,20.089,0,0,0-5.852-2.141l-.978-6.147-6.11-.018a7.705,7.705,0,0,0-2.917.258c-1.2,1.292-.092,3.95-1.071,5.187-.849,1.071-3.655,1.92-4.947,2.64l-5.132-4.855-5.685,5.5a2.293,2.293,0,0,1,.812-1.514l4.67-4.929Z" transform="translate(393.451 3010.752)" fill="#3d469a"/>
      <path id="Trazado_1237552" data-name="Trazado 1237552" d="M909.2,423.857a4.874,4.874,0,0,1,1.071-.757c1.79,1.827,2.16,4.319,2.566,6.774l5.63.055-.055,8.583-4.873-.2a58.958,58.958,0,0,1-3.433,6.608,21.145,21.145,0,0,0,2.455,3.286l1.034,1.458-6.959,6.258-4.135-3.876c-.221-.221-.351-.5-.665-.461a2.382,2.382,0,0,0-1.034.517c.314-1.551,2.492-3.526,3.507-4.762a40.024,40.024,0,0,0,3.138-4.356,22.121,22.121,0,0,0,2.9-8.288A23.006,23.006,0,0,0,909.2,423.857Z" transform="translate(255.402 2934.512)" fill="#2c91f5"/>
      <path id="Trazado_1237553" data-name="Trazado 1237553" d="M706.07,347.9l.332.277-4.67,4.929a2.413,2.413,0,0,0-.812,1.514l-.628,1.163c.96,1.588,2.529,2.917,3.692,4.393a55.086,55.086,0,0,0-2.6,6.2l-5.408.018a47.892,47.892,0,0,0-.554,6.073,8.118,8.118,0,0,0,.129,3.064,23.256,23.256,0,0,0,5.076.572,28.547,28.547,0,0,0,2.75,7.051l-4.559,4.375,6.553,6.368,4.652-3.932c2.252,1.4,3.581,2.1,6.258,2.27a19.886,19.886,0,0,0,.258,3.6c.111-.111.185-.277.332-.332,1.311-.425,3.784-.166,5.242-.314l5.224-.7a11.039,11.039,0,0,1,.406-1.587,9.4,9.4,0,0,1,1.034-.388c1-.369,2.88-.812,3.36-1.735a2.113,2.113,0,0,1,1.034-.517c.332-.037.461.24.664.461l4.135,3.858,6.959-6.258-1.034-1.458.074-.148.351-.055a2.5,2.5,0,0,0,.941,1.274l.277-.277c-.129-.5-.2-.517-.609-.868a1.731,1.731,0,0,0-.48-.831l-.258-.277h.461a21.031,21.031,0,0,1,1.791,2.474c-1.9,2.787-5.39,5.575-7.882,7.845a2.238,2.238,0,0,1-1.477-.425l-3.71-3.36-.221.129c-1.366.738-2.88,1.089-4.3,1.717-.277,1.772-.185,5.372-1.514,6.553l-7.217-.351a15.877,15.877,0,0,1-4.283-.461,3.914,3.914,0,0,1-.775-2.381l-.425-.2a20.054,20.054,0,0,1-6-4.319l-3.526,2.787-4.818-4.578a18.842,18.842,0,0,1-3.083-3.1c.018-1.846,3.175-3.8,4.282-5.335l-2.1-5.335-5.058-.628c-.812-1.311.092-9.377.3-11.315.646-.738,4.282,0,5.408-.351.369-.111,1.975-3.766,2.381-4.449-.941-1.754-2.677-3.323-3.821-4.984.48-1.108,1.994-2.344,2.843-3.212Z" transform="translate(424.031 2995.831)" fill="#1127ab"/>
      <path id="Trazado_1237554" data-name="Trazado 1237554" d="M773.4,586.95c.424-.332,1.237-1.144,1.753-1.071a7.76,7.76,0,0,1,1.44.664,22.8,22.8,0,0,0,3.212,1.274l.018,3.636-.424-.2A19.675,19.675,0,0,1,773.4,586.95Z" transform="translate(359.285 2801.784)" fill="#75daf8"/>
      <path id="Trazado_1237555" data-name="Trazado 1237555" d="M816.2,601.648c.111-.111.185-.277.332-.332,1.311-.425,3.784-.166,5.242-.314l5.224-.7-.572,4.541-10.116-.425Z" transform="translate(324.386 2790.021)" fill="#7ad2fb"/>
      <path id="Trazado_1237556" data-name="Trazado 1237556" d="M812.971,381.3l3.212,3.083-1.994,2.455-1.606,2.178a5.349,5.349,0,0,0-1.071.757,23.437,23.437,0,0,1,1.144,10.817,22.124,22.124,0,0,1-2.9,8.288,34.777,34.777,0,0,1-3.138,4.356c-1.015,1.237-3.175,3.212-3.507,4.762-.48.923-2.381,1.366-3.36,1.735a9.41,9.41,0,0,0-1.034.388,10.46,10.46,0,0,0-.406,1.587l-5.224.7c-1.458.129-3.932-.129-5.242.314-.148.055-.221.222-.332.332a18.34,18.34,0,0,1-.258-3.6c-2.677-.148-4.006-.849-6.258-2.27a26.885,26.885,0,0,1,3.544-3.71l6.276-6.387a13.139,13.139,0,0,0,4.412.166,8.732,8.732,0,0,0,5.335-4.024,8.881,8.881,0,0,0,1-7.033c3.249-2.2,5.815-5.408,9.045-7.679a16.977,16.977,0,0,1-1.809-2.16c1.126-1.661,3.47-3.1,4.153-4.91Z" transform="translate(353.088 2968.596)" fill="#60bcf9"/>
      <path id="Trazado_1237557" data-name="Trazado 1237557" d="M945.8,412.887c.941-1.052,1.348-1.514,2.769-1.587l-1.606,2.178a5.361,5.361,0,0,0-1.071.757Z" transform="translate(218.709 2944.134)" fill="#41a5f8"/>
      <path id="Trazado_1237558" data-name="Trazado 1237558" d="M606.316,370.371c-2.086,1.015-5.556.664-7.79.258a14.859,14.859,0,0,1-9.913-6.479,15.082,15.082,0,0,1-2.252-11.463c.831-3.729,2.953-7.642,6.313-9.691a16.453,16.453,0,0,1,7.734-2.824c5.741-.332,8.934,2.234,13.032,5.87-.849.868-2.381,2.123-2.843,3.212,1.163,1.661,2.88,3.23,3.821,4.984-.425.7-2.012,4.338-2.381,4.449-1.126.351-4.762-.388-5.408.351C606.389,361.012,605.485,369.061,606.316,370.371Z" transform="translate(512.064 3002.156)" fill="#d0dff8"/>
      <path id="Trazado_1237559" data-name="Trazado 1237559" d="M706.841,345.762l5.685-5.5,5.132,4.855c1.292-.72,4.1-1.569,4.947-2.64.978-1.237-.129-3.895,1.071-5.187a7.739,7.739,0,0,1,2.917-.258l6.11.018.978,6.147a20.838,20.838,0,0,1,5.852,2.141l4.153-3.895,4.264,3.784-.055.185c-.683,1.809-3.046,3.249-4.153,4.91a18.382,18.382,0,0,0,1.809,2.16c-3.23,2.289-5.8,5.5-9.045,7.679a9.024,9.024,0,0,1-6.332,11.057,12.244,12.244,0,0,1-4.412-.166l-6.276,6.387a24.912,24.912,0,0,0-3.544,3.71l-4.652,3.932-6.553-6.368,4.559-4.375a28.54,28.54,0,0,1-2.75-7.051,23.255,23.255,0,0,1-5.076-.572,8.119,8.119,0,0,1-.129-3.064,47.882,47.882,0,0,1,.554-6.073l5.409-.074a57.15,57.15,0,0,1,2.6-6.2c-1.163-1.477-2.732-2.806-3.692-4.393Z" transform="translate(418.11 3004.706)" fill="#7ad2fb"/>
      <path id="Trazado_1237560" data-name="Trazado 1237560" d="M803.909,444.245l-1.015-.314a9.157,9.157,0,0,1-5.058-4.559,8.356,8.356,0,0,1-.055-6.848,9.41,9.41,0,0,1,4.984-5.021,8.8,8.8,0,0,1,6.774,0,10.1,10.1,0,0,1,5.113,5.833,9.024,9.024,0,0,1-6.331,11.057A12.655,12.655,0,0,1,803.909,444.245Z" transform="translate(339.98 2931.475)" fill="#3d469a"/>
      <path id="Trazado_1237561" data-name="Trazado 1237561" d="M845.14,467.4c.055,2.713-.111,4.6-2.123,6.682A6.67,6.67,0,0,1,838,476.408l-2.2-.222a14.279,14.279,0,0,1,1.975-1.772C840.23,472.052,842.482,469.5,845.14,467.4Z" transform="translate(308.404 2898.389)" fill="#7ad2fb"/>
      <path id="Trazado_1237562" data-name="Trazado 1237562" d="M810.051,449.093l-1.274-.535a7.9,7.9,0,0,1-4.3-4.707,7.182,7.182,0,0,1,.517-5.205,8.348,8.348,0,0,1,4.929-4.172,7.448,7.448,0,0,1,5.87.812,8.059,8.059,0,0,1,3.581,5.039,97.616,97.616,0,0,0-7.365,7A14.1,14.1,0,0,0,810.051,449.093Z" transform="translate(334.172 2925.464)" fill="#fefefe"/>
      <path id="Trazado_1237563" data-name="Trazado 1237563" d="M272.708,534.321l.665-.646c.055-3.4-.738-6.719-.831-10.134l10.319-3.341c2.234,2.566,3.636,6.368,5.427,9.322a1.945,1.945,0,0,1-1.4.443l-.332-.092c-1.92.388-3.839.646-5.722,1.2a53.822,53.822,0,0,0-5.593,2.16,8.633,8.633,0,0,1-2.252,1.237,34.587,34.587,0,0,0-3.581,2.51c-.831.664-1.624,2.03-2.6,2.233-2.141,1.587-3.821,4.061-5.353,6.258a21.036,21.036,0,0,1-1.643,2.714,1.369,1.369,0,0,1-.388.129l.406.462-2.9,9.968-.48.185c-.7,2.547-.388,5.944-.351,8.62a19.014,19.014,0,0,1,.092,2.2.644.644,0,0,1-.277.222l-.277.111,1.5.388a3.11,3.11,0,0,1,.3,1.218,16.657,16.657,0,0,0,1.144,4.061l1.329,2.64a3.178,3.178,0,0,1,.406,1.347,104.088,104.088,0,0,0,6.147,8.528c.48-1,1.4-1.938,1.975-2.935.7-.258,1.477.757,2.03,1.237a32.508,32.508,0,0,0,15.321,7.088,31.767,31.767,0,0,0,23.406-5.907c6.294-4.615,11.408-12.275,12.5-20.083,1.034-7.384-.831-16.447-5.372-22.446a19.48,19.48,0,0,1,1.5-3.138,8.274,8.274,0,0,0-2.824-2.769c-1.089-.2-2.123-1.624-2.953-2.326a27.047,27.047,0,0,0-2.566-1.827,2.983,2.983,0,0,1-1.237-1.052,5.1,5.1,0,0,1-.849-.406,28.281,28.281,0,0,0-11-3.636,2.05,2.05,0,0,1-.48.018,2.849,2.849,0,0,1-1.7-.572l.794-.3.111-.148c1.864-2.7,2.953-5.981,4.892-8.6,2.123.461,10.06,2.529,11.02,3.969.351.517-.24,2.769-.351,3.433l-.9,6.036-.3.369a38.027,38.027,0,0,1,5.058,3.507l7.642-4.689.554-.314a40.984,40.984,0,0,1,5.556,5.759,12.976,12.976,0,0,1,2.474,3.23l-7.365,7.384.111.406-.369.332c.591,1.624,1.2,3.323,1.624,5a10.232,10.232,0,0,0,.48,2.215,7.257,7.257,0,0,0,1.052.923c-.111.166-.3.3-.351.48a9.306,9.306,0,0,0,.074,2.012l.055,4.762c-.018,1.772-.425,3.526-.388,5.279-.185.831-.5,1.551-.7,2.363l-.221.683-.332,1.015-.7,1.809a9.523,9.523,0,0,1-1.329,2.584c.221.443.055.3.48.48l.2.314c1.7,2.658,4.5,4.67,6.313,7.31a33.96,33.96,0,0,1-4.19,4.726,40.44,40.44,0,0,1-4.485,4.744,66.717,66.717,0,0,0-7.605-6.055,38.082,38.082,0,0,1-5.372,4.024l-.2.48a2.5,2.5,0,0,0-.48-.517l-1.145.314-5.962,2.2a29.875,29.875,0,0,0-4.578,1.329,19.185,19.185,0,0,1-2.51.388c-.517.037.037,0-.591.2a6.974,6.974,0,0,1-2.824-.185l-1.9-.037c-.185-.277-.9-.406-1.237-.535a48.161,48.161,0,0,1-10.3-3.286l-1.864,5.87-.24-.369-.074.24-.185.535c-.166.425,0,.018-.129.665-.055.3-.258.517-.332.794v.978a9.74,9.74,0,0,0,1.643.628,21.85,21.85,0,0,0,2.141.628,3.537,3.537,0,0,1,1.071.388c.351.166.092.037.609.148,1.7.351,2.935,1.089,4.725,1.181a1.37,1.37,0,0,1-.332.9c-.628.074-.664-.111-1.237-.221h-.332l-.572-.221a2.5,2.5,0,0,0-1.68-.351l-.092.166a30.3,30.3,0,0,1-7.384-2.806l1.754-6.128a23.649,23.649,0,0,0,1.089-3.6l-5.372-3.637-.941-.867c-1.44.406-3.046,2.141-4.19,3.083a22.994,22.994,0,0,1-4.449,2.953,41.169,41.169,0,0,1-3.655-3.95,28.005,28.005,0,0,1-4.393-5.815c2.234-2.843,5.353-5.169,7.771-7.937l-1.071-2.271c-.425-.978-.831-1.957-1.163-2.972a7.573,7.573,0,0,0-.424-1.292c-.018-.018-1.255-.111-1.44-.129l-5.87-.351c-1.108-.074-2.4.018-3.267-.757a8.829,8.829,0,0,1-.3-3.563c-.018-1.809-.554-7.162.665-8.38a10.256,10.256,0,0,1,3.1-.461c2.326-.166,4.652-.148,6.977-.148l2.123-7.679A21.637,21.637,0,0,0,256,547l-4.467-5.261a26.808,26.808,0,0,1,3.046-4.024,57.083,57.083,0,0,1,4.486-4.947,11.148,11.148,0,0,1,2.529,1.44l5.741,3.858A17.009,17.009,0,0,1,272.708,534.321Z" transform="translate(789.593 2855.336)" fill="#cd3377"/>
      <path id="Trazado_1237564" data-name="Trazado 1237564" d="M400.826,540.326l-1.126-8.768,8.214-2.658,4.227,8.067c-1.92.388-3.839.646-5.722,1.2A51.383,51.383,0,0,0,400.826,540.326Z" transform="translate(664.003 2848.241)" fill="#faa2b9"/>
      <path id="Trazado_1237565" data-name="Trazado 1237565" d="M621,602.952l7.421-4.652,6.387,6.867-6.774,6.738a6.053,6.053,0,0,0-.978-1.606l-3.212-4.559A8.383,8.383,0,0,0,621,602.952Z" transform="translate(483.554 2791.652)" fill="#faa2b9"/>
      <path id="Trazado_1237566" data-name="Trazado 1237566" d="M263.377,741.149l-8.177-.7v-9.709l9.008-.738c-.7,2.547-.388,5.944-.351,8.62a19.014,19.014,0,0,1,.092,2.2.645.645,0,0,1-.277.222Z" transform="translate(781.831 2684.263)" fill="#faa2b9"/>
      <path id="Trazado_1237567" data-name="Trazado 1237567" d="M293.21,612.015l-6.11-6.608,5.833-7.107,7.642,4.615c-2.141,1.587-3.821,4.061-5.353,6.258a21.053,21.053,0,0,1-1.643,2.713C293.468,611.941,293.321,611.96,293.21,612.015Z" transform="translate(755.819 2791.652)" fill="#faa2b9"/>
      <path id="Trazado_1237568" data-name="Trazado 1237568" d="M520.2,538.193l4.356-7.993,8.768,3.212a88.656,88.656,0,0,0-1.255,8.8,5.1,5.1,0,0,1-.849-.406A28.541,28.541,0,0,0,520.2,538.193Z" transform="translate(565.746 2847.182)" fill="#faa2b9"/>
      <path id="Trazado_1237569" data-name="Trazado 1237569" d="M623.637,847.392l.5-.092,5.925,6.387c0,.5-1.274,1.7-1.661,2.123l-5.021,5.538L616.9,855.7A46.1,46.1,0,0,0,623.637,847.392Z" transform="translate(486.896 2588.615)" fill="#faa2b9"/>
      <path id="Trazado_1237570" data-name="Trazado 1237570" d="M294.711,842.6a104.083,104.083,0,0,0,6.147,8.528c-.96,2.123-4.633,4.282-6.461,5.7a75.667,75.667,0,0,1-6.5-7.624A74.394,74.394,0,0,1,294.711,842.6Z" transform="translate(755.167 2592.448)" fill="#faa2b9"/>
      <path id="Trazado_1237571" data-name="Trazado 1237571" d="M332.172,568.8c.886-.7,5.39-.332,6.682-.332l-.794.3a2.808,2.808,0,0,0,1.7.572,2.05,2.05,0,0,0,.48-.018,28.279,28.279,0,0,1,11,3.636,5.115,5.115,0,0,0,.849.406,2.983,2.983,0,0,0,1.237,1.052,28.034,28.034,0,0,1,2.566,1.827c.849.7,1.883,2.123,2.953,2.326a8.444,8.444,0,0,1,2.824,2.769,19.478,19.478,0,0,0-1.5,3.138c4.541,5.981,6.405,15.063,5.372,22.428-1.107,7.808-6.221,15.487-12.5,20.083a31.684,31.684,0,0,1-23.406,5.907,32.415,32.415,0,0,1-15.321-7.088c-.572-.48-1.329-1.5-2.03-1.237-.572,1-1.477,1.957-1.975,2.935-2.1-2.9-4.338-5.409-6.147-8.528a3.178,3.178,0,0,0-.406-1.348l-1.329-2.64a16.208,16.208,0,0,1-1.144-4.061,3.111,3.111,0,0,0-.3-1.218l-1.5-.388.277-.111a.553.553,0,0,0,.277-.222,13.312,13.312,0,0,0-.092-2.2c-.037-2.677-.351-6.073.351-8.62l.48-.185,2.9-9.968-.406-.461a1.594,1.594,0,0,0,.388-.129,23.346,23.346,0,0,0,1.643-2.713c1.532-2.2,3.193-4.67,5.353-6.258.978-.222,1.772-1.569,2.6-2.233a36.679,36.679,0,0,1,3.581-2.51,8.632,8.632,0,0,0,2.252-1.237,55.5,55.5,0,0,1,5.593-2.16c1.883-.554,3.8-.812,5.722-1.2l.332.092A1.689,1.689,0,0,0,332.172,568.8Z" transform="translate(745.708 2816.054)" fill="#f97185"/>
      <path id="Trazado_1237572" data-name="Trazado 1237572" d="M330.634,637.639a38.471,38.471,0,0,1-4.892-6.442c-4.375-7.587-4.984-15.727-2.677-24.071a29.761,29.761,0,0,1,14.066-17.739c6.59-3.636,15.469-5.261,22.778-3.12A35.781,35.781,0,0,1,375.9,595.5a15.265,15.265,0,0,1,2.344,2.787,71.655,71.655,0,0,1-5.612,6.239c-1.4,1.551-2.7,3.267-4.19,4.725a31.338,31.338,0,0,1,1.274,4.984,15.747,15.747,0,0,1-.24,6.165,16.748,16.748,0,0,1-7.107,10.282,18.244,18.244,0,0,1-21.855-2.307C338.59,629.739,331.761,637.417,330.634,637.639Z" transform="translate(727.568 2802.245)" fill="#faa2b9"/>
      <path id="Trazado_1237573" data-name="Trazado 1237573" d="M400.249,689.184a19.4,19.4,0,0,1-2.806-3.563,17.461,17.461,0,0,1-2.049-12.441l.111-.388a16.577,16.577,0,0,1,5.612-8.953,17.438,17.438,0,0,1,13.124-3.895,14.511,14.511,0,0,1,2.806.554c5.132,1.532,8.62,4.91,11.112,9.543a31.324,31.324,0,0,1,1.274,4.984,15.747,15.747,0,0,1-.24,6.165,16.748,16.748,0,0,1-7.107,10.282,18.247,18.247,0,0,1-21.837-2.289Z" transform="translate(667.848 2741.47)" fill="#cd3377"/>
      <path id="Trazado_1237574" data-name="Trazado 1237574" d="M435.2,752.029c3.1-1.292,5.907-3.378,8.86-4.984,5.353-2.935,11.094-5.519,16.078-9.045.572,4.781.092,8.491-2.99,12.4a15.366,15.366,0,0,1-10.116,5.39,15.812,15.812,0,0,1-11.592-3.526Z" transform="translate(635.057 2677.739)" fill="#d0dff8"/>
      <path id="Trazado_1237575" data-name="Trazado 1237575" d="M412.1,697.885a14.337,14.337,0,0,1-4.43-6.7,14.52,14.52,0,0,1,.831-11.5,15.677,15.677,0,0,1,9.746-7.55,14.853,14.853,0,0,1,11.629,1.606,15.767,15.767,0,0,1,7.162,10.1c-4.984,3.526-10.743,6.128-16.078,9.045C418.027,694.507,415.2,696.575,412.1,697.885Z" transform="translate(658.155 2731.883)" fill="#fefefe"/>
      <path id="Trazado_1237576" data-name="Trazado 1237576" d="M223.183,901.9l5.372,3.636a23.03,23.03,0,0,1-1.089,3.6l-1.754,6.128a31.084,31.084,0,0,0,7.384,2.806l.314.184-.037,31.011-.037,8.325a27.74,27.74,0,0,0,.092,4.467,9.718,9.718,0,0,0,2.437,4.781,9.144,9.144,0,0,0,4.744,2.51,34.053,34.053,0,0,0,6.442.166l13.383.018v44.154l.018.794.166.074.646-.037,8.122.074,7.494.055-.092.369a11.916,11.916,0,0,1,3.47,3.655l-.055,8.011-.129,2.917-6.627.056-.129.148,6.7.019.018,12.644-63.61.074-.2-.129a1.521,1.521,0,0,0-.868.406v20.434c-2.1-2.861-4.227-5.7-6.091-8.713a120.239,120.239,0,0,1-6.276-11.924,143.617,143.617,0,0,1-13.641-55.082,110.847,110.847,0,0,1,2.658-28.87,117.212,117.212,0,0,1,3.175-12.072A114.891,114.891,0,0,1,212.92,913.7C216.113,909.634,219.676,905.758,223.183,901.9Z" transform="translate(835.611 2544.094)" fill="#efecfa"/>
      <path id="Trazado_1237577" data-name="Trazado 1237577" d="M284.518,1251.5a7.881,7.881,0,0,1,3.729.775,8.039,8.039,0,0,1,3.932,5,7.408,7.408,0,0,1-.886,5.889c-1.44,2.252-3.433,3.064-5.944,3.581a8.33,8.33,0,0,1-4.393-1.107,7.634,7.634,0,0,1-2.178-10.928A8.373,8.373,0,0,1,284.518,1251.5Z" transform="translate(763.755 2259.027)" fill="#60cf75"/>
      <path id="Trazado_1237578" data-name="Trazado 1237578" d="M300.243,1271.717a7.561,7.561,0,0,1,2.141-.018,3.6,3.6,0,0,1,2.27,1.643,3.885,3.885,0,0,1,.646,2.843,4.918,4.918,0,0,1-2.7,3.341,8.35,8.35,0,0,1-2.252.056,3.667,3.667,0,0,1-2.344-1.7,4.535,4.535,0,0,1-.314-3.6A4.224,4.224,0,0,1,300.243,1271.717Z" transform="translate(747.365 2242.612)" fill="#d0f2fa"/>
      <path id="Trazado_1237579" data-name="Trazado 1237579" d="M330.524,1518.692c0-2.141-.461-4.393,1.126-6.073a4.479,4.479,0,0,1,2.621-1.44c3.3-.406,7.162.074,10.5.074l30.845-.055.166.074c.166,2.049.425,3.895-1,5.593a5.04,5.04,0,0,1-3.729,1.809Z" transform="translate(720.461 2047.414)" fill="#f9cb66"/>
      <path id="Trazado_1237580" data-name="Trazado 1237580" d="M376.276,1512.2l8.122.074,7.494.056-.092.369a11.916,11.916,0,0,1,3.47,3.655l-.055,8.011-.129,2.917-6.627.056-.129.148-57.038.018.018-3.156-.72-.185c-.535-.775-.24-3.489-.221-4.559H370.9a4.975,4.975,0,0,0,3.729-1.809c1.44-1.717,1.163-3.544,1-5.593Z" transform="translate(720.618 2046.449)" fill="#f8ad3a"/>
      <path id="Trazado_1237581" data-name="Trazado 1237581" d="M335.9,1577.357a56.234,56.234,0,0,1,8.085-.074l16.152.037,26.636.018c4.3,0,8.768-.258,13.051,0l-.129,2.917-6.627.055-.129.148-57.038.019Z" transform="translate(716.027 1993.475)" fill="#0f5ebc"/>
      <path id="Trazado_1237582" data-name="Trazado 1237582" d="M335.555,1595.218l57.038-.018,6.7.018.018,12.645-63.61.074-.2-.129Z" transform="translate(716.353 1978.77)" fill="#41a5f8"/>
      <path id="Trazado_1237583" data-name="Trazado 1237583" d="M500.156,309.576c1.237-.794,2.03-2.381,3.046-3.47a24.039,24.039,0,0,1,3.156-2.621c8.344-6.295,18.385-10.891,28.242-14.232a127.349,127.349,0,0,1,65.6-4.264,121,121,0,0,1,23.5,6.811c3.673,1.532,7.144,3.489,10.651,5.372,1.384.757,2.99,1.348,4.319,2.16a4.251,4.251,0,0,0,1.772.628l.314.055,51.538.018h22.889l12.054.037a4.341,4.341,0,0,1,1.55.369l.314.129a8.251,8.251,0,0,1,4.264,4.486,15.9,15.9,0,0,1,.314,4.781v56.632l-.074,14.084a6.666,6.666,0,0,1-.775,2.917,12.416,12.416,0,0,1-2.068,2.714,9.018,9.018,0,0,1-2.4,1.255l-.351.111c-1.957.591-4.522.314-6.553.314H709.537l.055,10a24.678,24.678,0,0,1-.185,5.353,9.5,9.5,0,0,1-2.547,4.633,8.422,8.422,0,0,1-2.584,1.68l-.3.129c-1.366.572-3.36.351-4.836.351l-7.716-.018-22.335-.037H615.525l-.018,12.681c-.037,2.732.037,4.5-1.883,6.7a8.134,8.134,0,0,1-2.418,1.384c-3.341.591-7.328.185-10.743.185l-27.061-.018c-2.086.111-5.3.628-7.236-.129a8.939,8.939,0,0,1-1.938-1.255l-.5.258-50.559.018-.055-.129-1.514-.037-.037.24.018,2.677a6.552,6.552,0,0,0-3.064,2.529,4.5,4.5,0,0,0-.683,3.84l.148.591-.258.185c-1.5,1.015-3.193,1.809-4.744,2.75a59.18,59.18,0,0,0-5.888,4.135c-4.818,3.766-8.971,8.2-13.364,12.423l-25.307,24.827-9.857,9.968A41.427,41.427,0,0,1,444,498.394l-.055.221c-2.123,2.178-4.43,5.058-6.978,6.682l-.037,4.338-8.122-.074-.646.037-.166-.074-.018-.794V464.577l-13.383-.018a34.058,34.058,0,0,1-6.442-.166,9.215,9.215,0,0,1-4.744-2.51,9.8,9.8,0,0,1-2.437-4.781,25.766,25.766,0,0,1-.092-4.467l.037-8.325.037-31.011-.314-.185.092-.166a2.4,2.4,0,0,1,1.68.351l.572.222h.332c.572.111.609.3,1.237.221a1.336,1.336,0,0,0,.332-.9c-1.809-.092-3.046-.831-4.725-1.181-.517-.111-.258.018-.609-.148a4.364,4.364,0,0,0-1.071-.388,21.822,21.822,0,0,1-2.141-.628,7.363,7.363,0,0,1-1.643-.628v-.978a6.007,6.007,0,0,0,.332-.794c.129-.646-.018-.24.129-.664l.185-.535.074-.24.24.369,1.864-5.87a47.836,47.836,0,0,0,10.3,3.286c.332.111,1.052.24,1.237.535l1.9.037a6.954,6.954,0,0,0,2.824.185c.628-.2.074-.166.591-.2a19.178,19.178,0,0,0,2.51-.388c1.2-.646,3.212-.886,4.578-1.329l5.962-2.2,1.144-.314a3.066,3.066,0,0,1,.48.517l.2-.48a39.176,39.176,0,0,0,5.372-4.024,62.893,62.893,0,0,1,7.605,6.055,40.436,40.436,0,0,0,4.486-4.744,33.96,33.96,0,0,0,4.19-4.725c-1.809-2.64-4.615-4.652-6.313-7.31l-.2-.314c-.424-.185-.258-.037-.48-.48a9.522,9.522,0,0,0,1.329-2.584l.7-1.809.332-1.015.222-.683c.2-.831.517-1.532.7-2.363-.018-1.754.369-3.507.388-5.279l-.055-4.762a10.65,10.65,0,0,1-.074-2.012c.055-.185.24-.314.351-.48a6.392,6.392,0,0,1-1.052-.923,10.885,10.885,0,0,1-.48-2.215c-.424-1.68-1.034-3.378-1.624-5l.369-.332a23.387,23.387,0,0,1,1.827,5.224,74.371,74.371,0,0,1,30.125-3.12,101.354,101.354,0,0,1,11,2.086c1.864.425,5.925,1.4,7.55-.074a2.212,2.212,0,0,0,.462-.609c.221-.738-.812-3.636-1.034-4.541a55.561,55.561,0,0,1-1.883-12.423,2.141,2.141,0,0,0,1.477.425c2.51-2.289,6-5.058,7.882-7.845a21.644,21.644,0,0,0-1.791-2.474l-1.551-2.363a30.175,30.175,0,0,0,2.437-5.039l2.7.24c1.052.037,1.883.166,2.677-.572a15.412,15.412,0,0,0,.332-4.615c.018-1.809.314-4.006-.3-5.741-.941-.72-4.153-.461-5.427-.517A23.948,23.948,0,0,1,500.156,309.576Z" transform="translate(668.081 3049.106)" fill="#efecfa"/>
      <path id="Trazado_1237584" data-name="Trazado 1237584" d="M661.938,679.432l.369-.332a23.383,23.383,0,0,1,1.827,5.224c.092.369.258,1.421.572,1.569a8.261,8.261,0,0,0,2.344.461l4.91.775a7.119,7.119,0,0,1,2.178.406,1.187,1.187,0,0,1,.591.794,14.64,14.64,0,0,1,.092,3.489,55.3,55.3,0,0,1-.129,7.827,5.06,5.06,0,0,1-.683.72,9.449,9.449,0,0,1-3.083.462l-5.15.738a9.738,9.738,0,0,0-1.107.221,10.328,10.328,0,0,0-.665,1.846A40.68,40.68,0,0,1,661.68,709c-.424-.185-.258-.037-.48-.48a9.522,9.522,0,0,0,1.329-2.584l.7-1.809.332-1.015.221-.683c.2-.831.517-1.532.7-2.363l8.694-1.034.092-10.429-8.177-1.034a6.391,6.391,0,0,1-1.052-.923,10.879,10.879,0,0,1-.48-2.215C663.138,682.755,662.529,681.057,661.938,679.432Z" transform="translate(450.774 2725.767)" fill="#b51780"/>
      <path id="Trazado_1237585" data-name="Trazado 1237585" d="M427.228,923.014l1.145-.314a3.065,3.065,0,0,1,.48.517c.461,2.049,1.477,4.449,1.624,6.5a7.657,7.657,0,0,1,.462,2.806l-.24.221c-1.034.868-9.193,3.452-10.669,3.4-1.2-.886-1.772-2.843-2.4-4.172l-2.326-4.541h-6.479c-2.067,2.474-2.27,7.476-5.095,9.008-.646-.738-2.067-.942-2.972-1.2l-.314-.185.092-.166a2.4,2.4,0,0,1,1.68.351l.572.222h.332c.572.111.609.3,1.237.221a1.336,1.336,0,0,0,.332-.9c-1.809-.092-3.046-.831-4.726-1.182-.517-.111-.258.018-.609-.148a4.374,4.374,0,0,0-1.071-.387,21.833,21.833,0,0,1-2.141-.628,7.369,7.369,0,0,1-1.643-.628v-.978a6,6,0,0,0,.332-.793c.129-.646-.018-.24.129-.665l.185-.535.074-.24.24.369-.7,2.6,8.953,2.935,3.913-8.14c.332.111,1.052.24,1.237.535l1.9.037a6.955,6.955,0,0,0,2.824.185c.628-.2.074-.166.591-.2a19.162,19.162,0,0,0,2.51-.388l3.876,8.344,9.026-3.156Z" transform="translate(668.244 2527.133)" fill="#b51780"/>
      <path id="Trazado_1237586" data-name="Trazado 1237586" d="M396.8,930.67l1.864-5.87a47.837,47.837,0,0,0,10.3,3.286l-3.913,8.14-8.953-2.935Z" transform="translate(666.939 2525.421)" fill="#faa2b9"/>
      <path id="Trazado_1237587" data-name="Trazado 1237587" d="M514.8,927.926c1.2-.646,3.212-.886,4.578-1.329l5.962-2.2,2.381,8.713-9.026,3.157Z" transform="translate(570.15 2525.747)" fill="#faa2b9"/>
      <path id="Trazado_1237588" data-name="Trazado 1237588" d="M679.606,725l8.159,1.071-.092,10.429L679,737.515c-.019-1.754.369-3.507.388-5.279l-.055-4.763a10.654,10.654,0,0,1-.074-2.012C679.311,725.277,679.5,725.148,679.606,725Z" transform="translate(436.263 2688.34)" fill="#faa2b9"/>
      <path id="Trazado_1237589" data-name="Trazado 1237589" d="M1193.97,383.7a7.3,7.3,0,0,1,4.006,1.163,7.413,7.413,0,0,1,3.267,4.652l.055.314a6.711,6.711,0,0,1-1.126,5.076,7.947,7.947,0,0,1-5.15,3.064,7.578,7.578,0,0,1-4.578-1.255,7.494,7.494,0,0,1-3.156-4.855,6.834,6.834,0,0,1,1.218-5.187A7.627,7.627,0,0,1,1193.97,383.7Z" transform="translate(21.873 2966.639)" fill="#f37557"/>
      <path id="Trazado_1237590" data-name="Trazado 1237590" d="M1211,404.626a4.407,4.407,0,0,1,1.477.111,3.479,3.479,0,0,1,2.031,1.827,3.388,3.388,0,0,1-.019,2.584,3.607,3.607,0,0,1-2.141,1.883,4.415,4.415,0,0,1-2.03-.111,3.459,3.459,0,0,1-1.661-1.846,3.2,3.2,0,0,1,.129-2.7A3.307,3.307,0,0,1,1211,404.626Z" transform="translate(4.566 2949.59)" fill="#fefefe"/>
      <path id="Trazado_1237591" data-name="Trazado 1237591" d="M846,766.628l.037-32.746.019-9.543a30.234,30.234,0,0,1,.351-6.461,10.359,10.359,0,0,1,3.138-5.205,11.433,11.433,0,0,1,5.464-3.009l.277-.074c1.92-.48,4.356-.258,6.331-.277l11.242-.018,46.018.055.148-.314a5.814,5.814,0,0,1,2.787-3.138,4.3,4.3,0,0,1,3.526.314,5.746,5.746,0,0,1,2.123,1.975,8.167,8.167,0,0,0,.646.978c.664.388,1.772-.369,2.4.388V710.7c-.794.609-2.068-.111-2.566.683-.96,1.514-2.012,2.824-3.895,3.175a4.929,4.929,0,0,1-3.378-.9,8.83,8.83,0,0,1-1.938-2.344l-41.016-.111-13.992-.111a63.524,63.524,0,0,0-7.956.092,8.548,8.548,0,0,0-4.873,2.27c-1.551,1.458-3.1,3.784-3.12,5.962l-.018,47.218Z" transform="translate(300.086 2704.119)" fill="#1127ab"/>
      <path id="Trazado_1237592" data-name="Trazado 1237592" d="M1251.63,714.029a4.018,4.018,0,0,1,1.624-.111,3.615,3.615,0,0,1,2.141,1.828,3.108,3.108,0,0,1,.018,2.123,3.162,3.162,0,0,1-1.828,1.717,3.337,3.337,0,0,1-1.126.166,2.8,2.8,0,0,1-2.012-1.126,3.322,3.322,0,0,1-.517-2.787A4.851,4.851,0,0,1,1251.63,714.029Z" transform="translate(-29.215 2697.41)" fill="#2c96f8"/>
      <path id="Trazado_1237593" data-name="Trazado 1237593" d="M427.942,990.6c.923.259,2.344.462,2.972,1.2a74.314,74.314,0,0,0-.185,7.864l-.037,13.346-.018,13.66c0,2.455-.406,5.538.332,7.864l.074.258a6.572,6.572,0,0,0,3.027,3.581c2.1,1.144,6.258.591,8.62.591l12.054-.019c.572-1.827.166-4.947.148-6.922l-.018-15.986a16.768,16.768,0,0,1,13.014-16.8,27.245,27.245,0,0,1,5.482-.3l7.476-.018,24.126.055,1.754-.018,31.75.037.018.351-31.14-.055-.24.332.111.332c1.864,0,3.784.092,5.63-.055,1.809-.148,3.839.055,5.667.055,6.5,0,13.161.3,19.622-.111l.665.019v3.987a10.449,10.449,0,0,0,.055,2.843l1.015-.111v-6.534c.388-.3,1.717-.129,2.252-.166l5.962.055c-.941.5-6.59.2-8.011.221l-.018,6.83-1.514-.037-.037.24-31.786-.018-.037,1.532-1.735-.2-.018-.184-.018-8.122-24.55-.018H472.8a20.7,20.7,0,0,0-4.283.2,15.984,15.984,0,0,0-7.624,4.061,14.794,14.794,0,0,0-4.929,11.26V1068l-.055,12.774a41.9,41.9,0,0,1-.111,6.091l-.646.037-.166-.074-.018-.794v-44.154l-13.383-.018a34.063,34.063,0,0,1-6.442-.166,9.215,9.215,0,0,1-4.744-2.51,9.8,9.8,0,0,1-2.437-4.781,25.773,25.773,0,0,1-.092-4.467l.037-8.325Z" transform="translate(641.078 2471.767)" fill="#192a83"/>
      <path id="Trazado_1237594" data-name="Trazado 1237594" d="M855.5,1049.6l.037-6.867,31.731-.129.074,6.774-.037.24Z" transform="translate(292.34 2429.365)" fill="#3d469a"/>
      <path id="Trazado_1237595" data-name="Trazado 1237595" d="M579.5,1129.259a44.642,44.642,0,0,0,.111-6.092l.055-12.774V1058.1a14.858,14.858,0,0,1,4.929-11.26,16.222,16.222,0,0,1,7.624-4.061,22.059,22.059,0,0,1,4.283-.2h7.605l24.551.018.018,8.122-.24-1.07c-3.932-.462-8.344-.092-12.331-.092l-14.638.019c-2.2,0-5.427-.406-7.476.351l-.351.129a8.978,8.978,0,0,0-5.242,5,10.84,10.84,0,0,0-.646,3.341c-.388,5.907-.037,12.072-.037,18l-.037,36.715-.018,11.888-.037,4.338Z" transform="translate(517.393 2429.391)" fill="#3d469a"/>
      <path id="Trazado_1237596" data-name="Trazado 1237596" d="M889.043,909.73a46.742,46.742,0,0,0,.037-5.335l-.018-10.355a25.385,25.385,0,0,1,.24-5.685,10.13,10.13,0,0,1,2.75-4.67,8.4,8.4,0,0,1,4.116-2.344,25.861,25.861,0,0,1,5.076-.185H940.3l-.037,1.864v26.692c-.018,2.806-.517,5.612,1.5,7.864l-.5.258-50.559.018-.055-.129.019-6.83c1.44-.019,7.088.277,8.011-.222l-5.962-.055c-.535.037-1.865-.129-2.252.166v6.535l-1.015.111a10.449,10.449,0,0,1-.055-2.843V910.6l-.665-.019c-6.479.406-13.124.111-19.622.111-1.828,0-3.858-.2-5.667-.055-1.864.148-3.766.055-5.63.055l-.111-.332.24-.332,31.14.055Z" transform="translate(290.546 2561.035)" fill="#d0dff8"/>
      <path id="Trazado_1237597" data-name="Trazado 1237597" d="M889.043,909.73a46.742,46.742,0,0,0,.037-5.335l-.019-10.355a25.385,25.385,0,0,1,.24-5.685,10.128,10.128,0,0,1,2.75-4.67,8.4,8.4,0,0,1,4.116-2.344,25.86,25.86,0,0,1,5.076-.185H940.3l-.037,1.864-30.107-.074h-8.473a31.537,31.537,0,0,0-4.578.092,7.759,7.759,0,0,0-3.895,1.864,8.012,8.012,0,0,0-2.141,3.655c-.665,2.6-.369,5.741-.369,8.417v11.851a1.985,1.985,0,0,0,.148.812l49.415.074c-.019,2.806-.517,5.612,1.5,7.864l-.5.258-50.559.018-.055-.129.018-6.83c1.44-.019,7.088.277,8.011-.222l-5.962-.055c-.535.037-1.864-.129-2.252.166v6.535l-1.015.111a10.444,10.444,0,0,1-.055-2.843V910.6l-.665-.019c-6.479.406-13.124.111-19.622.111-1.828,0-3.858-.2-5.667-.056-1.864.148-3.766.056-5.63.056l-.111-.332.24-.332,31.14.055Z" transform="translate(290.547 2561.035)" fill="#3d469a"/>
      <path id="Trazado_1237598" data-name="Trazado 1237598" d="M666.09,1079.882l31.786.019.018,2.677a6.554,6.554,0,0,0-3.064,2.529,4.5,4.5,0,0,0-.683,3.839l.148.591-.258.184c-1.5,1.015-3.193,1.809-4.744,2.751a59.146,59.146,0,0,0-5.888,4.135c-4.818,3.766-8.971,8.2-13.364,12.423l-25.289,24.809-9.857,9.968a41.442,41.442,0,0,1-4.559,4.615l-.055.222c-2.123,2.178-4.43,5.058-6.977,6.682l.018-11.888.037-36.715c0-5.925-.351-12.091.037-18a10.32,10.32,0,0,1,.646-3.341,8.978,8.978,0,0,1,5.242-5l.351-.129c2.049-.757,5.279-.351,7.476-.351l14.638-.019c4.006,0,8.4-.369,12.331.092l.24,1.071.018.185,1.735.2Z" transform="translate(481.75 2399.08)" fill="#75daf8"/>
      <path id="Trazado_1237599" data-name="Trazado 1237599" d="M623.718,1392.918c.48-1.846,5.242-5.87,6.867-7.218l.148,12.22-.055.221c-2.123,2.178-4.43,5.058-6.978,6.682Z" transform="translate(481.352 2149.599)" fill="#d0f2fa"/>
      <path id="Trazado_1237600" data-name="Trazado 1237600" d="M693.908,1087.8l1.735.2a6.1,6.1,0,0,1,3.858,3.526l.424,1.218.277.092a11.7,11.7,0,0,0,2.9.277l7.236.055-50.615,49.71-.222-32.728.037-8.362a27.207,27.207,0,0,1,.185-4.43,5.785,5.785,0,0,1,1.569-2.769,4.921,4.921,0,0,1,2.7-1.495,25.7,25.7,0,0,1,4.3-.129h6.941c4.726,0,9.6-.258,14.306-.037l.2.019a8.825,8.825,0,0,1,.7-2.141,4.911,4.911,0,0,1,2.806-2.529C693.686,1088.151,693.631,1088.132,693.908,1087.8Z" transform="translate(452.16 2392.509)" fill="#60bcf9"/>
      <path id="Trazado_1237601" data-name="Trazado 1237601" d="M827.553,1087.8l1.735.2a6.1,6.1,0,0,1,3.858,3.526l.425,1.218a5.819,5.819,0,0,1-2.252,4.356,4.7,4.7,0,0,1-3.747.868,4.8,4.8,0,0,1-3.12-2.1,7.6,7.6,0,0,1-1.052-2.9,8.831,8.831,0,0,1,.7-2.141,4.911,4.911,0,0,1,2.806-2.529C827.332,1088.151,827.276,1088.132,827.553,1087.8Z" transform="translate(318.515 2392.509)" fill="#1127ab"/>
      <path id="Trazado_1237602" data-name="Trazado 1237602" d="M834.9,1096.194a3.344,3.344,0,0,1,1.809-.018,4.395,4.395,0,0,1,2.307,2.159,3.583,3.583,0,0,1,.037,2.695,3.359,3.359,0,0,1-2.178,2.031,4.8,4.8,0,0,1-1.92-.074,3.542,3.542,0,0,1-2.086-1.809,3.667,3.667,0,0,1-.148-2.861A3.9,3.9,0,0,1,834.9,1096.194Z" transform="translate(311.093 2385.776)" fill="#f9cb66"/>
      <path id="Trazado_1237603" data-name="Trazado 1237603" d="M1304.46,628.1l-.092-19.862a60.8,60.8,0,0,1,.018-6.867,8.578,8.578,0,0,0-.074-2.178,28.956,28.956,0,0,1,.056-3.341l.018-7.605v-8.122a32.5,32.5,0,0,1,.074-4.449,5.4,5.4,0,0,1,1.384-3.009,5.7,5.7,0,0,1,3.3-1.68,22.418,22.418,0,0,1,3.858-.111l6.5-.018,24.126.055,6.922.074a11.281,11.281,0,0,1,3.526.332,5.629,5.629,0,0,1,1.588,1.31,5.484,5.484,0,0,1,1.4,3.175c.185,2.049.037,4.246.037,6.331l-.018,12.626.092,48.289.019,1.975-.019,12.681c-.037,2.732.037,4.5-1.883,6.7a8.135,8.135,0,0,1-2.418,1.384c-3.341.591-7.328.185-10.743.185l-27.061-.018c-2.086.111-5.3.628-7.236-.129a8.942,8.942,0,0,1-1.938-1.255c-2.012-2.252-1.514-5.058-1.5-7.864l.018-26.729Z" transform="translate(-73.592 2814.035)" fill="#fefefe"/>
      <path id="Trazado_1237604" data-name="Trazado 1237604" d="M1481.258,760.272a6.008,6.008,0,0,1-2.51,1.532,4.048,4.048,0,0,1-3.433-.646,4.99,4.99,0,0,1-1.643-3.212,4.642,4.642,0,0,1,1.163-3.083,3.248,3.248,0,0,1,2.566-1.2,3.919,3.919,0,0,1,4.449,5.427A7.813,7.813,0,0,0,1481.258,760.272Z" transform="translate(-211.717 2664.973)" fill="#75daf8"/>
      <path id="Trazado_1237605" data-name="Trazado 1237605" d="M1382.139,753.086a8.292,8.292,0,0,1,2.529.055,4.732,4.732,0,0,1,2.566,2.141,4.045,4.045,0,0,1,.314,3.267,4.857,4.857,0,0,1-2.75,2.75,5.6,5.6,0,0,1-2.474.037,4.22,4.22,0,0,1-2.455-2.049,4.767,4.767,0,0,1-.277-3.489A4.466,4.466,0,0,1,1382.139,753.086Z" transform="translate(-134.842 2665.496)" fill="#75daf8"/>
      <path id="Trazado_1237606" data-name="Trazado 1237606" d="M1481.11,649.673a5.166,5.166,0,0,1-2.677,1.643,4.236,4.236,0,0,1-3.323-.683,4.24,4.24,0,0,1-.739-6.35,4.288,4.288,0,0,1,3.193-1.384,4.726,4.726,0,0,1,3.563,1.624,4.979,4.979,0,0,1,.5,3.895Z" transform="translate(-211.403 2755.287)" fill="#75daf8"/>
      <path id="Trazado_1237607" data-name="Trazado 1237607" d="M1381.154,642.212a8.7,8.7,0,0,1,1.7,0,4.3,4.3,0,0,1,3.083,1.957,4.341,4.341,0,0,1,.609,3.526,5.058,5.058,0,0,1-3.1,3.009,7.8,7.8,0,0,1-2.27-.111,4.466,4.466,0,0,1-2.529-2.067,4.183,4.183,0,0,1-.48-3.212A5.073,5.073,0,0,1,1381.154,642.212Z" transform="translate(-133.728 2755.881)" fill="#75daf8"/>
      <path id="Trazado_1237608" data-name="Trazado 1237608" d="M1380.742,860.331a7.54,7.54,0,0,1,2.234,0,3.963,3.963,0,0,1,2.4,1.661,5.244,5.244,0,0,1,.683,4.1c-.48,1.514-1.5,2.1-2.843,2.769a11.1,11.1,0,0,1-2.215,0,4.369,4.369,0,0,1-2.474-1.864,4.506,4.506,0,0,1-.664-3.655A5.359,5.359,0,0,1,1380.742,860.331Z" transform="translate(-133.481 2578.058)" fill="#75daf8"/>
      <path id="Trazado_1237609" data-name="Trazado 1237609" d="M1381.39,969.385a6.821,6.821,0,0,1,2.2.259,4.317,4.317,0,0,1,2.621,2.27,4.247,4.247,0,0,1,.148,3.156,5.588,5.588,0,0,1-3.23,3.046,4.979,4.979,0,0,1-2.326-.3,4.616,4.616,0,0,1-2.584-2.769,3.955,3.955,0,0,1,.111-3.009A4.828,4.828,0,0,1,1381.39,969.385Z" transform="translate(-133.687 2489.068)" fill="#75daf8"/>
      <path id="Trazado_1237610" data-name="Trazado 1237610" d="M1477.614,869.611l-1.329-.646a4.7,4.7,0,0,1-1.92-2.935,4.767,4.767,0,0,1,1.015-3.692,4.26,4.26,0,0,1,2.88-1.569,5.41,5.41,0,0,1,3.655,1.606,5.12,5.12,0,0,1,.775,4.19,3.536,3.536,0,0,1-1.828,2.363A6.689,6.689,0,0,1,1477.614,869.611Z" transform="translate(-212.245 2577.638)" fill="#75daf8"/>
      <path id="Trazado_1237611" data-name="Trazado 1237611" d="M1391.256,571.4l6.922.074a11.288,11.288,0,0,1,3.526.332,5.627,5.627,0,0,1,1.587,1.311,5.484,5.484,0,0,1,1.4,3.175c.184,2.049.037,4.246.037,6.332l-.018,12.626.092,48.289.019,1.975-.019,12.681c-.037,2.732.037,4.5-1.883,6.7a8.133,8.133,0,0,1-2.418,1.385c-3.341.591-7.328.184-10.743.184l-27.061-.018a4.971,4.971,0,0,0,1.957-.628l.406-.277a54.67,54.67,0,0,0,14.4-12.608c1.366-1.7,2.344-4.024,4.006-5.427l.332-.683a12.593,12.593,0,0,1,1.089-3.618l2.049-6.147c.3-.812.7-1.587.941-2.418l.111-.406.388-.221-1.79-.314a6.413,6.413,0,0,0,3.267-.7,3.535,3.535,0,0,0,1.827-2.363,5.121,5.121,0,0,0-.775-4.19,58.583,58.583,0,0,0,.111-6.239l.111-6.11a4.643,4.643,0,0,0-.369-2.4,8.458,8.458,0,0,1,.572-1.163,4.852,4.852,0,0,0-.406-3.913,22.738,22.738,0,0,0,.129-5.021c0-3.267.388-6.978-.148-10.189l.517-1.237a4.978,4.978,0,0,0-.5-3.895c.535-.868.277-2.787.3-3.821Z" transform="translate(-121.236 2813.587)" fill="#d0f2fa"/>
      <path id="Trazado_1237612" data-name="Trazado 1237612" d="M1474.753,970.828c1.07-1.126,2.012-1.975,3.636-2.049a3.988,3.988,0,0,1,2.824,1.052,4.7,4.7,0,0,1,1.495,3.655,3.652,3.652,0,0,1-1.273,2.806,4.466,4.466,0,0,1-3.175,1.292,4.2,4.2,0,0,1-3.12-1.514,4.592,4.592,0,0,1-.849-3.71l.148-.849Z" transform="translate(-212.172 2489.564)" fill="#75daf8"/>
      <path id="Trazado_1237613" data-name="Trazado 1237613" d="M1616.133,377.005l51.538.018h22.889l12.054.037a4.342,4.342,0,0,1,1.55.369l.314.129a8.252,8.252,0,0,1,4.264,4.486,15.91,15.91,0,0,1,.314,4.781v56.632l-.074,14.084a6.668,6.668,0,0,1-.775,2.917,12.422,12.422,0,0,1-2.068,2.714,9.019,9.019,0,0,1-2.4,1.255l-.351.111c-1.957.591-4.522.314-6.553.314h-11.925l.055,10a24.666,24.666,0,0,1-.184,5.353,9.5,9.5,0,0,1-2.547,4.633,8.422,8.422,0,0,1-2.584,1.68l-.3.129c-1.366.572-3.36.351-4.836.351l-7.716-.018-22.336-.037h-53.55l-.018-1.975h61.672V464.889l-33.5.018-9.765-.018a32.775,32.775,0,0,1-5.039-.129,6.942,6.942,0,0,1-3.821-1.92,6.441,6.441,0,0,1-2.031-4.5l-.018-18.256.074-28.888.019-17.887a67.637,67.637,0,0,1,.092-8.436,9.594,9.594,0,0,1,2.677-5.168C1604.652,376.248,1611.574,377.116,1616.133,377.005Z" transform="translate(-307.312 2972.115)" fill="#192a83"/>
      <path id="Trazado_1237614" data-name="Trazado 1237614" d="M1936,853l28.058.037.037,10.319c0,1.735.258,3.858-.185,5.519a7.624,7.624,0,0,1-1.311,2.326,7.046,7.046,0,0,1-3.323,1.735c-2.141.443-4.873.148-7.07.166l-16.17.055Z" transform="translate(-588.71 2583.968)" fill="#d0dff8"/>
      <path id="Trazado_1237615" data-name="Trazado 1237615" d="M1653.574,778.5c1.735.646,2.9,1.4,4.818,1.569,4.079.351,8.4.037,12.5,0l24.68-.129,39.945-.055,20.4-.074c.055,2.326.35,5.039-1.329,6.9a4.788,4.788,0,0,1-2.64,1.532l-67.339.018h-18.662c-3.027,0-6.239.24-9.248-.037a3.492,3.492,0,0,1-2.086-1.052C1652.891,785.459,1653.555,780.863,1653.574,778.5Z" transform="translate(-358.302 2644.715)" fill="#f39830"/>
      <path id="Trazado_1237616" data-name="Trazado 1237616" d="M1654,450.26V403.947a5.558,5.558,0,0,1,2.049-3.489,4.7,4.7,0,0,1,2.861-1.163c5.205-.461,10.817-.092,16.059-.111l32.008-.129h29.885c5.224,0,10.688-.314,15.893.166,1.329.461,3.027,1,3.526,2.492.443,1.292.185,3.415.166,4.8l-.019,10.226-.074,53.6-20.4.074-39.945.055-24.661.111c-4.1.037-8.436.332-12.5,0-1.92-.166-3.064-.923-4.818-1.569Z" transform="translate(-358.764 2954.2)" fill="#f8ad3a"/>
      <path id="Trazado_1237617" data-name="Trazado 1237617" d="M1735.9,726.181a50.1,50.1,0,0,1,6.664-.092h13.771l32.008.129,15.229-.092a2.412,2.412,0,0,1,1.015.24,1.429,1.429,0,0,1,.277.609,5.334,5.334,0,0,1-.277,2.99,1.872,1.872,0,0,1-.683.24,23.963,23.963,0,0,1-3.987,0l-10.743-.018-40.425-.055-9.211-.019a18.348,18.348,0,0,1-3.341,0,2.027,2.027,0,0,1-.48-.332,2.923,2.923,0,0,1-.185-.794A4.251,4.251,0,0,1,1735.9,726.181Z" transform="translate(-425.192 2687.509)" fill="#cb630d"/>
      <path id="Trazado_1237618" data-name="Trazado 1237618" d="M1859.508,522.764c.461-.166,1.237-1.311,1.606-1.717a17.757,17.757,0,0,1-1.938-2.769l-.129-.258-3.655-.148-.093-7.55,3.673-.24,1.551-3.341-2.381-3.747,4.818-5.039c.443-.055,3.119,2.141,3.673,2.529l3.323-2.086a20.156,20.156,0,0,0,.258-4.1h7.384l.775,4.393a14.835,14.835,0,0,0,3.286,1.661l3.027-2.307a5.464,5.464,0,0,1,1.569,1.126l3.987,3.71.147.591-2.455,2.492c.185.978.369,2.972,1.181,3.6,1.015.775,2.732.258,3.636.9l-.314,6.719a4.973,4.973,0,0,1-3.562.794l-1.569,3.046,2.621,3.36-5.667,5.039-3.3-3.046-2.547,1.791-.369,3.969-7.624.037a19.363,19.363,0,0,0-.5-4.153l-2.547-1.108-3.36,2.529a34.671,34.671,0,0,1-5.131-5.408A5.827,5.827,0,0,1,1859.508,522.764Z" transform="translate(-522.906 2876.455)" fill="#fefefe"/>
      <path id="Trazado_1237619" data-name="Trazado 1237619" d="M1923.96,557.87a7.647,7.647,0,0,1,3.913.867,7.433,7.433,0,0,1,3.913,4.818,7.093,7.093,0,0,1-.9,5.242,7.374,7.374,0,0,1-5.206,3.489,8.229,8.229,0,0,1-2.51-.166,7.744,7.744,0,0,1-4.633-3.71A6.758,6.758,0,0,1,1918,563l.111-.314.351-.886C1919.64,559.475,1921.615,558.589,1923.96,557.87Z" transform="translate(-573.754 2824.625)" fill="#f39830"/>
      <path id="Trazado_1237620" data-name="Trazado 1237620" d="M1654,450.26V403.947a5.558,5.558,0,0,1,2.049-3.489,4.7,4.7,0,0,1,2.861-1.163c5.205-.461,10.817-.092,16.059-.111l32.008-.129h29.885c5.224,0,10.688-.314,15.893.166a34.239,34.239,0,0,1-4.6,6.774,86.9,86.9,0,0,1-12.386,12.331c-2.99,2.492-5.925,4.929-9.507,6.534l-.184.277-3.987-3.71a5.461,5.461,0,0,0-1.569-1.126l-3.027,2.307a14.843,14.843,0,0,1-3.286-1.661l-.775-4.393h-7.384a20.222,20.222,0,0,1-.259,4.1l-3.323,2.086c-.572-.388-3.249-2.584-3.673-2.529l-4.818,5.039,2.381,3.747-1.551,3.341-3.673.24.092,7.55,3.655.148.129.258a16.19,16.19,0,0,0,1.938,2.769c-.369.406-1.144,1.532-1.606,1.717a26.321,26.321,0,0,0-4.282,1.034l-5.095,1.144a152.559,152.559,0,0,1-24.717,3.064A45.35,45.35,0,0,1,1654,450.26Z" transform="translate(-358.764 2954.2)" fill="#f9cb66"/>
      <path id="Trazado_1237621" data-name="Trazado 1237621" d="M1737.884,429.519a4.354,4.354,0,0,1,2.178-.074,2.8,2.8,0,0,1,1.772,1.421,3.716,3.716,0,0,1,.092,2.6,3.137,3.137,0,0,1-1.754,1.9,4.768,4.768,0,0,1-1.7.092,2.568,2.568,0,0,1-1.772-1.034,3.18,3.18,0,0,1-.664-2.381A3.8,3.8,0,0,1,1737.884,429.519Z" transform="translate(-425.63 2929.422)" fill="#fefefe"/>
      <path id="Trazado_1237622" data-name="Trazado 1237622" d="M1690.637,428.876a4.785,4.785,0,0,1,1.624.037,3.075,3.075,0,0,1,1.846,1.514,3.283,3.283,0,0,1,.074,2.64,3.822,3.822,0,0,1-2.326,2.012,5.332,5.332,0,0,1-1.717-.185,3.4,3.4,0,0,1-1.661-1.846,3.226,3.226,0,0,1,.129-2.584A3.435,3.435,0,0,1,1690.637,428.876Z" transform="translate(-386.707 2929.844)" fill="#fefefe"/>
      <path id="Trazado_1237623" data-name="Trazado 1237623" d="M1786.357,428.813a3.591,3.591,0,0,1,1.772.092,3.212,3.212,0,0,1,1.975,1.938,4.3,4.3,0,0,1-.277,2.455,3.22,3.22,0,0,1-2.123,1.606,2.926,2.926,0,0,1-1.385-.018,3.029,3.029,0,0,1-1.994-1.587,2.961,2.961,0,0,1-.185-2.584A3.55,3.55,0,0,1,1786.357,428.813Z" transform="translate(-464.707 2929.907)" fill="#fefefe"/>
      <path id="Trazado_1237624" data-name="Trazado 1237624" d="M596.819,844a5.227,5.227,0,0,1,1.551,1.292,22.061,22.061,0,0,1,2.473,5.095,82.9,82.9,0,0,1,3.858,11.02l.221,1.107a7.41,7.41,0,0,1,4.8,3.95,7.25,7.25,0,0,1,.314,5.519,8.665,8.665,0,0,1-2.51,3.359,20.58,20.58,0,0,1,1.532,5.132l1.994,10.725a171.489,171.489,0,0,1-6.35,80.389l-4.356,11.278-.037.2a35.484,35.484,0,0,0-.185,6.11v62.927l-.018,15.616a69.985,69.985,0,0,1-.055,7.624,4.158,4.158,0,0,1-.369,1.237l-.129.3a6.973,6.973,0,0,1-3.784,3.47c-2.012.738-5.464.3-7.642.3l-16.521.018v13.678l23.443-.018c3.544,0,7.365-.314,10.891,0a2.662,2.662,0,0,1,1.606.572,2.539,2.539,0,0,1,.554,1.569,2.147,2.147,0,0,1-1.144,1.384c-1.477.628-26.6.166-30.18.166L517.888,1098l-207.941.129-58.663.018-13.531-.018c-1.938,0-4.356.277-6.221-.166-.535-.48-1-.794-1.071-1.569a1.586,1.586,0,0,1,.646-1.477c1.071-.9,4.947-.517,6.405-.517l19.456-.092a30.165,30.165,0,0,1-3.895-2.917,11.429,11.429,0,0,1-3.027-7.55l-.185-.2-.037-4.356a6.359,6.359,0,0,1,.129-2.141c.5-1.384.185-3.858.185-5.372l.018-14.324-.037-62.041,63.61-.074-.018-12.645-6.7-.018.129-.148,6.627-.056.129-2.916.055-8.011a12.126,12.126,0,0,0-3.47-3.655l.092-.369-7.494-.055.037-4.338c2.547-1.624,4.855-4.5,6.978-6.682l.055-.222a39.893,39.893,0,0,0,4.559-4.615l9.857-9.968,25.326-24.809c4.393-4.227,8.547-8.676,13.364-12.423a59.194,59.194,0,0,1,5.888-4.135c1.551-.941,3.249-1.735,4.744-2.75l.258-.185-.148-.591a4.5,4.5,0,0,1,.683-3.839,6.552,6.552,0,0,1,3.064-2.529l-.018-2.677.037-.24,1.514.037.055.129,50.559-.019.5-.258a9.936,9.936,0,0,0,1.938,1.255c1.938.757,5.169.24,7.236.129l27.061.018c3.415,0,7.4.388,10.743-.184a8.135,8.135,0,0,0,2.418-1.384c1.9-2.2,1.846-3.987,1.883-6.7l.018-12.681,53.513.055,22.335.037,7.716.018c1.5,0,3.47.222,4.836-.351l.3-.129a8.665,8.665,0,0,0,2.584-1.68,9.587,9.587,0,0,0,2.547-4.633,22.554,22.554,0,0,0,.185-5.353l-.055-10h11.924c2.049,0,4.6.277,6.553-.314l.351-.111A11.9,11.9,0,0,0,596.819,844Z" transform="translate(802.008 2591.306)" fill="#192a83"/>
      <path id="Trazado_1237625" data-name="Trazado 1237625" d="M1955.3,2126h19.456v13.641l-19.419.037Z" transform="translate(-604.448 1545.951)" fill="#fefefe"/>
      <path id="Trazado_1237626" data-name="Trazado 1237626" d="M1487.4,1973.572c1-.923,2.584-1.255,3.858-1.7a191.088,191.088,0,0,0,21.911-9.137,177.725,177.725,0,0,0,17.388-10.116l9.488-6.221-.019,19.936c0,2.75-.332,5.888.074,8.565a5.181,5.181,0,0,0,1.292,2.824c2.437,2.658,7.273,1.827,10.54,1.809l18.551.019-.037,13.789-61.8-.148-.72-3.71a18.46,18.46,0,0,0-3.212-6.461C1500.229,1977.171,1494.507,1974.568,1487.4,1973.572Z" transform="translate(-222.917 1692.398)" fill="#e1daf7"/>
      <path id="Trazado_1237627" data-name="Trazado 1237627" d="M1995.916,1578.219l28.556-.019,6.036.037a9.041,9.041,0,0,1,2.455.111,4.986,4.986,0,0,1,2.159,2.123,19.619,19.619,0,0,1,.129,4.781l-.037,11.814-.055,42.677.019,21.357c.018,3.747.258,7.661,0,11.389a2.882,2.882,0,0,1-.868,2.215,2.778,2.778,0,0,1-1.643.683c-3.858.461-8.122.129-12.017.129l-24.827.019c.369-6.572-.554-13.291.129-19.825l.3-16.428,1.255-.2c1.513-.019,3.119.222,4.411-.7l1.643-1.625,11.094-9.488a64.391,64.391,0,0,0,7.051-6.59c-2.067-1.255-6.793-.683-9.229-.591l-16.558.018c.387-3.618.055-7.624.074-11.278Z" transform="translate(-637.385 1992.633)" fill="#585b9f"/>
      <path id="Trazado_1237628" data-name="Trazado 1237628" d="M1996.774,1744.349c4.578-.111,8.491.535,11.924,3.858a14.848,14.848,0,0,1,3.969,7.07l.591.333-16.558.018C1997.069,1752.01,1996.755,1748,1996.774,1744.349Z" transform="translate(-638.206 1857.161)" fill="#e1b8da"/>
      <path id="Trazado_1237629" data-name="Trazado 1237629" d="M2022.732,1808.6a3.919,3.919,0,0,1,1.975,2.455,50.013,50.013,0,0,1,.092,7.254v15.579c0,1.458.388,6.276-.148,7.291a12.036,12.036,0,0,1-1.034,1.366l-.037.037a6.831,6.831,0,0,1-2.123,1.015H1997l.3-16.428,1.255-.2c1.513-.018,3.119.222,4.412-.7l1.643-1.625,11.094-9.488A62.023,62.023,0,0,0,2022.732,1808.6Z" transform="translate(-638.45 1804.762)" fill="#f8ad3a"/>
      <path id="Trazado_1237630" data-name="Trazado 1237630" d="M2030.843,1895.7l10.965,10.6,4.559,4.707a8.17,8.17,0,0,0,2.824,2.325l.664.3a6.838,6.838,0,0,1-2.123,1.015l-1.034-.3c-.535-1.126-2.4-2.492-3.322-3.4-4.634-4.615-9.193-9.4-14.177-13.641Z" transform="translate(-664.706 1733.74)" fill="#f39830"/>
      <path id="Trazado_1237631" data-name="Trazado 1237631" d="M1998.551,1905.1c1.513-.019,3.119.222,4.412-.7,4.984,4.246,9.543,9.026,14.177,13.641.9.9,2.787,2.271,3.323,3.4l1.034.3H1997l.3-16.428Z" transform="translate(-638.45 1726.646)" fill="#f8ad3a"/>
      <path id="Trazado_1237632" data-name="Trazado 1237632" d="M1830.627,1675.734l-23.535.018c-3.932,0-7.993.2-11.925-.018a1.972,1.972,0,0,1-1.218-.443,1.894,1.894,0,0,1-.572-1.126c-.388-4.246-.019-8.9-.037-13.18l-.037-28.242-.055-34.74c-.018-6.405-.332-12.977.111-19.364l37.38-.24.037,30.642c-.018,3.655.314,7.66-.074,11.278l16.558-.018c2.436-.093,7.162-.665,9.229.59a64.35,64.35,0,0,1-7.051,6.59l-11.094,9.488-1.643,1.624c-1.273.923-2.88.683-4.411.7l-1.256.2-.3,16.428C1830.073,1662.444,1831,1669.163,1830.627,1675.734Z" transform="translate(-472.207 1992.469)" fill="#727fe2"/>
      <path id="Trazado_1237633" data-name="Trazado 1237633" d="M1907.961,1604.365a2.661,2.661,0,0,1,2.012.351,2.745,2.745,0,0,1,1.218,1.68,3.361,3.361,0,0,1-.5,2.547,2.547,2.547,0,0,1-1.846,1,3.562,3.562,0,0,1-1.255-.166,3.04,3.04,0,0,1-1.809-1.7,2.429,2.429,0,0,1,.018-1.9A3.22,3.22,0,0,1,1907.961,1604.365Z" transform="translate(-563.92 1971.341)" fill="#fefefe"/>
      <path id="Trazado_1237634" data-name="Trazado 1237634" d="M1864.479,1604.3a3.4,3.4,0,0,1,1.532.48,2.956,2.956,0,0,1,1.218,1.791,3.01,3.01,0,0,1-.591,2.289,2.878,2.878,0,0,1-2.1,1.015,3.347,3.347,0,0,1-1.347-.166,3.007,3.007,0,0,1-1.569-1.754,2.611,2.611,0,0,1,.24-2.16A3.417,3.417,0,0,1,1864.479,1604.3Z" transform="translate(-527.951 1971.35)" fill="#fefefe"/>
      <path id="Trazado_1237635" data-name="Trazado 1237635" d="M1820.209,1603.059a3.806,3.806,0,0,1,1.292-.037,3.669,3.669,0,0,1,2.252,1.735,2.424,2.424,0,0,1,.24,1.957c-.3,1.033-.978,1.4-1.864,1.9a3.894,3.894,0,0,1-1.311.055,2.871,2.871,0,0,1-2.123-1.347,3.671,3.671,0,0,1-.184-2.621A2.727,2.727,0,0,1,1820.209,1603.059Z" transform="translate(-492.781 1972.425)" fill="#fefefe"/>
      <path id="Trazado_1237636" data-name="Trazado 1237636" d="M1930.7,1755.6l.314-1.181a11.26,11.26,0,0,1,2.529-4.855,13.882,13.882,0,0,1,9.414-5.169c-.019,3.655.314,7.66-.074,11.278Z" transform="translate(-584.388 1857.111)" fill="#e6d0e5"/>
      <path id="Trazado_1237637" data-name="Trazado 1237637" d="M1861.993,1804.768a8.7,8.7,0,0,1,3.526-.406l7.218.055,12.183.074,16.557-.018c2.437-.093,7.162-.665,9.229.59a64.346,64.346,0,0,1-7.051,6.59l-11.094,9.488-1.643,1.625c-1.274.923-2.879.683-4.412.7l-1.255.2-.3,16.428-16.207.018c-1.975,0-4.947.388-6.812-.222a3.744,3.744,0,0,1-1.514-1.052l-.111-.166-.148-.259a2.023,2.023,0,0,1-.388-1c-.332-4.005-.055-8.251-.055-12.293l.037-17.13C1859.833,1806.392,1860.9,1805.709,1861.993,1804.768Z" transform="translate(-526.424 1808.299)" fill="#f9cb66"/>
      <path id="Trazado_1237638" data-name="Trazado 1237638" d="M1864.1,1914.425,1883.98,1897l1.329,1.255a17.234,17.234,0,0,0-3.544,2.713l-7.365,6.553-8.639,7.458-.148.535A3.882,3.882,0,0,1,1864.1,1914.425Z" transform="translate(-530.083 1732.679)" fill="#f39830"/>
      <path id="Trazado_1237639" data-name="Trazado 1237639" d="M1891.977,1903.8c1.643.979,3.028.812,4.892.812l-1.255.2-.3,16.429-16.207.018c-1.975,0-4.947.388-6.812-.221l.148-.535,8.639-7.457,7.365-6.553A17.167,17.167,0,0,1,1891.977,1903.8Z" transform="translate(-536.769 1727.135)" fill="#f9cb66"/>
      <path id="Trazado_1237640" data-name="Trazado 1237640" d="M1872.5,1804.768a8.7,8.7,0,0,1,3.526-.406l7.217.055,12.183.074,16.558-.018c2.437-.093,7.162-.665,9.23.59a64.351,64.351,0,0,1-7.052,6.59l-11.094,9.488-1.643,1.625c-1.274.923-2.88.683-4.412.7-1.864-.018-3.249.166-4.892-.812l-1.329-1.255Z" transform="translate(-536.932 1808.299)" fill="#fefefe"/>
      <path id="Trazado_1237641" data-name="Trazado 1237641" d="M717.185,1930.737l49.23-.037,8.048.074c.867,0,2.123-.185,2.843.24l.111.628.258-.739,48.732.055.3.683,1.347,11.131,2.049,18.034,18.5.019,2.234-.037c7.107,1,12.829,3.6,17.315,9.451a18.452,18.452,0,0,1,3.212,6.46c-6.018-.739-12.368.5-18.367-.259.037,1.255.2,2.474-.757,3.433a2.1,2.1,0,0,1-1.514.739c-2.972.24-6.147.019-9.137.019H822.936l-45.557-.092-39.613.055-31.067-.018c2.75-1.754,4.836-3.489,5.852-6.738l.092-.332c.886-2.935.369-7.144.351-10.244l-.129-15.118-.092-17.37Z" transform="translate(413.673 1705.2)" fill="#585b9f"/>
      <path id="Trazado_1237642" data-name="Trazado 1237642" d="M979.807,2093.6c7.107,1,12.829,3.6,17.315,9.451a18.464,18.464,0,0,1,3.212,6.461c-6.018-.739-12.368.5-18.367-.258.037,1.255.2,2.473-.757,3.433a2.1,2.1,0,0,1-1.514.739c-2.972.24-6.147.018-9.137.018H951.934l-45.557-.093-39.613.055a10.671,10.671,0,0,1-1.864-4.356l17.721.2,43.194.111h55.229a1.289,1.289,0,0,0,.757-.3,33.168,33.168,0,0,0-3.23-6.479c-2.972-4.394-7.107-5.906-11.242-8.749,3.193,0,6.941.369,10.042-.185l.2-.037Z" transform="translate(284.675 1572.37)" fill="#3d469a"/>
      <path id="Trazado_1237643" data-name="Trazado 1237643" d="M1076.716,1932.538l.258-.738,48.732.055.3.683,1.348,11.131,2.049,18.034-30.4-.185-18.071.074-4.541.074a6.383,6.383,0,0,1-2.584-.166l2.455-24.532Z" transform="translate(114.336 1704.303)" fill="#3d469a"/>
      <path id="Trazado_1237644" data-name="Trazado 1237644" d="M1087.48,1932.538l.258-.738,48.732.055.3.683,1.347,11.131a7.521,7.521,0,0,0-.055,1.44.969.969,0,0,1-.48.111,15.249,15.249,0,0,1-2.824-.535l-5.39-.978-25.418-3.876-10.54-1.661-4.781-.646a5,5,0,0,1-1.311-.185c-.147-.092-.2-.258-.314-.387Z" transform="translate(103.573 1704.303)" fill="#192a83"/>
      <path id="Trazado_1237645" data-name="Trazado 1237645" d="M717.348,1930.737l49.23-.037,8.048.074c.868,0,2.123-.185,2.843.24l.111.628-.461,4.393-2.455,24.532c-1.477.554-4.153.2-5.778.2-5.63,0-11.537-.388-17.13.111-5.39,1.107-10.282,3.3-13.438,8.048a11.487,11.487,0,0,0-2.215,7.292,10.784,10.784,0,0,0,1.864,4.356l-31.067-.019c2.75-1.754,4.836-3.489,5.852-6.738l.092-.332c.886-2.935.369-7.144.351-10.245l-.129-15.118-.092-17.37Z" transform="translate(413.51 1705.2)" fill="#efecfa"/>
      <path id="Trazado_1237646" data-name="Trazado 1237646" d="M712.965,2025.2l10.411,4.319a206.647,206.647,0,0,0,28.113,7.993l.092.277.074.166c-5.39,1.107-10.282,3.3-13.438,8.048a11.486,11.486,0,0,0-2.215,7.291,10.779,10.779,0,0,0,1.864,4.356l-31.067-.019c2.75-1.754,4.836-3.489,5.852-6.738l.092-.332c.886-2.935.369-7.144.351-10.245Z" transform="translate(413.591 1628.144)" fill="#e1daf7"/>
      <path id="Trazado_1237647" data-name="Trazado 1237647" d="M748.083,1793.037l182.08.074.018,25.584.018,2.6-9.488,6.221a175.409,175.409,0,0,1-17.388,10.115,191,191,0,0,1-21.911,9.137c-1.274.443-2.861.775-3.858,1.7l-2.234.037-18.5-.018-2.049-18.035-1.347-11.131-.3-.683-48.732-.055-.258.738-.111-.628c-.72-.425-1.975-.24-2.843-.24l-8.048-.074-49.23.037-4.393.037-.018-25.418,8.436-.037Z" transform="translate(386.927 1817.483)" fill="#585b9f"/>
      <path id="Trazado_1237648" data-name="Trazado 1237648" d="M1208.765,1815.29a6.59,6.59,0,0,1,3.8.665,8.192,8.192,0,0,1,3.821,4.892,7.209,7.209,0,0,1-.775,5.446,7.942,7.942,0,0,1-5.187,3.618,6.859,6.859,0,0,1-3.95-.757,8.02,8.02,0,0,1-3.6-4.541,7.293,7.293,0,0,1,.72-5.648A7.715,7.715,0,0,1,1208.765,1815.29Z" transform="translate(9.312 1799.326)" fill="#fefefe"/>
      <path id="Trazado_1237649" data-name="Trazado 1237649" d="M747.936,1793.2l.148.018-.074,25.178a14.426,14.426,0,0,0-4.1.221l-4.393.037-.018-25.418Z" transform="translate(386.928 1817.319)" fill="#3d469a"/>
      <path id="Trazado_1237650" data-name="Trazado 1237650" d="M1356.7,1931.905l.258-.683a40.488,40.488,0,0,1,6.35-.092l14.657-.037,55.488.185.018,2.6-9.488,6.221a175.534,175.534,0,0,1-17.388,10.115,191,191,0,0,1-21.911,9.137c-1.274.443-2.861.775-3.858,1.7l-2.234.037-18.5-.018-2.049-18.034Z" transform="translate(-116.344 1704.918)" fill="#efecfa"/>
      <path id="Trazado_1237651" data-name="Trazado 1237651" d="M398.892,1663.8l-.037.259.166-.019,10.577-.055.037,10.245.018,5.722-.018,7.771.018,25.418.092,17.37.129,15.118c.018,3.1.535,7.31-.351,10.245l-.092.332c-1.015,3.23-3.1,4.966-5.852,6.738l-1.218.166a59.4,59.4,0,0,1-9.248.3l-14.1-.018-21.671-.019-11.648-.037a23.06,23.06,0,0,1-3.563-.535,30.2,30.2,0,0,1-3.895-2.917,11.43,11.43,0,0,1-3.027-7.55l-.185-.2-.037-4.356a6.36,6.36,0,0,1,.129-2.141c.5-1.384.185-3.858.185-5.372l.018-14.324-.037-62.041Z" transform="translate(716.792 1922.833)" fill="#fefefe"/>
      <path id="Trazado_1237652" data-name="Trazado 1237652" d="M439.6,1768.15a1.63,1.63,0,0,1,.554-.166,40.837,40.837,0,0,1,4.984-.019H455.6a20.524,20.524,0,0,1,3.692,0c.129.056.2.185.314.277l-.092.849-.2.055c-1.44.259-18.847.369-19.6-.129Z" transform="translate(631.469 1837.976)" fill="#2a7dd7"/>
      <path id="Trazado_1237653" data-name="Trazado 1237653" d="M439.637,1869.386c.978-.517,3.267-.2,4.43-.2H454.7a18.855,18.855,0,0,1,4.578.148c.111.572.074.572-.221,1.089l-.258.037c-1.791.24-18.477.369-19.2-.166Z" transform="translate(631.469 1755.438)" fill="#2a7dd7"/>
      <path id="Trazado_1237654" data-name="Trazado 1237654" d="M439.091,1919.618l.221-.055a27.919,27.919,0,0,1,4.652-.074l10.559-.037a17.043,17.043,0,0,1,3.636.019c.148.055.24.185.369.258l-.018.794-.572.258-13.789.074c-1.384,0-4.43.369-5.575-.277l-.074-.5Z" transform="translate(632.366 1714.455)" fill="#2a7dd7"/>
      <path id="Trazado_1237655" data-name="Trazado 1237655" d="M439.216,2021.376a11.518,11.518,0,0,1,2.88-.129h12.811a25.249,25.249,0,0,1,4.264.111,1.6,1.6,0,0,1-.111,1.163,29.935,29.935,0,0,1-5.759.092l-13.789-.055A1.315,1.315,0,0,1,439.216,2021.376Z" transform="translate(631.797 1631.396)" fill="#2a7dd7"/>
      <path id="Trazado_1237656" data-name="Trazado 1237656" d="M439.654,1819.061a36.335,36.335,0,0,1,4.486-.055h12.552a6.248,6.248,0,0,1,2.271.185l.092.664-.424.554-14.656-.019c-1.2,0-3.895.351-4.818-.295l-.055-.572Z" transform="translate(631.876 1796.313)" fill="#2a7dd7"/>
      <path id="Trazado_1237657" data-name="Trazado 1237657" d="M439.04,1969.829c1.551-.333,19.2-.277,19.825.092a1.133,1.133,0,0,1-.222,1.145l-19.6-.019-.24-.443Z" transform="translate(632.122 1673.474)" fill="#2a7dd7"/>
      <path id="Trazado_1237658" data-name="Trazado 1237658" d="M439.209,1717.484c3.156-.314,6.608,0,9.783,0l6.295-.037a11.544,11.544,0,0,1,3.193.166l.148.775-.369.443c-2.233.24-18.662.406-19.6-.332l-.055-.572Z" transform="translate(632.284 1879.173)" fill="#2a7dd7"/>
      <path id="Trazado_1237659" data-name="Trazado 1237659" d="M574.537,1820.3l11.98.018-.037,11.666-11.98.037Z" transform="translate(521.47 1795.222)" fill="#f37557"/>
      <path id="Trazado_1237660" data-name="Trazado 1237660" d="M573.455,1914.219l12.146-.018-.018,13.512H573.4Z" transform="translate(522.367 1718.655)" fill="#60cf75"/>
      <path id="Trazado_1237661" data-name="Trazado 1237661" d="M573.455,1713.8h12.312l-.129,13.2c-1.015.591-2.714.332-3.913.332H573.4Z" transform="translate(522.367 1882.063)" fill="#60cf75"/>
      <path id="Trazado_1237662" data-name="Trazado 1237662" d="M682,1664.855l10.577-.056.037,10.245.018,5.722-.018,7.771.018,25.418.092,17.37.129,15.118-9.193-.037.369-52.978L684.012,1678a70.978,70.978,0,0,0-.185-8.639A14.039,14.039,0,0,0,682,1664.855Z" transform="translate(433.813 1922.018)" fill="#d0f2fa"/>
      <path id="Trazado_1237663" data-name="Trazado 1237663" d="M399.055,1663.8l-.037.259H345.561l.166,81.552-10.319-.019v6.719l-.185-.2-.037-4.356a6.36,6.36,0,0,1,.129-2.141c.5-1.385.185-3.858.185-5.372l.018-14.324-.037-62.041Z" transform="translate(716.629 1922.833)" fill="#d0f2fa"/>
      <path id="Trazado_1237664" data-name="Trazado 1237664" d="M346.719,2106.737l54.085.019,1.071-.055,9.193.036c.018,3.1.535,7.31-.351,10.245l-.092.333c-1.015,3.23-3.1,4.965-5.852,6.737l-1.218.166a59.4,59.4,0,0,1-9.248.3l-14.1-.018-21.671-.019-11.648-.036a23.075,23.075,0,0,1-3.563-.536,30.078,30.078,0,0,1-3.895-2.917,11.428,11.428,0,0,1-3.027-7.55v-6.719Z" transform="translate(715.619 1561.688)" fill="#41a5f8"/>
      <path id="Trazado_1237665" data-name="Trazado 1237665" d="M415.247,2106.8l9.193.037c.018,3.1.535,7.31-.351,10.245l-.092.333c-1.015,3.23-3.1,4.965-5.852,6.738l-1.218.166a59.37,59.37,0,0,1-9.248.3l-14.1-.018-21.671-.019-11.648-.037a23.045,23.045,0,0,1-3.563-.535,30.149,30.149,0,0,1-3.895-2.917c1.145-.7,8.8-.277,10.522-.3l31.233-.055,8.067.037a17.653,17.653,0,0,0,4.19-.166,9.776,9.776,0,0,0,4.19-2.7c3.415-3.4,3.156-6.664,3.193-11.094Z" transform="translate(702.247 1561.607)" fill="#2a7dd7"/>
      <path id="Trazado_1237666" data-name="Trazado 1237666" d="M1706.057,844a5.223,5.223,0,0,1,1.55,1.292,22.054,22.054,0,0,1,2.474,5.095,82.922,82.922,0,0,1,3.858,11.02l.221,1.107a7.41,7.41,0,0,1,4.8,3.95,7.251,7.251,0,0,1,.314,5.519,8.67,8.67,0,0,1-2.51,3.359,20.58,20.58,0,0,1,1.532,5.132l1.994,10.725a171.489,171.489,0,0,1-6.35,80.389l-4.356,11.278a8.465,8.465,0,0,0-2.363-5.021,6.441,6.441,0,0,0-3.433-1.864,42.281,42.281,0,0,0-5.925-.074l-12.239.018-43.268.037-.037-52.331V903.069c-.018-3.71.129-7.513-.148-11.2a11.913,11.913,0,0,0-1.015-3.9,12.976,12.976,0,0,0-7.679-6.977,7.062,7.062,0,0,0-1.827-.5,38.736,38.736,0,0,0-4.393-.055h-8.1l-28.353.019.018-12.681,53.513.056,22.335.037,7.716.018c1.5,0,3.47.222,4.836-.351l.3-.129a8.664,8.664,0,0,0,2.584-1.68,9.584,9.584,0,0,0,2.548-4.633,22.55,22.55,0,0,0,.184-5.353l-.055-10H1696.7c2.049,0,4.6.277,6.553-.314l.35-.111A9.485,9.485,0,0,0,1706.057,844Z" transform="translate(-307.23 2591.306)" fill="#efecfa"/>
      <path id="Trazado_1237667" data-name="Trazado 1237667" d="M1986.3,1432.882h21.966c3.3,0,7.162-.369,10.411.2a4.87,4.87,0,0,1,1.827.849,5.067,5.067,0,0,1,2.178,3.4c.074.868.259,2.732-.258,3.4a4.007,4.007,0,0,1-1.754-.018c-.222-.092-.166-.092-.166-.314a13.215,13.215,0,0,0-.314-3.618,5.014,5.014,0,0,0-1.218-1.2,3.374,3.374,0,0,0-1.606-.3l-21.653-.055-6.941-.037a8.419,8.419,0,0,0-2.9.2,2.849,2.849,0,0,0-1.348,1.717l-.332.831c-.683.056-1.237.3-1.772-.166a4.432,4.432,0,0,1,.388-2.492A5.092,5.092,0,0,1,1986.3,1432.882Z" transform="translate(-626.55 2111.221)" fill="#192a83"/>
      <path id="Trazado_1237668" data-name="Trazado 1237668" d="M2222.561,944.107a7.409,7.409,0,0,1,4.8,3.95,7.25,7.25,0,0,1,.314,5.519,8.67,8.67,0,0,1-2.51,3.36,7.956,7.956,0,0,1-4.153,1.274,6.782,6.782,0,0,1-5.021-2.307,7.516,7.516,0,0,1-1.68-5.519,6.889,6.889,0,0,1,2.437-4.633A7.748,7.748,0,0,1,2222.561,944.107Z" transform="translate(-815.631 2509.695)" fill="#60cf75"/>
      <path id="Trazado_1237669" data-name="Trazado 1237669" d="M2233.547,961a4.932,4.932,0,0,1,2.123.517,4.065,4.065,0,0,1,1.9,2.621,3.532,3.532,0,0,1-.351,2.861,4.524,4.524,0,0,1-3.249,2.049,5.371,5.371,0,0,1-2.141-.517,4.173,4.173,0,0,1-1.957-2.418,4.077,4.077,0,0,1,.387-3.083A4.476,4.476,0,0,1,2233.547,961Z" transform="translate(-828.223 2495.903)" fill="#d0f2fa"/>
      <path id="Trazado_1237670" data-name="Trazado 1237670" d="M1935.609,1033.21a8.242,8.242,0,0,1,2.787-.166c1.9,0,5.446-.406,7.107.24a5.687,5.687,0,0,1,1.071,2.806c.406,1.717.793,3.452,1.366,5.113a4.8,4.8,0,0,0,.462,1.144,8.942,8.942,0,0,0,1.7.775,34.76,34.76,0,0,1,3.23,1.846l6.664-2.178a41.216,41.216,0,0,1,4.319,4.1l-2.99,7.956a20.247,20.247,0,0,0,1.126,3.563,12.885,12.885,0,0,0,1.5.037l5.667-.037a11.092,11.092,0,0,1,2.067-.037,7.67,7.67,0,0,1,2.381,1.551l-.037,7.144c0,.7.2,2.307-.277,2.824a6.7,6.7,0,0,1-2.492,1.68,12.431,12.431,0,0,1-2.473-.055l-5.851-.055-1.422,4.43a7.474,7.474,0,0,0-.48,1.551,8.375,8.375,0,0,0,.665,1.624l2.861,6.756c-.3,1.975-3.489,4.245-4.928,5.593a52.766,52.766,0,0,1-6.959-3.009c-1.4.738-3.6,1.348-4.8,2.27a4.256,4.256,0,0,0-.627,1.145l-1.994,4.522-.369.9a2.153,2.153,0,0,1-1.052,1.219,13.332,13.332,0,0,1-3.655.184,13.59,13.59,0,0,1-3.378-.111,6.8,6.8,0,0,1-.591-1l-1.994-3.9a10.479,10.479,0,0,0-1.089-2.344c-1-1.071-3.489-2.012-4.781-2.713l-7.734,3.046a21.409,21.409,0,0,1-5.3-6.128,37.6,37.6,0,0,1,3.212-6.461c-.72-1.532-1.514-3.858-2.584-5.168a5.018,5.018,0,0,0-1.366-.591c-2.031-.683-5-.868-6.572-2.307-.683-1.735-.351-4.707-.351-6.627a7.058,7.058,0,0,1,.258-2.714,6.876,6.876,0,0,1,2.806-1.163l5.575-1.5,1.92-4.8-2.086-5.279c1.255-2.086,3.249-5.039,5.3-6.331l5.8,2.418,3.8-2.031a8.632,8.632,0,0,0,1.532-.831,7.8,7.8,0,0,0,.665-1.661C1933.966,1038.267,1934.427,1035.167,1935.609,1033.21Z" transform="translate(-565.522 2437.26)" fill="#1127ab"/>
      <path id="Trazado_1237671" data-name="Trazado 1237671" d="M2198.5,1178.944h7.7a7.255,7.255,0,0,1,2.9.221c1.237,1.754.664,6.461.646,8.694a2.027,2.027,0,0,1-1.089,1.052c-1.772.849-5.556.388-7.6.388a4.554,4.554,0,0,0-2.234.221,11.712,11.712,0,0,1-.018-2.787A57.768,57.768,0,0,0,2198.5,1178.944Z" transform="translate(-802.755 2318.219)" fill="#2a7dd7"/>
      <path id="Trazado_1237672" data-name="Trazado 1237672" d="M1950.073,1105.459l-2.843-.111c-1.809-1.994-2.843-5.132-4.08-7.513l-4.338-2.031a6.874,6.874,0,0,0-1.366-.7,7.206,7.206,0,0,0-1.661.591c-1.938.738-3.969,1.9-5.981,2.289l-3.544-4.172,3.3-6.11-2.529-5.482a7.694,7.694,0,0,0-.849-1.55,9.955,9.955,0,0,0-2.067-.554l-5.519-1.754v-6.977l7.864-2.547a38.453,38.453,0,0,0,1.994-4.449c.092-.221.867-1.7.849-1.827-.3-1.4-1.7-2.621-1.919-4.209-.222-1.68,2.381-4.042,3.452-5.3l5.427,2.418,5.39-2.677a4.7,4.7,0,0,0,1.033-.591,10.352,10.352,0,0,0,1.347-2.935l1.92-5.833,3.969-.037c.591,3.175.24,7,.258,10.263.019,2.547.406,5.852-.148,8.306a11.852,11.852,0,0,1-1.993.388,12.9,12.9,0,0,0-8.916,5.132,11.175,11.175,0,0,0-2.271,8.86,12.356,12.356,0,0,0,5.649,8.454,12.918,12.918,0,0,0,7.421,2.16Z" transform="translate(-574.522 2428.713)" fill="#60bcf9"/>
      <path id="Trazado_1237673" data-name="Trazado 1237673" d="M2030.022,1042.955l3.378-.055c.978,2.141,1.311,4.707,2.123,6.94a7.461,7.461,0,0,0,.831,1.92c.462.554,2.64,1.366,3.378,1.772a22.746,22.746,0,0,1,2.473,1.717,41,41,0,0,1,6.387-2.529c.776.517,2.88,1.957,3.064,2.806a29.833,29.833,0,0,1-2.972,7.125l.129.3a30.512,30.512,0,0,1,1.569,5.076,57.81,57.81,0,0,1,.3,7.79,11.667,11.667,0,0,0,.018,2.787c-.332,2.141-1.237,5.87-2.51,7.679l.166.166c1.181,1.163,1.532,2.584,2.178,4.061a26.723,26.723,0,0,0,1.809,3.267,51.92,51.92,0,0,1-3.766,4.024l-6.867-3.618a32.891,32.891,0,0,1-3.95,2.363,13.654,13.654,0,0,0-2.307.941,7.166,7.166,0,0,0-.591,1.255c-.72,1.569-1.292,3.175-2.067,4.726a6.055,6.055,0,0,1-.812,1.44c-.369.314-1.347.166-1.791.148l-.129-18.533a12.781,12.781,0,0,1-7.42-2.16,12.356,12.356,0,0,1-5.648-8.454,11.174,11.174,0,0,1,2.27-8.86,12.9,12.9,0,0,1,8.916-5.132,14.592,14.592,0,0,0,1.993-.388c.554-2.455.166-5.759.148-8.307C2030.244,1049.97,2030.613,1046.149,2030.022,1042.955Z" transform="translate(-654.619 2429.121)" fill="#41a5f8"/>
      <path id="Trazado_1237674" data-name="Trazado 1237674" d="M2028.076,1146a15.389,15.389,0,0,1,4.412.443l.424.129a12.844,12.844,0,0,1,7.384,6.128,11.682,11.682,0,0,1,.793,8.842,12.945,12.945,0,0,1-6.331,7.661,17.3,17.3,0,0,1-4.8,1.4,12.783,12.783,0,0,1-7.421-2.16,12.355,12.355,0,0,1-5.648-8.454,11.173,11.173,0,0,1,2.27-8.86A12.9,12.9,0,0,1,2028.076,1146Z" transform="translate(-654.537 2345.052)" fill="#192a83"/>
      <path id="Trazado_1237675" data-name="Trazado 1237675" d="M2037.675,1155.2a10.863,10.863,0,0,1,6.128,1.643,11.022,11.022,0,0,1,4.8,7.31,9.523,9.523,0,0,1-1.643,7.236,11.645,11.645,0,0,1-8.085,4.855,9.853,9.853,0,0,1-6.368-1.92,10.916,10.916,0,0,1-4.578-6.811,9.419,9.419,0,0,1,1.846-7.9A11.993,11.993,0,0,1,2037.675,1155.2Z" transform="translate(-663.51 2337.551)" fill="#fefefe"/>
      <path id="Trazado_1237676" data-name="Trazado 1237676" d="M759.968,1078.988l27.061.018c3.415,0,7.4.388,10.743-.185a8.14,8.14,0,0,0,2.418-1.384l27.061-.018h8.62a14.483,14.483,0,0,1,4.652.3l1,.683a10.856,10.856,0,0,1,3.3,3.489l.185.3.111.185c.591,3.286.185,7.2.185,10.558v73.3c-2.75,0-6.184-.664-8.288,1.458a4.31,4.31,0,0,0-1.311,2.381c-.388,2.289-.074,5.113-.074,7.457v18.238l-.037,6.221-131.114-.018-50.984-.092-8.583-.111-.019-5.722-.037-10.245-10.577.055-.166.018.037-.258-.018-12.644-6.7-.018.129-.148,6.627-.055.129-2.917.055-8.011a12.127,12.127,0,0,0-3.47-3.655l.092-.369-7.494-.056.037-4.338c2.547-1.624,4.855-4.5,6.978-6.682l.055-.222a39.906,39.906,0,0,0,4.559-4.615l9.857-9.968,25.326-24.809c4.393-4.227,8.547-8.676,13.364-12.423a59.259,59.259,0,0,1,5.888-4.135c1.551-.941,3.249-1.735,4.744-2.75l.258-.184-.148-.591a4.5,4.5,0,0,1,.683-3.839,6.553,6.553,0,0,1,3.064-2.529l-.019-2.676.037-.24,1.514.037.055.129,50.559-.019.5-.258a9.924,9.924,0,0,0,1.938,1.255C754.67,1079.616,757.882,1079.1,759.968,1078.988Z" transform="translate(481.515 2401.007)" fill="#60bcf9"/>
      <path id="Trazado_1237677" data-name="Trazado 1237677" d="M1010.737,1079.3l1.514.037.055.129.019,3.027.3.129a5.309,5.309,0,0,1,3.027,2.621,7.171,7.171,0,0,1,.461,1.551l.074.111a4.428,4.428,0,0,1-4.615,5.039,5.255,5.255,0,0,1-3.581-1.791,5.128,5.128,0,0,1-.7-.96l-.148-.019-.148-.591a4.505,4.505,0,0,1,.683-3.839,6.552,6.552,0,0,1,3.064-2.529l-.019-2.676Z" transform="translate(168.944 2399.44)" fill="#1127ab"/>
      <path id="Trazado_1237678" data-name="Trazado 1237678" d="M1013.283,1105.61c.923-1.145,1.754-2.141,3.323-2.271a3.115,3.115,0,0,1,2.418.757c1.089.923,1.218,2.1,1.348,3.433a4.666,4.666,0,0,1-2.344,2.51,3.332,3.332,0,0,1-2.658-.129,4.672,4.672,0,0,1-1.772-1.569A6.443,6.443,0,0,1,1013.283,1105.61Z" transform="translate(163.704 2379.849)" fill="#f9cb66"/>
      <path id="Trazado_1237679" data-name="Trazado 1237679" d="M987.97,1442.121a3.525,3.525,0,0,1,2.953.406,6.118,6.118,0,0,1,2.252,3.674,21.926,21.926,0,0,1,.111,3.655l.037,6.332.019,9.414a47.3,47.3,0,0,1-.074,5.113,5.037,5.037,0,0,1-1.015,2.289,4.129,4.129,0,0,1-3.212,1.754l-39.041.055,3.193-3.36h26.673c1.532,0,7.476.332,8.417-.2.941-.554,2.4-1.957,2.492-3.064.314-3.193,0-6.756,0-9.986l-.019-8.491a18.6,18.6,0,0,0-.184-4.43A4.846,4.846,0,0,0,987.97,1442.121Z" transform="translate(215.284 2103.698)" fill="#2a7dd7"/>
      <path id="Trazado_1237680" data-name="Trazado 1237680" d="M790.515,1717.855a49.488,49.488,0,0,0,7.937-.055l44.246.111-5.8,6.221-50.984-.056-.018-.222c.074-1.864,3.083-4.467,4.356-5.87Z" transform="translate(349.093 1878.801)" fill="#d0f2fa"/>
      <path id="Trazado_1237681" data-name="Trazado 1237681" d="M743.276,1606.129l16.761-16.816c2.861-2.861,6.221-5.575,8.768-8.713l.332,1.9c.48,2.307,1.145,3.009,2.843,4.578,1.643,1.015,4.245.739,6.11.757l-11.075,11.242-4.135,4.338a26.939,26.939,0,0,0-2.344,2.492,49.517,49.517,0,0,1-7.937.055l-.258.129c-1.255,1.422-4.264,4.005-4.356,5.87l.018.222-8.583-.111-.019-5.722Z" transform="translate(387.01 1990.675)" fill="#60bcf9"/>
      <path id="Trazado_1237682" data-name="Trazado 1237682" d="M743.276,1718.819l9.063-.019c-1.255,1.421-4.264,4.005-4.356,5.87l.018.222-8.583-.111-.018-5.722Z" transform="translate(387.009 1877.985)" fill="#75daf8"/>
      <path id="Trazado_1237683" data-name="Trazado 1237683" d="M830.282,1615.8c1.643,1.015,4.246.738,6.11.757L825.317,1627.8l-4.135,4.338a27,27,0,0,0-2.344,2.492,49.489,49.489,0,0,1-7.937.055Z" transform="translate(328.708 1961.973)" fill="#7ad2fb"/>
      <path id="Trazado_1237684" data-name="Trazado 1237684" d="M1319.909,1078.988l27.061.018c3.415,0,7.4.388,10.743-.185a8.136,8.136,0,0,0,2.418-1.384l27.061-.018h8.62a14.482,14.482,0,0,1,4.652.3,37.175,37.175,0,0,1-3.655,3.581,12.279,12.279,0,0,1-1.735,1.532l-14.638.222-41.274.074h-15.709c-2.529,0-5.187.166-7.7-.074a4.556,4.556,0,0,1-1.938-.646,8.211,8.211,0,0,1-3.618-4.523l.5-.258a9.915,9.915,0,0,0,1.938,1.255C1314.612,1079.616,1317.823,1079.1,1319.909,1078.988Z" transform="translate(-78.427 2401.007)" fill="#41a5f8"/>
      <path id="Trazado_1237685" data-name="Trazado 1237685" d="M630.514,1302.067v9.174c4.264-4.984,40.961-42.474,44.394-43.342l.092,20.545a4.537,4.537,0,0,1-.185.867c-.277.739-27.633,28.3-30.033,30.2l-.037,5.519-10.429.129.055-8.011a12.127,12.127,0,0,0-3.47-3.655l.092-.369-7.494-.056.037-4.338C626.084,1307.125,628.392,1304.246,630.514,1302.067Z" transform="translate(481.515 2245.654)" fill="#7ad2fb"/>
      <path id="Trazado_1237686" data-name="Trazado 1237686" d="M663.692,1512.316c3.71-.037,8.953-.923,11.8,1.994a7.267,7.267,0,0,1,1.994,4.375l-.037,5.519-10.429.129.055-8.011a12.128,12.128,0,0,0-3.47-3.655Z" transform="translate(448.817 2046.481)" fill="#f39830"/>
      <path id="Trazado_1237687" data-name="Trazado 1237687" d="M692.45,1379.2h.129a5.539,5.539,0,0,0,1.846,4.117l.96.757a3.953,3.953,0,0,1,1.2.9c1.975.831,4.873.5,7.015.5l10.134.037c1.92,0,3.932-.092,5.851.092l-3.083,3.341c-.351.406-1.034,1.44-1.5,1.661a8,8,0,0,1-1.79.148l-15.081-.037c-1.052,0-3.378-.314-4.283.055a4.924,4.924,0,0,0-1.2.941,3.346,3.346,0,0,0-.9,1.883,92.713,92.713,0,0,0-.055,9.876c0,4.135-.221,8.417.037,12.534l.037.332c-2.529,3.12-5.907,5.851-8.768,8.713l-16.761,16.816-3.876.24-.037-10.245-10.577.056-.166.018.037-.258-.018-12.644-6.7-.018.129-.148,6.627-.055.129-2.917,10.429-.129.037-5.519c2.4-1.9,29.756-29.479,30.033-30.2A5.323,5.323,0,0,0,692.45,1379.2Z" transform="translate(464.065 2154.898)" fill="#7ad2fb"/>
      <path id="Trazado_1237688" data-name="Trazado 1237688" d="M662.2,1577.4l.018.111a7.983,7.983,0,0,1,.148,2.566l.018,13.29H651.619l-.018-12.644-6.7-.019.129-.148,6.627-.055.129-2.917Z" transform="translate(464.065 1993.284)" fill="#2a7dd7"/>
      <path id="Trazado_1237689" data-name="Trazado 1237689" d="M691.958,1577.4l.018.111-.092,2.861-10.485.092.129-2.917Z" transform="translate(434.303 1993.284)" fill="#3d469a"/>
      <path id="Trazado_1237690" data-name="Trazado 1237690" d="M768.854,1379.2h.129a5.54,5.54,0,0,0,1.846,4.117l.96.757a3.954,3.954,0,0,1,1.2.9c-8.214,7.31-15.819,15.413-23.572,23.2l-7.2,7.052a43.631,43.631,0,0,1-3.452,3.212,9.2,9.2,0,0,0-.148-2.566l-.019-.111.037-5.519c2.4-1.9,29.756-29.479,30.033-30.2A3.828,3.828,0,0,0,768.854,1379.2Z" transform="translate(387.662 2154.898)" fill="#60bcf9"/>
      <path id="Trazado_1237691" data-name="Trazado 1237691" d="M897.86,1466.872l-.037-.332c-.24-4.116-.018-8.4-.037-12.533a92.743,92.743,0,0,1,.055-9.876,3.468,3.468,0,0,1,.9-1.883,4.509,4.509,0,0,1,1.2-.941c.9-.369,3.23-.055,4.282-.055l15.081.037c5.39.406,10.872.24,16.281.24,3.138,0,6.571.222,9.672-.092a4.887,4.887,0,0,1,2.6,3.12,18.686,18.686,0,0,1,.184,4.43l.019,8.491c0,3.23.3,6.793,0,9.986-.111,1.107-1.569,2.529-2.492,3.064s-6.885.2-8.417.2H910.523l-3.193,3.378-.185.019c-1.883,0-4.467.258-6.11-.757-1.7-1.587-2.363-2.271-2.843-4.578Z" transform="translate(257.954 2104.404)" fill="#b789b6"/>
      <path id="Trazado_1237692" data-name="Trazado 1237692" d="M900.5,1590.9a6.815,6.815,0,0,0,2.437,1.717,12.508,12.508,0,0,0,3.323.222l6.571.018-3.193,3.378-.185.019c-1.883,0-4.467.258-6.11-.757C901.644,1593.909,900.98,1593.207,900.5,1590.9Z" transform="translate(255.647 1982.277)" fill="#2c91f5"/>
      <path id="Trazado_1237693" data-name="Trazado 1237693" d="M930.88,1481.881l.222-.037c1.809-.166,3.766-.037,5.593-.037l11.075-.018h13.161c2.326,0,4.763-.129,7.07.037a1.944,1.944,0,0,1,1.514.5c.018.9.166,1.089-.443,1.809-3.009.387-6.5.074-9.543.074l-20.582-.019-6.387-.037a6.773,6.773,0,0,1-1.624-.055,2.833,2.833,0,0,1-.5-.314l-.037-1.458Z" transform="translate(231.266 2071.285)" fill="#fefefe"/>
      <path id="Trazado_1237694" data-name="Trazado 1237694" d="M930.436,1515.5h30.125l6.036.055a7.934,7.934,0,0,1,1.643.074c.129.056.222.2.332.3a3.355,3.355,0,0,1-.111,1.957l-.96.111-28.3.037h-6.534a13.2,13.2,0,0,1-2.843-.074,1.6,1.6,0,0,1-.443-.277,3.543,3.543,0,0,1,.148-2.012Z" transform="translate(232.153 2043.759)" fill="#fefefe"/>
      <path id="Trazado_1237695" data-name="Trazado 1237695" d="M929.854,1548.625l.24-.055c2.584-.388,5.778-.056,8.436-.056H965.2a12.245,12.245,0,0,1,2.474.056,2.29,2.29,0,0,1,.554.388,1.955,1.955,0,0,1,.129,1.292c-.148.554-.24.48-.683.757-3.249.185-36.586.425-37.73-.019-.443-.166-.461-.5-.646-.9A1.609,1.609,0,0,1,929.854,1548.625Z" transform="translate(232.163 2016.947)" fill="#fefefe"/>
      <path id="Trazado_1237696" data-name="Trazado 1237696" d="M901.574,1238.8a18.415,18.415,0,0,1,.037-3.913,6.675,6.675,0,0,1,1.182-1.532c1.348-1.311,2.917-1.034,4.67-1.052l26.636.019c4.892,0,9.986-.277,14.859.055a2.241,2.241,0,0,1,1.551.535l.683.277c1.126,1.052,1.864,1.606,1.92,3.267l-.148,24a5.9,5.9,0,0,1-1.7,4.153,3.912,3.912,0,0,1-2.178,1.015,59.154,59.154,0,0,1-8.491.222c-3.6.019-7.31.221-10.909.037a4.832,4.832,0,0,1-.886-.111c-1.92-.185-3.913-.092-5.852-.092l-10.134-.037c-2.141,0-5.039.332-7.015-.5a4.194,4.194,0,0,0-1.2-.9l-.96-.757a5.54,5.54,0,0,1-1.846-4.116h-.129Z" transform="translate(254.85 2274.752)" fill="#0f5ebc"/>
      <path id="Trazado_1237697" data-name="Trazado 1237697" d="M932.531,1337.568c3.378-.184,31.473-.425,32.691.148a2.464,2.464,0,0,1,.277.757,2.207,2.207,0,0,1-.5,1.606,26.637,26.637,0,0,1-4.541.111l-7.937-.018-13.9-.055c-1.993,0-4.652.3-6.553-.24a3.428,3.428,0,0,1-.129-1.975Z" transform="translate(230.077 2189.018)" fill="#fefefe"/>
      <path id="Trazado_1237698" data-name="Trazado 1237698" d="M931.36,1305.174l32.008-.074c.665.037.812.221,1.218.738a2.192,2.192,0,0,1-.535,1.864c-4.264.462-8.934.092-13.235.074l-19.2-.037a1.427,1.427,0,0,1-.812-.314,2.414,2.414,0,0,1-.055-1.4C930.843,1305.469,930.88,1305.506,931.36,1305.174Z" transform="translate(231.044 2215.32)" fill="#fefefe"/>
      <path id="Trazado_1237699" data-name="Trazado 1237699" d="M932.375,1272.192l37.287-.092c.665.092.849.369,1.237.886-.037.867.037,1.015-.517,1.717l-1.218.092-38.432-.129-.332-.443a2.755,2.755,0,0,1,.425-1.864Z" transform="translate(231.266 2242.229)" fill="#fefefe"/>
      <path id="Trazado_1237700" data-name="Trazado 1237700" d="M951.913,1236l.683.277c1.126,1.052,1.864,1.606,1.92,3.267l-.148,24a5.9,5.9,0,0,1-1.7,4.153,3.913,3.913,0,0,1-2.178,1.015,59.135,59.135,0,0,1-8.491.221c-3.6.019-7.31.222-10.909.037a4.864,4.864,0,0,1-.886-.111c-1.92-.185-3.913-.092-5.851-.092l-10.134-.037c-2.141,0-5.039.332-7.015-.5a4.192,4.192,0,0,0-1.2-.9l-.96-.757a5.54,5.54,0,0,1-1.846-4.116c.332-.3.129-.166.628-.332l1.181.683a4.509,4.509,0,0,0,2.123.886l20.563-.129h15.229c1.957,0,4.873.369,6.719-.185a4.109,4.109,0,0,0,.9-.7,6.02,6.02,0,0,0,1.052-1.218,5.159,5.159,0,0,0,.111-1.606l.018-5.187.2-18.219Z" transform="translate(253.445 2271.665)" fill="#192a83"/>
      <path id="Trazado_1237701" data-name="Trazado 1237701" d="M966.763,1385.2a5.9,5.9,0,0,1-1.7,4.153,3.914,3.914,0,0,1-2.178,1.015,59.172,59.172,0,0,1-8.491.221c-3.6.018-7.31.222-10.909.037a4.844,4.844,0,0,1-.886-.111c-1.92-.185-3.913-.092-5.852-.092l-10.134-.037c-2.141,0-5.039.332-7.014-.5a4.194,4.194,0,0,0-1.2-.9c2.492-.443,5.538-.111,8.085-.129l23.683-.018c4.061,0,8.4.3,12.423-.185a3.457,3.457,0,0,0,1.791-.646l.221-.166A9.349,9.349,0,0,0,966.763,1385.2Z" transform="translate(241.051 2150.006)" fill="#2c91f5"/>
      <path id="Trazado_1237702" data-name="Trazado 1237702" d="M1218.287,1266.289a7.718,7.718,0,0,1-1.5-3.138,26.739,26.739,0,0,1-.2-4.707l-.018-7.587c0-2.861-.314-6.184.074-9.008.277-1.92,1.292-2.806,2.787-3.876,4.006-.517,8.2-.258,12.22-.258h20.582l9.82.019c1.477,0,3.618-.222,5.021.221a4.975,4.975,0,0,1,2.953,2.9,5.49,5.49,0,0,1,2.769,3.415,27.2,27.2,0,0,1,.074,5.058c-.019,2.88.092,5.833-.092,8.713l-.111.277-.111,5.685a12.771,12.771,0,0,0,.148,3.027c-.388,1.717-.96,2.215-2.289,3.323l-.185.166-.923.092c-1.92.461-4.486.2-6.461.2a60.125,60.125,0,0,1-8.75-.147c-2.418-.461-5.593-.129-8.1-.129l-17.942.018c-1.735,0-4.375.332-5.962-.222A6.845,6.845,0,0,1,1218.287,1266.289Z" transform="translate(-1.983 2270.32)" fill="#f39830"/>
      <path id="Trazado_1237703" data-name="Trazado 1237703" d="M1506.7,1254.9a5.489,5.489,0,0,1,2.769,3.415,27.18,27.18,0,0,1,.074,5.058c-.019,2.88.092,5.833-.092,8.713l-.111.277a8.172,8.172,0,0,1-2.64,1.624Z" transform="translate(-238.654 2256.254)" fill="#2c91f5"/>
      <path id="Trazado_1237704" data-name="Trazado 1237704" d="M1439.948,1349.5l-.111,5.685a12.766,12.766,0,0,0,.148,3.027c-.388,1.717-.96,2.215-2.289,3.322l-.185.166-.923.092-14.989-.037,1.754-2.953,6.941-.037a16.246,16.246,0,0,0,3.913-.221,4.911,4.911,0,0,0,1.827-1.163c1.588-1.5,1.237-4.3,1.255-6.295A8.348,8.348,0,0,0,1439.948,1349.5Z" transform="translate(-169.263 2179.116)" fill="#0f5ebc"/>
      <path id="Trazado_1237705" data-name="Trazado 1237705" d="M1249.095,1345.944c2.9-.24,5.944-.074,8.842-.092l16.613-.019c1.587,0,6.682-.388,7.956.185a.849.849,0,0,1,.554.72,1.683,1.683,0,0,1-.388,1.348,74.858,74.858,0,0,1-7.882.055l-15.635-.018-7.421-.019a12.851,12.851,0,0,1-2.529-.018c-.148-.037-.258-.185-.388-.277C1248.781,1347.015,1248.6,1346.59,1249.095,1345.944Z" transform="translate(-28.323 2182.211)" fill="#fefefe"/>
      <path id="Trazado_1237706" data-name="Trazado 1237706" d="M1259.4,1310.774l18.275-.055c1.2,0,4.633-.369,5.63.129a4.529,4.529,0,0,1,.462.369,2.492,2.492,0,0,1-.148,1.643,12.772,12.772,0,0,1-3.563.2h-6.442c-2.99,0-23.535.406-24.569-.351a3.089,3.089,0,0,1,.148-1.735,10.216,10.216,0,0,1,3.009-.184Z" transform="translate(-28.516 2210.846)" fill="#fefefe"/>
      <path id="Trazado_1237707" data-name="Trazado 1237707" d="M1249.563,1276.2l41.348.111c.517.388.461.388.572,1.015-.314.757-.277.72-1.034,1.034l-10.983.018-21.007-.018c-1.606,0-8.86.3-9.746-.3a4.373,4.373,0,0,1,.037-1.7Z" transform="translate(-28.238 2238.886)" fill="#fefefe"/>
      <path id="Trazado_1237708" data-name="Trazado 1237708" d="M1226.4,1392.8a8.137,8.137,0,0,0,2.547,1.071c3.71.59,7.974.24,11.758.258h23.48l-1.754,2.953,14.989.037c-1.92.462-4.486.2-6.461.2a60.123,60.123,0,0,1-8.75-.148c-2.418-.461-5.593-.129-8.1-.129l-17.942.018c-1.735,0-4.375.332-5.962-.221A6.845,6.845,0,0,1,1226.4,1392.8Z" transform="translate(-10.095 2143.809)" fill="#2a7dd7"/>
      <path id="Trazado_1237709" data-name="Trazado 1237709" d="M1223.521,1079.1l1,.683a10.857,10.857,0,0,1,3.3,3.489l.185.3.111.185c.591,3.286.185,7.2.185,10.558v73.3c-2.75,0-6.184-.664-8.288,1.458a4.309,4.309,0,0,0-1.311,2.381c-.388,2.289-.074,5.113-.074,7.457v18.237H1093.2l22.742-23.24a10.35,10.35,0,0,1-.259-1.994l-.018-14.342c0-2.6-.332-5.741.129-8.288a3.312,3.312,0,0,1,1.089-1.957,3.829,3.829,0,0,1,1.92-1.108c2.271-.424,5.372-.037,7.734-.037l22.815.037c.886-1.661,2.935-3.415,4.246-4.836a60.124,60.124,0,0,0,8.75.148c1.993,0,4.541.258,6.461-.2l.923-.092.184-.166a5.116,5.116,0,0,0,2.289-3.323,11.081,11.081,0,0,1-.148-3.027l.111-5.685.11-.277,45.871-44.523a11.335,11.335,0,0,0,1.735-1.532A41.779,41.779,0,0,0,1223.521,1079.1Z" transform="translate(98.517 2399.603)" fill="#2c91f5"/>
      <path id="Trazado_1237710" data-name="Trazado 1237710" d="M1273.685,1460.715a26.788,26.788,0,0,0,2.732-1.015v17.758c0,2.658.332,5.888-.166,8.473a5.588,5.588,0,0,1-1.329,2.732,4.08,4.08,0,0,1-2.6,1.384,47.732,47.732,0,0,1-5.63.111H1256.02l-30.623.018a4.365,4.365,0,0,1-3.193-1.587,4.743,4.743,0,0,1-1.4-2.658,4.233,4.233,0,0,0,2.307.646l33.706.074h9.451a27.5,27.5,0,0,0,4.449-.074,3.419,3.419,0,0,0,1.754-1.071,4.47,4.47,0,0,0,1.163-2.049c.425-1.975.092-4.707.092-6.756Z" transform="translate(-5.529 2089.258)" fill="#0f5ebc"/>
      <path id="Trazado_1237711" data-name="Trazado 1237711" d="M1552.375,1079.1l1,.683a10.857,10.857,0,0,1,3.3,3.489l.185.3.111.185c.59,3.286.184,7.2.184,10.558l-56.115,54.953a22.426,22.426,0,0,0-3.766-4.559,4,4,0,0,0-.776-.572,2.04,2.04,0,0,1,.388-.554,17.636,17.636,0,0,0,1.7-2.344l.185-.166a5.116,5.116,0,0,0,2.289-3.323,11.086,11.086,0,0,1-.148-3.027l.111-5.685.111-.277L1547,1084.231a11.346,11.346,0,0,0,1.735-1.532A41.832,41.832,0,0,0,1552.375,1079.1Z" transform="translate(-230.338 2399.603)" fill="#60bcf9"/>
      <path id="Trazado_1237712" data-name="Trazado 1237712" d="M1571.726,1079.1l1,.683a10.854,10.854,0,0,1,3.3,3.489l.185.3.111.185c-4.006,2.455-7.513,6.571-10.872,9.857l-15.635,15.413-29.405,28.7a11.086,11.086,0,0,1-.148-3.027l.111-5.685.111-.277,45.871-44.523a11.327,11.327,0,0,0,1.735-1.532A39.133,39.133,0,0,0,1571.726,1079.1Z" transform="translate(-249.688 2399.603)" fill="#2c96f8"/>
      <path id="Trazado_1237713" data-name="Trazado 1237713" d="M1267.206,1415.692l.923-.092a17.639,17.639,0,0,1-1.7,2.344,1.785,1.785,0,0,0-.388.554,4.957,4.957,0,0,1,.776.572,1.363,1.363,0,0,0,.351.775,9.41,9.41,0,0,1,1.034,1.237c.369.517.812.757,1.126,1.347l.5.849c.166.258.111.129.166.388l-.24.037a4.4,4.4,0,0,0-1.126.425l-.351-.111-.074-.221a3.677,3.677,0,0,0-1.421-2.363l-.222.148a5.97,5.97,0,0,1,1.329,2.64l.074.332.037.2.018,16c0,2.031.332,4.781-.092,6.756a4.541,4.541,0,0,1-1.163,2.049,3.549,3.549,0,0,1-1.754,1.071,27.471,27.471,0,0,1-4.448.074h-9.451l-33.706-.074a4.279,4.279,0,0,1-2.307-.646l-.831-1.68a10.34,10.34,0,0,1-.259-1.994l-.018-14.343c0-2.6-.332-5.741.129-8.288a3.312,3.312,0,0,1,1.089-1.957,3.826,3.826,0,0,1,1.92-1.108c2.27-.424,5.371-.037,7.734-.037l22.816.037c.886-1.661,2.935-3.415,4.245-4.836a60.126,60.126,0,0,0,8.75.148C1262.721,1415.9,1265.286,1416.154,1267.206,1415.692Z" transform="translate(0.119 2125.218)" fill="#f8ad3a"/>
      <path id="Trazado_1237714" data-name="Trazado 1237714" d="M1246.994,1551.252l.277-.074a12.031,12.031,0,0,1,2.307-.092h24.809l5.206.019a10.814,10.814,0,0,1,2.049.018,1.3,1.3,0,0,1,.388.258,2.555,2.555,0,0,1-.277,1.772l-.646.148c-1.661.24-33.688.148-33.946.037a1.458,1.458,0,0,1-.332-.259A6.086,6.086,0,0,1,1246.994,1551.252Z" transform="translate(-26.739 2014.762)" fill="#fefefe"/>
      <path id="Trazado_1237715" data-name="Trazado 1237715" d="M1248.2,1516.226c2.695-.2,5.538-.055,8.233-.055l16.853-.018h6.239a11.957,11.957,0,0,1,2.824.111,2.221,2.221,0,0,1,.443.277l-.018,1.458-.535.369-24.366.111h-7.033a7.753,7.753,0,0,1-3.138-.258C1247.7,1517.278,1247.515,1516.983,1248.2,1516.226Z" transform="translate(-27.445 2043.254)" fill="#fefefe"/>
      <path id="Trazado_1237716" data-name="Trazado 1237716" d="M1416.611,1415.692l.923-.092a17.649,17.649,0,0,1-1.7,2.344,1.787,1.787,0,0,0-.388.554,4.951,4.951,0,0,1,.775.572,1.364,1.364,0,0,0,.351.775,9.409,9.409,0,0,1,1.034,1.237c.369.517.812.757,1.126,1.347l.5.849c.166.258.111.129.166.388l-.24.037a4.393,4.393,0,0,0-1.126.425l-.351-.111-.074-.221a3.676,3.676,0,0,0-1.421-2.363l-.222.148a7.081,7.081,0,0,0-1.865-.849,28.151,28.151,0,0,0-5.15-.111l-11.851-.037c.886-1.661,2.935-3.415,4.245-4.836a60.125,60.125,0,0,0,8.75.148C1412.126,1415.9,1414.691,1416.154,1416.611,1415.692Z" transform="translate(-149.286 2125.218)" fill="#41a5f8"/>
      <path id="Trazado_1237717" data-name="Trazado 1237717" d="M1248.131,1480.578c3.544-.332,7.347-.056,10.909-.056l21.652.074,7.827.056a9.009,9.009,0,0,1,2.012.055,2.771,2.771,0,0,1,.609.424,2,2,0,0,1-.074,1.5l-.24.092c-.775.221-41.884.2-42.437.019a2.222,2.222,0,0,1-.443-.277A3.122,3.122,0,0,1,1248.131,1480.578Z" transform="translate(-27.618 2072.368)" fill="#fefefe"/>
    </g>
  </g>
</svg>
