<svg xmlns="http://www.w3.org/2000/svg" xmlns:xlink="http://www.w3.org/1999/xlink" width="102.884" height="102.884" viewBox="0 0 102.884 102.884">
  <defs>
    <filter id="Trazado_904820" x="0" y="0" width="102.884" height="102.884" filterUnits="userSpaceOnUse">
      <feOffset dy="3" input="SourceAlpha"/>
      <feGaussianBlur stdDeviation="3" result="blur"/>
      <feFlood flood-opacity="0.161"/>
      <feComposite operator="in" in2="blur"/>
      <feComposite in="SourceGraphic"/>
    </filter>
  </defs>
  <g id="Grupo_1237073" data-name="Grupo 1237073" transform="translate(-170.5 -6265)">
    <g id="Grupo_1236235" data-name="Grupo 1236235" transform="translate(-0.5 142.772)">
      <g id="Grupo_1226551" data-name="Grupo 1226551" transform="translate(180 6128.228)">
        <g id="Grupo_1225716" data-name="Grupo 1225716" transform="translate(0 0)">
          <g id="Grupo_1211534" data-name="Grupo 1211534">
            <g id="Grupo_1173585" data-name="Grupo 1173585">
              <g id="Grupo_1173428" data-name="Grupo 1173428">
                <g id="Grupo_1171958" data-name="Grupo 1171958">
                  <g id="Grupo_1167341" data-name="Grupo 1167341">
                    <g id="Grupo_1166792" data-name="Grupo 1166792">
                      <g transform="matrix(1, 0, 0, 1, -9, -6)" filter="url(#Trazado_904820)">
                        <g id="Trazado_904820-2" data-name="Trazado 904820" transform="translate(9 6)" fill="#efecfa">
                          <path d="M 42.4418830871582 83.38380432128906 C 36.91410827636719 83.38380432128906 31.55247116088867 82.30150604248047 26.50591850280762 80.16700744628906 C 21.63076591491699 78.10498046875 17.25211906433105 75.1527099609375 13.49160099029541 71.39218902587891 C 9.731082916259766 67.63167572021484 6.778812408447266 63.25302886962891 4.716800689697266 58.37787628173828 C 2.582283020019531 53.33132171630859 1.500000715255737 47.96968460083008 1.500000715255737 42.44190979003906 C 1.500000715255737 36.91413497924805 2.582283020019531 31.55249786376953 4.716800689697266 26.50594520568848 C 6.778812408447266 21.63079261779785 9.731082916259766 17.25214576721191 13.49160099029541 13.49162769317627 C 17.25211906433105 9.731109619140625 21.63076591491699 6.778839111328125 26.50591850280762 4.71681547164917 C 31.55247116088867 2.582309722900391 36.91410827636719 1.500015616416931 42.4418830871582 1.500015616416931 C 47.96965789794922 1.500015616416931 53.33129501342773 2.582309722900391 58.37786102294922 4.71681547164917 C 63.25300216674805 6.778839111328125 67.63164520263672 9.731109619140625 71.39216613769531 13.49162769317627 C 75.15267944335938 17.25214576721191 78.10494995117188 21.63079261779785 80.16696166992188 26.50594520568848 C 82.30148315429688 31.55249786376953 83.38376617431641 36.91413497924805 83.38376617431641 42.44190979003906 C 83.38376617431641 47.96968460083008 82.30148315429688 53.33132171630859 80.16696166992188 58.37787628173828 C 78.10494995117188 63.25302886962891 75.15267944335938 67.63167572021484 71.39216613769531 71.39218902587891 C 67.63164520263672 75.1527099609375 63.25300216674805 78.10498046875 58.37786102294922 80.16700744628906 C 53.33129501342773 82.30150604248047 47.96965789794922 83.38380432128906 42.4418830871582 83.38380432128906 Z" stroke="none"/>
                          <path d="M 42.4418830871582 3.000015258789062 C 37.11593627929688 3.000015258789062 31.95090866088867 4.042442321777344 27.09024429321289 6.098320007324219 C 22.39389801025391 8.084724426269531 18.17550659179688 10.92904663085938 14.55226898193359 14.55228424072266 C 10.92901611328125 18.17552185058594 8.084693908691406 22.3939094543457 6.098312377929688 27.09027099609375 C 4.042427062988281 31.95093536376953 3 37.11596298217773 3 42.44190979003906 C 3 47.76785659790039 4.042427062988281 52.93288421630859 6.098312377929688 57.79354858398438 C 8.084693908691406 62.48991012573242 10.92901611328125 66.70829772949219 14.55226898193359 70.33153533935547 C 18.17550659179688 73.95477294921875 22.39389801025391 76.79909515380859 27.09024429321289 78.78549957275391 C 31.95090866088867 80.84137725830078 37.11593627929688 81.88380432128906 42.4418830871582 81.88380432128906 C 47.76782989501953 81.88380432128906 52.93285369873047 80.84137725830078 57.79352569580078 78.78549957275391 C 62.4898681640625 76.79909515380859 66.708251953125 73.95477294921875 70.33149719238281 70.33153533935547 C 73.95475006103516 66.70829772949219 76.799072265625 62.48991012573242 78.78545379638672 57.79354858398438 C 80.84133911132812 52.93288421630859 81.88376617431641 47.76785659790039 81.88376617431641 42.44190979003906 C 81.88376617431641 37.11596298217773 80.84133911132812 31.95093536376953 78.78545379638672 27.09027099609375 C 76.799072265625 22.3939094543457 73.95475006103516 18.17552185058594 70.33149719238281 14.55228424072266 C 66.708251953125 10.92904663085938 62.4898681640625 8.084724426269531 57.79352569580078 6.098320007324219 C 52.93285369873047 4.042442321777344 47.76782989501953 3.000015258789062 42.4418830871582 3.000015258789062 M 42.4418830871582 1.52587890625e-05 C 65.88188171386719 1.52587890625e-05 84.88376617431641 19.00190734863281 84.88376617431641 42.44190979003906 C 84.88376617431641 65.88191223144531 65.88188171386719 84.88380432128906 42.4418830871582 84.88380432128906 C 19.00188446044922 84.88380432128906 0 65.88191223144531 0 42.44190979003906 C 0 19.00190734863281 19.00188446044922 1.52587890625e-05 42.4418830871582 1.52587890625e-05 Z" stroke="none" fill="#c3b7ef"/>
                        </g>
                      </g>
                    </g>
                  </g>
                </g>
              </g>
            </g>
          </g>
        </g>
      </g>
    </g>
    <g id="programacion-en-la-nube" transform="translate(184.404 6279.334)">
      <g id="Grupo_1237072" data-name="Grupo 1237072" transform="translate(11.948 7.867)">
        <g id="Grupo_1237068" data-name="Grupo 1237068" transform="translate(0 42.25)">
          <path id="Trazado_1238122" data-name="Trazado 1238122" d="M21.253,406.559a2.173,2.173,0,1,1-2.173,2.173A2.174,2.174,0,0,1,21.253,406.559Zm19.932,3.411a2.173,2.173,0,1,1-2.173,2.173A2.174,2.174,0,0,1,41.184,409.969Zm6.972-5.473a2.173,2.173,0,1,1-2.173,2.173A2.174,2.174,0,0,1,48.156,404.5Zm19.932,2.062a2.173,2.173,0,1,1-2.173,2.173A2.174,2.174,0,0,1,68.088,406.559Z" transform="translate(-19.08 -404.497)" fill="#ffe177" fill-rule="evenodd"/>
          <path id="Trazado_1238123" data-name="Trazado 1238123" d="M36.875,406.572a2.173,2.173,0,1,1,0,4.319,2.173,2.173,0,0,0,0-4.319Zm19.932,3.411a2.173,2.173,0,1,1,.243,4.332,2.21,2.21,0,0,1-.243-.013,2.173,2.173,0,0,0,0-4.319Zm6.972-5.473a2.173,2.173,0,1,1,0,4.319,2.173,2.173,0,0,0,0-4.319Zm19.931,2.062a2.173,2.173,0,1,1,0,4.319,2.173,2.173,0,0,0,0-4.319Z" transform="translate(-34.945 -404.497)" fill="#ffd064" fill-rule="evenodd"/>
        </g>
        <g id="Grupo_1237070" data-name="Grupo 1237070" transform="translate(2.174 7.248)">
          <path id="Trazado_1238124" data-name="Trazado 1238124" d="M78.145,110.075a7.816,7.816,0,0,0,2.04-15.361,11.289,11.289,0,0,0-15.015-9.392A12.493,12.493,0,0,0,43.989,94.3c0,.242,0,.484.023.726a7.809,7.809,0,0,0,2.939,15.05Z" transform="translate(-39.126 -81.808)" fill="#8ac9fe" fill-rule="evenodd"/>
          <g id="Grupo_1237069" data-name="Grupo 1237069" transform="translate(16.536)">
            <path id="Trazado_1238125" data-name="Trazado 1238125" d="M201.083,85.323a12.464,12.464,0,0,0-8.689-3.515c-.276,0-.553.011-.818.035a13.9,13.9,0,0,1,8.251,3.849A11.3,11.3,0,0,1,201.083,85.323Z" transform="translate(-191.576 -81.808)" fill="#60b7ff" fill-rule="evenodd"/>
            <path id="Trazado_1238126" data-name="Trazado 1238126" d="M316.633,133.564a7.816,7.816,0,0,0,2.04-15.361,11.277,11.277,0,0,0-11.212-10.049q-.415,0-.83.035A11.283,11.283,0,0,1,317.025,118.2a7.816,7.816,0,0,1-2.04,15.361Z" transform="translate(-294.151 -105.297)" fill="#60b7ff" fill-rule="evenodd"/>
          </g>
        </g>
        <g id="Grupo_1237071" data-name="Grupo 1237071" transform="translate(20.262 0)">
          <path id="Trazado_1238127" data-name="Trazado 1238127" d="M221.814,17.191a11.33,11.33,0,0,1,3.321,1.376l2.158-.957,2.543,2.543-.957,2.158a11.331,11.331,0,0,1,1.376,3.321l2.2.848v3.6l-2.2.847a11.339,11.339,0,0,1-1.376,3.319l.957,2.158-2.543,2.544-2.158-.959a11.331,11.331,0,0,1-3.321,1.378l-.847,2.2h-3.6l-.847-2.2a11.339,11.339,0,0,1-3.319-1.376l-2.158.959L208.5,36.4l.959-2.156a11.366,11.366,0,0,1-1.378-3.321l-2.2-.847v-3.6l2.2-.848a11.332,11.332,0,0,1,1.378-3.321l-.959-2.158,2.544-2.543,2.156.957a11.364,11.364,0,0,1,3.321-1.376l.847-2.2h3.6Z" transform="translate(-205.881 -14.989)" fill="#ffe177" fill-rule="evenodd"/>
          <path id="Trazado_1238128" data-name="Trazado 1238128" d="M266.362,17.932l.725-.322,2.543,2.543-.957,2.158a11.33,11.33,0,0,1,1.376,3.321l2.2.848v3.6l-2.2.847a11.338,11.338,0,0,1-1.376,3.319l.957,2.158-2.543,2.544-.725-.322,2.222-2.222-.959-2.158A11.336,11.336,0,0,0,269,30.923l2.2-.847v-3.6l-2.2-.848a11.327,11.327,0,0,0-1.376-3.321l.959-2.158Zm-15.845,0,.322-.322,2.156.957c-.152.085-.3.173-.451.265Zm11.091-.741a11.331,11.331,0,0,1,3.321,1.376l-.595.265a14.821,14.821,0,0,0-3.773-1.642l-.847-2.2h1.047ZM253,37.986l-2.158.959-.322-.322,2.028-.9Q252.766,37.859,253,37.986Zm11.932,0a11.331,11.331,0,0,1-3.321,1.378l-.847,2.2h-1.047l.847-2.2a14.85,14.85,0,0,0,3.774-1.642Z" transform="translate(-245.675 -14.989)" fill="#ffd064" fill-rule="evenodd"/>
          <path id="Trazado_1238129" data-name="Trazado 1238129" d="M261.159,62.089a8.179,8.179,0,1,1-8.178,8.179A8.179,8.179,0,0,1,261.159,62.089Z" transform="translate(-247.872 -56.98)" fill="#eceff1" fill-rule="evenodd"/>
          <path id="Trazado_1238130" data-name="Trazado 1238130" d="M261.159,62.089c.186,0,.371.007.555.02a8.178,8.178,0,0,0,0,16.319c-.184.012-.369.018-.555.018a8.179,8.179,0,0,1,0-16.357Z" transform="translate(-247.872 -56.98)" fill="#d1d1d6" fill-rule="evenodd"/>
        </g>
      </g>
      <path id="Trazado_1238131" data-name="Trazado 1238131" d="M17.035,55.217a3.041,3.041,0,1,1,0-1.736h6.888V44.25H21.939A8.681,8.681,0,0,1,18.11,27.775q0-.084,0-.168a13.371,13.371,0,0,1,16.476-13l-.545-1.227a.868.868,0,0,1,.179-.966l2.541-2.541a.868.868,0,0,1,.966-.179l1.749.778A12.17,12.17,0,0,1,42.2,9.344l.69-1.788A.868.868,0,0,1,43.7,7H47.3a.868.868,0,0,1,.81.557l.687,1.787a12.168,12.168,0,0,1,2.726,1.129L53.268,9.7a.868.868,0,0,1,.966.179l2.541,2.541a.868.868,0,0,1,.18.965l-.775,1.75a12.144,12.144,0,0,1,1.13,2.73l1.784.687a.868.868,0,0,1,.556.81v3.595a.868.868,0,0,1-.556.81l-1.784.687a12.264,12.264,0,0,1-1.13,2.726l.139.315A8.682,8.682,0,0,1,53.137,44.25H51.152v9.232h6.888a3.041,3.041,0,1,1,0,1.736H50.285a.868.868,0,0,1-.868-.868V44.25H41.892v5.123a3.041,3.041,0,1,1-1.736,0V44.25H34.92v10.6a3.041,3.041,0,1,1-1.736,0V44.25H25.659v10.1a.868.868,0,0,1-.868.868Zm17.2-38.908a11.635,11.635,0,0,0-14.389,11.3c0,.224.005.447.018.669a.868.868,0,0,1-.537.853,6.947,6.947,0,0,0,2.613,13.386h31.2A6.944,6.944,0,0,0,56.9,29.731a.871.871,0,0,1-.125.159l-2.541,2.541a.868.868,0,0,1-.965.18l-1.749-.775a12.133,12.133,0,0,1-2.727,1.13l-.687,1.784a.868.868,0,0,1-.81.556H43.7a.868.868,0,0,1-.81-.556l-.687-1.784a12.248,12.248,0,0,1-2.729-1.131l-1.75.775a.868.868,0,0,1-.965-.18L34.22,29.889a.868.868,0,0,1-.179-.966l.777-1.748a12.242,12.242,0,0,1-1.132-2.726L31.9,23.762a.868.868,0,0,1-.556-.81V19.357a.868.868,0,0,1,.556-.81l1.785-.687A12.288,12.288,0,0,1,34.234,16.309ZM60.955,53.045a1.3,1.3,0,1,0,1.305,1.3A1.306,1.306,0,0,0,60.955,53.045Zm-46.835,0a1.3,1.3,0,1,0,1.3,1.3A1.306,1.306,0,0,0,14.121,53.045ZM47.334,10.384,46.7,8.736H44.3l-.636,1.649a.868.868,0,0,1-.609.532,10.439,10.439,0,0,0-3.065,1.27.868.868,0,0,1-.808.054l-1.613-.717-1.7,1.7.717,1.613a.868.868,0,0,1-.054.808,10.525,10.525,0,0,0-1.274,3.07.868.868,0,0,1-.532.607l-1.645.633v2.4l1.645.633a.868.868,0,0,1,.532.607,10.5,10.5,0,0,0,1.274,3.066.868.868,0,0,1,.055.809l-.717,1.613,1.7,1.7,1.613-.715a.867.867,0,0,1,.8.053,10.517,10.517,0,0,0,3.07,1.271.868.868,0,0,1,.61.533L44.3,33.57h2.4l.633-1.645a.868.868,0,0,1,.609-.532,10.4,10.4,0,0,0,3.064-1.269.867.867,0,0,1,.808-.055l1.613.715,1.7-1.7-.715-1.613a.868.868,0,0,1,.053-.8A10.535,10.535,0,0,0,55.737,23.6a.868.868,0,0,1,.533-.609l1.645-.633v-2.4L56.27,19.32a.867.867,0,0,1-.533-.61,10.419,10.419,0,0,0-1.27-3.068.868.868,0,0,1-.055-.807l.715-1.613-1.7-1.7-1.613.717a.868.868,0,0,1-.808-.054,10.439,10.439,0,0,0-3.065-1.27.868.868,0,0,1-.609-.533ZM45.5,12.11a9.045,9.045,0,1,1-9.042,9.042A9.043,9.043,0,0,1,45.5,12.11Zm0,1.736a7.309,7.309,0,1,0,7.311,7.307A7.3,7.3,0,0,0,45.5,13.846Zm-3.019,8.87a.868.868,0,0,1-1.234,1.22L39.1,21.763a.868.868,0,0,1,0-1.22l2.147-2.173a.868.868,0,1,1,1.234,1.22l-1.544,1.563Zm7.273,1.22a.868.868,0,0,1-1.234-1.22l1.544-1.563L48.517,19.59a.868.868,0,0,1,1.234-1.22L51.9,20.543a.868.868,0,0,1,0,1.22Zm-4.318-.287A.868.868,0,1,1,43.822,23l1.74-4.346a.868.868,0,0,1,1.611.645ZM41.024,50.983a1.305,1.305,0,1,0,1.3,1.305A1.306,1.306,0,0,0,41.024,50.983Zm-6.972,5.473a1.305,1.305,0,1,0,1.3,1.305A1.306,1.306,0,0,0,34.052,56.455Z" transform="translate(0 0)" fill-rule="evenodd"/>
    </g>
  </g>
</svg>
