<svg xmlns="http://www.w3.org/2000/svg" xmlns:xlink="http://www.w3.org/1999/xlink" width="108" height="108" viewBox="0 0 108 108">
  <defs>
    <filter id="Trazado_904820" x="0" y="0" width="108" height="108" filterUnits="userSpaceOnUse">
      <feOffset dy="3" input="SourceAlpha"/>
      <feGaussianBlur stdDeviation="3" result="blur"/>
      <feFlood flood-opacity="0.161"/>
      <feComposite operator="in" in2="blur"/>
      <feComposite in="SourceGraphic"/>
    </filter>
  </defs>
  <g id="Grupo_1235704" data-name="Grupo 1235704" transform="translate(9 6)">
    <g id="Grupo_1223778" data-name="Grupo 1223778" transform="translate(0 0)">
      <g id="Grupo_1211530" data-name="Grupo 1211530" transform="translate(0)">
        <g id="Grupo_1173585" data-name="Grupo 1173585">
          <g id="Grupo_1173428" data-name="Grupo 1173428">
            <g id="Grupo_1171958" data-name="Grupo 1171958">
              <g id="Grupo_1167341" data-name="Grupo 1167341">
                <g id="Grupo_1166792" data-name="Grupo 1166792">
                  <g transform="matrix(1, 0, 0, 1, -9, -6)" filter="url(#Trazado_904820)">
                    <g id="Trazado_904820-2" data-name="Trazado 904820" transform="translate(9 6)" fill="#ebfefd">
                      <path d="M 44.99999618530273 88.50003814697266 C 39.12687301635742 88.50003814697266 33.43022155761719 87.35011291503906 28.06829643249512 85.08219909667969 C 22.88852119445801 82.89134979248047 18.23629570007324 79.75462341308594 14.24084663391113 75.75917053222656 C 10.24540901184082 71.76372528076172 7.108683586120605 67.11149597167969 4.917821407318115 61.93172454833984 C 2.649921178817749 56.56979751586914 1.499996185302734 50.87314605712891 1.499996185302734 45.00002288818359 C 1.499996185302734 39.12689971923828 2.649921178817749 33.43024826049805 4.917821407318115 28.06832313537598 C 7.108683586120605 22.88854789733887 10.24540901184082 18.2363224029541 14.24084663391113 14.24087333679199 C 18.23629570007324 10.24543571472168 22.88852119445801 7.108710289001465 28.06829643249512 4.917848110198975 C 33.43022155761719 2.649947881698608 39.12687301635742 1.500022888183594 44.99999618530273 1.500022888183594 C 50.87311935424805 1.500022888183594 56.56977081298828 2.649947881698608 61.93169784545898 4.917848110198975 C 67.11147308349609 7.108710289001465 71.76369476318359 10.24543571472168 75.75914764404297 14.24087333679199 C 79.75458526611328 18.2363224029541 82.89131164550781 22.88854789733887 85.08216857910156 28.06832313537598 C 87.35007476806641 33.43024826049805 88.5 39.12689971923828 88.5 45.00002288818359 C 88.5 50.87314605712891 87.35007476806641 56.56979751586914 85.08216857910156 61.93172454833984 C 82.89131164550781 67.11149597167969 79.75458526611328 71.76372528076172 75.75914764404297 75.75917053222656 C 71.76369476318359 79.75462341308594 67.11147308349609 82.89134979248047 61.93169784545898 85.08219909667969 C 56.56977081298828 87.35011291503906 50.87311935424805 88.50003814697266 44.99999618530273 88.50003814697266 Z" stroke="none"/>
                      <path d="M 44.99999618530273 3.000007629394531 C 39.32870864868164 3.000007629394531 33.82865142822266 4.110069274902344 28.65262603759766 6.299354553222656 C 23.65165710449219 8.414581298828125 19.15968322753906 11.44335174560547 15.301513671875 15.30153656005859 C 11.44333648681641 19.15970611572266 8.414566040039062 23.65166473388672 6.299339294433594 28.65265274047852 C 4.110054016113281 33.82867813110352 2.999992370605469 39.3287353515625 2.999992370605469 45.00002288818359 C 2.999992370605469 50.67131042480469 4.110054016113281 56.17135238647461 6.299339294433594 61.34739685058594 C 8.414566040039062 66.34836578369141 11.44333648681641 70.84032440185547 15.301513671875 74.69850921630859 C 19.15968322753906 78.55667877197266 23.65165710449219 81.58544921875 28.65262603759766 83.70068359375 C 33.82865142822266 85.88996887207031 39.32870864868164 87.00002288818359 44.99999618530273 87.00002288818359 C 50.67128372192383 87.00002288818359 56.17134094238281 85.88996887207031 61.34736633300781 83.70068359375 C 66.34834289550781 81.58544921875 70.84030914306641 78.55667877197266 74.69847869873047 74.69850921630859 C 78.55665588378906 70.84032440185547 81.58542633056641 66.34836578369141 83.70065307617188 61.34739685058594 C 85.88993835449219 56.17135238647461 87 50.67131042480469 87 45.00002288818359 C 87 39.3287353515625 85.88993835449219 33.82867813110352 83.70065307617188 28.65265274047852 C 81.58542633056641 23.65166473388672 78.55665588378906 19.15970611572266 74.69847869873047 15.30153656005859 C 70.84030914306641 11.44335174560547 66.34834289550781 8.414581298828125 61.34736633300781 6.299354553222656 C 56.17134094238281 4.110069274902344 50.67128372192383 3.000007629394531 44.99999618530273 3.000007629394531 M 44.99999618530273 7.62939453125e-06 C 69.85281372070312 7.62939453125e-06 90 20.14720916748047 90 45.00002288818359 C 90 69.85282135009766 69.85281372070312 90.00002288818359 44.99999618530273 90.00002288818359 C 20.14717864990234 90.00002288818359 -7.62939453125e-06 69.85282135009766 -7.62939453125e-06 45.00002288818359 C -7.62939453125e-06 20.14720916748047 20.14717864990234 7.62939453125e-06 44.99999618530273 7.62939453125e-06 Z" stroke="none" fill="#268985"/>
                    </g>
                  </g>
                </g>
              </g>
            </g>
          </g>
        </g>
      </g>
    </g>
    <g id="ingeniero-de-software_6_" data-name="ingeniero-de-software (6)" transform="translate(18.001 13)">
      <g id="Grupo_1234570" data-name="Grupo 1234570" transform="translate(0 0)">
        <g id="Grupo_1234536" data-name="Grupo 1234536" transform="translate(9.992 0.897)">
          <path id="Trazado_1235265" data-name="Trazado 1235265" d="M102.964,27.478c-4.016,1.052-5.85,4.2-5.109,8.757l.727,4.472h26.673l.649-4.472c1.956-13.525-19.181-17.936-22.941-8.757Z" transform="translate(-97.695 -22.639)" fill="#554e56" fill-rule="evenodd"/>
        </g>
        <g id="Grupo_1234537" data-name="Grupo 1234537" transform="translate(6.681 18.964)">
          <path id="Trazado_1235266" data-name="Trazado 1235266" d="M68.883,199.286c-5.348,0-4.436,7.548,1.2,7.125a7.174,7.174,0,0,0-.553-7.125Z" transform="translate(-65.325 -199.286)" fill="#f6a96c" fill-rule="evenodd"/>
        </g>
        <g id="Grupo_1234538" data-name="Grupo 1234538" transform="translate(35.746 18.964)">
          <path id="Trazado_1235267" data-name="Trazado 1235267" d="M351.306,199.286c-2.062,2.309-2.51,4.734-.553,7.125,5.631.422,6.543-7.125,1.2-7.125Z" transform="translate(-349.499 -199.286)" fill="#f6a96c" fill-rule="evenodd"/>
        </g>
        <g id="Grupo_1234539" data-name="Grupo 1234539" transform="translate(18.598 0.896)">
          <path id="Trazado_1235268" data-name="Trazado 1235268" d="M181.836,23.887c7.089-.514,15.974,4.2,15.192,12.881-.021.221-.048.45-.079.678l-.471,3.256h4.313l.649-4.472c1.615-11.168-12.512-16.12-19.6-12.343Z" transform="translate(-181.836 -22.634)" fill="#433f43" fill-rule="evenodd"/>
        </g>
        <g id="Grupo_1234540" data-name="Grupo 1234540" transform="translate(10.881 14.856)">
          <path id="Trazado_1235269" data-name="Trazado 1235269" d="M119.678,159.125l-7.393.014c-3.244,0-3.934.409-5.9,4.094v4.036a9.654,9.654,0,0,0,.553,3.089,14.987,14.987,0,0,0,2.127,3.992l10.453,2.8,10.859-2.8a14.988,14.988,0,0,0,2.127-3.992,9.653,9.653,0,0,0,.553-3.089v-4.036c-1.97-3.685-2.742-4.091-5.983-4.094Z" transform="translate(-106.381 -159.125)" fill="#fed2a4" fill-rule="evenodd"/>
        </g>
        <g id="Grupo_1234541" data-name="Grupo 1234541" transform="translate(28.941 14.867)">
          <path id="Trazado_1235270" data-name="Trazado 1235270" d="M282.965,159.225c6.44.017,7.052,6.321,5.385,11.219-.338.991-.82,2.667-1.421,4-.092.2-.188.4-.283.582l2.056-.531.195-.051a14.988,14.988,0,0,0,2.127-3.992,9.653,9.653,0,0,0,.553-3.089v-4.036c-1.97-3.685-2.742-4.091-5.983-4.094Z" transform="translate(-282.965 -159.225)" fill="#ffbd86" fill-rule="evenodd"/>
        </g>
        <g id="Grupo_1234542" data-name="Grupo 1234542" transform="translate(9.096)">
          <path id="Trazado_1235271" data-name="Trazado 1235271" d="M117.387,33.73a.9.9,0,0,1-.79-.473c-1.88-3.517-2.4-3.618-5.194-3.621l-7.394-.014-7.39.014c-2.822,0-3.254.137-5.116,3.621a.9.9,0,0,1-1.674-.279L89.1,28.506h0c-.792-4.872,1.152-8.364,5.344-9.647a8.584,8.584,0,0,1,5.672-4.472,15.947,15.947,0,0,1,8.432.106,15.568,15.568,0,0,1,7.812,4.773,11.4,11.4,0,0,1,2.559,9.224l-.649,4.472a.9.9,0,0,1-.732.754A.885.885,0,0,1,117.387,33.73ZM90.871,28.219l.329,2.025c1.377-2.009,2.577-2.4,5.417-2.4l7.392-.014,7.4.014c2.833,0,4.086.408,5.457,2.36l.286-1.971c.98-6.774-4.273-10.7-9.069-12.012-4.752-1.3-10.453-.433-12.156,3.723a.9.9,0,0,1-.6.527c-4.527,1.186-4.92,4.867-4.451,7.746Z" transform="translate(-88.929 -13.87)"/>
        </g>
        <g id="Grupo_1234543" data-name="Grupo 1234543" transform="translate(21.144 20.446)">
          <path id="Trazado_1235272" data-name="Trazado 1235272" d="M207.627,216.1a.9.9,0,0,1-.389-1.7,5.592,5.592,0,0,1,5.131,0,.9.9,0,1,1-.777,1.614,3.8,3.8,0,0,0-3.577,0A.892.892,0,0,1,207.627,216.1Z" transform="translate(-206.731 -213.773)"/>
        </g>
        <g id="Grupo_1234544" data-name="Grupo 1234544" transform="translate(36.105 18.068)">
          <path id="Trazado_1235273" data-name="Trazado 1235273" d="M354.343,199.462q-.253,0-.512-.019a.9.9,0,0,1,.134-1.786,3.373,3.373,0,0,0,3.31-1.439,2.724,2.724,0,0,0,.205-2.73,2.51,2.51,0,0,0-2.387-1.168h-.642a.9.9,0,0,1,0-1.791h.642a4.245,4.245,0,0,1,3.96,2.1,4.533,4.533,0,0,1-.274,4.559A5.1,5.1,0,0,1,354.343,199.462Z" transform="translate(-353.002 -190.528)"/>
        </g>
        <g id="Grupo_1234545" data-name="Grupo 1234545" transform="translate(5.79 18.068)">
          <path id="Trazado_1235274" data-name="Trazado 1235274" d="M61.805,199.462a5.1,5.1,0,0,1-4.434-2.271,4.534,4.534,0,0,1-.273-4.56,4.244,4.244,0,0,1,3.958-2.1H61.7a.9.9,0,0,1,0,1.791h-.642a2.508,2.508,0,0,0-2.385,1.167,2.725,2.725,0,0,0,.205,2.731,3.372,3.372,0,0,0,3.308,1.438.9.9,0,1,1,.134,1.786Q62.058,199.462,61.805,199.462Z" transform="translate(-56.607 -190.528)"/>
        </g>
        <g id="Grupo_1234546" data-name="Grupo 1234546" transform="translate(9.985 18.068)">
          <path id="Trazado_1235275" data-name="Trazado 1235275" d="M122.511,203.437a.9.9,0,0,1-.721-1.426,11.708,11.708,0,0,0,2.507-6.551v-4.036a.9.9,0,0,1,1.791,0v4.036a13.317,13.317,0,0,1-2.855,7.611A.894.894,0,0,1,122.511,203.437Zm-21.31,0a.894.894,0,0,1-.723-.366,13.319,13.319,0,0,1-2.854-7.611v-4.036a.9.9,0,1,1,1.791,0v4.036a11.71,11.71,0,0,0,2.507,6.551.9.9,0,0,1-.721,1.426Z" transform="translate(-97.624 -190.529)"/>
        </g>
        <g id="Grupo_1234547" data-name="Grupo 1234547" transform="translate(26.394 18.964)">
          <path id="Trazado_1235276" data-name="Trazado 1235276" d="M259.987,199.286a1.931,1.931,0,0,0-1.929,1.924v2.095a1.931,1.931,0,0,0,1.929,1.924h1.776a1.931,1.931,0,0,0,1.929-1.924V201.21a1.931,1.931,0,0,0-1.929-1.924Z" transform="translate(-258.058 -199.286)" fill="#99e6fc" fill-rule="evenodd"/>
        </g>
        <g id="Grupo_1234548" data-name="Grupo 1234548" transform="translate(16.406 18.964)">
          <path id="Trazado_1235277" data-name="Trazado 1235277" d="M162.33,199.286a1.931,1.931,0,0,0-1.929,1.924v2.095a1.931,1.931,0,0,0,1.929,1.924h1.776a1.931,1.931,0,0,0,1.929-1.924V201.21a1.931,1.931,0,0,0-1.929-1.924Z" transform="translate(-160.401 -199.286)" fill="#99e6fc" fill-rule="evenodd"/>
        </g>
        <g id="Grupo_1234549" data-name="Grupo 1234549" transform="translate(0.896 41.386)">
          <path id="Trazado_1235278" data-name="Trazado 1235278" d="M14.238,419.4c-4.586,1.611-5.481,5.2-5.481,8.937v5.487a.714.714,0,0,0,.714.708h7.444l3.555-7-3.688-9.023Z" transform="translate(-8.757 -418.505)" fill="#99e6fc" fill-rule="evenodd"/>
        </g>
        <g id="Grupo_1234550" data-name="Grupo 1234550" transform="translate(35.296 41.386)">
          <path id="Trazado_1235279" data-name="Trazado 1235279" d="M349.316,418.505l-4.217,9.261,4.087,6.764h7.441a.714.714,0,0,0,.714-.708v-5.487c0-3.736-.895-7.326-5.481-8.937Z" transform="translate(-345.099 -418.505)" fill="#99e6fc" fill-rule="evenodd"/>
        </g>
        <g id="Grupo_1234551" data-name="Grupo 1234551" transform="translate(8.92 30.081)">
          <path id="Trazado_1235280" data-name="Trazado 1235280" d="M113.169,307.979H89.027a1.816,1.816,0,0,0-1.81,1.809V330.4H117.81V309.788a1.816,1.816,0,0,0-1.81-1.809Z" transform="translate(-87.217 -307.979)" fill="#7a6d79" fill-rule="evenodd"/>
        </g>
        <g id="Grupo_1234552" data-name="Grupo 1234552" transform="translate(6.363 52.503)">
          <path id="Trazado_1235281" data-name="Trazado 1235281" d="M95.361,527.2H63.084a.877.877,0,0,0-.874.872v1.352a2.7,2.7,0,0,0,2.691,2.684h30.33a2.7,2.7,0,0,0,2.691-2.684V528.07a.878.878,0,0,0-.878-.872Z" transform="translate(-62.21 -527.198)" fill="#554e56" fill-rule="evenodd"/>
        </g>
        <g id="Grupo_1234553" data-name="Grupo 1234553" transform="translate(34.255 30.081)">
          <path id="Trazado_1235282" data-name="Trazado 1235282" d="M336.725,319.285V330.4h3.449V309.789a1.816,1.816,0,0,0-1.81-1.809h-3.449a1.816,1.816,0,0,1,1.81,1.809v9.5Z" transform="translate(-334.915 -307.981)" fill="#685e68" fill-rule="evenodd"/>
        </g>
        <g id="Grupo_1234554" data-name="Grupo 1234554" transform="translate(35.935 52.503)">
          <path id="Trazado_1235283" data-name="Trazado 1235283" d="M354.921,527.2h-1.762a.877.877,0,0,1,.874.872v1.352a2.7,2.7,0,0,1-2.691,2.684h3.449a2.7,2.7,0,0,0,2.691-2.684V528.07a.878.878,0,0,0-.878-.872Z" transform="translate(-351.342 -527.198)" fill="#433f43" fill-rule="evenodd"/>
        </g>
        <g id="Grupo_1234555" data-name="Grupo 1234555" transform="translate(39.514 41.386)">
          <path id="Trazado_1235284" data-name="Trazado 1235284" d="M386.332,418.505v2.779c3.862,1.737,5.122,3.164,5.122,6.253v6.992h2.189a.714.714,0,0,0,.714-.708v-5.487c0-3.736-.895-7.326-5.481-8.937Z" transform="translate(-386.332 -418.505)" fill="#62dbfb" fill-rule="evenodd"/>
        </g>
        <g id="Grupo_1234556" data-name="Grupo 1234556" transform="translate(16.792 33.542)">
          <path id="Trazado_1235285" data-name="Trazado 1235285" d="M169.794,343.443a6.37,6.37,0,0,0-2.6,1.5l-.912-.528a.586.586,0,0,0-.8.214l-1.229,2.125a.58.58,0,0,0,.215.794l.908.525a6.509,6.509,0,0,0,0,2.99l-.908.525a.58.58,0,0,0-.215.794l1.229,2.125a.588.588,0,0,0,.8.211l.912-.525a6.362,6.362,0,0,0,2.6,1.5v1.049a.582.582,0,0,0,.581.582h2.462a.582.582,0,0,0,.581-.582v-1.049a6.363,6.363,0,0,0,2.6-1.5l.915.525a.585.585,0,0,0,.8-.211l1.229-2.125a.58.58,0,0,0-.215-.794l-.908-.525a6.508,6.508,0,0,0,0-2.99l.908-.525a.58.58,0,0,0,.215-.794l-1.229-2.125a.583.583,0,0,0-.8-.214l-.915.528a6.369,6.369,0,0,0-2.6-1.5v-1.049a.579.579,0,0,0-.581-.579h-2.462a.579.579,0,0,0-.581.579v1.049Zm1.813,3.369a2.755,2.755,0,1,1-2.766,2.755,2.76,2.76,0,0,1,2.766-2.755Z" transform="translate(-164.181 -341.815)" fill="#e5e1e5" fill-rule="evenodd"/>
        </g>
        <g id="Grupo_1234557" data-name="Grupo 1234557" transform="translate(20.557 37.642)">
          <path id="Trazado_1235286" data-name="Trazado 1235286" d="M204.652,389.21a3.651,3.651,0,1,1,3.658-3.651A3.661,3.661,0,0,1,204.652,389.21Zm0-5.511a1.86,1.86,0,1,0,1.867,1.86A1.867,1.867,0,0,0,204.652,383.7Z" transform="translate(-200.99 -381.908)"/>
        </g>
        <g id="Grupo_1234558" data-name="Grupo 1234558" transform="translate(15.896 32.646)">
          <path id="Trazado_1235287" data-name="Trazado 1235287" d="M164.967,350.352h-2.462a1.479,1.479,0,0,1-1.476-1.478v-.412a7.32,7.32,0,0,1-1.8-1.039l-.361.208a1.487,1.487,0,0,1-2.02-.537l-1.231-2.127a1.476,1.476,0,0,1,.546-2.019l.356-.206a7.364,7.364,0,0,1,0-2.073l-.36-.208a1.476,1.476,0,0,1-.541-2.02l1.228-2.123a1.483,1.483,0,0,1,2.019-.544l.365.211a7.329,7.329,0,0,1,1.8-1.041v-.412a1.477,1.477,0,0,1,1.476-1.475h2.462a1.477,1.477,0,0,1,1.476,1.475v.412a7.325,7.325,0,0,1,1.8,1.042l.364-.21a1.479,1.479,0,0,1,2.02.544l1.228,2.123a1.476,1.476,0,0,1-.546,2.019l-.356.206a7.37,7.37,0,0,1,0,2.073l.36.208a1.476,1.476,0,0,1,.541,2.02l-1.228,2.123a1.481,1.481,0,0,1-2.02.538l-.362-.208a7.32,7.32,0,0,1-1.8,1.04v.412A1.478,1.478,0,0,1,164.967,350.352Zm-2.147-1.791h1.832v-.736a.9.9,0,0,1,.644-.86,5.5,5.5,0,0,0,2.23-1.285.9.9,0,0,1,1.062-.128l.647.371.914-1.58-.637-.368a.9.9,0,0,1-.424-.98,5.613,5.613,0,0,0,0-2.581.9.9,0,0,1,.424-.98l.638-.368-.915-1.582-.644.371a.9.9,0,0,1-1.065-.127,5.5,5.5,0,0,0-2.23-1.289.9.9,0,0,1-.643-.859v-.732H162.82v.732a.9.9,0,0,1-.643.859,5.5,5.5,0,0,0-2.23,1.289.9.9,0,0,1-1.066.126l-.642-.372-.916,1.583.637.368a.9.9,0,0,1,.424.98,5.611,5.611,0,0,0,0,2.581.9.9,0,0,1-.424.98l-.637.368.914,1.581.645-.371a.9.9,0,0,1,1.064.127,5.5,5.5,0,0,0,2.23,1.285.9.9,0,0,1,.644.86v.736Zm6.681-2.485h0Zm.92-1.575h0Zm-13.367,0h0Zm13.254-.43h0Zm-13.145,0h0Zm13.145-4.727h0Zm-13.143,0h0Zm13.255-.429h0Zm-13.371,0h0Zm12.458-1.581h0Zm-.428-.112h0Zm-10.683,0v0Z" transform="translate(-155.415 -333.057)"/>
        </g>
        <g id="Grupo_1234559" data-name="Grupo 1234559" transform="translate(8.025 29.185)">
          <path id="Trazado_1235288" data-name="Trazado 1235288" d="M109.948,323.435H79.355a.9.9,0,0,1-.9-.9V301.926a2.708,2.708,0,0,1,2.705-2.7H92.119a.9.9,0,0,1,0,1.791H81.165a.926.926,0,0,0-.914.913v19.717h28.8V301.926a.915.915,0,0,0-.914-.913H96.292a.9.9,0,0,1,0-1.791h11.846a2.708,2.708,0,0,1,2.705,2.7v20.613A.9.9,0,0,1,109.948,323.435Z" transform="translate(-78.459 -299.222)"/>
        </g>
        <g id="Grupo_1234560" data-name="Grupo 1234560" transform="translate(5.467 51.607)">
          <path id="Trazado_1235289" data-name="Trazado 1235289" d="M87.37,525.143a.9.9,0,1,1,0-1.791,1.794,1.794,0,0,0,1.8-1.788v-1.328H55.244v1.328a1.794,1.794,0,0,0,1.8,1.788.9.9,0,1,1,0,1.791,3.587,3.587,0,0,1-3.587-3.579v-1.352a1.771,1.771,0,0,1,1.77-1.767h33.96a1.772,1.772,0,0,1,1.773,1.767v1.352A3.587,3.587,0,0,1,87.37,525.143Z" transform="translate(-53.453 -518.444)"/>
        </g>
        <g id="Grupo_1234561" data-name="Grupo 1234561" transform="translate(15.51 18.068)">
          <path id="Trazado_1235290" data-name="Trazado 1235290" d="M156.245,198.263h-1.776a2.826,2.826,0,0,1-2.825-2.82v-2.095a2.826,2.826,0,0,1,2.825-2.82h1.776a2.826,2.826,0,0,1,2.825,2.82v2.095A2.826,2.826,0,0,1,156.245,198.263Zm-1.776-5.943a1.032,1.032,0,0,0-1.034,1.029v2.095a1.032,1.032,0,0,0,1.034,1.029h1.776a1.032,1.032,0,0,0,1.034-1.029v-2.095a1.032,1.032,0,0,0-1.034-1.029Z" transform="translate(-151.644 -190.528)"/>
        </g>
        <g id="Grupo_1234562" data-name="Grupo 1234562" transform="translate(25.498 18.068)">
          <path id="Trazado_1235291" data-name="Trazado 1235291" d="M253.9,198.263h-1.776a2.826,2.826,0,0,1-2.825-2.82v-2.095a2.826,2.826,0,0,1,2.825-2.82H253.9a2.826,2.826,0,0,1,2.825,2.82v2.095A2.826,2.826,0,0,1,253.9,198.263Zm-1.776-5.943a1.032,1.032,0,0,0-1.034,1.029v2.095a1.032,1.032,0,0,0,1.034,1.029H253.9a1.032,1.032,0,0,0,1.034-1.029v-2.095a1.033,1.033,0,0,0-1.034-1.029Z" transform="translate(-249.301 -190.528)"/>
        </g>
        <g id="Grupo_1234563" data-name="Grupo 1234563" transform="translate(0 40.49)">
          <path id="Trazado_1235292" data-name="Trazado 1235292" d="M46.824,427.563H1.609A1.609,1.609,0,0,1,0,425.959v-5.487c0-3.283.63-7.868,6.08-9.782l2.544-.892a.9.9,0,0,1,.593,1.69l-2.544.892c-3.422,1.2-4.882,3.622-4.882,8.092v5.3H46.643v-5.3c0-4.47-1.46-6.89-4.882-8.092l-2.544-.892a.9.9,0,0,1,.593-1.69l2.544.892c5.45,1.914,6.08,6.5,6.08,9.782v5.487A1.608,1.608,0,0,1,46.824,427.563Z" transform="translate(0 -409.746)"/>
        </g>
        <g id="Grupo_1234564" data-name="Grupo 1234564" transform="translate(35.016 26.495)">
          <path id="Trazado_1235293" data-name="Trazado 1235293" d="M365.833,278.155a11.3,11.3,0,0,1-16.183,15.184l-3.145-.147L342.36,293l1.591-3.825,1.209-2.9a11.312,11.312,0,0,1,20.673-8.116Z" transform="translate(-342.36 -272.913)" fill="#e5e1e5" fill-rule="evenodd"/>
        </g>
        <g id="Grupo_1234565" data-name="Grupo 1234565" transform="translate(47.357 26.495)">
          <path id="Trazado_1235294" data-name="Trazado 1235294" d="M471.3,278.192a11.289,11.289,0,0,1-7.974,17.214,11.286,11.286,0,1,0-.307-22.384,11.293,11.293,0,0,1,8.281,5.17Z" transform="translate(-463.021 -272.913)" fill="#d7d0d6" fill-rule="evenodd"/>
        </g>
        <g id="Grupo_1234566" data-name="Grupo 1234566" transform="translate(34.121 25.604)">
          <path id="Trazado_1235295" data-name="Trazado 1235295" d="M348.413,288.571a12.2,12.2,0,0,1-6.927-2.163l-7.03-.329a.9.9,0,0,1-.785-1.239l2.7-6.485a12.209,12.209,0,1,1,21.785,5.371.9.9,0,0,1-1.428-1.082,10.4,10.4,0,1,0-18.55-4.352.9.9,0,0,1-.054.51l-2.309,5.547,6.015.281a.9.9,0,0,1,.482.168,10.4,10.4,0,0,0,11.684.354.9.9,0,0,1,.957,1.514A12.227,12.227,0,0,1,348.413,288.571Z" transform="translate(-333.603 -264.21)"/>
        </g>
        <g id="Grupo_1234567" data-name="Grupo 1234567" transform="translate(41.469 34.291)">
          <path id="Trazado_1235296" data-name="Trazado 1235296" d="M408.1,356.834a.9.9,0,0,1-.775-.446l-1.748-3.011a.9.9,0,0,1,.008-.913l1.748-2.892a.9.9,0,0,1,1.533.927l-1.474,2.437,1.482,2.552a.9.9,0,0,1-.774,1.345Z" transform="translate(-405.453 -349.14)"/>
        </g>
        <g id="Grupo_1234568" data-name="Grupo 1234568" transform="translate(46.676 33.978)">
          <path id="Trazado_1235297" data-name="Trazado 1235297" d="M457.261,354.394a.9.9,0,0,1-.832-1.228l2.605-6.526a.9.9,0,0,1,1.664.664l-2.605,6.526A.9.9,0,0,1,457.261,354.394Z" transform="translate(-456.365 -346.077)"/>
        </g>
        <g id="Grupo_1234569" data-name="Grupo 1234569" transform="translate(53.014 34.291)">
          <path id="Trazado_1235298" data-name="Trazado 1235298" d="M519.228,356.833a.9.9,0,0,1-.774-1.346l1.482-2.552-1.474-2.437a.9.9,0,1,1,1.533-.927l1.748,2.892a.9.9,0,0,1,.008.913L520,356.387A.9.9,0,0,1,519.228,356.833Z" transform="translate(-518.333 -349.139)"/>
        </g>
      </g>
    </g>
  </g>
</svg>
