<svg xmlns="http://www.w3.org/2000/svg" xmlns:xlink="http://www.w3.org/1999/xlink" width="108" height="108" viewBox="0 0 108 108">
  <defs>
    <filter id="Trazado_904820" x="0" y="0" width="108" height="108" filterUnits="userSpaceOnUse">
      <feOffset dy="3" input="SourceAlpha"/>
      <feGaussianBlur stdDeviation="3" result="blur"/>
      <feFlood flood-opacity="0.161"/>
      <feComposite operator="in" in2="blur"/>
      <feComposite in="SourceGraphic"/>
    </filter>
  </defs>
  <g id="Grupo_1237040" data-name="Grupo 1237040" transform="translate(-618.499 -1611)">
    <g id="Grupo_1236229" data-name="Grupo 1236229" transform="translate(627.499 1617)">
      <g id="Grupo_1226544" data-name="Grupo 1226544" transform="translate(0 0)">
        <g id="Grupo_1211534" data-name="Grupo 1211534" transform="translate(0)">
          <g id="Grupo_1173585" data-name="Grupo 1173585">
            <g id="Grupo_1173428" data-name="Grupo 1173428">
              <g id="Grupo_1171958" data-name="Grupo 1171958">
                <g id="Grupo_1167341" data-name="Grupo 1167341">
                  <g id="Grupo_1166792" data-name="Grupo 1166792">
                    <g transform="matrix(1, 0, 0, 1, -9, -6)" filter="url(#Trazado_904820)">
                      <g id="Trazado_904820-2" data-name="Trazado 904820" transform="translate(9 6)" fill="#ebfefd">
                        <path d="M 44.99999618530273 88.50001525878906 C 39.12687301635742 88.50001525878906 33.43022155761719 87.35009002685547 28.06829643249512 85.08217620849609 C 22.88852119445801 82.89132690429688 18.23629570007324 79.75460052490234 14.24084663391113 75.7591552734375 C 10.24540901184082 71.76370239257812 7.108683586120605 67.11148071289062 4.917821407318115 61.93171691894531 C 2.649921178817749 56.56977844238281 1.499996185302734 50.87313842773438 1.499996185302734 45.00001525878906 C 1.499996185302734 39.12689208984375 2.649921178817749 33.43024063110352 4.917821407318115 28.06831550598145 C 7.108683586120605 22.88854026794434 10.24540901184082 18.23631477355957 14.24084663391113 14.24086570739746 C 18.23629570007324 10.24542808532715 22.88852119445801 7.108702659606934 28.06829643249512 4.917840480804443 C 33.43022155761719 2.649940252304077 39.12687301635742 1.500015258789062 44.99999618530273 1.500015258789062 C 50.87311935424805 1.500015258789062 56.56977081298828 2.649940252304077 61.93169784545898 4.917840480804443 C 67.11147308349609 7.108702659606934 71.76369476318359 10.24542808532715 75.75914764404297 14.24086570739746 C 79.75458526611328 18.23631477355957 82.89131164550781 22.88854026794434 85.08216857910156 28.06831550598145 C 87.35007476806641 33.43024063110352 88.5 39.12689208984375 88.5 45.00001525878906 C 88.5 50.87313842773438 87.35007476806641 56.56977844238281 85.08216857910156 61.93171691894531 C 82.89131164550781 67.11148071289062 79.75458526611328 71.76370239257812 75.75914764404297 75.7591552734375 C 71.76369476318359 79.75460052490234 67.11147308349609 82.89132690429688 61.93169784545898 85.08217620849609 C 56.56977081298828 87.35009002685547 50.87311935424805 88.50001525878906 44.99999618530273 88.50001525878906 Z" stroke="none"/>
                        <path d="M 44.99999618530273 3.000015258789062 C 39.32870864868164 3.000015258789062 33.82865142822266 4.110069274902344 28.65262603759766 6.299354553222656 C 23.65165710449219 8.414588928222656 19.15968322753906 11.443359375 15.301513671875 15.30152893066406 C 11.44333648681641 19.15969848632812 8.414566040039062 23.65167236328125 6.299339294433594 28.65264511108398 C 4.110054016113281 33.82867050170898 2.999992370605469 39.32872772216797 2.999992370605469 45.00001525878906 C 2.999992370605469 50.67130279541016 4.110054016113281 56.17134475708008 6.299339294433594 61.34738922119141 C 8.414566040039062 66.34835815429688 11.44333648681641 70.84031677246094 15.301513671875 74.69850158691406 C 19.15968322753906 78.55667114257812 23.65165710449219 81.58544158935547 28.65262603759766 83.70067596435547 C 33.82865142822266 85.88996124267578 39.32870864868164 87.00001525878906 44.99999618530273 87.00001525878906 C 50.67128372192383 87.00001525878906 56.17134094238281 85.88996124267578 61.34736633300781 83.70067596435547 C 66.34834289550781 81.58544158935547 70.84030914306641 78.55667114257812 74.69847869873047 74.69850158691406 C 78.55665588378906 70.84031677246094 81.58542633056641 66.34835815429688 83.70065307617188 61.34738922119141 C 85.88993835449219 56.17134475708008 87 50.67130279541016 87 45.00001525878906 C 87 39.32872772216797 85.88993835449219 33.82867050170898 83.70065307617188 28.65264511108398 C 81.58542633056641 23.65167236328125 78.55665588378906 19.15969848632812 74.69847869873047 15.30152893066406 C 70.84030914306641 11.443359375 66.34834289550781 8.414588928222656 61.34736633300781 6.299354553222656 C 56.17134094238281 4.110069274902344 50.67128372192383 3.000015258789062 44.99999618530273 3.000015258789062 M 44.99999618530273 1.52587890625e-05 C 69.85281372070312 1.52587890625e-05 90 20.14720153808594 90 45.00001525878906 C 90 69.85281372070312 69.85281372070312 90.00001525878906 44.99999618530273 90.00001525878906 C 20.14717864990234 90.00001525878906 -7.62939453125e-06 69.85281372070312 -7.62939453125e-06 45.00001525878906 C -7.62939453125e-06 20.14720153808594 20.14717864990234 1.52587890625e-05 44.99999618530273 1.52587890625e-05 Z" stroke="none" fill="#268985"/>
                      </g>
                    </g>
                  </g>
                </g>
              </g>
            </g>
          </g>
        </g>
      </g>
    </g>
    <g id="operando" transform="translate(644.735 1635.473)">
      <g id="Grupo_1237038" data-name="Grupo 1237038" transform="translate(1.863 1.863)">
        <g id="Grupo_1237028" data-name="Grupo 1237028" transform="translate(41.44 0)">
          <path id="Trazado_1237992" data-name="Trazado 1237992" d="M53.419,15.813l-.009.009a.42.42,0,0,0-.095-.121l-.613-.613a1.783,1.783,0,0,0-2.072-.328,1.65,1.65,0,0,1-.63.181V2H60.36V15.813Z" transform="translate(-50 -2)" fill="#e6e9ed"/>
        </g>
        <g id="Grupo_1237029" data-name="Grupo 1237029" transform="translate(20.72)">
          <path id="Trazado_1237993" data-name="Trazado 1237993" d="M36.36,8.907v5.681a1.748,1.748,0,0,0-.976.5l-.613.613a.42.42,0,0,0-.095.121l-.009-.009H26V2H36.36Z" transform="translate(-26 -2)" fill="#e6e9ed"/>
        </g>
        <g id="Grupo_1237030" data-name="Grupo 1237030" transform="translate(0 0)">
          <path id="Trazado_1237994" data-name="Trazado 1237994" d="M12.36,8.907v6.907H2V2H12.36Z" transform="translate(-2 -2)" fill="#e6e9ed"/>
        </g>
        <g id="Grupo_1237031" data-name="Grupo 1237031" transform="translate(26.763 10.36)">
          <path id="Trazado_1237995" data-name="Trazado 1237995" d="M34.235,22.228a1.766,1.766,0,0,0,1.088-1.019l.13-.311a1.691,1.691,0,0,0,.138-.682,1.744,1.744,0,0,0-.19-.8,1.755,1.755,0,0,1,.233-1.951.42.42,0,0,1,.095-.121l.613-.613a1.748,1.748,0,0,1,.976-.5A1.59,1.59,0,0,1,37.6,16.2a1.815,1.815,0,0,1,.812.2,1.754,1.754,0,0,0,1.485.052l.311-.129a1.766,1.766,0,0,0,1.019-1.088A1.8,1.8,0,0,1,42.928,14h.863a1.8,1.8,0,0,1,1.7,1.235,1.766,1.766,0,0,0,1.019,1.088l.311.129a1.691,1.691,0,0,0,.682.138,1.157,1.157,0,0,0,.173-.009,1.65,1.65,0,0,0,.63-.181,1.783,1.783,0,0,1,2.072.328l.613.613a.42.42,0,0,1,.095.121,1.706,1.706,0,0,1,.432,1.14,1.815,1.815,0,0,1-.2.812,1.754,1.754,0,0,0-.052,1.485l.13.311a1.766,1.766,0,0,0,1.088,1.019,1.8,1.8,0,0,1,1.235,1.7v.863a1.8,1.8,0,0,1-1.235,1.7A1.766,1.766,0,0,0,51.4,27.511l-.13.311a1.691,1.691,0,0,0-.138.682,1.744,1.744,0,0,0,.19.8,1.783,1.783,0,0,1-.328,2.072l-.613.613a1.786,1.786,0,0,1-1.26.527,1.815,1.815,0,0,1-.812-.2,1.754,1.754,0,0,0-1.485-.052l-.311.13a1.766,1.766,0,0,0-1.019,1.088,1.8,1.8,0,0,1-1.7,1.235h-.863a1.787,1.787,0,0,1-1.3-.553V29.247A5.182,5.182,0,1,0,38.18,24.36H33v-.432a1.8,1.8,0,0,1,1.235-1.7Z" transform="translate(-33 -14)" fill="#ffc729"/>
        </g>
        <g id="Grupo_1237032" data-name="Grupo 1237032" transform="translate(31.943 15.54)">
          <path id="Trazado_1237996" data-name="Trazado 1237996" d="M42.453,28.633A3.452,3.452,0,0,0,39,25.18a5.171,5.171,0,1,1,3.453,4.886Zm0-3.453a1.727,1.727,0,1,0,1.727-1.727A1.732,1.732,0,0,0,42.453,25.18Z" transform="translate(-39 -20)" fill="#fcd770"/>
        </g>
        <g id="Grupo_1237033" data-name="Grupo 1237033" transform="translate(0 44.893)">
          <path id="Trazado_1237997" data-name="Trazado 1237997" d="M38.26,54H3.727A1.739,1.739,0,0,0,2,55.727a5.184,5.184,0,0,0,5.18,5.18H34.807a5.188,5.188,0,0,0,5.18-5.18A1.732,1.732,0,0,0,38.26,54Z" transform="translate(-2 -54)" fill="#969faa"/>
        </g>
        <g id="Grupo_1237034" data-name="Grupo 1237034" transform="translate(13.813 44.893)">
          <path id="Trazado_1237998" data-name="Trazado 1237998" d="M28.36,54v1.727a1.732,1.732,0,0,1-1.727,1.727H19.727A1.732,1.732,0,0,1,18,55.727V54Z" transform="translate(-18 -54)" fill="#fcd770"/>
        </g>
        <g id="Grupo_1237035" data-name="Grupo 1237035" transform="translate(2.59 20.72)">
          <path id="Trazado_1237999" data-name="Trazado 1237999" d="M37.807,35.808V50.173H5V29.453A3.452,3.452,0,0,1,8.453,26h25.9a3.452,3.452,0,0,1,3.453,3.453v6.354Z" transform="translate(-5 -26)" fill="#ccd1d9"/>
        </g>
        <g id="Grupo_1237036" data-name="Grupo 1237036" transform="translate(6.043 24.173)">
          <path id="Trazado_1238000" data-name="Trazado 1238000" d="M34.9,30.863V46.4a.866.866,0,0,1-.863.863H9.863A.866.866,0,0,1,9,46.4V30.863A.866.866,0,0,1,9.863,30H34.037A.866.866,0,0,1,34.9,30.863Z" transform="translate(-9 -30)" fill="#69d6f4"/>
        </g>
        <g id="Grupo_1237037" data-name="Grupo 1237037" transform="translate(9.497 27.627)">
          <path id="Trazado_1238001" data-name="Trazado 1238001" d="M28.54,37.453a3.453,3.453,0,1,1,0,6.907H16.453a3.453,3.453,0,0,1,0-6.907,3.52,3.52,0,0,1,1.1.19,5.18,5.18,0,0,1,9.894,0A3.52,3.52,0,0,1,28.54,37.453Z" transform="translate(-13 -34)" fill="#e6e9ed"/>
        </g>
      </g>
      <g id="Grupo_1237039" data-name="Grupo 1237039" transform="translate(1 1)">
        <path id="Trazado_1238002" data-name="Trazado 1238002" d="M33.9,29H9.727A1.728,1.728,0,0,0,8,30.727v15.54a1.728,1.728,0,0,0,1.727,1.727H33.9a1.728,1.728,0,0,0,1.727-1.727V30.727A1.728,1.728,0,0,0,33.9,29ZM9.727,46.267V30.727H33.9v15.54Z" transform="translate(-1.957 -4.827)"/>
        <path id="Trazado_1238003" data-name="Trazado 1238003" d="M27.842,36.495a6.047,6.047,0,0,0-10.964,0,4.314,4.314,0,1,0-.561,8.592H28.4a4.314,4.314,0,1,0-.561-8.592ZM28.4,43.36H16.317a2.59,2.59,0,1,1,0-5.18,2.558,2.558,0,0,1,.819.148l.838.283.262-.845a4.318,4.318,0,0,1,8.248,0l.262.846.838-.282a2.537,2.537,0,0,1,.819-.149,2.59,2.59,0,1,1,0,5.18Z" transform="translate(-2.503 -5.373)"/>
        <path id="Trazado_1238004" data-name="Trazado 1238004" d="M54.527,1H42.44V7.907H33.807V1H21.72V7.907H13.087V1H1V16.54H13.087V9.633H21.72V16.54h8.271a2.647,2.647,0,0,0,.264,1.486.888.888,0,0,1,.033.755c-.048.111-.095.224-.139.337a.884.884,0,0,1-.559.515A2.65,2.65,0,0,0,27.8,21.72H7.907A4.322,4.322,0,0,0,3.59,26.037V45.893A2.593,2.593,0,0,0,1,48.484a6.05,6.05,0,0,0,6.043,6.043H34.67a6.05,6.05,0,0,0,6.043-6.043,2.593,2.593,0,0,0-2.59-2.59V33.762a2.6,2.6,0,0,0,.433.045h.86a2.65,2.65,0,0,0,2.522-1.827.885.885,0,0,1,.513-.558c.114-.044.227-.09.339-.139a.886.886,0,0,1,.754.033,2.648,2.648,0,0,0,3.074-.492l.609-.608a2.648,2.648,0,0,0,.492-3.074.888.888,0,0,1-.033-.755c.048-.111.095-.224.139-.337a.884.884,0,0,1,.559-.515,2.652,2.652,0,0,0,1.825-2.523v-.86a2.65,2.65,0,0,0-1.827-2.522.885.885,0,0,1-.558-.513c-.044-.114-.09-.227-.139-.339a.889.889,0,0,1,.033-.754,2.646,2.646,0,0,0,.264-1.486h6.543ZM11.36,14.813H2.727V2.727H11.36Zm31.08-5.18v4.1a.885.885,0,0,1-.5-.551,2.65,2.65,0,0,0-2.522-1.825h-.86a2.65,2.65,0,0,0-2.522,1.827.883.883,0,0,1-.515.558c-.113.044-.225.09-.338.139a.886.886,0,0,1-.754-.033,2.661,2.661,0,0,0-.622-.215v-4ZM23.447,2.727H32.08v11.1a2.631,2.631,0,0,0-.725.512l-.471.471H23.447Zm15.54,45.757A4.322,4.322,0,0,1,34.67,52.8H7.043a4.322,4.322,0,0,1-4.317-4.317.865.865,0,0,1,.863-.863H14.813v.863a2.593,2.593,0,0,0,2.59,2.59H24.31a2.593,2.593,0,0,0,2.59-2.59V47.62H38.123A.865.865,0,0,1,38.987,48.484ZM16.54,47.62h8.633v.863a.865.865,0,0,1-.863.863H17.4a.865.865,0,0,1-.863-.863ZM5.317,45.893V26.037a2.593,2.593,0,0,1,2.59-2.59h25.9a2.593,2.593,0,0,1,2.59,2.59V45.893ZM37.972,24.966A2.59,2.59,0,1,0,36.4,22.583c0,.009,0,.016,0,.024a4.287,4.287,0,0,0-1.653-.778A4.347,4.347,0,1,1,38.123,26.8v-.768A4.256,4.256,0,0,0,37.972,24.966Zm.151-2.383a.863.863,0,1,1,.863.863A.865.865,0,0,1,38.123,22.583Zm9.722-1.311a.926.926,0,0,1,.638.881v.86a.927.927,0,0,1-.639.881,2.6,2.6,0,0,0-1.628,1.53c-.036.092-.074.185-.113.275a2.607,2.607,0,0,0,.075,2.221.925.925,0,0,1-.172,1.074L45.4,29.6a.924.924,0,0,1-1.074.172A2.608,2.608,0,0,0,42.1,29.7q-.136.058-.277.114A2.607,2.607,0,0,0,40.3,31.442a.926.926,0,0,1-.881.638h-.86a.913.913,0,0,1-.433-.123v-3.4a6.119,6.119,0,0,0,.863.073,6.043,6.043,0,1,0-5.974-6.907h-3.4a.919.919,0,0,1,.519-.448,2.6,2.6,0,0,0,1.629-1.53c.036-.092.074-.185.113-.275a2.607,2.607,0,0,0-.075-2.221.926.926,0,0,1,.172-1.075l.608-.608a.924.924,0,0,1,1.075-.172,2.6,2.6,0,0,0,2.22.075c.092-.04.184-.078.276-.113a2.612,2.612,0,0,0,1.53-1.629.924.924,0,0,1,.881-.639h.86a.927.927,0,0,1,.881.639,2.607,2.607,0,0,0,1.529,1.628c.092.036.185.074.275.113a2.61,2.61,0,0,0,2.221-.075.926.926,0,0,1,1.075.172l.608.608a.926.926,0,0,1,.172,1.075,2.6,2.6,0,0,0-.075,2.22q.058.136.114.277a2.6,2.6,0,0,0,1.629,1.529ZM52.8,14.813H47.089l-.47-.47a2.641,2.641,0,0,0-2.452-.707V2.727H52.8V14.813Z" transform="translate(-1 -1)"/>
        <path id="Trazado_1238005" data-name="Trazado 1238005" d="M5,5h5.18V6.727H5Z" transform="translate(-1.547 -1.547)"/>
        <path id="Trazado_1238006" data-name="Trazado 1238006" d="M5,9h5.18v1.727H5Z" transform="translate(-1.547 -2.093)"/>
        <path id="Trazado_1238007" data-name="Trazado 1238007" d="M5,13h5.18v1.727H5Z" transform="translate(-1.547 -2.64)"/>
        <path id="Trazado_1238008" data-name="Trazado 1238008" d="M29,5h5.18V6.727H29Z" transform="translate(-4.827 -1.547)"/>
        <path id="Trazado_1238009" data-name="Trazado 1238009" d="M29,9h5.18v1.727H29Z" transform="translate(-4.827 -2.093)"/>
        <path id="Trazado_1238010" data-name="Trazado 1238010" d="M29,13h5.18v1.727H29Z" transform="translate(-4.827 -2.64)"/>
        <path id="Trazado_1238011" data-name="Trazado 1238011" d="M53,5h5.18V6.727H53Z" transform="translate(-8.107 -1.547)"/>
        <path id="Trazado_1238012" data-name="Trazado 1238012" d="M53,9h5.18v1.727H53Z" transform="translate(-8.107 -2.093)"/>
        <path id="Trazado_1238013" data-name="Trazado 1238013" d="M53,13h5.18v1.727H53Z" transform="translate(-8.107 -2.64)"/>
      </g>
    </g>
  </g>
</svg>
