<svg xmlns="http://www.w3.org/2000/svg" xmlns:xlink="http://www.w3.org/1999/xlink" width="113" height="113" viewBox="0 0 113 113">
  <defs>
    <filter id="Trazado_982547" x="0" y="0" width="113" height="113" filterUnits="userSpaceOnUse">
      <feOffset dy="3" input="SourceAlpha"/>
      <feGaussianBlur stdDeviation="3" result="blur"/>
      <feFlood flood-opacity="0.161"/>
      <feComposite operator="in" in2="blur"/>
      <feComposite in="SourceGraphic"/>
    </filter>
  </defs>
  <g id="Grupo_1236326" data-name="Grupo 1236326" transform="translate(-325.651 -1341.848)">
    <g id="Grupo_1235705" data-name="Grupo 1235705" transform="translate(0 26.047)">
      <g id="Grupo_1223803" data-name="Grupo 1223803" transform="translate(0 -108)">
        <g id="Grupo_1211531" data-name="Grupo 1211531" transform="translate(0 -678)">
          <g id="Grupo_1210969" data-name="Grupo 1210969" transform="translate(334.651 2107.801)">
            <g id="Grupo_1210937" data-name="Grupo 1210937" transform="translate(0 0)">
              <g id="Grupo_1174742" data-name="Grupo 1174742">
                <g id="Grupo_1163948" data-name="Grupo 1163948">
                  <g id="Grupo_1158168" data-name="Grupo 1158168" transform="translate(0)">
                    <g id="Grupo_1152576" data-name="Grupo 1152576">
                      <g id="Grupo_1148633" data-name="Grupo 1148633">
                        <g id="Grupo_1148525" data-name="Grupo 1148525">
                          <g transform="matrix(1, 0, 0, 1, -9, -6)" filter="url(#Trazado_982547)">
                            <g id="Trazado_982547-2" data-name="Trazado 982547" transform="translate(9 6)" fill="#fbe7b2">
                              <path d="M 47.5 93.5 C 41.28937149047852 93.5 35.26533508300781 92.28397369384766 29.59518623352051 89.88570404052734 C 24.11771965026855 87.56893157958984 19.19813346862793 84.25196075439453 14.97309303283691 80.02691650390625 C 10.74804019927979 75.80186462402344 7.431066513061523 70.88229370117188 5.114293098449707 65.40481567382812 C 2.716026782989502 59.73468017578125 1.5 53.71062850952148 1.5 47.5 C 1.5 41.28937149047852 2.716026782989502 35.26533508300781 5.114293098449707 29.59518623352051 C 7.431066513061523 24.11771965026855 10.74804019927979 19.19813346862793 14.97309303283691 14.97309303283691 C 19.19813346862793 10.74804019927979 24.11771965026855 7.431066513061523 29.59518623352051 5.114293098449707 C 35.26533508300781 2.716026782989502 41.28937149047852 1.5 47.5 1.5 C 53.71062850952148 1.5 59.73468017578125 2.716026782989502 65.40481567382812 5.114293098449707 C 70.88229370117188 7.431066513061523 75.80186462402344 10.74804019927979 80.02691650390625 14.97309303283691 C 84.25196075439453 19.19813346862793 87.56893157958984 24.11771965026855 89.88570404052734 29.59518623352051 C 92.28397369384766 35.26533508300781 93.5 41.28937149047852 93.5 47.5 C 93.5 53.71062850952148 92.28397369384766 59.73468017578125 89.88570404052734 65.40481567382812 C 87.56893157958984 70.88229370117188 84.25196075439453 75.80186462402344 80.02691650390625 80.02691650390625 C 75.80186462402344 84.25196075439453 70.88229370117188 87.56893157958984 65.40481567382812 89.88570404052734 C 59.73468017578125 92.28397369384766 53.71062850952148 93.5 47.5 93.5 Z" stroke="none"/>
                              <path d="M 47.5 3 C 41.49121475219727 3 35.66376876831055 4.176155090332031 30.17950439453125 6.495796203613281 C 24.88084411621094 8.736953735351562 20.12152099609375 11.94598388671875 16.03375244140625 16.03375244140625 C 11.94598388671875 20.12152099609375 8.736953735351562 24.88084411621094 6.495796203613281 30.17950439453125 C 4.176155090332031 35.66376876831055 3 41.49121475219727 3 47.5 C 3 53.50878524780273 4.176155090332031 59.33623123168945 6.495796203613281 64.82049560546875 C 8.736953735351562 70.11915588378906 11.94598388671875 74.87847900390625 16.03375244140625 78.96624755859375 C 20.12152099609375 83.05401611328125 24.88084411621094 86.26304626464844 30.17950439453125 88.50419616699219 C 35.66376876831055 90.82384490966797 41.49121475219727 92 47.5 92 C 53.50878524780273 92 59.33623123168945 90.82384490966797 64.82049560546875 88.50419616699219 C 70.11915588378906 86.26304626464844 74.87847900390625 83.05401611328125 78.96624755859375 78.96624755859375 C 83.05401611328125 74.87847900390625 86.26304626464844 70.11915588378906 88.50419616699219 64.82049560546875 C 90.82384490966797 59.33623123168945 92 53.50878524780273 92 47.5 C 92 41.49121475219727 90.82384490966797 35.66376876831055 88.50419616699219 30.17950439453125 C 86.26304626464844 24.88084411621094 83.05401611328125 20.12152099609375 78.96624755859375 16.03375244140625 C 74.87847900390625 11.94598388671875 70.11915588378906 8.736953735351562 64.82049560546875 6.495796203613281 C 59.33623123168945 4.176155090332031 53.50878524780273 3 47.5 3 M 47.5 0 C 73.7335205078125 0 95 21.2664794921875 95 47.5 C 95 73.7335205078125 73.7335205078125 95 47.5 95 C 21.2664794921875 95 0 73.7335205078125 0 47.5 C 0 21.2664794921875 21.2664794921875 0 47.5 0 Z" stroke="none" fill="#f5b104"/>
                            </g>
                          </g>
                        </g>
                      </g>
                    </g>
                  </g>
                </g>
              </g>
            </g>
          </g>
        </g>
      </g>
    </g>
    <g id="servicio-al-cliente_1_" data-name="servicio-al-cliente (1)" transform="translate(351.683 1364.88)">
      <circle id="Elipse_12765" data-name="Elipse 12765" cx="12.939" cy="12.939" r="12.939" transform="translate(17.529 17.529)" fill="#f2fbff"/>
      <circle id="Elipse_12766" data-name="Elipse 12766" cx="12.939" cy="12.939" r="12.939" transform="translate(0.893 0.893)" fill="#01c0fa"/>
      <path id="Trazado_1236891" data-name="Trazado 1236891" d="M101.681,7.5a13.047,13.047,0,0,0-1.964.148,12.941,12.941,0,0,1,0,25.582A12.94,12.94,0,1,0,101.681,7.5Z" transform="translate(-87.849 -6.607)" fill="#08a9f1"/>
      <circle id="Elipse_12767" data-name="Elipse 12767" cx="12.939" cy="12.939" r="12.939" transform="translate(34.165 0.893)" fill="#05e39c"/>
      <path id="Trazado_1236892" data-name="Trazado 1236892" d="M381.243,7.5a13.047,13.047,0,0,0-1.964.148,12.941,12.941,0,0,1,0,25.582A12.94,12.94,0,1,0,381.243,7.5Z" transform="translate(-334.139 -6.607)" fill="#0ed290"/>
      <path id="Trazado_1236893" data-name="Trazado 1236893" d="M345.468,54.094h-8.837a2.975,2.975,0,0,0-2.975,2.975v5.14a2.975,2.975,0,0,0,2.975,2.975h4.418l2.173,2.173a.893.893,0,0,0,1.524-.631V65.185h.721a2.975,2.975,0,0,0,2.975-2.975v-5.14A2.975,2.975,0,0,0,345.468,54.094Z" transform="translate(-293.945 -47.656)" fill="#f2fbff"/>
      <circle id="Elipse_12768" data-name="Elipse 12768" cx="12.939" cy="12.939" r="12.939" transform="translate(34.165 34.165)" fill="#01c0fa"/>
      <path id="Trazado_1236894" data-name="Trazado 1236894" d="M339.557,290.581a12.944,12.944,0,0,1-11.316,22.661,12.941,12.941,0,1,0,11.316-22.661Z" transform="translate(-289.175 -255.997)" fill="#08a9f1"/>
      <path id="Trazado_1236895" data-name="Trazado 1236895" d="M347.254,334.287a3.838,3.838,0,0,0-.439-.413.984.984,0,0,0-1.314.07l-3.212,3.212a.982.982,0,0,0-.1,1.28,3.3,3.3,0,0,0,1.254,1.018.843.843,0,0,1,.423,1.107,6.925,6.925,0,0,1-3.306,3.306.843.843,0,0,1-1.107-.423,3.266,3.266,0,0,0-.659-.943,3.3,3.3,0,0,0-.359-.311.981.981,0,0,0-1.28.1l-3.212,3.212a.984.984,0,0,0-.07,1.314,3.824,3.824,0,0,0,.413.44c2.428,2.235,7.164,1.24,10.685-2.281S349.489,336.716,347.254,334.287Z" transform="translate(-293.947 -293.945)" fill="#05e39c"/>
      <circle id="Elipse_12769" data-name="Elipse 12769" cx="12.939" cy="12.939" r="12.939" transform="translate(0.893 34.165)" fill="#05e39c"/>
      <path id="Trazado_1236896" data-name="Trazado 1236896" d="M60,290.581a12.944,12.944,0,0,1-11.316,22.661A12.941,12.941,0,1,0,60,290.581Z" transform="translate(-42.885 -255.997)" fill="#0ed290"/>
      <circle id="Elipse_12770" data-name="Elipse 12770" cx="7.394" cy="7.394" r="7.394" transform="translate(6.438 39.71)" fill="#01c0fa"/>
      <g id="Grupo_1236325" data-name="Grupo 1236325" transform="translate(6.438 8.286)">
        <path id="Trazado_1236897" data-name="Trazado 1236897" d="M189.807,236.013H187.9a1.785,1.785,0,0,1-1.785-1.785v-1.975a1.785,1.785,0,0,1,1.785-1.785h1.912Z" transform="translate(-170.398 -211.325)" fill="#ffc344"/>
        <path id="Trazado_1236898" data-name="Trazado 1236898" d="M294.828,236.013h1.912a1.785,1.785,0,0,0,1.785-1.785v-1.975a1.785,1.785,0,0,0-1.785-1.785h-1.912Z" transform="translate(-266.177 -211.325)" fill="#ffc344"/>
        <path id="Trazado_1236899" data-name="Trazado 1236899" d="M67.989,80.716h-13a.893.893,0,0,1-.893-.893V70.518a.893.893,0,0,1,.893-.893h13a.893.893,0,0,1,.893.893v9.306A.893.893,0,0,1,67.989,80.716Z" transform="translate(-54.094 -69.625)" fill="#ffc344"/>
      </g>
      <path id="Trazado_1236900" data-name="Trazado 1236900" d="M47.1,33.272a13.824,13.824,0,0,0-3.17.366,13.947,13.947,0,0,0,0-6.342,13.869,13.869,0,0,0,9.342-1.084.893.893,0,1,0-.8-1.6A11.923,11.923,0,0,1,47.1,25.878a12.046,12.046,0,1,1,8.537-3.546.893.893,0,1,0,1.265,1.26A13.829,13.829,0,1,0,33.639,17,13.949,13.949,0,0,0,27.3,17a13.921,13.921,0,0,0,.085-5.956.893.893,0,1,0-1.749.358,12.047,12.047,0,1,1-1.367-3.595.893.893,0,0,0,1.545-.894A13.829,13.829,0,1,0,17,27.3a13.949,13.949,0,0,0,0,6.341,13.824,13.824,0,1,0,10.3,10.3,13.949,13.949,0,0,0,6.341,0A13.833,13.833,0,1,0,47.1,33.272ZM13.832,59.151A12.047,12.047,0,1,1,25.879,47.1,12.06,12.06,0,0,1,13.832,59.151ZM30.468,42.515a12.021,12.021,0,0,1-3.822-.619A13.911,13.911,0,0,0,19.04,34.29a12.117,12.117,0,0,1,0-7.644,13.912,13.912,0,0,0,7.606-7.606,12.115,12.115,0,0,1,7.644,0A13.911,13.911,0,0,0,41.9,26.646a12.113,12.113,0,0,1,0,7.644A13.911,13.911,0,0,0,34.29,41.9a12.012,12.012,0,0,1-3.822.619ZM47.1,59.151A12.047,12.047,0,1,1,59.151,47.1,12.06,12.06,0,0,1,47.1,59.151Z"/>
      <path id="Trazado_1236901" data-name="Trazado 1236901" d="M61.428,330.9a.893.893,0,0,0-.5,1.158,6.435,6.435,0,0,1,.389,1.489H59.438a12.468,12.468,0,0,0-1.087-4.6q.173.11.34.231a.893.893,0,0,0,1.049-1.444A8.287,8.287,0,0,0,46.587,334.4c0,.014,0,.029,0,.043s0,.029,0,.043a8.287,8.287,0,1,0,16-3.079A.892.892,0,0,0,61.428,330.9Zm-7.447-2.566v5.213H52.1C52.258,331.081,53.069,329.138,53.981,328.338Zm0,7v5.213c-.912-.8-1.722-2.743-1.883-5.213Zm1.785,5.213v-5.213h1.883C57.488,337.806,56.678,339.749,55.766,340.549Zm0-7v-5.213c.912.8,1.722,2.743,1.883,5.213Zm-4.373-4.6a12.474,12.474,0,0,0-1.084,4.6H48.433A6.513,6.513,0,0,1,51.393,328.954Zm-2.96,6.382h1.876a12.473,12.473,0,0,0,1.084,4.6A6.512,6.512,0,0,1,48.433,335.336Zm9.92,4.6a12.474,12.474,0,0,0,1.084-4.6h1.876A6.513,6.513,0,0,1,58.353,339.933Z" transform="translate(-41.041 -287.339)"/>
      <path id="Trazado_1236902" data-name="Trazado 1236902" d="M197.031,195.382v-1.975a2.681,2.681,0,0,0-2.678-2.678h-1.142a5.515,5.515,0,0,0-10.783,0h-1.142a2.681,2.681,0,0,0-2.678,2.678v1.975a2.681,2.681,0,0,0,2.678,2.678h1.019v1.019a2.681,2.681,0,0,0,2.678,2.678H186.9a.893.893,0,1,0,0-1.785h-1.912a.894.894,0,0,1-.893-.893v-7.191a3.729,3.729,0,1,1,7.457,0v6.47a.893.893,0,0,0,1.785,0v-.3h1.019A2.681,2.681,0,0,0,197.031,195.382Zm-15.744.893a.894.894,0,0,1-.893-.893v-1.975a.894.894,0,0,1,.893-.893h1.019v3.76Zm12.047-3.76h1.019a.894.894,0,0,1,.893.893v1.975a.894.894,0,0,1-.893.893h-1.019Z" transform="translate(-157.352 -164.193)"/>
      <path id="Trazado_1236903" data-name="Trazado 1236903" d="M340.758,326.563a1.873,1.873,0,0,0-2.506.133l-3.212,3.212a1.883,1.883,0,0,0-.181,2.445,4.208,4.208,0,0,0,.395.456,4.155,4.155,0,0,0,1.16.819,6.059,6.059,0,0,1-2.785,2.785,4.156,4.156,0,0,0-.819-1.16,4.214,4.214,0,0,0-.456-.395,1.884,1.884,0,0,0-2.445.181l-3.212,3.212a1.873,1.873,0,0,0-.134,2.506,4.716,4.716,0,0,0,.5.536,5.725,5.725,0,0,0,3.963,1.428,11.772,11.772,0,0,0,7.957-3.734c3.875-3.876,4.889-9.109,2.309-11.917a4.726,4.726,0,0,0-.538-.506Zm-3.033,11.161c-3.144,3.145-7.383,4.156-9.456,2.249a2.927,2.927,0,0,1-.317-.338.091.091,0,0,1,.007-.122l3.212-3.212a.1.1,0,0,1,.067-.028.08.08,0,0,1,.048.015,2.419,2.419,0,0,1,.261.227,2.375,2.375,0,0,1,.479.686,1.741,1.741,0,0,0,2.283.863,7.814,7.814,0,0,0,3.756-3.756,1.741,1.741,0,0,0-.863-2.283,2.374,2.374,0,0,1-.686-.479,2.4,2.4,0,0,1-.227-.262.09.09,0,0,1,.013-.114l3.212-3.212a.091.091,0,0,1,.122-.007,2.939,2.939,0,0,1,.337.317l.006.007C341.881,330.341,340.869,334.58,337.725,337.725Z" transform="translate(-287.329 -287.329)"/>
      <path id="Trazado_1236904" data-name="Trazado 1236904" d="M61.382,62.125h-13a1.787,1.787,0,0,0-1.785,1.785v9.306A1.787,1.787,0,0,0,48.379,75h13a1.787,1.787,0,0,0,1.785-1.785V63.91a1.787,1.787,0,0,0-1.785-1.785Zm-13,3.048,3.39,3.39-3.39,3.39ZM55.83,68.2a1.345,1.345,0,0,1-1.9,0L49.642,63.91H60.119Zm-2.768,1.6a3.136,3.136,0,0,0,3.637,0l3.42,3.42H49.642Zm8.321,2.159-3.391-3.391,3.39-3.391Z" transform="translate(-41.049 -54.731)"/>
      <path id="Trazado_1236905" data-name="Trazado 1236905" d="M338.861,46.594h-8.837a3.872,3.872,0,0,0-3.868,3.868V55.6a3.872,3.872,0,0,0,3.868,3.868h4.049l1.912,1.912a1.785,1.785,0,0,0,3.048-1.262v-.653a3.873,3.873,0,0,0,3.7-3.864v-5.14a3.873,3.873,0,0,0-3.868-3.868Zm2.083,9.008a2.085,2.085,0,0,1-2.083,2.083h-.721a.892.892,0,0,0-.893.893v1.541l-2.172-2.173a.893.893,0,0,0-.631-.261h-4.418a2.085,2.085,0,0,1-2.083-2.083v-5.14a2.085,2.085,0,0,1,2.083-2.083h8.837a2.085,2.085,0,0,1,2.083,2.083Z" transform="translate(-287.338 -41.049)"/>
      <circle id="Elipse_12771" data-name="Elipse 12771" cx="0.893" cy="0.893" r="0.893" transform="translate(46.212 11.091)"/>
      <circle id="Elipse_12772" data-name="Elipse 12772" cx="0.893" cy="0.893" r="0.893" transform="translate(42.515 11.091)"/>
      <circle id="Elipse_12773" data-name="Elipse 12773" cx="0.893" cy="0.893" r="0.893" transform="translate(49.909 11.091)"/>
    </g>
  </g>
</svg>
