<svg xmlns="http://www.w3.org/2000/svg" xmlns:xlink="http://www.w3.org/1999/xlink" width="1211.818" height="377.991" viewBox="0 0 1211.818 377.991">
  <defs>
    <clipPath id="clip-path">
      <rect id="Rectángulo_422469" data-name="Rectángulo 422469" width="283.761" height="377.991" transform="translate(600 6899)" fill="#fff" stroke="#707070" stroke-width="1"/>
    </clipPath>
    <filter id="XMLID_480_" x="80.345" y="204.835" width="68.895" height="71.796" filterUnits="userSpaceOnUse">
      <feOffset dy="3" input="SourceAlpha"/>
      <feGaussianBlur stdDeviation="3" result="blur"/>
      <feFlood flood-opacity="0.161"/>
      <feComposite operator="in" in2="blur"/>
      <feComposite in="SourceGraphic"/>
    </filter>
    <filter id="XMLID_175_" x="298.519" y="181.1" width="55.968" height="91.08" filterUnits="userSpaceOnUse">
      <feOffset dy="3" input="SourceAlpha"/>
      <feGaussianBlur stdDeviation="3" result="blur-2"/>
      <feFlood flood-opacity="0.161"/>
      <feComposite operator="in" in2="blur-2"/>
      <feComposite in="SourceGraphic"/>
    </filter>
    <filter id="Trazado_1236872" x="710.469" y="227.639" width="31.349" height="35.766" filterUnits="userSpaceOnUse">
      <feOffset dy="3" input="SourceAlpha"/>
      <feGaussianBlur stdDeviation="3" result="blur-3"/>
      <feFlood flood-opacity="0.161"/>
      <feComposite operator="in" in2="blur-3"/>
      <feComposite in="SourceGraphic"/>
    </filter>
    <filter id="Trazado_1236873" x="723.414" y="227.153" width="26.87" height="36.253" filterUnits="userSpaceOnUse">
      <feOffset dy="3" input="SourceAlpha"/>
      <feGaussianBlur stdDeviation="3" result="blur-4"/>
      <feFlood flood-opacity="0.161"/>
      <feComposite operator="in" in2="blur-4"/>
      <feComposite in="SourceGraphic"/>
    </filter>
    <filter id="Trazado_1236874" x="732.661" y="227.975" width="29.869" height="35.423" filterUnits="userSpaceOnUse">
      <feOffset dy="3" input="SourceAlpha"/>
      <feGaussianBlur stdDeviation="3" result="blur-5"/>
      <feFlood flood-opacity="0.161"/>
      <feComposite operator="in" in2="blur-5"/>
      <feComposite in="SourceGraphic"/>
    </filter>
    <filter id="Trazado_1236875" x="699.825" y="227.632" width="29.586" height="35.775" filterUnits="userSpaceOnUse">
      <feOffset dy="3" input="SourceAlpha"/>
      <feGaussianBlur stdDeviation="3" result="blur-6"/>
      <feFlood flood-opacity="0.161"/>
      <feComposite operator="in" in2="blur-6"/>
      <feComposite in="SourceGraphic"/>
    </filter>
    <filter id="Trazado_1236876" x="658.555" y="183.943" width="54.694" height="88.676" filterUnits="userSpaceOnUse">
      <feOffset dy="3" input="SourceAlpha"/>
      <feGaussianBlur stdDeviation="3" result="blur-7"/>
      <feFlood flood-opacity="0.161"/>
      <feComposite operator="in" in2="blur-7"/>
      <feComposite in="SourceGraphic"/>
    </filter>
    <filter id="Trazado_1236879" x="874.212" y="191.159" width="81.438" height="81.46" filterUnits="userSpaceOnUse">
      <feOffset dy="3" input="SourceAlpha"/>
      <feGaussianBlur stdDeviation="3" result="blur-8"/>
      <feFlood flood-opacity="0.161"/>
      <feComposite operator="in" in2="blur-8"/>
      <feComposite in="SourceGraphic"/>
    </filter>
    <filter id="Trazado_1236880" x="1077.039" y="204.263" width="59.893" height="75.969" filterUnits="userSpaceOnUse">
      <feOffset dy="3" input="SourceAlpha"/>
      <feGaussianBlur stdDeviation="3" result="blur-9"/>
      <feFlood flood-opacity="0.161"/>
      <feComposite operator="in" in2="blur-9"/>
      <feComposite in="SourceGraphic"/>
    </filter>
  </defs>
  <g id="Grupo_1236320" data-name="Grupo 1236320" transform="translate(-194.091 -2050.839)">
    <g id="Grupo_1228399" data-name="Grupo 1228399" transform="translate(-1.082 192.644)">
      <g id="Grupo_1219567" data-name="Grupo 1219567" transform="translate(-2591.001 -262.042)">
        <path id="Trazado_1092052" data-name="Trazado 1092052" d="M266.068,96.131,155.883,176.5c-3.766,2.747-5.882,6.473-5.882,10.36V412.712H401.076V186.856c0-3.885-2.116-7.611-5.882-10.36L285.009,96.131C279.773,92.317,271.3,92.317,266.068,96.131Z" transform="translate(3031.852 2040)" fill="#268985"/>
        <path id="Trazado_1092054" data-name="Trazado 1092054" d="M193.794,120.638,85.768,201C82.075,203.75,80,207.476,80,211.363V377.381H326.156V211.363c0-3.885-2.074-7.611-5.766-10.36L212.363,120.638A16.5,16.5,0,0,0,193.794,120.638Z" transform="translate(2903.886 2075.331)" fill="#f5b104"/>
        <path id="Trazado_1092055" data-name="Trazado 1092055" d="M112.143,144.519,15.177,224.884A13.508,13.508,0,0,0,10,235.244V342.955H230.953V235.242a13.516,13.516,0,0,0-5.176-10.36l-96.965-80.365A13.568,13.568,0,0,0,112.143,144.519Z" transform="translate(2776.173 2109.756)" fill="#6c4dd8"/>
        <g id="Grupo_1219555" data-name="Grupo 1219555" transform="translate(2871.579 2426.439)">
          <circle id="Elipse_12054" data-name="Elipse 12054" cx="22.873" cy="22.873" r="22.873" transform="translate(2.197 2.198)" fill="#6c4dd8"/>
          <path id="Trazado_1092075" data-name="Trazado 1092075" d="M62.3,217.735a20.676,20.676,0,1,1-20.676,20.676A20.675,20.675,0,0,1,62.3,217.735m0-4.395a25.071,25.071,0,1,0,25.071,25.071A25.1,25.1,0,0,0,62.3,213.34Z" transform="translate(-37.232 -213.34)" fill="#fff"/>
        </g>
        <g id="Grupo_1219556" data-name="Grupo 1219556" transform="translate(3077.078 2421.63)">
          <circle id="Elipse_12055" data-name="Elipse 12055" cx="22.873" cy="22.873" r="22.873" transform="translate(0 17.507) rotate(-22.5)" fill="#f5b104"/>
          <path id="Trazado_1092076" data-name="Trazado 1092076" d="M134.72,217.735a20.676,20.676,0,1,1-20.676,20.676,20.675,20.675,0,0,1,20.676-20.676m0-4.395a25.071,25.071,0,1,0,25.071,25.071A25.1,25.1,0,0,0,134.72,213.34Z" transform="translate(-104.848 -208.531)" fill="#fff"/>
        </g>
        <g id="Grupo_1219560" data-name="Grupo 1219560" transform="translate(2892.836 2443.189)">
          <path id="Trazado_1092080" data-name="Trazado 1092080" d="M49.8,223.657h-.051l-3.174,1.509-.64-2.918,4.4-2.049h3.225v16.645H49.8Z" transform="translate(-45.938 -220.2)" fill="#fff"/>
        </g>
        <g id="Grupo_1219561" data-name="Grupo 1219561" transform="translate(3101.048 2443.05)">
          <path id="Trazado_1092081" data-name="Trazado 1092081" d="M117.5,237.066V234.71l2.151-1.946c3.636-3.252,5.4-5.123,5.455-7.066,0-1.358-.82-2.432-2.74-2.432a6.034,6.034,0,0,0-3.56,1.384l-1.1-2.791a9.217,9.217,0,0,1,5.455-1.716c3.763,0,5.838,2.2,5.838,5.225,0,2.791-2.022,5.018-4.429,7.169l-1.536,1.279v.051h6.273v3.2H117.5Z" transform="translate(-117.5 -220.143)" fill="#fff"/>
        </g>
        <path id="Trazado_1092085" data-name="Trazado 1092085" d="M258.62,95.6,155.505,160.906c-3.524,2.232-5.5,5.26-5.5,8.419V352.874H384.965V169.325c0-3.157-1.98-6.185-5.5-8.419L276.346,95.6C271.446,92.5,263.513,92.5,258.62,95.6Z" transform="translate(3233.485 2099.838)" fill="#00dcfd"/>
        <g id="Grupo_1219565" data-name="Grupo 1219565" transform="translate(3473.306 2426.439)">
          <circle id="Elipse_12056" data-name="Elipse 12056" cx="22.873" cy="22.873" r="22.873" transform="translate(2.198 2.198)" fill="#00dcfd"/>
          <path id="Trazado_1092077" data-name="Trazado 1092077" d="M202.3,217.735a20.676,20.676,0,1,1-20.676,20.676A20.675,20.675,0,0,1,202.3,217.735m0-4.395a25.071,25.071,0,1,0,25.071,25.071A25.1,25.1,0,0,0,202.3,213.34Z" transform="translate(-177.232 -213.34)" fill="#fff"/>
        </g>
        <g id="Grupo_1219566" data-name="Grupo 1219566" transform="translate(3492.5 2442.908)">
          <path id="Trazado_1092082" data-name="Trazado 1092082" d="M185.887,233.194a9.16,9.16,0,0,0,3.865,1.026c2.024,0,3.047-.974,3.047-2.227,0-1.638-1.638-2.381-3.355-2.381h-1.587v-2.793h1.511c1.306-.024,2.971-.513,2.971-1.919,0-1-.82-1.741-2.459-1.741a7.586,7.586,0,0,0-3.482,1l-.794-2.818a10.437,10.437,0,0,1,5.147-1.255c3.56,0,5.53,1.87,5.53,4.148a3.99,3.99,0,0,1-3.047,3.868v.051a4.136,4.136,0,0,1,3.611,4.046c0,2.945-2.586,5.1-6.812,5.1a9.847,9.847,0,0,1-4.942-1.177Z" transform="translate(-185.093 -220.085)" fill="#fff"/>
        </g>
        <path id="Trazado_1092053" data-name="Trazado 1092053" d="M309.049,120l-84.535,62.315A10.116,10.116,0,0,0,220,190.344V319.076H412.628V190.344a10.121,10.121,0,0,0-4.513-8.033L323.581,120A13.01,13.01,0,0,0,309.049,120Z" transform="translate(3383.959 2133.635)" fill="#e761e1"/>
        <g id="Grupo_1219558" data-name="Grupo 1219558" transform="translate(3675.203 2426.439)">
          <circle id="Elipse_12057" data-name="Elipse 12057" cx="22.873" cy="22.873" r="22.873" transform="translate(2.198 2.198)" fill="#e761e1"/>
          <path id="Trazado_1092078" data-name="Trazado 1092078" d="M272.3,217.735a20.676,20.676,0,1,1-20.676,20.676A20.675,20.675,0,0,1,272.3,217.735m0-4.395a25.071,25.071,0,1,0,25.071,25.071A25.1,25.1,0,0,0,272.3,213.34Z" transform="translate(-247.232 -213.34)" fill="#fff"/>
        </g>
        <path id="Trazado_1235089" data-name="Trazado 1235089" d="M321.717,119.761l-96.562,55.716c-3.3,1.9-5.155,4.488-5.155,7.182v115.1H440.033v-115.1c0-2.693-1.854-5.276-5.155-7.182l-96.562-55.716C333.728,117.116,326.3,117.116,321.717,119.761Z" transform="translate(3557.959 2154.954)" fill="#3b2a76"/>
        <g id="Grupo_1234460" data-name="Grupo 1234460" transform="translate(3862.905 2426.439)">
          <circle id="Elipse_12056-2" data-name="Elipse 12056" cx="22.873" cy="22.873" r="22.873" transform="translate(2.198 2.198)" fill="#3b2a76"/>
          <path id="Trazado_1092077-2" data-name="Trazado 1092077" d="M202.3,217.735a20.676,20.676,0,1,1-20.676,20.676A20.675,20.675,0,0,1,202.3,217.735m0-4.395a25.071,25.071,0,1,0,25.071,25.071A25.1,25.1,0,0,0,202.3,213.34Z" transform="translate(-177.232 -213.34)" fill="#fff"/>
        </g>
        <g id="Grupo_1234461" data-name="Grupo 1234461" transform="translate(3882.099 2442.909)">
          <path id="Trazado_1092082-2" data-name="Trazado 1092082" d="M185.887,233.194a9.16,9.16,0,0,0,3.865,1.026c2.024,0,3.047-.974,3.047-2.227,0-1.638-1.638-2.381-3.355-2.381h-1.587v-2.793h1.511c1.306-.024,2.971-.513,2.971-1.919,0-1-.82-1.741-2.459-1.741a7.586,7.586,0,0,0-3.482,1l-.794-2.818a10.437,10.437,0,0,1,5.147-1.255c3.56,0,5.53,1.87,5.53,4.148a3.99,3.99,0,0,1-3.047,3.868v.051a4.136,4.136,0,0,1,3.611,4.046c0,2.945-2.586,5.1-6.812,5.1a9.847,9.847,0,0,1-4.942-1.177Z" transform="translate(-185.093 -220.085)" fill="#fff"/>
        </g>
      </g>
      <path id="Trazado_1238668" data-name="Trazado 1238668" d="M68.552,17H65.8l-.8-2.492H61.021L60.232,17H57.5L61.576,5.8h2.992Zm-4.125-4.43L63.224,8.8A4.907,4.907,0,0,1,63.037,7.8h-.062a4.273,4.273,0,0,1-.2.977l-1.219,3.8ZM77.312,17H74.851V15.781h-.039A2.792,2.792,0,0,1,72.366,17.2q-2.781,0-2.781-3.367V9h2.461v4.609q0,1.7,1.344,1.7a1.329,1.329,0,0,0,1.063-.465,1.874,1.874,0,0,0,.4-1.262V9h2.461Zm6.916-.094a3.649,3.649,0,0,1-1.648.289q-2.609,0-2.609-2.711V10.82h-1.3V9h1.3V7.273l2.461-.7V9h1.8v1.82h-1.8v3.234q0,1.25.992,1.25a1.673,1.673,0,0,0,.8-.227Zm5.142.289a4.3,4.3,0,0,1-3.145-1.121,4.064,4.064,0,0,1-1.145-3.043,4.065,4.065,0,0,1,1.188-3.105A4.487,4.487,0,0,1,89.479,8.8,4.249,4.249,0,0,1,92.6,9.926a3.985,3.985,0,0,1,1.133,2.965,4.23,4.23,0,0,1-1.168,3.148A4.348,4.348,0,0,1,89.369,17.2Zm.063-6.5a1.647,1.647,0,0,0-1.359.6,2.653,2.653,0,0,0-.484,1.7q0,2.3,1.859,2.3,1.773,0,1.773-2.367Q91.221,10.7,89.432,10.7ZM103.066,17h-2.461V12.555q0-1.859-1.328-1.859a1.318,1.318,0,0,0-1.055.492,1.875,1.875,0,0,0-.414,1.25V17H95.34V9h2.469v1.266h.031A2.829,2.829,0,0,1,100.41,8.8q2.656,0,2.656,3.3Zm5.767.2a4.3,4.3,0,0,1-3.145-1.121,4.064,4.064,0,0,1-1.145-3.043,4.065,4.065,0,0,1,1.188-3.105A4.487,4.487,0,0,1,108.943,8.8a4.249,4.249,0,0,1,3.125,1.121,3.985,3.985,0,0,1,1.133,2.965,4.23,4.23,0,0,1-1.168,3.148A4.348,4.348,0,0,1,108.834,17.2Zm.063-6.5a1.647,1.647,0,0,0-1.359.6,2.653,2.653,0,0,0-.484,1.7q0,2.3,1.859,2.3,1.773,0,1.773-2.367Q110.685,10.7,108.9,10.7ZM127.507,17h-2.461V12.438q0-1.742-1.281-1.742a1.177,1.177,0,0,0-.992.523,2.151,2.151,0,0,0-.383,1.3V17h-2.469V12.391q0-1.7-1.258-1.7a1.206,1.206,0,0,0-1.012.5,2.2,2.2,0,0,0-.379,1.359V17H114.8V9h2.469v1.25h.031A3.031,3.031,0,0,1,119.89,8.8a2.3,2.3,0,0,1,2.32,1.492A2.959,2.959,0,0,1,124.9,8.8q2.609,0,2.609,3.219Zm4.423,0h-2.469V9h2.469ZM133.2,5.211l-2.445,2.523h-1.781l2.031-2.523ZM140.667,17h-2.336V15.852H138.3a2.607,2.607,0,0,1-2.383,1.344,2.492,2.492,0,0,1-1.832-.66,2.366,2.366,0,0,1-.668-1.762q0-2.328,2.758-2.687l2.172-.289q0-1.312-1.422-1.312a4.853,4.853,0,0,0-2.719.852V9.477a6.116,6.116,0,0,1,1.41-.469,7.413,7.413,0,0,1,1.629-.2q3.422,0,3.422,3.414Zm-2.32-3.25v-.539l-1.453.188q-1.2.156-1.2,1.086a.9.9,0,0,0,.293.691,1.126,1.126,0,0,0,.793.27,1.462,1.462,0,0,0,1.133-.48A1.735,1.735,0,0,0,138.346,13.75Z" transform="translate(205 2129.232)" fill="#fff"/>
      <path id="Trazado_1238669" data-name="Trazado 1238669" d="M74.043,17V5.8h3.969q5.969,0,5.969,5.461a5.522,5.522,0,0,1-1.629,4.18A6.007,6.007,0,0,1,78.012,17Zm2.523-9.148v7.1h1.25a3.378,3.378,0,0,0,2.574-.984,3.735,3.735,0,0,0,.934-2.68A3.388,3.388,0,0,0,80.4,8.77a3.529,3.529,0,0,0-2.6-.918ZM92.787,13.7H87.568q.125,1.742,2.2,1.742a4.286,4.286,0,0,0,2.32-.625V16.6A6.1,6.1,0,0,1,89.2,17.2a4.058,4.058,0,0,1-3.008-1.074,4.058,4.058,0,0,1-1.07-3,4.281,4.281,0,0,1,1.156-3.156A3.852,3.852,0,0,1,89.123,8.8,3.5,3.5,0,0,1,91.83,9.844a4,4,0,0,1,.957,2.82ZM90.5,12.188q0-1.719-1.391-1.719a1.328,1.328,0,0,0-1.027.492,2.234,2.234,0,0,0-.527,1.227Zm8.978-.961a2.141,2.141,0,0,0-1.039-.242,1.5,1.5,0,0,0-1.258.59,2.573,2.573,0,0,0-.453,1.605V17H94.257V9h2.469v1.484h.031a2.136,2.136,0,0,1,2.109-1.625,1.59,1.59,0,0,1,.609.094Zm2.463-3.492a1.442,1.442,0,0,1-1.023-.371,1.2,1.2,0,0,1-.4-.91,1.153,1.153,0,0,1,.4-.906,1.671,1.671,0,0,1,2.051,0,1.158,1.158,0,0,1,.395.906,1.191,1.191,0,0,1-.395.922A1.466,1.466,0,0,1,101.938,7.734ZM103.157,17h-2.469V9h2.469Zm9.7-8-2.977,8h-2.812l-2.836-8h2.641l1.391,4.93a7.2,7.2,0,0,1,.273,1.422h.031a8.069,8.069,0,0,1,.289-1.375L110.276,9Zm7.47,8h-2.336V15.852h-.031a2.607,2.607,0,0,1-2.383,1.344,2.492,2.492,0,0,1-1.832-.66,2.366,2.366,0,0,1-.668-1.762q0-2.328,2.758-2.687L118,11.8q0-1.312-1.422-1.312a4.853,4.853,0,0,0-2.719.852V9.477a6.116,6.116,0,0,1,1.41-.469,7.413,7.413,0,0,1,1.629-.2q3.422,0,3.422,3.414ZM118,13.75v-.539l-1.453.188q-1.2.156-1.2,1.086a.9.9,0,0,0,.293.691,1.126,1.126,0,0,0,.793.27,1.462,1.462,0,0,0,1.133-.48A1.735,1.735,0,0,0,118,13.75Z" transform="translate(423 2129.232)" fill="#fff"/>
      <path id="Trazado_1238670" data-name="Trazado 1238670" d="M64.771,13.141V17H62.248V5.8H66.2q4.234,0,4.234,3.57A3.426,3.426,0,0,1,69.22,12.1a4.813,4.813,0,0,1-3.246,1.043Zm0-5.406v3.492h.992q2.016,0,2.016-1.766,0-1.727-2.016-1.727Zm12.283,3.492a2.141,2.141,0,0,0-1.039-.242,1.5,1.5,0,0,0-1.258.59A2.573,2.573,0,0,0,74.3,13.18V17H71.835V9H74.3v1.484h.031a2.136,2.136,0,0,1,2.109-1.625,1.59,1.59,0,0,1,.609.094ZM85.329,13.7H80.11q.125,1.742,2.2,1.742a4.286,4.286,0,0,0,2.32-.625V16.6a6.1,6.1,0,0,1-2.883.594,4.058,4.058,0,0,1-3.008-1.074,4.058,4.058,0,0,1-1.07-3,4.281,4.281,0,0,1,1.156-3.156A3.852,3.852,0,0,1,81.665,8.8a3.5,3.5,0,0,1,2.707,1.039,4,4,0,0,1,.957,2.82ZM83.04,12.188q0-1.719-1.391-1.719a1.328,1.328,0,0,0-1.027.492,2.234,2.234,0,0,0-.527,1.227Zm9.822,4.523a4.881,4.881,0,0,1-2.414.484,4.083,4.083,0,0,1-2.984-1.117A3.859,3.859,0,0,1,86.323,13.2,4.251,4.251,0,0,1,87.545,9.98,4.518,4.518,0,0,1,90.815,8.8a4.2,4.2,0,0,1,2.047.375v2.094a2.814,2.814,0,0,0-1.727-.578,2.275,2.275,0,0,0-1.684.621,2.317,2.317,0,0,0-.621,1.715,2.28,2.28,0,0,0,.594,1.668,2.182,2.182,0,0,0,1.633.605,3.258,3.258,0,0,0,1.8-.578ZM95.73,7.734a1.442,1.442,0,0,1-1.023-.371,1.2,1.2,0,0,1-.4-.91,1.153,1.153,0,0,1,.4-.906,1.671,1.671,0,0,1,2.051,0,1.158,1.158,0,0,1,.395.906,1.191,1.191,0,0,1-.395.922A1.466,1.466,0,0,1,95.73,7.734ZM96.949,17H94.48V9h2.469Zm1.556-.211v-2a5.256,5.256,0,0,0,1.215.547,4.028,4.028,0,0,0,1.145.18,2.455,2.455,0,0,0,1.035-.18.581.581,0,0,0,.379-.547.506.506,0,0,0-.172-.391,1.6,1.6,0,0,0-.441-.273,5.009,5.009,0,0,0-.59-.211q-.32-.094-.617-.211a5.913,5.913,0,0,1-.84-.387,2.427,2.427,0,0,1-.609-.48,1.889,1.889,0,0,1-.375-.633,2.525,2.525,0,0,1-.129-.852A2.192,2.192,0,0,1,98.8,10.2,2.393,2.393,0,0,1,99.58,9.4a3.57,3.57,0,0,1,1.117-.453,5.825,5.825,0,0,1,1.309-.145,7.261,7.261,0,0,1,1.078.082,8.047,8.047,0,0,1,1.078.238v1.906a3.9,3.9,0,0,0-1-.41,4.235,4.235,0,0,0-1.051-.137,2.328,2.328,0,0,0-.457.043,1.505,1.505,0,0,0-.379.125.7.7,0,0,0-.258.211.486.486,0,0,0-.094.293.541.541,0,0,0,.141.375,1.221,1.221,0,0,0,.367.27,3.625,3.625,0,0,0,.5.2q.277.09.551.184a7.161,7.161,0,0,1,.891.375,2.848,2.848,0,0,1,.684.477,1.872,1.872,0,0,1,.438.641,2.563,2.563,0,0,1-.156,2.09,2.471,2.471,0,0,1-.82.82,3.72,3.72,0,0,1-1.18.461,6.54,6.54,0,0,1-1.387.145A7.149,7.149,0,0,1,98.506,16.789Zm8.814-9.055a1.442,1.442,0,0,1-1.023-.371,1.2,1.2,0,0,1-.4-.91,1.153,1.153,0,0,1,.4-.906,1.671,1.671,0,0,1,2.051,0,1.158,1.158,0,0,1,.395.906,1.191,1.191,0,0,1-.395.922A1.466,1.466,0,0,1,107.32,7.734ZM108.538,17H106.07V9h2.469Zm5.892.2a4.3,4.3,0,0,1-3.145-1.121,4.064,4.064,0,0,1-1.145-3.043,4.065,4.065,0,0,1,1.188-3.105A4.487,4.487,0,0,1,114.54,8.8a4.249,4.249,0,0,1,3.125,1.121,3.985,3.985,0,0,1,1.133,2.965,4.23,4.23,0,0,1-1.168,3.148A4.348,4.348,0,0,1,114.431,17.2Zm.063-6.5a1.647,1.647,0,0,0-1.359.6,2.653,2.653,0,0,0-.484,1.7q0,2.3,1.859,2.3,1.773,0,1.773-2.367Q116.282,10.7,114.493,10.7Zm2.648-5.484L114.7,7.734h-1.781l2.031-2.523ZM128.12,17h-2.461V12.555q0-1.859-1.328-1.859a1.318,1.318,0,0,0-1.055.492,1.875,1.875,0,0,0-.414,1.25V17h-2.469V9h2.469v1.266h.031a2.829,2.829,0,0,1,2.57-1.461q2.656,0,2.656,3.3Z" transform="translate(815 2129.232)" fill="#fff"/>
      <path id="Trazado_1238671" data-name="Trazado 1238671" d="M44.38,17H37.662V5.8h6.461V7.852H40.185v2.492h3.664v2.047H40.185v2.563h4.2Zm9.283-8-2.641,3.875L53.648,17H50.8l-1.156-2.156q-.141-.258-.336-.727H49.28a5.073,5.073,0,0,1-.32.7L47.8,17H44.96l2.7-3.984L45.124,9h2.859l1.141,2.242a4.917,4.917,0,0,1,.32.75h.031a5.285,5.285,0,0,1,.336-.766L50.976,9Zm7.767,8H59.094V15.852h-.031A2.607,2.607,0,0,1,56.68,17.2a2.492,2.492,0,0,1-1.832-.66,2.366,2.366,0,0,1-.668-1.762q0-2.328,2.758-2.687L59.11,11.8q0-1.312-1.422-1.312a4.853,4.853,0,0,0-2.719.852V9.477a6.116,6.116,0,0,1,1.41-.469,7.413,7.413,0,0,1,1.629-.2q3.422,0,3.422,3.414Zm-2.32-3.25v-.539l-1.453.188q-1.2.156-1.2,1.086a.9.9,0,0,0,.293.691,1.126,1.126,0,0,0,.793.27,1.462,1.462,0,0,0,1.133-.48A1.735,1.735,0,0,0,59.11,13.75Zm10.338,2.961a4.881,4.881,0,0,1-2.414.484,4.083,4.083,0,0,1-2.984-1.117A3.859,3.859,0,0,1,62.909,13.2,4.251,4.251,0,0,1,64.131,9.98,4.518,4.518,0,0,1,67.4,8.8a4.2,4.2,0,0,1,2.047.375v2.094a2.814,2.814,0,0,0-1.727-.578,2.275,2.275,0,0,0-1.684.621,2.317,2.317,0,0,0-.621,1.715A2.28,2.28,0,0,0,66.01,14.7a2.182,2.182,0,0,0,1.633.605,3.258,3.258,0,0,0,1.8-.578Zm6.455.2a3.649,3.649,0,0,1-1.648.289q-2.609,0-2.609-2.711V10.82h-1.3V9h1.3V7.273l2.461-.7V9h1.8v1.82h-1.8v3.234q0,1.25.992,1.25a1.673,1.673,0,0,0,.8-.227Zm2.642-9.172a1.442,1.442,0,0,1-1.023-.371,1.2,1.2,0,0,1-.4-.91,1.153,1.153,0,0,1,.4-.906,1.671,1.671,0,0,1,2.051,0,1.158,1.158,0,0,1,.395.906,1.191,1.191,0,0,1-.395.922A1.466,1.466,0,0,1,78.545,7.734ZM79.763,17H77.295V9h2.469Zm6.916-.094a3.649,3.649,0,0,1-1.648.289q-2.609,0-2.609-2.711V10.82h-1.3V9h1.3V7.273l2.461-.7V9h1.8v1.82h-1.8v3.234q0,1.25.992,1.25a1.673,1.673,0,0,0,.8-.227ZM95.673,17H93.212V15.781h-.039A2.792,2.792,0,0,1,90.727,17.2q-2.781,0-2.781-3.367V9h2.461v4.609q0,1.7,1.344,1.7a1.329,1.329,0,0,0,1.063-.465,1.874,1.874,0,0,0,.4-1.262V9h2.461Zm9.908,0h-2.469V15.9h-.031a2.768,2.768,0,0,1-2.477,1.3,3.033,3.033,0,0,1-2.414-1.059,4.382,4.382,0,0,1-.914-2.957A4.77,4.77,0,0,1,98.284,10a3.287,3.287,0,0,1,2.641-1.2,2.246,2.246,0,0,1,2.156,1.109h.031V5.156h2.469Zm-2.422-3.891v-.6a1.893,1.893,0,0,0-.453-1.3,1.6,1.6,0,0,0-2.461.129,2.993,2.993,0,0,0-.461,1.77,2.59,2.59,0,0,0,.445,1.625,1.581,1.581,0,0,0,2.457-.031A2.507,2.507,0,0,0,103.159,13.109Z" transform="translate(1039 2129.232)" fill="#fff"/>
      <path id="Trazado_1238672" data-name="Trazado 1238672" d="M68.958,17h-2.9l-1.742-2.883q-.2-.328-.375-.586a3.255,3.255,0,0,0-.363-.441,1.445,1.445,0,0,0-.383-.281.972.972,0,0,0-.434-.1h-.68V17H59.559V5.8h4q4.078,0,4.078,3.047a3.155,3.155,0,0,1-.18,1.082,3.006,3.006,0,0,1-.508.895,3.219,3.219,0,0,1-.793.688,4.089,4.089,0,0,1-1.035.453v.031a1.606,1.606,0,0,1,.484.254,3.469,3.469,0,0,1,.453.41,5.722,5.722,0,0,1,.418.5q.2.27.363.527ZM62.083,7.688V10.8h1.094a1.813,1.813,0,0,0,1.3-.469,1.564,1.564,0,0,0,.5-1.18q0-1.469-1.758-1.469ZM76.553,13.7H71.334q.125,1.742,2.2,1.742a4.286,4.286,0,0,0,2.32-.625V16.6a6.1,6.1,0,0,1-2.883.594,4.058,4.058,0,0,1-3.008-1.074,4.058,4.058,0,0,1-1.07-3,4.281,4.281,0,0,1,1.156-3.156A3.852,3.852,0,0,1,72.889,8.8,3.5,3.5,0,0,1,75.6,9.844a4,4,0,0,1,.957,2.82Zm-2.289-1.516q0-1.719-1.391-1.719a1.328,1.328,0,0,0-1.027.492,2.234,2.234,0,0,0-.527,1.227Zm3.236,4.6v-2a5.256,5.256,0,0,0,1.215.547,4.028,4.028,0,0,0,1.145.18,2.455,2.455,0,0,0,1.035-.18.581.581,0,0,0,.379-.547A.506.506,0,0,0,81.1,14.4a1.6,1.6,0,0,0-.441-.273,5.009,5.009,0,0,0-.59-.211q-.32-.094-.617-.211a5.913,5.913,0,0,1-.84-.387,2.427,2.427,0,0,1-.609-.48,1.889,1.889,0,0,1-.375-.633,2.525,2.525,0,0,1-.129-.852,2.192,2.192,0,0,1,.293-1.156,2.393,2.393,0,0,1,.781-.793,3.57,3.57,0,0,1,1.117-.453A5.825,5.825,0,0,1,81,8.8a7.261,7.261,0,0,1,1.078.082,8.047,8.047,0,0,1,1.078.238v1.906a3.9,3.9,0,0,0-1-.41,4.235,4.235,0,0,0-1.051-.137,2.328,2.328,0,0,0-.457.043,1.505,1.505,0,0,0-.379.125.7.7,0,0,0-.258.211.486.486,0,0,0-.094.293.541.541,0,0,0,.141.375,1.221,1.221,0,0,0,.367.27,3.625,3.625,0,0,0,.5.2q.277.09.551.184a7.161,7.161,0,0,1,.891.375,2.848,2.848,0,0,1,.684.477,1.872,1.872,0,0,1,.438.641,2.563,2.563,0,0,1-.156,2.09,2.471,2.471,0,0,1-.82.82,3.72,3.72,0,0,1-1.18.461,6.54,6.54,0,0,1-1.387.145A7.149,7.149,0,0,1,77.5,16.789Zm11.377.406a4.3,4.3,0,0,1-3.145-1.121,4.064,4.064,0,0,1-1.145-3.043,4.065,4.065,0,0,1,1.188-3.105A4.487,4.487,0,0,1,88.986,8.8a4.249,4.249,0,0,1,3.125,1.121,3.985,3.985,0,0,1,1.133,2.965,4.23,4.23,0,0,1-1.168,3.148A4.348,4.348,0,0,1,88.877,17.2Zm.063-6.5a1.647,1.647,0,0,0-1.359.6A2.653,2.653,0,0,0,87.1,13q0,2.3,1.859,2.3,1.773,0,1.773-2.367Q90.728,10.7,88.939,10.7ZM97.316,17H94.847V5.156h2.469ZM107,17h-2.461V15.781H104.5a2.792,2.792,0,0,1-2.445,1.414q-2.781,0-2.781-3.367V9h2.461v4.609q0,1.7,1.344,1.7a1.329,1.329,0,0,0,1.063-.465,1.874,1.874,0,0,0,.4-1.262V9H107Zm8.142-.289a4.881,4.881,0,0,1-2.414.484,4.083,4.083,0,0,1-2.984-1.117A3.859,3.859,0,0,1,108.6,13.2a4.251,4.251,0,0,1,1.223-3.215,4.518,4.518,0,0,1,3.27-1.176,4.2,4.2,0,0,1,2.047.375v2.094a2.814,2.814,0,0,0-1.727-.578,2.275,2.275,0,0,0-1.684.621,2.317,2.317,0,0,0-.621,1.715A2.28,2.28,0,0,0,111.7,14.7a2.182,2.182,0,0,0,1.633.605,3.258,3.258,0,0,0,1.8-.578Zm2.869-8.977a1.442,1.442,0,0,1-1.023-.371,1.2,1.2,0,0,1-.4-.91,1.153,1.153,0,0,1,.4-.906,1.671,1.671,0,0,1,2.051,0,1.158,1.158,0,0,1,.395.906,1.191,1.191,0,0,1-.395.922A1.466,1.466,0,0,1,118.008,7.734ZM119.227,17h-2.469V9h2.469Zm5.892.2a4.3,4.3,0,0,1-3.145-1.121,4.064,4.064,0,0,1-1.145-3.043,4.065,4.065,0,0,1,1.188-3.105A4.487,4.487,0,0,1,125.228,8.8a4.249,4.249,0,0,1,3.125,1.121,3.985,3.985,0,0,1,1.133,2.965,4.23,4.23,0,0,1-1.168,3.148A4.348,4.348,0,0,1,125.119,17.2Zm.063-6.5a1.647,1.647,0,0,0-1.359.6,2.653,2.653,0,0,0-.484,1.7q0,2.3,1.859,2.3,1.773,0,1.773-2.367Q126.97,10.7,125.181,10.7Zm2.648-5.484-2.445,2.523H123.6l2.031-2.523ZM138.808,17h-2.461V12.555q0-1.859-1.328-1.859a1.318,1.318,0,0,0-1.055.492,1.875,1.875,0,0,0-.414,1.25V17h-2.469V9h2.469v1.266h.031a2.829,2.829,0,0,1,2.57-1.461q2.656,0,2.656,3.3Z" transform="translate(1198 2129.232)" fill="#fff"/>
    </g>
    <g id="Enmascarar_grupo_1208504" data-name="Enmascarar grupo 1208504" transform="translate(-22.116 -4848.161)" clip-path="url(#clip-path)">
      <g id="Grupo_1228423" data-name="Grupo 1228423" transform="translate(519.964 6957.257)">
        <path id="Trazado_1217467" data-name="Trazado 1217467" d="M260.106,131.153Zm-2.256-8.589a4.339,4.339,0,1,0,1.271,3.069,4.329,4.329,0,0,0-1.271-3.069Zm-.938-4.3a7.659,7.659,0,0,1,3.192,1.849.264.264,0,0,0,.317.039l2.017-1.164.01-.006a.5.5,0,0,1,.369-.043.493.493,0,0,1,.3.232l.01.014,1.418,2.457a.5.5,0,0,1-.184.683l-.014.009-2,1.154a.267.267,0,0,0-.126.294h0a7.5,7.5,0,0,1,.169.917,7.8,7.8,0,0,1,0,1.869,7.424,7.424,0,0,1-.169.917.269.269,0,0,0,.142.3l2,1.153h0a.5.5,0,0,1,.184.682l-1.426,2.471h0a.493.493,0,0,1-.3.232.5.5,0,0,1-.38-.048l-.015-.009-2-1.155a.266.266,0,0,0-.316.039,7.722,7.722,0,0,1-1.492,1.125,7.636,7.636,0,0,1-1.712.727.266.266,0,0,0-.194.255v2.326a.5.5,0,0,1-.146.352.5.5,0,0,1-.352.146h-2.854a.5.5,0,0,1-.5-.5v-2.326a.267.267,0,0,0-.2-.259,7.668,7.668,0,0,1-1.7-.724,7.759,7.759,0,0,1-1.491-1.125.266.266,0,0,0-.331-.031l-2,1.157a.5.5,0,0,1-.682-.184l-.009-.014-1.418-2.457h0a.5.5,0,0,1-.048-.378.488.488,0,0,1,.231-.3l2.014-1.164a.265.265,0,0,0,.125-.293h0a7.832,7.832,0,0,1-.168-2.786,7.816,7.816,0,0,1,.168-.917.266.266,0,0,0-.14-.3l-2-1.154a.493.493,0,0,1-.231-.3.5.5,0,0,1,.048-.38l.008-.014,1.418-2.457h0a.5.5,0,0,1,.682-.184h0l2.016,1.164a.263.263,0,0,0,.323-.045,7.774,7.774,0,0,1,1.487-1.119,7.573,7.573,0,0,1,1.712-.726.269.269,0,0,0,.193-.257V115.68a.5.5,0,0,1,.5-.5h2.854a.5.5,0,0,1,.5.5v2.326A.268.268,0,0,0,256.913,118.264Z" transform="translate(-48.314 -94.811)" fill="#ebf2f8" fill-rule="evenodd"/>
        <path id="Trazado_1217468" data-name="Trazado 1217468" d="M212.552,123.844a9.383,9.383,0,1,0,2.039,3.051,9.412,9.412,0,0,0-2.039-3.051Zm-3.381-1.236a8.561,8.561,0,1,1-3.261-.645,8.506,8.506,0,0,1,3.261.645Zm1.038-6.911a15.377,15.377,0,0,1,3.394,1.447,15.518,15.518,0,0,1,1.565,1.039A15.124,15.124,0,0,1,216.6,119.4a.983.983,0,0,0,1.174.142c1.378-.8,2.829-1.584,4.18-2.414a.587.587,0,0,1,.433-.044.584.584,0,0,1,.364.276c1.006,1.522,2.014,3.488,2.946,5.1a.569.569,0,0,1,.073.217.629.629,0,0,1-.017.238.615.615,0,0,1-.1.211.6.6,0,0,1-.173.153c-1.241.82-2.84,1.641-4.155,2.4a.983.983,0,0,0-.415.465,1.082,1.082,0,0,0-.062.205l-.086.029.1.388q.113.458.2.913t.14.926c.038.315.067.627.086.934s.026.617.026.944-.009.645-.026.943-.048.621-.086.937-.087.63-.14.925-.122.609-.2.913a.98.98,0,0,0,.506,1.109l3.679,2.125h0l.436.252a.587.587,0,0,1,.276.363.628.628,0,0,1,.017.238.582.582,0,0,1-.073.218l-2.723,4.719h0l-.22.381a.592.592,0,0,1-.152.174.616.616,0,0,1-.213.1.571.571,0,0,1-.235.017.558.558,0,0,1-.215-.073c-1.318-.828-2.805-1.617-4.164-2.4a.981.981,0,0,0-1.172.14h0a15.422,15.422,0,0,1-4.671,3.1,15.29,15.29,0,0,1-1.762.624.985.985,0,0,0-.714.947v4.8a.563.563,0,0,1-.046.226.621.621,0,0,1-.13.194.594.594,0,0,1-.194.13.58.58,0,0,1-.226.044h-5.891a.6.6,0,0,1-.226-.044.62.62,0,0,1-.194-.13.638.638,0,0,1-.131-.194.6.6,0,0,1-.044-.226v-4.8a.992.992,0,0,0-.759-.958,15.2,15.2,0,0,1-3.393-1.448,15.49,15.49,0,0,1-3-2.259.986.986,0,0,0-1.224-.11l-4.11,2.373a.575.575,0,0,1-.218.072.617.617,0,0,1-.238-.017.594.594,0,0,1-.364-.277c-.976-1.7-1.967-3.4-2.944-5.1a.577.577,0,0,1-.075-.217.61.61,0,0,1,.018-.237.6.6,0,0,1,.1-.211.541.541,0,0,1,.17-.152l4.159-2.4a.983.983,0,0,0,.415-.465.993.993,0,0,0,.051-.159l.109-.022-.109-.441c-.075-.3-.141-.61-.2-.913s-.1-.6-.141-.927-.067-.627-.084-.935-.027-.616-.027-.945.01-.643.027-.943.047-.62.084-.934.087-.636.141-.93.121-.606.2-.911a.986.986,0,0,0-.062-.65,1,1,0,0,0-.443-.459l-4.117-2.377a.57.57,0,0,1-.173-.152.58.58,0,0,1-.1-.213.606.606,0,0,1-.018-.236.571.571,0,0,1,.075-.218c1-1.495,2.012-3.492,2.944-5.1a.6.6,0,0,1,.153-.173.59.59,0,0,1,.21-.1.649.649,0,0,1,.238-.018.574.574,0,0,1,.217.075l4.16,2.4a.981.981,0,0,0,1.187-.154,15.378,15.378,0,0,1,4.657-3.082,15.238,15.238,0,0,1,1.761-.624.984.984,0,0,0,.715-.947l0-4.8a.566.566,0,0,1,.176-.419.588.588,0,0,1,.193-.132.581.581,0,0,1,.226-.045h5.891a.584.584,0,0,1,.226.045.6.6,0,0,1,.37.551v4.8a.978.978,0,0,0,.211.608,1,1,0,0,0,.546.348Zm2.072-.181a16.153,16.153,0,0,1,1.757.878,16.192,16.192,0,0,1,3.163,2.384.115.115,0,0,0,.067.031.13.13,0,0,0,.072-.014c1.4-.808,2.8-1.612,4.2-2.423a1.422,1.422,0,0,1,.526-.166,1.466,1.466,0,0,1,.551.042,1.493,1.493,0,0,1,.515.252,1.465,1.465,0,0,1,.376.428c1.014,1.642,1.978,3.421,2.947,5.1a1.459,1.459,0,0,1,.181.541,1.465,1.465,0,0,1-.29,1.085,1.431,1.431,0,0,1-.429.376c-1.337.827-2.789,1.611-4.157,2.4a.118.118,0,0,0-.047.054.115.115,0,0,0-.006.073l.1.388-.006,0c.043.187.08.38.116.574q.09.5.15.981t.089.986c.02.339.032.671.032.994s-.011.656-.032.995-.051.668-.089.987-.089.647-.15.98-.132.653-.208.964a.115.115,0,0,0,.008.075.108.108,0,0,0,.051.056c1.528.816,3.079,1.776,4.589,2.649l-.053.067.047.059a1.463,1.463,0,0,1,.29,1.084,1.439,1.439,0,0,1-.182.543l-3.165,5.482-.059-.035c-.031.029-.064.055-.1.081a1.484,1.484,0,0,1-1.084.291,1.528,1.528,0,0,1-.527-.173c-1.384-.735-2.81-1.624-4.178-2.413a.118.118,0,0,0-.07-.013.116.116,0,0,0-.067.032,16.426,16.426,0,0,1-1.508,1.287,16.11,16.11,0,0,1-1.654,1.095,16.23,16.23,0,0,1-3.633,1.544.121.121,0,0,0-.061.041.1.1,0,0,0-.023.071v4.8a1.461,1.461,0,0,1-.432,1.035,1.476,1.476,0,0,1-.474.318,1.457,1.457,0,0,1-.559.112h-5.891a1.45,1.45,0,0,1-.559-.112,1.505,1.505,0,0,1-.476-.318,1.46,1.46,0,0,1-.43-1.035v-4.8a.108.108,0,0,0-.089-.112l-.018-.007a16.137,16.137,0,0,1-3.61-1.536,16.3,16.3,0,0,1-3.163-2.384.113.113,0,0,0-.068-.032.128.128,0,0,0-.074.018l-4.159,2.4a1.46,1.46,0,0,1-.539.183,1.493,1.493,0,0,1-.571-.039,1.518,1.518,0,0,1-.514-.252,1.416,1.416,0,0,1-.369-.417c-1.092-1.756-2.125-3.679-3.167-5.483l.056-.034a1.3,1.3,0,0,1-.025-.138,1.524,1.524,0,0,1,.037-.57,1.5,1.5,0,0,1,.254-.513,1.441,1.441,0,0,1,.427-.376l4.159-2.4a.114.114,0,0,0,.047-.054.122.122,0,0,0,.006-.075l-.108-.44h.006c-.037-.17-.071-.345-.1-.521-.062-.332-.112-.661-.152-.982s-.068-.648-.087-.987-.031-.67-.031-.995.01-.655.031-.993.05-.668.087-.989.09-.645.152-.981.129-.651.207-.962a.126.126,0,0,0-.008-.076.113.113,0,0,0-.054-.054l-4.152-2.4a1.446,1.446,0,0,1-.427-.376,1.523,1.523,0,0,1-.253-.513,1.493,1.493,0,0,1-.037-.57,1.458,1.458,0,0,1,.176-.531c.99-1.833,2.125-3.682,3.171-5.5l.059.035c.031-.03.065-.055.1-.083a1.5,1.5,0,0,1,.514-.252,1.446,1.446,0,0,1,.57-.038,1.428,1.428,0,0,1,.54.18l.308.177,0,0,3.857,2.227a.12.12,0,0,0,.075.015.109.109,0,0,0,.066-.034l.01-.01a16.395,16.395,0,0,1,3.151-2.373,15.906,15.906,0,0,1,1.768-.882,16.41,16.41,0,0,1,1.864-.661.116.116,0,0,0,.084-.111v-4.8a1.456,1.456,0,0,1,.432-1.034,1.5,1.5,0,0,1,.474-.319,1.461,1.461,0,0,1,.559-.112h5.891a1.474,1.474,0,0,1,.559.112,1.517,1.517,0,0,1,.475.319,1.456,1.456,0,0,1,.431,1.035v4.8a.141.141,0,0,0,.023.073.12.12,0,0,0,.064.039l.019.006A16.2,16.2,0,0,1,212.281,115.516Z" transform="translate(-36.517 -93.488)" fill="#ebf2f8" fill-rule="evenodd"/>
        <g id="Grupo_1228411" data-name="Grupo 1228411" transform="translate(256.27 65.622)">
          <path id="Trazado_1217478" data-name="Trazado 1217478" d="M375.963,182.307a10.433,10.433,0,0,0-9.77,6.772A5.4,5.4,0,0,0,360,192.361a5.545,5.545,0,1,0-1.756,10.806h38.937a6.728,6.728,0,1,0-2.129-13.111,6.55,6.55,0,0,0-10.166-2.714A10.423,10.423,0,0,0,375.963,182.307Z" transform="translate(-325.651 -176.293)" fill="#dee7f4" fill-rule="evenodd"/>
          <path id="Trazado_1217479" data-name="Trazado 1217479" d="M354.59,174.722a13.437,13.437,0,1,1,0,26.874H327.25a8.668,8.668,0,1,1,2.743-16.891,8.436,8.436,0,0,1,13.1-3.5A13.424,13.424,0,0,1,354.59,174.722Z" transform="translate(-318.583 -174.722)" fill="#fff" fill-rule="evenodd"/>
        </g>
        <g id="Grupo_1228417" data-name="Grupo 1228417" transform="translate(0 0)">
          <path id="Trazado_1217565" data-name="Trazado 1217565" d="M188.174,256.157a2.66,2.66,0,1,0-2.661-2.66A2.665,2.665,0,0,0,188.174,256.157Z" transform="translate(-42.822 -112.278)" fill="#fff" fill-rule="evenodd"/>
          <path id="Trazado_1217566" data-name="Trazado 1217566" d="M351.448,284.858a2.663,2.663,0,1,0-2.66-2.663A2.667,2.667,0,0,0,351.448,284.858Z" transform="translate(-31.263 -110.247)" fill="#fff" fill-rule="evenodd"/>
          <path id="Trazado_1217567" data-name="Trazado 1217567" d="M284.442,97.676a2.661,2.661,0,1,0-2.66-2.661A2.666,2.666,0,0,0,284.442,97.676Z" transform="translate(-12.449 -50.509)" fill="#fff" fill-rule="evenodd"/>
          <path id="Trazado_1217568" data-name="Trazado 1217568" d="M89.25,372.985a2.662,2.662,0,1,0-2.661-2.662A2.666,2.666,0,0,0,89.25,372.985Z" transform="translate(-49.825 -104.007)" fill="#fff" fill-rule="evenodd"/>
          <path id="Trazado_1217569" data-name="Trazado 1217569" d="M166.452,155.214a2.662,2.662,0,1,0-2.661-2.661A2.666,2.666,0,0,0,166.452,155.214Z" transform="translate(-44.36 -119.425)" fill="#fff" fill-rule="evenodd"/>
          <path id="Trazado_1217570" data-name="Trazado 1217570" d="M184.565,96.857a1.209,1.209,0,1,0-1.21-1.209A1.213,1.213,0,0,0,184.565,96.857Z" transform="translate(29.84 -94.439)" fill="#fff" fill-rule="evenodd"/>
          <path id="Trazado_1217571" data-name="Trazado 1217571" d="M214.426,180.615a1.209,1.209,0,1,0-1.209-1.21A1.211,1.211,0,0,0,214.426,180.615Z" transform="translate(-40.861 -117.421)" fill="#fff" fill-rule="evenodd"/>
          <path id="Trazado_1217572" data-name="Trazado 1217572" d="M288.716,132.545a1.209,1.209,0,1,0-1.209-1.21A1.212,1.212,0,0,0,288.716,132.545Z" transform="translate(-35.601 -120.824)" fill="#fff" fill-rule="evenodd"/>
          <path id="Trazado_1217573" data-name="Trazado 1217573" d="M320.763,252.72a1.209,1.209,0,1,0-1.21-1.211A1.212,1.212,0,0,0,320.763,252.72Z" transform="translate(-33.332 -112.316)" fill="#fff" fill-rule="evenodd"/>
          <path id="Trazado_1217574" data-name="Trazado 1217574" d="M403.064,173.331a1.209,1.209,0,1,0-1.211-1.21A1.212,1.212,0,0,0,403.064,173.331Z" transform="translate(-27.506 -117.936)" fill="#fff" fill-rule="evenodd"/>
          <path id="Trazado_1217575" data-name="Trazado 1217575" d="M197.675,225.771a1.209,1.209,0,1,0-1.209-1.211A1.213,1.213,0,0,0,197.675,225.771Z" transform="translate(-42.046 -114.224)" fill="#fff" fill-rule="evenodd"/>
          <path id="Trazado_1217576" data-name="Trazado 1217576" d="M137.952,309.528a1.21,1.21,0,1,0-1.21-1.21A1.212,1.212,0,0,0,137.952,309.528Z" transform="translate(-46.275 -108.294)" fill="#fff" fill-rule="evenodd"/>
          <path id="Trazado_1217577" data-name="Trazado 1217577" d="M61.477,372.164a1.209,1.209,0,1,0-1.21-1.209A1.21,1.21,0,0,0,61.477,372.164Z" transform="translate(-51.689 -103.86)" fill="#fff" fill-rule="evenodd"/>
          <path id="Trazado_1217578" data-name="Trazado 1217578" d="M404.52,303.7a1.21,1.21,0,1,0-1.21-1.211A1.212,1.212,0,0,0,404.52,303.7Z" transform="translate(-27.403 -108.707)" fill="#fff" fill-rule="evenodd"/>
          <path id="Trazado_1217579" data-name="Trazado 1217579" d="M424.185,406.4a1.21,1.21,0,1,0-1.21-1.21A1.211,1.211,0,0,0,424.185,406.4Z" transform="translate(-26.01 -101.436)" fill="#fff" fill-rule="evenodd"/>
          <path id="Trazado_1217580" data-name="Trazado 1217580" d="M53.465,232.327a1.209,1.209,0,1,0-1.209-1.211A1.212,1.212,0,0,0,53.465,232.327Z" transform="translate(-52.256 -113.76)" fill="#fff" fill-rule="evenodd"/>
          <path id="Trazado_1217581" data-name="Trazado 1217581" d="M125.57,166.777a1.209,1.209,0,1,0-1.209-1.211A1.213,1.213,0,0,0,125.57,166.777Z" transform="translate(-47.151 -118.4)" fill="#fff" fill-rule="evenodd"/>
          <path id="Trazado_1217582" data-name="Trazado 1217582" d="M248.658,98.313a1.209,1.209,0,1,0-1.209-1.209A1.212,1.212,0,0,0,248.658,98.313Z" transform="translate(3.247 -65.186)" fill="#fff" fill-rule="evenodd"/>
          <path id="Trazado_1217583" data-name="Trazado 1217583" d="M325.133,110.695a1.209,1.209,0,1,0-1.21-1.209A1.212,1.212,0,0,0,325.133,110.695Z" transform="translate(-37.701 -80.23)" fill="#fff" fill-rule="evenodd"/>
        </g>
        <g id="Grupo_1228421" data-name="Grupo 1228421" transform="translate(93.613 39.138)">
          <path id="Trazado_1217584" data-name="Trazado 1217584" d="M185.937,214.572c-2.486,7.653-4.873,17.282-6.666,22.214-13.777,37.933-9.546,39.715,20.222,37.469,11.961-.9,23.585-.944,46.148-4.368,3.267-.475,1.694,1.158,3.349,2.75S236.3,285.488,236.3,285.488l-26.622,28.044c-20.412-2.122-50.093-8.385-63.132-17.787-20.021-17.061,9.1-64.79,19.147-88.295.815-1.909,6.3-.5,6.828-2.059C175.5,206.537,187.5,209.763,185.937,214.572Z" transform="translate(-139.679 -154.634)" fill="#fff" fill-rule="evenodd"/>
          <path id="Trazado_1217585" data-name="Trazado 1217585" d="M192.009,209.98a18.49,18.49,0,0,1,9.394-3.317c1.99-.075.052-7.517-6.6-4.33,0,0-3.485.263-3.907-1.207s12.162-17.469,13.54-19.219a2.335,2.335,0,0,0-1.286-3.681c-.927-.026-2.889,2.533-5.595,5.6s-5.786,6.489-6.317,6.54-1.208-.6-.38-2.86,5.852-14.537,5.488-15.741-2.6-1.8-3.9-.18-5.909,14.207-7.009,15.631-2.323.134-2.22-1.123,3.167-15.61,2.867-16.745-2.6-1.665-3.522.363-4.425,15.639-5.174,16.346-2.262.333-2.78-2.4-.948-8.505-1.526-9.12-3.159.472-3.144,3.354-.19,10.03-.352,11.086c-.86,5.572-3.188,10.375-3.262,14.812a10.7,10.7,0,0,0,1.122,4.784,15.42,15.42,0,0,0,9.334,7.934C183.728,218.464,186.749,213.707,192.009,209.98Z" transform="translate(-137.793 -157.256)" fill="#f4ad85" fill-rule="evenodd"/>
          <path id="Trazado_1217586" data-name="Trazado 1217586" d="M192.01,208.21a18.49,18.49,0,0,1,9.394-3.317c.681-.026.9-.914.631-1.944-1.09-.408-6.31.834-11.15,3.022-7.08,3.2-14.947,6.948-21.078-1.575-1.59-2.211-2.193-8.391-1.659-11.057-.886,3.1-1.781,5.959-1.828,8.685a10.751,10.751,0,0,0,1.123,4.784c-3.631,5.552,4.193,10.69,10.717,10.826,2.535.051,2.389-2.04,5.01-3.08C186.258,213.33,188.688,210.564,192.01,208.21Z" transform="translate(-137.793 -155.487)" fill="#f19879" fill-rule="evenodd"/>
          <path id="Trazado_1217587" data-name="Trazado 1217587" d="M308.026,273.3s5.434,2.56,11.486,9.633c4.321,5.046,25.613,41.911,33.033,77.241,1.624,7.737-9.909,38.951-30.725,53.692l18.587,4.014c-1.769-3.672-42.124-2.355-44.789-8.11-7.726-16.672,20.643-44.265,20.643-44.265Z" transform="translate(-128.734 -149.826)" fill="#ebf2f8" fill-rule="evenodd"/>
          <path id="Trazado_1217588" data-name="Trazado 1217588" d="M264.567,260.954c10.853,2.874,43.38,11.6,45.164,13.441,2.145,2.209,11.838,55.124,11.861,60.29.024,4.774-11.175,70.334-13,88.23H213.517c-1.828-17.9-13.025-83.457-13-88.23.022-5.167,9.9-58.266,11.86-60.29s20.2-5.63,31.056-8.5l13.676,17.957,1.942-.017,2,3.5,2-3.5,1.942.017Z" transform="translate(-135.373 -150.7)" fill="#fff" fill-rule="evenodd"/>
          <path id="Trazado_1217589" data-name="Trazado 1217589" d="M202.711,350.122c-1.613-9.474-2.726-16.408-2.719-17.843.015-2.952,3.584-21.566,7.044-37.353,2.53,1.364,1.07,8.725,1.4,20.356C208.619,321.932,205.746,336.639,202.711,350.122Z" transform="translate(-135.409 -148.295)" fill="#ebf2f8" fill-rule="evenodd"/>
          <path id="Trazado_1217590" data-name="Trazado 1217590" d="M262.284,260.954c11.983,2.874,47.9,11.6,49.873,13.441,2.369,2.209,13.072,55.124,13.1,60.29.01,1.718-1.585,11.305-3.726,23.708-18.358,4.733-33.347,7.9-33.347,7.9s30.222-34.7,27.6-49.956-4.49-29.4-7.024-30.958-18.621-7.311-23.4-8.482-5.459,2.341-5.459,2.341-3.509,12.087-4.095,14.479-1.8,3.458-3.266,2.778-8.92-6.485-9.407-6.189-3.621,5.849-3.621,5.849l-2.21-2.684-1.873-4.776s-8.433,6.727-9.75,7.7-3.266.486-3.656-.878-4.107-19.091-4.107-19.091l2.655-12.073c5.646-1.4,10.69-2.611,13.954-3.393l-.478,22.895,2.145-.017,2.213,3.5,2.212-3.5,2.145.017Z" transform="translate(-132.725 -150.7)" fill="#ebf2f8" fill-rule="evenodd"/>
          <path id="Trazado_1217591" data-name="Trazado 1217591" d="M256.019,283.959l1.105,1.749,1.105-1.749v32.69a1.105,1.105,0,1,1-2.21,0Z" transform="translate(-131.443 -149.071)" fill="#bec7d4" fill-rule="evenodd"/>
          <path id="Trazado_1217592" data-name="Trazado 1217592" d="M257.543,225.8l.3,0c8.723-.131,15.943,9.057,16.044,20.417l.215,24.266c.064,7.318-2.839,13.822-7.247,17.562v-1.7h-6.528l-2.2,3.488-2.2-3.488H250.6v2.68c-5-3.423-8.446-10.224-8.516-18.053l-.215-24.27C241.768,235.335,248.82,225.933,257.543,225.8Z" transform="translate(-132.445 -153.189)" fill="#e8685b" fill-rule="evenodd"/>
          <path id="Trazado_1217593" data-name="Trazado 1217593" d="M257.84,222.612a10.783,10.783,0,0,0-2.272-5.69L238.726,230.4a10.746,10.746,0,0,0,5.055,3.463l14.058-11.252Zm-3.381-6.9-16.668,13.339a10.835,10.835,0,0,1-1.16-2.827l15.322-12.264A10.708,10.708,0,0,1,254.46,215.716Z" transform="translate(-132.815 -154.027)" fill="#f6bb98" fill-rule="evenodd"/>
          <path id="Trazado_1217594" data-name="Trazado 1217594" d="M214.666,212.756l-6.173,3.132c-5.31,17.482,7.665,48.1,32.549,37.158,9.874-4.339-8.509-40.95-8.509-40.95Z" transform="translate(-134.891 -154.159)" fill-rule="evenodd"/>
          <path id="Trazado_1217595" data-name="Trazado 1217595" d="M207.409,221.252c-1.041,13.994,6.83,31.659,21.311,33.319C233.65,233.533,215.282,224.22,207.409,221.252Z" transform="translate(-134.891 -153.511)" fill="#0c0e0e" fill-rule="evenodd"/>
          <path id="Trazado_1217596" data-name="Trazado 1217596" d="M294.844,181.247c11.522,9.758,28.613,42.68,11.1,53.827-5.687,3.619-9.923,8.722-19.654,4.347s-8.882-56.154-8.882-56.154S289.014,178.3,294.844,181.247Z" transform="translate(-129.93 -156.409)" fill-rule="evenodd"/>
          <path id="Trazado_1217597" data-name="Trazado 1217597" d="M307.194,273.338c.171.119.616.439,1.27.988,2.887,8.367,5.773,21.864,7.284,43.6a.587.587,0,0,1-.4.664c-.242.03-.457-.216-.48-.551C313.264,294.958,310.163,281.348,307.194,273.338Z" transform="translate(-127.82 -149.823)" fill="#d7e0ec" fill-rule="evenodd"/>
          <path id="Trazado_1217598" data-name="Trazado 1217598" d="M225.492,268.08c-9.62,7.651-14.154,21.106-20.38,41.015l-.884-.121c6.052-19.482,10.039-32.858,19.686-40.747Z" transform="translate(-135.11 -150.196)" fill="#ebf2f8" fill-rule="evenodd"/>
          <g id="Grupo_1228418" data-name="Grupo 1228418" transform="translate(85.618 55.207)">
            <path id="Trazado_1217599" data-name="Trazado 1217599" d="M230.2,209.553c-.255-.01-.508-.01-.76,0h-.006a10.222,10.222,0,1,0,8.071,3.436c-.241,3.015-1.332,6.621-5.19,6.352l1.083-5.792A3.509,3.509,0,0,0,230.2,209.553Z" transform="translate(-219.637 -209.546)" fill="#e8685b" fill-rule="evenodd"/>
            <path id="Trazado_1217600" data-name="Trazado 1217600" d="M298.3,220.938c.244.076.483.158.717.249l.009,0h0a10.222,10.222,0,1,1-8.752.619c-.753,2.931-.9,6.692,2.837,7.7l.865-5.828A3.511,3.511,0,0,1,298.3,220.938Z" transform="translate(-215.004 -208.745)" fill="#e8685b" fill-rule="evenodd"/>
          </g>
          <path id="Trazado_1217601" data-name="Trazado 1217601" d="M274.384,168.266h0A35.087,35.087,0,0,0,234.1,196.987l-5.259,31.379a35.085,35.085,0,0,0,28.722,40.281h0a35.084,35.084,0,0,0,40.279-28.72l5.258-31.379A35.084,35.084,0,0,0,274.384,168.266Z" transform="translate(-133.401 -157.296)" fill="#f4ad85" fill-rule="evenodd"/>
          <path id="Trazado_1217602" data-name="Trazado 1217602" d="M274.372,168.266h0a35.087,35.087,0,0,0-40.283,28.719l-5.259,31.38c-.123.737-.218,1.471-.3,2.206,20.606,1.489,40.952-8.551,44.787-33.309,0,0,8.227,1.251,10.284,1.787s9.793,6.841,8.944,16.724-3.4,28.531-9.391,37.565-15.608,15.639-31.547,13.768a34.786,34.786,0,0,0,5.941,1.541h0a35.085,35.085,0,0,0,40.279-28.72l5.258-31.379A35.085,35.085,0,0,0,274.372,168.266Z" transform="translate(-133.389 -157.296)" fill="#ef8871" fill-rule="evenodd"/>
          <path id="Trazado_1217603" data-name="Trazado 1217603" d="M287.41,194.266s-1.942,13.97,6.886,19.513c0,0-1.193,7.117-1.541,9.191s.328,5.492,2.66,5.883l.826-4.928,3.313-4.236,2.1-22.866-7.915-15.364-6.924-1.6S287.427,194.5,287.41,194.266Z" transform="translate(-129.262 -156.442)" fill-rule="evenodd"/>
          <path id="Trazado_1217604" data-name="Trazado 1217604" d="M292.775,183.786l-7.164,8.239s-11.436-.457-15.6-1.968,8.452-25.986,8.452-25.986,7.776.9,8.4,1.407,1.689,9.327,1.689,9.327Z" transform="translate(-130.512 -157.559)" fill-rule="evenodd"/>
          <path id="Trazado_1217605" data-name="Trazado 1217605" d="M285.417,220.222l-16.2,12.968a10.77,10.77,0,0,1-.793-3.12l14.126-11.305a10.7,10.7,0,0,1,2.872,1.457Zm4.219,6.227a10.811,10.811,0,0,0-2.941-5.156l-16.717,13.381a10.787,10.787,0,0,0,4.386,4Z" transform="translate(-130.565 -153.687)" fill="#f6bb98" fill-rule="evenodd"/>
          <g id="Grupo_1228419" data-name="Grupo 1228419" transform="translate(105.563 73.238)">
            <path id="Trazado_1217606" data-name="Trazado 1217606" d="M279.367,233.153a4.526,4.526,0,1,0,3.618,5.281A4.528,4.528,0,0,0,279.367,233.153Z" transform="translate(-235.732 -225.912)" fill="#e8685b" fill-rule="evenodd"/>
            <path id="Trazado_1217607" data-name="Trazado 1217607" d="M243.624,226.463a4.527,4.527,0,1,0,3.616,5.283A4.53,4.53,0,0,0,243.624,226.463Z" transform="translate(-238.263 -226.386)" fill="#e8685b" fill-rule="evenodd"/>
          </g>
          <path id="Trazado_1217608" data-name="Trazado 1217608" d="M244.323,209.927a9.065,9.065,0,0,1,8.385,1.363,1.119,1.119,0,1,0,1.452-1.7,11.334,11.334,0,0,0-10.492-1.8,1.12,1.12,0,0,0,.654,2.142Z" transform="translate(-132.373 -154.503)" fill-rule="evenodd"/>
          <path id="Trazado_1217609" data-name="Trazado 1217609" d="M243.285,222.223a3.288,3.288,0,0,1,6.485,1.086,1.122,1.122,0,1,0,2.213.373,5.534,5.534,0,1,0-10.916-1.83,1.124,1.124,0,0,0,2.218.372Z" transform="translate(-132.503 -153.796)" fill-rule="evenodd"/>
          <path id="Trazado_1217610" data-name="Trazado 1217610" d="M282.429,228.782a1.123,1.123,0,1,0,2.214.372,5.534,5.534,0,0,0-10.917-1.829,1.123,1.123,0,1,0,2.215.37,3.289,3.289,0,0,1,6.487,1.087Z" transform="translate(-130.19 -153.408)" fill-rule="evenodd"/>
          <path id="Trazado_1217611" data-name="Trazado 1217611" d="M285.436,216.819a1.119,1.119,0,1,0,1.316-1.811,11.355,11.355,0,0,0-10.506-1.719,1.12,1.12,0,1,0,.819,2.084A9.068,9.068,0,0,1,285.436,216.819Z" transform="translate(-130.061 -154.119)" fill-rule="evenodd"/>
          <path id="Trazado_1217612" data-name="Trazado 1217612" d="M288.875,398.856s5.446-3.641,8.377-5.4a7.7,7.7,0,0,1,7.876.086,124.178,124.178,0,0,1,11.227,8.975c1.256,1.327-6.034,4.261-6.787,4.261S288.875,398.856,288.875,398.856Z" transform="translate(-129.117 -141.394)" fill="#ef8871" fill-rule="evenodd"/>
          <path id="Trazado_1217613" data-name="Trazado 1217613" d="M174.864,410.855H350.915a4.931,4.931,0,0,0,4.917-4.918h0a4.932,4.932,0,0,0-4.917-4.917H174.864a4.932,4.932,0,0,0-4.917,4.917h0A4.932,4.932,0,0,0,174.864,410.855Z" transform="translate(-137.537 -140.784)" fill="#0c0e0e" fill-rule="evenodd"/>
          <g id="Grupo_1228420" data-name="Grupo 1228420" transform="translate(119.127 82.437)">
            <path id="Trazado_1217614" data-name="Trazado 1217614" d="M270.326,239.943a9.78,9.78,0,0,1-19.228-3.593l.017,0A1.7,1.7,0,0,1,253.087,235l15.876,2.966a1.694,1.694,0,0,1,1.349,1.969Z" transform="translate(-250.93 -234.976)" fill-rule="evenodd"/>
            <path id="Trazado_1217615" data-name="Trazado 1217615" d="M265.136,246.243a9.778,9.778,0,0,1-11.238-1.4,6.087,6.087,0,0,1,6.159-2.52A6.168,6.168,0,0,1,265.136,246.243Z" transform="translate(-250.72 -234.462)" fill="#d64341" fill-rule="evenodd"/>
            <path id="Trazado_1217616" data-name="Trazado 1217616" d="M253.466,235.1l14.923,2.786c-.074,1.7-1.149,3.219-2.329,3.374-1.432.188-12.174-2.108-12.78-3.1C252.988,237.675,253.184,236.344,253.466,235.1Z" transform="translate(-250.774 -234.968)" fill="#fff" fill-rule="evenodd"/>
          </g>
          <path id="Trazado_1217617" data-name="Trazado 1217617" d="M258.682,229.717s-1.733,2.2-1.532,3.558,2.133.981,2.513-.123a9.5,9.5,0,0,0,.1-3.6C259.67,229.281,259.117,229.09,258.682,229.717Z" transform="translate(-131.364 -152.941)" fill="#f8caae" fill-rule="evenodd"/>
          <path id="Trazado_1217618" data-name="Trazado 1217618" d="M249.378,211.989a11.784,11.784,0,0,1,9.823,11.073,25.735,25.735,0,0,1,11.71,1.946,11.786,11.786,0,0,1,22.333,1.345l5.052-2.522a.977.977,0,0,1,.874,1.749l-5.572,2.783a11.912,11.912,0,0,1-.122,2.962,11.782,11.782,0,0,1-23.239-3.892c.031-.179.065-.356.1-.531a23.483,23.483,0,0,0-11.212-1.873c-.021.176-.047.352-.075.529a11.781,11.781,0,1,1-22.366-6.78l-4.3-4.389a.976.976,0,0,1,1.393-1.368l3.9,3.979a11.782,11.782,0,0,1,11.7-5.009Zm40.473,11.688A9.819,9.819,0,1,0,291.54,231a9.788,9.788,0,0,0-1.689-7.323Zm-34.424-5.768a9.82,9.82,0,1,0,1.689,7.324A9.782,9.782,0,0,0,255.427,217.908Z" transform="translate(-133.136 -154.178)" fill-rule="evenodd"/>
          <path id="Trazado_1217619" data-name="Trazado 1217619" d="M289.911,192.457c2.592-15.142-9.572-18.98-13.632-4.462-6.242,22.3-16.744,51.8-58.214,35.979l-9.651-4.256c10.451-29.482,39.906-60.57,72.534-61.722,10.017-.353,21.826,15.777,22.615,18.347s-.55,10.91-1.446,12.145c0,0-8.252,7.679-9.157,7.323S289.911,192.457,289.911,192.457Z" transform="translate(-134.813 -157.99)" fill="#0c0e0e" fill-rule="evenodd"/>
          <path id="Trazado_1217620" data-name="Trazado 1217620" d="M214.22,205.907a107.933,107.933,0,0,1,8.505-13.143c14.406,12.959,48.158,3.7,49.6-33.866q1.948-.366,3.917-.6C272.118,195.87,247.127,219.137,214.22,205.907Z" transform="translate(-134.402 -157.967)" fill="#252626" fill-rule="evenodd"/>
          <path id="Trazado_1217621" data-name="Trazado 1217621" d="M274.9,190.461c-6.48,21.442-18.258,45.93-56.83,31.214l-9.649-4.256a90.838,90.838,0,0,1,3.534-8.533C223.138,214.71,253.851,226.158,274.9,190.461Z" transform="translate(-134.813 -155.691)" fill-rule="evenodd"/>
          <path id="Trazado_1217622" data-name="Trazado 1217622" d="M347.409,312.8H177.814a3.86,3.86,0,0,0-3.9,4.585l12.962,86.089a5.542,5.542,0,0,0,5.277,4.585H333.066a5.545,5.545,0,0,0,5.277-4.585L351.3,317.381A3.858,3.858,0,0,0,347.409,312.8Z" transform="translate(-137.259 -147.03)" fill="#0c0e0e" fill-rule="evenodd"/>
          <path id="Trazado_1217623" data-name="Trazado 1217623" d="M272.777,263.824s-3.5,8.4-4.676,10.528-8.976,9.44-8.976,9.44-.244.635,0,.977,11.943,9.942,11.943,9.942.972.683,1.7-.828,4.339-14.284,4.63-17.5-1.463-13.16-1.463-13.16l-3.049-1.707Z" transform="translate(-131.231 -150.661)" fill="#fff" fill-rule="evenodd"/>
          <path id="Trazado_1217624" data-name="Trazado 1217624" d="M242.542,263.824s3.5,8.4,4.678,10.528,8.974,9.44,8.974,9.44.243.635,0,.977-11.94,9.942-11.94,9.942-.974.683-1.706-.828-4.337-14.284-4.629-17.5.926-11.6.926-11.6l3.586-3.266Z" transform="translate(-132.728 -150.661)" fill="#fff" fill-rule="evenodd"/>
          <path id="Trazado_1217625" data-name="Trazado 1217625" d="M299.643,187.4c-8.27,10.827-4.087,34.534,12.161,36.228C313.841,212.353,306.951,197.1,299.643,187.4Z" transform="translate(-128.647 -155.907)" fill="#0c0e0e" fill-rule="evenodd"/>
          <path id="Trazado_1217626" data-name="Trazado 1217626" d="M343.376,316.6H181.325a3.688,3.688,0,0,0-3.723,4.382l12.387,82.26a5.294,5.294,0,0,0,5.04,4.382H329.672a5.294,5.294,0,0,0,5.04-4.382l12.386-82.26A3.688,3.688,0,0,0,343.376,316.6Z" transform="translate(-136.998 -146.761)" fill="#1c1d1d" fill-rule="evenodd"/>
          <path id="Trazado_1217627" data-name="Trazado 1217627" d="M186.2,382.128l3.177,21.1a5.294,5.294,0,0,0,5.04,4.382H329.059a5.294,5.294,0,0,0,5.04-4.382l12.386-82.26a3.687,3.687,0,0,0-2.4-4.165C325.541,348.8,279.959,401.211,186.2,382.128Z" transform="translate(-136.386 -146.747)" fill="#0c0e0e" fill-rule="evenodd"/>
          <path id="Trazado_1217628" data-name="Trazado 1217628" d="M257.936,383.169c9.927,0,18.025-6.76,18.025-15.047s-8.1-15.044-18.025-15.044-18.025,6.757-18.025,15.044S248.008,383.169,257.936,383.169Z" transform="translate(-132.583 -144.178)" fill="#0c0e0e" fill-rule="evenodd"/>
          <path id="Trazado_1217629" data-name="Trazado 1217629" d="M257.65,356.45a14.374,14.374,0,0,1,11.824,5.663l-20.957,14.292a10.69,10.69,0,0,1-4.564-8.521c0-6.312,6.132-11.434,13.7-11.434Zm11.127,18.1-6.294-3.463L251.987,378.3a15.946,15.946,0,0,0,5.662,1.022A14.66,14.66,0,0,0,268.776,374.552Z" transform="translate(-132.297 -143.939)" fill="#fff" fill-rule="evenodd"/>
          <path id="Trazado_1217630" data-name="Trazado 1217630" d="M212.1,292.791a151.008,151.008,0,0,1-28.075,1.495c-28.214-.773-44.3-8.249-42.713-32.454-2.891,12.408-2.415,23.4,5.233,29.917,12.837,9.255,41.808,15.469,62.18,17.687.475-2.321.967-4.683,1.465-7.027C210.83,299.118,211.476,295.859,212.1,292.791Z" transform="translate(-139.679 -150.638)" fill="#ebf2f8" fill-rule="evenodd"/>
        </g>
        <g id="Grupo_1228422" data-name="Grupo 1228422" transform="translate(80.036 303.178)">
          <path id="Trazado_1217632" data-name="Trazado 1217632" d="M112.751,404.572H381.618c3.927,0,7.138,3.679,7.138,8.176h0c0,4.5-3.213,8.181-7.138,8.181H112.751c-3.925,0-7.138-3.68-7.138-8.181h0C105.613,408.252,108.826,404.572,112.751,404.572Z" transform="translate(-105.613 -404.572)" fill="#be865e" fill-rule="evenodd"/>
          <rect id="Rectángulo_422464" data-name="Rectángulo 422464" width="17.019" height="16.355" transform="translate(168.732 0)" fill="#915e40"/>
          <rect id="Rectángulo_422465" data-name="Rectángulo 422465" width="8.839" height="16.355" transform="translate(191.888 0)" fill="#915e40"/>
          <rect id="Rectángulo_422466" data-name="Rectángulo 422466" width="4.419" height="16.355" transform="translate(208.073 0)" fill="#915e40"/>
          <rect id="Rectángulo_422467" data-name="Rectángulo 422467" width="19.033" height="16.355" transform="translate(217.224 0)" fill="#915e40"/>
          <rect id="Rectángulo_422468" data-name="Rectángulo 422468" width="9.517" height="16.355" transform="translate(250.564 0)" fill="#915e40"/>
          <path id="Trazado_1217633" data-name="Trazado 1217633" d="M114.188,407.053h149.7a4.875,4.875,0,0,1,4.86,4.859h0a4.875,4.875,0,0,1-4.86,4.861h-149.7a4.875,4.875,0,0,1-4.859-4.861h0A4.875,4.875,0,0,1,114.188,407.053Z" transform="translate(-105.35 -404.396)" fill="#d49d80" fill-rule="evenodd"/>
        </g>
        <path id="Trazado_1235088" data-name="Trazado 1235088" d="M260.106,131.153Zm-2.256-8.589a4.339,4.339,0,1,0,1.271,3.069,4.329,4.329,0,0,0-1.271-3.069Zm-.938-4.3a7.659,7.659,0,0,1,3.192,1.849.264.264,0,0,0,.317.039l2.017-1.164.01-.006a.5.5,0,0,1,.369-.043.493.493,0,0,1,.3.232l.01.014,1.418,2.457a.5.5,0,0,1-.184.683l-.014.009-2,1.154a.267.267,0,0,0-.126.294h0a7.5,7.5,0,0,1,.169.917,7.8,7.8,0,0,1,0,1.869,7.424,7.424,0,0,1-.169.917.269.269,0,0,0,.142.3l2,1.153h0a.5.5,0,0,1,.184.682l-1.426,2.471h0a.493.493,0,0,1-.3.232.5.5,0,0,1-.38-.048l-.015-.009-2-1.155a.266.266,0,0,0-.316.039,7.722,7.722,0,0,1-1.492,1.125,7.636,7.636,0,0,1-1.712.727.266.266,0,0,0-.194.255v2.326a.5.5,0,0,1-.146.352.5.5,0,0,1-.352.146h-2.854a.5.5,0,0,1-.5-.5v-2.326a.267.267,0,0,0-.2-.259,7.668,7.668,0,0,1-1.7-.724,7.759,7.759,0,0,1-1.491-1.125.266.266,0,0,0-.331-.031l-2,1.157a.5.5,0,0,1-.682-.184l-.009-.014-1.418-2.457h0a.5.5,0,0,1-.048-.378.488.488,0,0,1,.231-.3l2.014-1.164a.265.265,0,0,0,.125-.293h0a7.832,7.832,0,0,1-.168-2.786,7.816,7.816,0,0,1,.168-.917.266.266,0,0,0-.14-.3l-2-1.154a.493.493,0,0,1-.231-.3.5.5,0,0,1,.048-.38l.008-.014,1.418-2.457h0a.5.5,0,0,1,.682-.184h0l2.016,1.164a.263.263,0,0,0,.323-.045,7.774,7.774,0,0,1,1.487-1.119,7.573,7.573,0,0,1,1.712-.726.269.269,0,0,0,.193-.257V115.68a.5.5,0,0,1,.5-.5h2.854a.5.5,0,0,1,.5.5v2.326A.268.268,0,0,0,256.913,118.264Z" transform="translate(18.075 17.312)" fill="#ebf2f8" fill-rule="evenodd"/>
      </g>
    </g>
    <g id="Grupo_1219563" data-name="Grupo 1219563" transform="translate(1100.002 2373.817)">
      <path id="Trazado_1092083" data-name="Trazado 1092083" d="M262.2,236.845v-3.97h-7.374V230.34l6.3-10.14h4.764v9.757h2v2.918h-2v3.97H262.2Zm0-6.888V226.27c0-1,.051-2.022.127-3.1h-.1c-.537,1.074-.974,2.049-1.538,3.1l-2.227,3.636v.051Z" transform="translate(-254.826 -220.2)" fill="#fff"/>
    </g>
    <g id="XMLID_485_" transform="translate(276.129 2215.914)">
      <g id="XMLID_473_" transform="translate(0 45.76)">
        <g id="XMLID_474_">
          <path id="XMLID_1888_" d="M157.229,173.929a16.984,16.984,0,1,0-16.984,16.984A17,17,0,0,0,157.229,173.929Zm-31.409,0a14.425,14.425,0,1,1,14.425,14.425A14.441,14.441,0,0,1,125.82,173.929Z" transform="translate(-107.49 -142.719)" fill="#fff"/>
          <path id="XMLID_1885_" d="M215.1,254.611v-6.929a3.655,3.655,0,0,0-2.455-6.885l-2.829-2.829a1.28,1.28,0,1,0-1.81,1.81l2.651,2.651a3.652,3.652,0,0,0,1.884,5.254v6.929a1.28,1.28,0,0,0,2.559,0Zm-.183-10.353a1.1,1.1,0,1,1-1.1-1.1A1.1,1.1,0,0,1,214.915,244.258Z" transform="translate(-181.063 -213.048)" fill="#fff"/>
          <g transform="matrix(1, 0, 0, 1, -82.04, -210.84)" filter="url(#XMLID_480_)">
            <path id="XMLID_480_2" data-name="XMLID_480_" d="M104.086,64.74a1.279,1.279,0,0,0,1.809,0,7.207,7.207,0,0,0,0-10.193l-1.45-1.45a7.216,7.216,0,0,0-10.193,0,1.279,1.279,0,0,0,0,1.809l4.1,4.1-.95.95a22.5,22.5,0,0,0-13.564-5.539v-1.33h2.447a3.663,3.663,0,0,0,0-7.327H78.832a3.663,3.663,0,0,0,0,7.327h2.447v1.33a22.5,22.5,0,0,0-13.564,5.539l-.95-.95,4.1-4.1a1.279,1.279,0,0,0,0-1.809,7.216,7.216,0,0,0-10.193,0l-1.45,1.45a7.207,7.207,0,0,0,0,10.193,1.279,1.279,0,0,0,1.809,0l3.924-3.924.929.929a22.57,22.57,0,0,0-1.672,28.409l-2.2,4.164A3.57,3.57,0,0,0,67.888,98.3l2.149-2.53a22.53,22.53,0,0,0,7.114,3.141,1.279,1.279,0,1,0,.611-2.485,20.03,20.03,0,1,1,9.624-.007A1.279,1.279,0,1,0,88,98.9a22.531,22.531,0,0,0,7.08-3.133L97.229,98.3a3.57,3.57,0,0,0,5.877-3.979l-2.2-4.164a22.571,22.571,0,0,0-1.672-28.409l.929-.929ZM77.727,49.423a1.106,1.106,0,0,1,1.1-1.1h7.453a1.1,1.1,0,1,1,0,2.209H78.832A1.106,1.106,0,0,1,77.727,49.423ZM60.252,61.9a4.655,4.655,0,0,1,.779-5.544l1.45-1.45a4.659,4.659,0,0,1,5.543-.778Zm5.685,34.74a1.01,1.01,0,0,1-.771.357,1.011,1.011,0,0,1-.894-1.484l1.7-3.211a22.674,22.674,0,0,0,2.016,1.924Zm34.879-.133A1,1,0,0,1,99.95,97a1.009,1.009,0,0,1-.771-.356l-2.05-2.414A22.7,22.7,0,0,0,99.146,92.3l1.7,3.211A1,1,0,0,1,100.816,96.508Zm1.819-41.6,1.45,1.45a4.655,4.655,0,0,1,.779,5.544l-7.772-7.772A4.657,4.657,0,0,1,102.635,54.906Z" transform="translate(32.23 165.08)" fill="#fff"/>
          </g>
          <path id="XMLID_479_" d="M443.093,221.479a1.279,1.279,0,0,0-.864,1.59,24.928,24.928,0,0,1,0,14.173,1.279,1.279,0,1,0,2.454.725,27.481,27.481,0,0,0,0-15.625A1.279,1.279,0,0,0,443.093,221.479Z" transform="translate(-385.6 -198.95)" fill="#fff"/>
          <path id="XMLID_478_" d="M477.193,189.766a1.28,1.28,0,1,0-2.379.942,30.136,30.136,0,0,1,0,22.274,1.28,1.28,0,1,0,2.379.942,32.869,32.869,0,0,0,0-24.158Z" transform="translate(-413.983 -170.636)" fill="#fff"/>
          <path id="XMLID_477_" d="M44.086,221.481a1.28,1.28,0,0,0-1.59.864,27.481,27.481,0,0,0,0,15.625,1.279,1.279,0,1,0,2.454-.725,24.928,24.928,0,0,1,0-14.173A1.279,1.279,0,0,0,44.086,221.481Z" transform="translate(-36.069 -198.952)" fill="#fff"/>
          <path id="XMLID_476_" d="M4.679,190.709a1.28,1.28,0,0,0-2.379-.942,32.87,32.87,0,0,0,0,24.158,1.28,1.28,0,0,0,2.379-.942A30.135,30.135,0,0,1,4.679,190.709Z" transform="translate(0 -170.636)" fill="#fff"/>
          <path id="XMLID_475_" d="M247.279,446.24a1.28,1.28,0,1,0,.9.375A1.289,1.289,0,0,0,247.279,446.24Z" transform="translate(-214.525 -394.999)" fill="#fff"/>
        </g>
      </g>
    </g>
    <g id="XMLID_176_" transform="translate(389.862 2237.938)">
      <g id="XMLID_154_" transform="translate(111.748)">
        <g id="XMLID_174_">
          <g transform="matrix(1, 0, 0, 1, -307.52, -187.1)" filter="url(#XMLID_175_)">
            <path id="XMLID_175_2" data-name="XMLID_175_" d="M130.732,73.08a18.985,18.985,0,0,1-9.991-35.128V29.689a1.427,1.427,0,1,1,2.855,0v9.079a1.428,1.428,0,0,1-.73,1.246,16.129,16.129,0,1,0,15.733,0,1.427,1.427,0,0,1-.73-1.246V9.991a7.137,7.137,0,1,0-14.273,0V18.27a1.427,1.427,0,1,1-2.855,0V9.991a9.991,9.991,0,1,1,19.983,0V37.952a18.985,18.985,0,0,1-9.991,35.128Z" transform="translate(195.77 187.1)" fill="#fff"/>
          </g>
        </g>
        <g id="XMLID_170_" transform="translate(5.71 10.003)">
          <path id="XMLID_171_" d="M165.026,127.45a13.276,13.276,0,0,1-4.282-25.841V71.51a1.428,1.428,0,0,1,1.427-1.427h5.709a1.427,1.427,0,0,1,1.427,1.427v30.1a13.276,13.276,0,0,1-4.282,25.841ZM163.6,72.938v29.74a1.427,1.427,0,0,1-1.085,1.386,10.42,10.42,0,1,0,5.024,0,1.427,1.427,0,0,1-1.085-1.386V72.938Z" transform="translate(-151.752 -70.083)" fill="#fff"/>
        </g>
        <g id="XMLID_161_" transform="translate(33.044 10.003)">
          <g id="XMLID_168_" transform="translate(0 23.979)">
            <path id="XMLID_169_" d="M349.961,240.938h-5.281a1.427,1.427,0,0,1,0-2.855h5.281a1.427,1.427,0,0,1,0,2.855Z" transform="translate(-343.252 -238.083)" fill="#fff"/>
          </g>
          <g id="XMLID_166_" transform="translate(0 15.986)">
            <path id="XMLID_167_" d="M349.961,184.938h-5.281a1.427,1.427,0,0,1,0-2.855h5.281a1.427,1.427,0,0,1,0,2.855Z" transform="translate(-343.252 -182.083)" fill="#fff"/>
          </g>
          <g id="XMLID_164_" transform="translate(0 7.993)">
            <path id="XMLID_165_" d="M349.961,128.938h-5.281a1.427,1.427,0,0,1,0-2.855h5.281a1.427,1.427,0,0,1,0,2.855Z" transform="translate(-343.252 -126.083)" fill="#fff"/>
          </g>
          <g id="XMLID_162_">
            <path id="XMLID_163_" d="M349.961,72.938h-5.281a1.427,1.427,0,0,1,0-2.855h5.281a1.427,1.427,0,0,1,0,2.855Z" transform="translate(-343.252 -70.083)" fill="#fff"/>
          </g>
        </g>
        <g id="XMLID_159_" transform="translate(8.993 22.552)">
          <path id="XMLID_160_" d="M176.177,160.855a1.428,1.428,0,1,1,1.009-.418A1.438,1.438,0,0,1,176.177,160.855Z" transform="translate(-174.75 -158)" fill="#fff"/>
        </g>
        <g id="XMLID_157_" transform="translate(14.296 52.669)">
          <path id="XMLID_158_" d="M216.593,377.988a7.546,7.546,0,0,1-4.02-1.156,1.427,1.427,0,1,1,1.519-2.417,4.711,4.711,0,0,0,7.211-3.991,1.427,1.427,0,1,1,2.855,0A7.573,7.573,0,0,1,216.593,377.988Z" transform="translate(-211.905 -368.996)" fill="#fff"/>
        </g>
        <g id="XMLID_155_" transform="translate(11.42 52.664)">
          <path id="XMLID_156_" d="M193.184,371.829a1.432,1.432,0,0,1-.009-2.864h.009a1.431,1.431,0,0,1,1.427,1.419v.012a1.431,1.431,0,0,1-1.424,1.432Z" transform="translate(-191.757 -368.965)" fill="#fff"/>
        </g>
      </g>
    </g>
    <g id="entrega-24-horas" transform="translate(861.646 2236.511)">
      <g transform="matrix(1, 0, 0, 1, -667.55, -185.67)" filter="url(#Trazado_1236872)">
        <path id="Trazado_1236872-2" data-name="Trazado 1236872" d="M42.332,41.311a1.343,1.343,0,0,0-1.343-1.343H39.681V30.011a1.343,1.343,0,0,0-2.44-.777l-8.012,11.3a1.345,1.345,0,0,0,1.1,2.121h6.669v2.434a1.343,1.343,0,0,0,2.687,0V42.655h1.308a1.343,1.343,0,0,0,1.343-1.343Zm-5.338-1.343H32.927l4.068-5.732Z" transform="translate(690.49 204.97)" fill="#fff"/>
      </g>
      <g transform="matrix(1, 0, 0, 1, -667.55, -185.67)" filter="url(#Trazado_1236873)">
        <path id="Trazado_1236873-2" data-name="Trazado 1236873" d="M44.234,28.49a1.342,1.342,0,0,0-1.745.752L36.306,44.808a1.343,1.343,0,0,0,2.5.992l6.183-15.567a1.342,1.342,0,0,0-.752-1.743Z" transform="translate(696.2 204.76)" fill="#fff"/>
      </g>
      <g transform="matrix(1, 0, 0, 1, -667.55, -185.67)" filter="url(#Trazado_1236874)">
        <path id="Trazado_1236874-2" data-name="Trazado 1236874" d="M53.114,29.622a1.343,1.343,0,0,0-1.214-.768H42.716a1.343,1.343,0,1,0,0,2.687h6.493a35.692,35.692,0,0,0-3.38,5.755A27.011,27.011,0,0,0,43.68,44.8a1.345,1.345,0,0,0,1.2,1.474h.14a1.343,1.343,0,0,0,1.334-1.2,24.835,24.835,0,0,1,1.931-6.69,38.961,38.961,0,0,1,4.657-7.344,1.342,1.342,0,0,0,.174-1.419Z" transform="translate(700.29 205.12)" fill="#fff"/>
      </g>
      <g transform="matrix(1, 0, 0, 1, -667.55, -185.67)" filter="url(#Trazado_1236875)">
        <path id="Trazado_1236875-2" data-name="Trazado 1236875" d="M33.287,43.749H26.036a3.692,3.692,0,0,1,1.059-1.4,38,38,0,0,1,3.147-2.237,18.041,18.041,0,0,0,2.2-1.587,6.162,6.162,0,0,0,1.884-4.247,5.82,5.82,0,0,0-1.592-4.052,5.3,5.3,0,0,0-3.9-1.558A5.458,5.458,0,0,0,23.048,34.4a1.343,1.343,0,1,0,2.687,0,2.812,2.812,0,0,1,3.1-3.045,2.644,2.644,0,0,1,1.97.749,3.1,3.1,0,0,1,.828,2.11,3.482,3.482,0,0,1-1.041,2.361,18.988,18.988,0,0,1-1.838,1.3,41.242,41.242,0,0,0-3.373,2.4,6.416,6.416,0,0,0-2.339,4.865,1.347,1.347,0,0,0,1.343,1.3h8.895a1.343,1.343,0,0,0,0-2.687Z" transform="translate(685.78 204.97)" fill="#fff"/>
      </g>
      <g transform="matrix(1, 0, 0, 1, -667.55, -185.67)" filter="url(#Trazado_1236876)">
        <path id="Trazado_1236876-2" data-name="Trazado 1236876" d="M35.338,4.271a35.338,35.338,0,0,0,0,70.676A1.342,1.342,0,0,0,36.681,73.6V67.9a1.343,1.343,0,1,0-2.687,0v4.338A32.367,32.367,0,0,1,20.2,68.5l2.149-3.722a1.344,1.344,0,0,0-2.329-1.343l-2.149,3.718A32.882,32.882,0,0,1,7.767,57.071L11.5,54.922a1.344,1.344,0,0,0-1.343-2.329L6.42,54.755a32.456,32.456,0,0,1-3.667-13.8h4.3a1.343,1.343,0,1,0,0-2.687h-4.3a32.456,32.456,0,0,1,3.667-13.8l3.751,2.166A1.344,1.344,0,0,0,11.514,24.3L7.779,22.151A32.882,32.882,0,0,1,17.887,12.064l2.149,3.718a1.344,1.344,0,0,0,2.329-1.343l-2.149-3.722A32.367,32.367,0,0,1,34.007,6.985v4.338a1.343,1.343,0,0,0,2.687,0V5.614a1.342,1.342,0,0,0-1.356-1.343Z" transform="translate(667.55 185.67)" fill="#fff"/>
      </g>
      <path id="Trazado_1236877" data-name="Trazado 1236877" d="M24.575,13.76A1.343,1.343,0,0,0,23.231,15.1V31.4l-9.1,6.416a1.345,1.345,0,0,0,1.551,2.2l9.672-6.806a1.342,1.342,0,0,0,.561-1.107v-17a1.343,1.343,0,0,0-1.343-1.343Z" transform="translate(10.763 7.507)" fill="#fff"/>
      <circle id="Elipse_12759" data-name="Elipse 12759" cx="1.349" cy="1.349" r="1.349" transform="translate(42.798 5.423)" fill="#fff"/>
      <circle id="Elipse_12760" data-name="Elipse 12760" cx="1.349" cy="1.349" r="1.349" transform="translate(50.989 8.826)" fill="#fff"/>
      <circle id="Elipse_12761" data-name="Elipse 12761" cx="1.349" cy="1.349" r="1.349" transform="translate(58.018 14.216)" fill="#fff"/>
      <circle id="Elipse_12762" data-name="Elipse 12762" cx="1.349" cy="1.349" r="1.349" transform="translate(63.424 21.259)" fill="#fff"/>
      <circle id="Elipse_12763" data-name="Elipse 12763" cx="1.349" cy="1.349" r="1.349" transform="translate(66.829 29.46)" fill="#fff"/>
      <circle id="Elipse_12764" data-name="Elipse 12764" cx="1.349" cy="1.349" r="1.349" transform="translate(67.982 38.269)" fill="#fff"/>
    </g>
    <g id="seguridad-mundial" transform="translate(1073.293 2243.998)">
      <path id="Trazado_1236878" data-name="Trazado 1236878" d="M32.621,38.038c2.265.243,2.268-2.694,0-2.266A3.138,3.138,0,1,1,35.6,33.621a1.133,1.133,0,1,0,2.156.7,5.429,5.429,0,0,0-5.135-7.091c-7.143.227-7.142,10.583,0,10.809Z" transform="translate(3.098 3.095)" fill="#fff"/>
      <g transform="matrix(1, 0, 0, 1, -879.2, -193.16)" filter="url(#Trazado_1236879)">
        <path id="Trazado_1236879-2" data-name="Trazado 1236879" d="M67.448,35.728a31.749,31.749,0,0,0-3.867-15.195,1.133,1.133,0,1,0-1.989,1.087A29.444,29.444,0,0,1,65.146,34.6H54.163A47.688,47.688,0,0,0,50.684,17.1a34.26,34.26,0,0,0,4.967-3.046,28.928,28.928,0,0,1,3.573,3.91A1.133,1.133,0,0,0,61.031,16.6,31.783,31.783,0,0,0,35.719,4C6.261,4.164-7.214,40.81,15.238,59.932c20.5,17.412,52.2,2.662,52.21-24.2ZM55.636,57.4a32.84,32.84,0,0,0-4.952-3.046,47.689,47.689,0,0,0,3.479-17.5H65.151A29.34,29.34,0,0,1,55.636,57.4ZM28.261,39.431c-.373-.621-.375-1.519-1.155-1.763l-2.992-.989c.005-.479,0-1.423,0-1.9l2.992-.989a1.133,1.133,0,0,0,.719-.715c.163-.661.818-1.353.434-2.062l-1.418-2.817,1.345-1.346L31,28.268a1.134,1.134,0,0,0,1.014,0c.618-.371,1.52-.375,1.763-1.155l.988-2.991c.477.005,1.425,0,1.9,0l.988,2.991a1.136,1.136,0,0,0,.715.719c.664.164,1.353.817,2.062.434l2.817-1.419L44.6,28.195,43.18,31.012c-.384.708.27,1.4.434,2.062a1.133,1.133,0,0,0,.719.715l2.992.989c-.005.479,0,1.423,0,1.9l-2.992.989a1.133,1.133,0,0,0-.719.715c-.163.661-.818,1.353-.434,2.062L44.6,43.262l-1.345,1.346-2.817-1.419c-.711-.383-1.4.269-2.062.434a1.136,1.136,0,0,0-.715.719l-.988,2.991c-.477-.005-1.425,0-1.9,0l-.988-2.991a1.136,1.136,0,0,0-.715-.719c-.664-.164-1.353-.817-2.062-.434l-2.817,1.419-1.345-1.346,1.418-2.817a1.133,1.133,0,0,0,0-1.014ZM36.852,6.348c4.142.532,8.01,3.962,10.843,9.638a30.3,30.3,0,0,1-10.843,2.351Zm-2.266,0V18.3a29.63,29.63,0,0,1-10.727-2.558c2.837-5.523,6.663-8.863,10.727-9.39ZM22.912,17.8a31.7,31.7,0,0,0,11.674,2.765v1.3c-.686-.044-1.472.006-1.713.778L31.8,25.886c-.089.035-.178.072-.266.111l-3.06-1.54a1.136,1.136,0,0,0-1.311.211l-2.5,2.5a1.132,1.132,0,0,0-.211,1.31l1.539,3.06c-.038.089-.076.178-.111.267l-3.252,1.076c-.772.24-.822,1.027-.777,1.712h-2.3a46.185,46.185,0,0,1,3.369-16.8ZM37.489,49.6a1.134,1.134,0,0,0,1.076-.778L39.64,45.57c.089-.035.178-.072.266-.111L42.966,47a1.134,1.134,0,0,0,1.311-.211l2.5-2.5a1.132,1.132,0,0,0,.211-1.31l-1.539-3.06c.038-.089.076-.178.111-.267l3.252-1.076c.772-.24.822-1.027.777-1.712h2.3a46.2,46.2,0,0,1-3.272,16.545,32.4,32.4,0,0,0-11.772-2.548V49.6Zm-2.9,15.509c-4.067-.527-7.891-3.867-10.72-9.387a29.775,29.775,0,0,1,10.72-2.557Zm2.266,0V53.125a30.117,30.117,0,0,1,10.842,2.348c-2.832,5.674-6.7,9.1-10.842,9.636ZM49.591,34.6c.044-.686-.006-1.472-.777-1.712l-3.252-1.076c-.035-.089-.073-.178-.111-.267l1.539-3.06a1.132,1.132,0,0,0-.211-1.31l-2.5-2.5a1.136,1.136,0,0,0-1.311-.211L39.906,26c-.089-.039-.177-.075-.266-.111l-1.074-3.251c-.242-.773-1.028-.822-1.713-.778V20.6a32.6,32.6,0,0,0,11.773-2.551A46.2,46.2,0,0,1,51.9,34.6ZM53.859,12.56a31.886,31.886,0,0,1-4.109,2.474,24.548,24.548,0,0,0-5.474-7.474,29.254,29.254,0,0,1,9.583,5ZM21.829,14.737a29.9,29.9,0,0,1-3.865-2.468,29.293,29.293,0,0,1,9.206-4.7,24.463,24.463,0,0,0-5.341,7.172Zm-5.67-1A32.064,32.064,0,0,0,20.876,16.8a48.441,48.441,0,0,0-3.6,17.8H6.288a29.308,29.308,0,0,1,9.87-20.863ZM6.288,36.862H17.277a52.578,52.578,0,0,0,1.049,9.6A1.133,1.133,0,0,0,20.545,46a50.306,50.306,0,0,1-1-9.141h2.3c-.044.686.007,1.472.777,1.712l3.252,1.076c.035.089.073.178.111.267l-1.539,3.06a1.131,1.131,0,0,0,.211,1.31l2.5,2.5A1.135,1.135,0,0,0,28.473,47l3.06-1.54c.089.039.177.075.266.111l1.074,3.251c.24.772,1.029.822,1.713.778v1.3a31.857,31.857,0,0,0-11.665,2.764,34.673,34.673,0,0,1-1.258-3.378,1.133,1.133,0,1,0-2.167.666,37.127,37.127,0,0,0,1.388,3.712,32.044,32.044,0,0,0-4.723,3.065A29.3,29.3,0,0,1,6.288,36.862ZM17.969,59.19a29.76,29.76,0,0,1,3.866-2.467,24.4,24.4,0,0,0,5.331,7.168,29.3,29.3,0,0,1-9.2-4.7ZM49.75,56.423a30.7,30.7,0,0,1,4.1,2.472,29.239,29.239,0,0,1-9.571,5A24.55,24.55,0,0,0,49.75,56.423Z" transform="translate(879.2 193.16)" fill="#fff"/>
      </g>
    </g>
    <g id="Fast_Time" data-name="Fast Time" transform="translate(1255.722 2255.134)">
      <g transform="matrix(1, 0, 0, 1, -1061.63, -204.29)" filter="url(#Trazado_1236880)">
        <path id="Trazado_1236880-2" data-name="Trazado 1236880" d="M58.661,24.1l.938-.938.028.028a1.749,1.749,0,0,0,2.475,0l1.449-1.449a1.75,1.75,0,0,0,0-2.476l-3.8-3.8a1.793,1.793,0,0,0-2.475,0l-1.449,1.449a1.75,1.75,0,0,0,0,2.476l.027.027-.99.99a24.226,24.226,0,0,0-11.681-4.949V12.579h1.875a2.113,2.113,0,0,0,2.111-2.111V8.08a2.113,2.113,0,0,0-2.111-2.111H34.7A2.113,2.113,0,0,0,32.586,8.08v2.388A2.113,2.113,0,0,0,34.7,12.579h1.876v2.883a24.213,24.213,0,0,0-3.805.823,1.113,1.113,0,0,0,.65,2.13,22.126,22.126,0,1,1-9.183,36.807A1.113,1.113,0,1,0,22.661,56.8a24.343,24.343,0,0,0,36-32.694Zm-.148-6.724L61.642,20.5l-.776.777-3.128-3.127Zm-1.085,3.616.6.6-.86.861c-.2-.2-.4-.393-.606-.585ZM34.812,10.353V8.2H44.944v2.158ZM38.8,15.27V12.579h2.157v2.678c-.358-.016-.717-.027-1.078-.027S39.159,15.254,38.8,15.27Z" transform="translate(1063.7 204.29)" fill="#fff"/>
      </g>
      <path id="Trazado_1236881" data-name="Trazado 1236881" d="M53.886,52.61a20.361,20.361,0,0,0,0-28.751c-.014-.016-.019-.036-.034-.051s-.035-.02-.051-.034a20.335,20.335,0,0,0-14.376-5.942,20.556,20.556,0,0,0-3.656.327,1.113,1.113,0,1,0,.4,2.19,18.276,18.276,0,0,1,2.144-.241V21.85a1.113,1.113,0,0,0,2.227,0V20.115a18.075,18.075,0,0,1,10.909,4.524l-1.223,1.223A1.113,1.113,0,1,0,51.8,27.436l1.223-1.223a18.076,18.076,0,0,1,4.524,10.909H55.81a1.113,1.113,0,1,0,0,2.227h1.734A18.075,18.075,0,0,1,53.02,50.258L51.8,49.034a1.113,1.113,0,1,0-1.574,1.574l1.223,1.223a18.075,18.075,0,0,1-10.909,4.524V54.621a1.113,1.113,0,1,0-2.227,0v1.745a17.961,17.961,0,0,1-10.16-3.87,1.113,1.113,0,0,0-1.381,1.746A20.383,20.383,0,0,0,53.8,52.7c.016-.015.037-.02.053-.035s.021-.037.035-.053Z" transform="translate(2.527 1.344)" fill="#fff"/>
      <path id="Trazado_1236882" data-name="Trazado 1236882" d="M47.97,27.659a1.113,1.113,0,0,0-1.574,0l-6.24,6.24a3.64,3.64,0,0,0-1.686-.428,3.688,3.688,0,1,0,3.688,3.688,3.641,3.641,0,0,0-.427-1.686l6.24-6.24A1.113,1.113,0,0,0,47.97,27.659Zm-9.5,10.962A1.461,1.461,0,1,1,39.5,36.126h0a1.461,1.461,0,0,1-1.033,2.494Z" transform="translate(3.482 2.42)" fill="#fff"/>
      <path id="Trazado_1236883" data-name="Trazado 1236883" d="M27.452,20.059H20.424a1.113,1.113,0,0,1,0-2.227h7.029a1.113,1.113,0,0,1,0,2.227Z" transform="translate(1.73 1.344)" fill="#fff"/>
      <path id="Trazado_1236884" data-name="Trazado 1236884" d="M17.424,20.059H15.172a1.113,1.113,0,0,1,0-2.227h2.253a1.113,1.113,0,0,1,0,2.227Z" transform="translate(1.135 1.344)" fill="#fff"/>
      <path id="Trazado_1236885" data-name="Trazado 1236885" d="M31.715,26.643H13.1a1.113,1.113,0,1,1,0-2.227H31.715a1.113,1.113,0,0,1,0,2.227Z" transform="translate(0.901 2.089)" fill="#fff"/>
      <path id="Trazado_1236886" data-name="Trazado 1236886" d="M24.6,33.227H5.148a1.113,1.113,0,1,1,0-2.227H24.6a1.113,1.113,0,1,1,0,2.227Z" transform="translate(0 2.835)" fill="#fff"/>
      <path id="Trazado_1236887" data-name="Trazado 1236887" d="M28.01,33.227H25.918a1.113,1.113,0,1,1,0-2.227H28.01a1.113,1.113,0,1,1,0,2.227Z" transform="translate(2.352 2.835)" fill="#fff"/>
      <path id="Trazado_1236888" data-name="Trazado 1236888" d="M33.331,39.811h-16.5a1.113,1.113,0,1,1,0-2.227h16.5a1.113,1.113,0,1,1,0,2.227Z" transform="translate(1.324 3.581)" fill="#fff"/>
      <path id="Trazado_1236889" data-name="Trazado 1236889" d="M12.819,46.395H10.834a1.113,1.113,0,1,1,0-2.227h1.985a1.113,1.113,0,1,1,0,2.227Z" transform="translate(0.644 4.327)" fill="#fff"/>
      <path id="Trazado_1236890" data-name="Trazado 1236890" d="M29.156,46.395H15.8a1.113,1.113,0,1,1,0-2.227H29.156a1.113,1.113,0,0,1,0,2.227Z" transform="translate(1.206 4.327)" fill="#fff"/>
    </g>
  </g>
</svg>
