<svg xmlns="http://www.w3.org/2000/svg" xmlns:xlink="http://www.w3.org/1999/xlink" width="113" height="113" viewBox="0 0 113 113">
  <defs>
    <filter id="Trazado_982547" x="0" y="0" width="113" height="113" filterUnits="userSpaceOnUse">
      <feOffset dy="3" input="SourceAlpha"/>
      <feGaussianBlur stdDeviation="3" result="blur"/>
      <feFlood flood-opacity="0.161"/>
      <feComposite operator="in" in2="blur"/>
      <feComposite in="SourceGraphic"/>
    </filter>
  </defs>
  <g id="Grupo_1236926" data-name="Grupo 1236926" transform="translate(-1165 -1342.76)">
    <g id="Grupo_1235707" data-name="Grupo 1235707" transform="translate(0 26.047)">
      <g id="Grupo_1223812" data-name="Grupo 1223812" transform="translate(0 -108)">
        <g id="Grupo_1211533" data-name="Grupo 1211533" transform="translate(840.229 -678)">
          <g id="Grupo_1210969" data-name="Grupo 1210969" transform="translate(333.771 2108.712)">
            <g id="Grupo_1210937" data-name="Grupo 1210937" transform="translate(0 0)">
              <g id="Grupo_1174742" data-name="Grupo 1174742">
                <g id="Grupo_1163948" data-name="Grupo 1163948">
                  <g id="Grupo_1158168" data-name="Grupo 1158168" transform="translate(0)">
                    <g id="Grupo_1152576" data-name="Grupo 1152576">
                      <g id="Grupo_1148633" data-name="Grupo 1148633">
                        <g id="Grupo_1148525" data-name="Grupo 1148525">
                          <g transform="matrix(1, 0, 0, 1, -9, -6)" filter="url(#Trazado_982547)">
                            <g id="Trazado_982547-2" data-name="Trazado 982547" transform="translate(9 6)" fill="#fbe7b2">
                              <path d="M 47.5 93.5 C 41.28937149047852 93.5 35.26533508300781 92.28397369384766 29.59518623352051 89.88570404052734 C 24.11771965026855 87.56893157958984 19.19813346862793 84.25196075439453 14.97309303283691 80.02691650390625 C 10.74804019927979 75.80186462402344 7.431066513061523 70.88229370117188 5.114293098449707 65.40481567382812 C 2.716026782989502 59.73468017578125 1.5 53.71062850952148 1.5 47.5 C 1.5 41.28937149047852 2.716026782989502 35.26533508300781 5.114293098449707 29.59518623352051 C 7.431066513061523 24.11771965026855 10.74804019927979 19.19813346862793 14.97309303283691 14.97309303283691 C 19.19813346862793 10.74804019927979 24.11771965026855 7.431066513061523 29.59518623352051 5.114293098449707 C 35.26533508300781 2.716026782989502 41.28937149047852 1.5 47.5 1.5 C 53.71062850952148 1.5 59.73468017578125 2.716026782989502 65.40481567382812 5.114293098449707 C 70.88229370117188 7.431066513061523 75.80186462402344 10.74804019927979 80.02691650390625 14.97309303283691 C 84.25196075439453 19.19813346862793 87.56893157958984 24.11771965026855 89.88570404052734 29.59518623352051 C 92.28397369384766 35.26533508300781 93.5 41.28937149047852 93.5 47.5 C 93.5 53.71062850952148 92.28397369384766 59.73468017578125 89.88570404052734 65.40481567382812 C 87.56893157958984 70.88229370117188 84.25196075439453 75.80186462402344 80.02691650390625 80.02691650390625 C 75.80186462402344 84.25196075439453 70.88229370117188 87.56893157958984 65.40481567382812 89.88570404052734 C 59.73468017578125 92.28397369384766 53.71062850952148 93.5 47.5 93.5 Z" stroke="none"/>
                              <path d="M 47.5 3 C 41.49121475219727 3 35.66376876831055 4.176155090332031 30.17950439453125 6.495796203613281 C 24.88084411621094 8.736953735351562 20.12152099609375 11.94598388671875 16.03375244140625 16.03375244140625 C 11.94598388671875 20.12152099609375 8.736953735351562 24.88084411621094 6.495796203613281 30.17950439453125 C 4.176155090332031 35.66376876831055 3 41.49121475219727 3 47.5 C 3 53.50878524780273 4.176155090332031 59.33623123168945 6.495796203613281 64.82049560546875 C 8.736953735351562 70.11915588378906 11.94598388671875 74.87847900390625 16.03375244140625 78.96624755859375 C 20.12152099609375 83.05401611328125 24.88084411621094 86.26304626464844 30.17950439453125 88.50419616699219 C 35.66376876831055 90.82384490966797 41.49121475219727 92 47.5 92 C 53.50878524780273 92 59.33623123168945 90.82384490966797 64.82049560546875 88.50419616699219 C 70.11915588378906 86.26304626464844 74.87847900390625 83.05401611328125 78.96624755859375 78.96624755859375 C 83.05401611328125 74.87847900390625 86.26304626464844 70.11915588378906 88.50419616699219 64.82049560546875 C 90.82384490966797 59.33623123168945 92 53.50878524780273 92 47.5 C 92 41.49121475219727 90.82384490966797 35.66376876831055 88.50419616699219 30.17950439453125 C 86.26304626464844 24.88084411621094 83.05401611328125 20.12152099609375 78.96624755859375 16.03375244140625 C 74.87847900390625 11.94598388671875 70.11915588378906 8.736953735351562 64.82049560546875 6.495796203613281 C 59.33623123168945 4.176155090332031 53.50878524780273 3 47.5 3 M 47.5 0 C 73.7335205078125 0 95 21.2664794921875 95 47.5 C 95 73.7335205078125 73.7335205078125 95 47.5 95 C 21.2664794921875 95 0 73.7335205078125 0 47.5 C 0 21.2664794921875 21.2664794921875 0 47.5 0 Z" stroke="none" fill="#f5b104"/>
                            </g>
                          </g>
                        </g>
                      </g>
                    </g>
                  </g>
                </g>
              </g>
            </g>
          </g>
        </g>
      </g>
    </g>
    <g id="XMLID_74_" transform="translate(1187.803 1345.174)">
      <g id="XMLID_1598_" transform="translate(1.316 36.8)">
        <path id="XMLID_1440_" d="M220.031,147.476h-8.88a15.738,15.738,0,1,0,0,31.476h3.922l4.958,4.958v-4.958a15.738,15.738,0,1,0,0-31.476Z" transform="translate(-171.007 -147.476)" fill="#ffcd69"/>
        <path id="XMLID_1378_" d="M25.738,205.185h8.88a15.738,15.738,0,1,1,0,31.476H30.7l-4.958,4.958v-4.958a15.738,15.738,0,1,1,0-31.476Z" transform="translate(-10 -197.589)" fill="#fff"/>
        <g id="XMLID_1550_" transform="translate(7.015 20.726)">
          <circle id="XMLID_1518_" cx="2.633" cy="2.633" r="2.633" fill="#33d6f5"/>
          <circle id="XMLID_1514_" cx="2.633" cy="2.633" r="2.633" transform="translate(10.53)" fill="#33d6f5"/>
          <circle id="XMLID_1510_" cx="2.633" cy="2.633" r="2.633" transform="translate(21.061)" fill="#33d6f5"/>
        </g>
      </g>
      <g id="XMLID_838_" transform="translate(0 20.024)">
        <path id="XMLID_905_" d="M50.34,137.476h-8.88a17.034,17.034,0,0,0-14.224,7.646q-.645-.049-1.3-.049h-8.88a16.944,16.944,0,0,0-6.733,1.381,1.316,1.316,0,0,0,1.04,2.418,14.325,14.325,0,0,1,5.693-1.167h8.88a14.422,14.422,0,0,1,0,28.844H22.012a1.317,1.317,0,0,0-.931.386l-2.711,2.711v-1.78a1.316,1.316,0,0,0-1.316-1.316A14.43,14.43,0,0,1,3.813,156.4,1.316,1.316,0,1,0,1.4,155.357a17.064,17.064,0,0,0,14.341,23.774v3.692a1.316,1.316,0,0,0,2.247.931l4.572-4.572h3.377a17.052,17.052,0,0,0,14.218-7.648c.435.033.873.052,1.308.052h3.377l4.572,4.572a1.316,1.316,0,0,0,2.247-.931v-3.692a17.055,17.055,0,0,0-1.316-34.059Zm0,31.476a1.316,1.316,0,0,0-1.316,1.316v1.78l-2.711-2.711a1.317,1.317,0,0,0-.931-.386H41.562A17.052,17.052,0,0,0,30.136,145.6a14.307,14.307,0,0,1,11.325-5.488h8.88a14.422,14.422,0,0,1,0,28.844Z" transform="translate(0 -122.016)"/>
        <path id="XMLID_906_" d="M304.773,64.471a1.316,1.316,0,1,0,1.862,1.862,5.186,5.186,0,0,1,7.326,0,1.316,1.316,0,0,0,1.862-1.862,7.822,7.822,0,0,0-11.049,0Z" transform="translate(-264.321 -56.636)"/>
        <path id="XMLID_907_" d="M275.913,25.811a10.791,10.791,0,0,1,15.261,0,1.316,1.316,0,1,0,1.862-1.862,13.439,13.439,0,0,0-18.984,0,1.316,1.316,0,0,0,1.862,1.862Z" transform="translate(-237.643 -20.024)"/>
        <path id="XMLID_908_" d="M119.359,122.181a1.316,1.316,0,0,0,1.862,1.862,5.186,5.186,0,0,1,7.326,0,1.316,1.316,0,1,0,1.862-1.862A7.822,7.822,0,0,0,119.359,122.181Z" transform="translate(-103.313 -106.75)"/>
        <path id="XMLID_909_" d="M90.5,83.52a10.8,10.8,0,0,1,15.261,0,1.316,1.316,0,0,0,1.862-1.862,13.439,13.439,0,0,0-18.984,0A1.316,1.316,0,0,0,90.5,83.52Z" transform="translate(-76.636 -70.136)"/>
        <path id="XMLID_912_" d="M57.242,302.833a3.949,3.949,0,1,0-3.949-3.949A3.953,3.953,0,0,0,57.242,302.833Zm0-5.265a1.316,1.316,0,1,1-1.316,1.316A1.318,1.318,0,0,1,57.242,297.568Z" transform="translate(-46.278 -258.748)"/>
        <path id="XMLID_915_" d="M137.242,302.833a3.949,3.949,0,1,0-3.949-3.949A3.953,3.953,0,0,0,137.242,302.833Zm0-5.265a1.316,1.316,0,1,1-1.316,1.316A1.318,1.318,0,0,1,137.242,297.568Z" transform="translate(-115.748 -258.748)"/>
        <path id="XMLID_918_" d="M221.191,298.884a3.949,3.949,0,1,0-3.949,3.949A3.953,3.953,0,0,0,221.191,298.884Zm-5.265,0a1.316,1.316,0,1,1,1.316,1.316A1.318,1.318,0,0,1,215.926,298.884Z" transform="translate(-185.217 -258.748)"/>
        <path id="XMLID_919_" d="M36.436,232.739a1.319,1.319,0,1,0-.931-.387A1.325,1.325,0,0,0,36.436,232.739Z" transform="translate(-30.497 -202.453)"/>
      </g>
    </g>
  </g>
</svg>
