<svg xmlns="http://www.w3.org/2000/svg" xmlns:xlink="http://www.w3.org/1999/xlink" width="113" height="113" viewBox="0 0 113 113">
  <defs>
    <filter id="Trazado_982547" x="0" y="0" width="113" height="113" filterUnits="userSpaceOnUse">
      <feOffset dy="3" input="SourceAlpha"/>
      <feGaussianBlur stdDeviation="3" result="blur"/>
      <feFlood flood-opacity="0.161"/>
      <feComposite operator="in" in2="blur"/>
      <feComposite in="SourceGraphic"/>
    </filter>
  </defs>
  <g id="Grupo_1237042" data-name="Grupo 1237042" transform="translate(-271.425 -3969.991)">
    <g id="Grupo_1228499" data-name="Grupo 1228499" transform="translate(0 2589)">
      <g id="Grupo_1228118" data-name="Grupo 1228118" transform="translate(0 -4252.189)">
        <g id="Grupo_1227502" data-name="Grupo 1227502" transform="translate(0 2048.198)">
          <g id="Grupo_1225350" data-name="Grupo 1225350" transform="translate(-0.575 -393.641)">
            <g id="Grupo_1208121" data-name="Grupo 1208121" transform="translate(0 -1922.377)">
              <g id="Grupo_1202432" data-name="Grupo 1202432" transform="translate(0 1255.486)">
                <g id="Grupo_1202055" data-name="Grupo 1202055" transform="translate(0 3240.511)">
                  <g id="Grupo_1177900" data-name="Grupo 1177900" transform="translate(281 1411.003)">
                    <g id="Grupo_1172010" data-name="Grupo 1172010" transform="translate(0)">
                      <g id="Grupo_1171046" data-name="Grupo 1171046">
                        <g id="Grupo_1148525" data-name="Grupo 1148525">
                          <g transform="matrix(1, 0, 0, 1, -9, -6)" filter="url(#Trazado_982547)">
                            <g id="Trazado_982547-2" data-name="Trazado 982547" transform="translate(9 6)" fill="#fbe7b2">
                              <path d="M 47.5 93.5 C 41.28937149047852 93.5 35.26533508300781 92.28397369384766 29.59518623352051 89.88570404052734 C 24.11771965026855 87.56893157958984 19.19813346862793 84.25196075439453 14.97309303283691 80.02691650390625 C 10.74804019927979 75.80186462402344 7.431066513061523 70.88229370117188 5.114293098449707 65.40481567382812 C 2.716026782989502 59.73468017578125 1.5 53.71062850952148 1.5 47.5 C 1.5 41.28937149047852 2.716026782989502 35.26533508300781 5.114293098449707 29.59518623352051 C 7.431066513061523 24.11771965026855 10.74804019927979 19.19813346862793 14.97309303283691 14.97309303283691 C 19.19813346862793 10.74804019927979 24.11771965026855 7.431066513061523 29.59518623352051 5.114293098449707 C 35.26533508300781 2.716026782989502 41.28937149047852 1.5 47.5 1.5 C 53.71062850952148 1.5 59.73468017578125 2.716026782989502 65.40481567382812 5.114293098449707 C 70.88229370117188 7.431066513061523 75.80186462402344 10.74804019927979 80.02691650390625 14.97309303283691 C 84.25196075439453 19.19813346862793 87.56893157958984 24.11771965026855 89.88570404052734 29.59518623352051 C 92.28397369384766 35.26533508300781 93.5 41.28937149047852 93.5 47.5 C 93.5 53.71062850952148 92.28397369384766 59.73468017578125 89.88570404052734 65.40481567382812 C 87.56893157958984 70.88229370117188 84.25196075439453 75.80186462402344 80.02691650390625 80.02691650390625 C 75.80186462402344 84.25196075439453 70.88229370117188 87.56893157958984 65.40481567382812 89.88570404052734 C 59.73468017578125 92.28397369384766 53.71062850952148 93.5 47.5 93.5 Z" stroke="none"/>
                              <path d="M 47.5 3 C 41.49121475219727 3 35.66376876831055 4.176155090332031 30.17950439453125 6.495796203613281 C 24.88084411621094 8.736953735351562 20.12152099609375 11.94598388671875 16.03375244140625 16.03375244140625 C 11.94598388671875 20.12152099609375 8.736953735351562 24.88084411621094 6.495796203613281 30.17950439453125 C 4.176155090332031 35.66376876831055 3 41.49121475219727 3 47.5 C 3 53.50878524780273 4.176155090332031 59.33623123168945 6.495796203613281 64.82049560546875 C 8.736953735351562 70.11915588378906 11.94598388671875 74.87847900390625 16.03375244140625 78.96624755859375 C 20.12152099609375 83.05401611328125 24.88084411621094 86.26304626464844 30.17950439453125 88.50419616699219 C 35.66376876831055 90.82384490966797 41.49121475219727 92 47.5 92 C 53.50878524780273 92 59.33623123168945 90.82384490966797 64.82049560546875 88.50419616699219 C 70.11915588378906 86.26304626464844 74.87847900390625 83.05401611328125 78.96624755859375 78.96624755859375 C 83.05401611328125 74.87847900390625 86.26304626464844 70.11915588378906 88.50419616699219 64.82049560546875 C 90.82384490966797 59.33623123168945 92 53.50878524780273 92 47.5 C 92 41.49121475219727 90.82384490966797 35.66376876831055 88.50419616699219 30.17950439453125 C 86.26304626464844 24.88084411621094 83.05401611328125 20.12152099609375 78.96624755859375 16.03375244140625 C 74.87847900390625 11.94598388671875 70.11915588378906 8.736953735351562 64.82049560546875 6.495796203613281 C 59.33623123168945 4.176155090332031 53.50878524780273 3 47.5 3 M 47.5 0 C 73.7335205078125 0 95 21.2664794921875 95 47.5 C 95 73.7335205078125 73.7335205078125 95 47.5 95 C 21.2664794921875 95 0 73.7335205078125 0 47.5 C 0 21.2664794921875 21.2664794921875 0 47.5 0 Z" stroke="none" fill="#f5b104"/>
                            </g>
                          </g>
                        </g>
                      </g>
                    </g>
                  </g>
                </g>
              </g>
            </g>
          </g>
        </g>
      </g>
    </g>
    <g id="sincronizacion" transform="translate(296 3987)">
      <path id="Trazado_1238014" data-name="Trazado 1238014" d="M54,54v4a4,4,0,0,1-4,4H6a4,4,0,0,1-4-4V54H54Z" fill="#969faa"/>
      <path id="Trazado_1238015" data-name="Trazado 1238015" d="M18.34,22H8a4,4,0,0,0-4,4V54H52V22Z" fill="#ccd1d9"/>
      <path id="Trazado_1238016" data-name="Trazado 1238016" d="M9,26a1,1,0,0,0-1,1V49a1,1,0,0,0,1,1H47a1,1,0,0,0,1-1V26Z" fill="#69d6f4"/>
      <g id="Grupo_1237041" data-name="Grupo 1237041">
        <path id="Trazado_1238017" data-name="Trazado 1238017" d="M32,42v4H28V38h4Z" fill="#b4dd7f"/>
        <path id="Trazado_1238018" data-name="Trazado 1238018" d="M16,32V46H12V30h4Z" fill="#b4dd7f"/>
        <path id="Trazado_1238019" data-name="Trazado 1238019" d="M20,34V46H16V32h4Z" fill="#b4dd7f"/>
        <path id="Trazado_1238020" data-name="Trazado 1238020" d="M28,38v8H24V36h4Z" fill="#b4dd7f"/>
        <path id="Trazado_1238021" data-name="Trazado 1238021" d="M24,36V46H20V34h4Z" fill="#b4dd7f"/>
      </g>
      <path id="Trazado_1238022" data-name="Trazado 1238022" d="M47.79,7.08A9.58,9.58,0,0,1,49,7a9,9,0,0,1,9,9,9.247,9.247,0,0,1-.29,2.25A6,6,0,0,1,56,30H24a5.978,5.978,0,0,1-2.86-.72A6.107,6.107,0,0,1,18.34,26a5.988,5.988,0,0,1,4.81-7.93v-.01A14,14,0,0,1,47.79,7.08Z" fill="#ffeaa7"/>
      <path id="Trazado_1238023" data-name="Trazado 1238023" d="M23,57H33v2H23Z"/>
      <path id="Trazado_1238024" data-name="Trazado 1238024" d="M35,57h2v2H35Z"/>
      <path id="Trazado_1238025" data-name="Trazado 1238025" d="M19,57h2v2H19Z"/>
      <path id="Trazado_1238026" data-name="Trazado 1238026" d="M58.862,17.615A9.7,9.7,0,0,0,59,16,10.011,10.011,0,0,0,49,6c-.272,0-.538.024-.806.046A14.981,14.981,0,0,0,22,16c0,.427.023.854.059,1.28A7.022,7.022,0,0,0,17.685,21H8a5.006,5.006,0,0,0-5,5V53H1v5a5.006,5.006,0,0,0,5,5H50a5.006,5.006,0,0,0,5-5V53H53V31h3a7,7,0,0,0,2.862-13.385ZM24,31H47V49H9V27h8.685A7,7,0,0,0,24,31ZM53,58a3,3,0,0,1-3,3H6a3,3,0,0,1-3-3V55H53Zm-2-5H5V26a3,3,0,0,1,3-3h9.08a6.29,6.29,0,0,0,0,2H9a2,2,0,0,0-2,2V49a2,2,0,0,0,2,2H47a2,2,0,0,0,2-2V31h2Zm5-24H24a5,5,0,1,1,2.5-9.332l1-1.73A6.99,6.99,0,0,0,24.04,17c-.026-.334-.04-.669-.04-1A12.989,12.989,0,0,1,45.871,6.511a10.1,10.1,0,0,0-1.316.529l.89,1.791A7.926,7.926,0,0,1,49,8a7.969,7.969,0,0,1,7.737,10l-.241.935.925.274A5,5,0,0,1,56,29Z"/>
      <path id="Trazado_1238027" data-name="Trazado 1238027" d="M34.293,15.293l-1.1,1.1A7,7,0,0,1,46.063,14.5l1.731-1a8.993,8.993,0,0,0-16.688,3.194l-1.4-1.4-1.414,1.414L32,20.414l3.707-3.707Z"/>
      <path id="Trazado_1238028" data-name="Trazado 1238028" d="M44.293,19.293l1.414,1.414,1.1-1.1A7,7,0,0,1,33.937,21.5l-1.73,1a8.993,8.993,0,0,0,16.687-3.195l1.4,1.4,1.414-1.414L48,15.586Z"/>
      <path id="Trazado_1238029" data-name="Trazado 1238029" d="M30,25h2v2H30Z"/>
      <path id="Trazado_1238030" data-name="Trazado 1238030" d="M23,24H21a3,3,0,0,0,3,3h4V25H24A1,1,0,0,1,23,24Z"/>
      <path id="Trazado_1238031" data-name="Trazado 1238031" d="M33,37H29V35H25V33H21V31H17V29H11V47H33Zm-6,0v8H25V37Zm-4-2V45H21V35ZM15,45H13V31h2Zm2-12h2V45H17ZM31,45H29V39h2Z"/>
      <path id="Trazado_1238032" data-name="Trazado 1238032" d="M35,33H45v2H35Z"/>
      <path id="Trazado_1238033" data-name="Trazado 1238033" d="M35,37H45v2H35Z"/>
      <path id="Trazado_1238034" data-name="Trazado 1238034" d="M35,41H45v2H35Z"/>
      <path id="Trazado_1238035" data-name="Trazado 1238035" d="M35,45H45v2H35Z"/>
      <path id="Trazado_1238036" data-name="Trazado 1238036" d="M37,7V5a11.068,11.068,0,0,0-2.2.22l.4,1.96A9.1,9.1,0,0,1,37,7Z"/>
      <path id="Trazado_1238037" data-name="Trazado 1238037" d="M34.3,7.412,33.7,5.5a11,11,0,0,0-7.2,7.2l1.908.6A9,9,0,0,1,34.3,7.412Z"/>
    </g>
  </g>
</svg>
